<svg width="27" height="29" viewBox="0 0 27 29" fill="none" xmlns="http://www.w3.org/2000/svg">
<path d="M15.675 14.5L26.698 1.36064C26.8828 1.14229 26.7274 0.810547 26.4418 0.810547H23.0909C22.8935 0.810547 22.7045 0.89873 22.5744 1.0499L13.4831 11.8881L4.39174 1.0499C4.26577 0.89873 4.0768 0.810547 3.87524 0.810547H0.524262C0.238716 0.810547 0.0833442 1.14229 0.26811 1.36064L11.2911 14.5L0.26811 27.6394C0.226721 27.688 0.200168 27.7476 0.191603 27.8109C0.183038 27.8742 0.192821 27.9386 0.219791 27.9965C0.246761 28.0545 0.289785 28.1034 0.343755 28.1376C0.397724 28.1718 0.460373 28.1898 0.524262 28.1895H3.87524C4.0726 28.1895 4.26157 28.1013 4.39174 27.9501L13.4831 17.1119L22.5744 27.9501C22.7003 28.1013 22.8893 28.1895 23.0909 28.1895H26.4418C26.7274 28.1895 26.8828 27.8577 26.698 27.6394L15.675 14.5Z" fill="white"/>
</svg>
