<svg width="30" height="30" viewBox="0 0 30 30" fill="none" xmlns="http://www.w3.org/2000/svg">
<path d="M24.375 9.14062H20.3906V8.67188C20.3906 5.69531 17.9766 3.28125 15 3.28125C12.0234 3.28125 9.60938 5.69531 9.60938 8.67188V9.14062H5.625C5.10645 9.14062 4.6875 9.55957 4.6875 10.0781V25.7812C4.6875 26.2998 5.10645 26.7188 5.625 26.7188H24.375C24.8936 26.7188 25.3125 26.2998 25.3125 25.7812V10.0781C25.3125 9.55957 24.8936 9.14062 24.375 9.14062ZM11.7188 8.67188C11.7188 6.8584 13.1865 5.39062 15 5.39062C16.8135 5.39062 18.2812 6.8584 18.2812 8.67188V9.14062H11.7188V8.67188ZM23.2031 24.6094H6.79688V11.25H9.60938V13.8281C9.60938 13.957 9.71484 14.0625 9.84375 14.0625H11.4844C11.6133 14.0625 11.7188 13.957 11.7188 13.8281V11.25H18.2812V13.8281C18.2812 13.957 18.3867 14.0625 18.5156 14.0625H20.1562C20.2852 14.0625 20.3906 13.957 20.3906 13.8281V11.25H23.2031V24.6094Z" fill="white"/>
</svg>
