<svg width="135" height="45" viewBox="0 0 135 45" fill="none" xmlns="http://www.w3.org/2000/svg">
<path d="M32.7376 0.00647747C32.8635 0.0342352 32.9877 0.0684719 33.1145 0.0897528C34.5705 0.327544 35.6858 1.11678 36.5511 2.30666C36.9479 2.85349 37.2605 3.44843 37.4897 4.08963C37.5704 4.3154 37.5486 4.48565 37.362 4.64757C37.236 4.75675 37.1427 4.90571 37.0385 5.03895C36.9389 5.16663 36.9678 5.27767 37.0766 5.39147C37.2224 5.54414 37.3692 5.6857 37.593 5.70143C37.8349 5.71901 37.9681 5.85317 37.9736 6.10207C37.9835 6.5684 37.9871 7.03473 37.9917 7.50106C37.9926 7.62134 37.9246 7.69999 37.8213 7.73977C37.6211 7.81657 37.4218 7.89892 37.2161 7.95351C36.9189 8.03215 36.8464 8.07934 36.8274 8.3856C36.7975 8.88894 36.7586 9.39598 36.7866 9.89747C36.8084 10.2953 37.0267 10.6321 37.3031 10.9171C37.342 10.9578 37.3928 10.9865 37.4326 11.0263C37.554 11.1493 37.554 11.2169 37.4163 11.3298C37.3303 11.401 37.2333 11.4686 37.1309 11.5056C36.6634 11.6758 36.1923 11.8211 35.684 11.797C35.3669 11.7822 35.0489 11.7979 34.7309 11.7961C34.4536 11.7942 34.402 11.7508 34.3947 11.4649C34.3802 10.8829 34.3739 10.3009 34.373 9.7189C34.3703 8.69834 34.3821 7.67685 34.3721 6.6563C34.3666 6.06968 34.2543 5.4988 34.0187 4.96123C33.7723 4.39867 33.3754 3.99896 32.7693 3.87128C31.7727 3.66309 31.066 3.99896 30.6501 4.86963C30.3131 5.5756 30.1282 6.31395 30.131 7.10227C30.1373 8.93428 30.1373 10.7654 30.1409 12.5974C30.1409 12.6834 30.1445 12.7695 30.1427 12.8546C30.1364 13.0748 30.1119 13.1035 29.9017 13.1127C29.7341 13.1192 29.5647 13.1238 29.3971 13.1137C29.1062 13.097 28.9721 13.3172 28.8172 13.5032C28.7955 13.5291 28.7946 13.6068 28.8163 13.6337C28.9441 13.7956 29.0627 13.9769 29.3028 13.9751C29.4994 13.9742 29.6951 13.9751 29.8917 13.976C30.2632 13.9778 30.2632 13.9797 30.362 14.3535C30.4644 14.7403 30.5577 15.1289 30.6737 15.511C30.9391 16.3872 31.2889 17.2292 31.6875 18.0508C31.7953 18.272 31.924 18.4829 32.0526 18.693C32.5564 19.5183 33.0611 20.3427 33.5721 21.1643C33.6762 21.3327 33.756 21.4835 33.659 21.6908C33.601 21.8157 33.6337 21.9499 33.7433 22.0563C33.8647 22.1728 33.9671 22.0563 34.1102 22.0239C34.2452 22.2432 34.3902 22.4625 34.517 22.6919C34.5478 22.7484 34.5451 22.8437 34.5216 22.9075C34.4636 23.062 34.5189 23.1656 34.633 23.2545C34.6919 23.3007 34.7481 23.3544 34.8133 23.3905C35.0706 23.5311 35.2283 23.7643 35.3905 23.9993C36.697 25.8998 37.4716 28.0158 37.8431 30.2957C37.9971 31.2394 38.0542 32.1897 38.0533 33.1455C38.0524 34.6435 38.0497 36.1414 38.0542 37.6385C38.0578 38.8663 37.8567 40.0497 37.333 41.1628C36.9787 41.9169 36.5402 42.6192 35.9377 43.1882C34.2751 44.7574 32.3652 45.1608 30.2342 44.3661C29.427 44.0653 28.7737 43.5241 28.2265 42.8533C27.1066 41.4793 26.4887 39.8998 26.4606 38.1076C26.4343 36.3626 26.4525 34.6157 26.4516 32.8697C26.4516 32.8226 26.4588 32.7763 26.4624 32.7309C26.6627 32.6727 29.7078 32.6542 30.1328 32.7115C30.1328 32.8179 30.1328 32.929 30.1328 33.0409C30.1328 34.5963 30.1319 36.1507 30.1337 37.7061C30.1346 38.289 30.1563 38.87 30.323 39.4335C30.3738 39.6065 30.4372 39.7768 30.5079 39.9415C31.0587 41.2174 32.849 41.421 33.6518 40.2699C34.0196 39.7425 34.2189 39.1559 34.3068 38.5258C34.3476 38.2344 34.3603 37.9364 34.3612 37.6422C34.3666 36.2395 34.3377 34.8368 34.3694 33.4351C34.4274 30.8518 33.7433 28.4803 32.4848 26.2643C32.1895 25.7453 31.8615 25.2456 31.5416 24.7414C30.6882 23.397 29.8446 22.0452 28.9721 20.7137C28.2283 19.5784 27.6801 18.3525 27.2579 17.0636C26.717 15.4129 26.4488 13.7169 26.4497 11.9756C26.4516 10.3157 26.4506 8.65577 26.4497 6.99586C26.4497 4.86962 27.1827 3.04594 28.6387 1.5313C29.4442 0.693016 30.4281 0.20263 31.5733 0.0564393C31.6458 0.0471867 31.7156 0.0194304 31.7863 0C32.1025 0.0064768 32.4196 0.00647747 32.7376 0.00647747ZM32.8083 20.4935C32.6724 20.4796 32.5899 20.5425 32.5745 20.6721C32.5591 20.8053 32.6461 20.9256 32.7684 20.9376C32.9025 20.9506 33.0837 20.8386 33.1027 20.7313C33.1227 20.6166 32.9931 20.512 32.8083 20.4935ZM36.2403 7.4659C36.2086 7.4918 36.1189 7.53252 36.0854 7.60098C36.0428 7.68703 36.1887 7.82397 36.3146 7.83507C36.4351 7.84525 36.5955 7.7481 36.6054 7.6602C36.6145 7.56768 36.4831 7.48718 36.2403 7.4659ZM31.6603 18.3099C31.5815 18.2784 31.5353 18.2461 31.4909 18.2479C31.4683 18.2488 31.4492 18.3136 31.4284 18.3497C31.4646 18.3701 31.5018 18.4089 31.5362 18.4061C31.5697 18.4034 31.6005 18.3589 31.6603 18.3099Z" fill="white"/>
<path d="M58.9931 0.394043C59.1037 0.40237 59.2151 0.418101 59.3256 0.418101C61.1196 0.419951 62.9126 0.419952 64.7065 0.419027C65.4033 0.419027 66.0846 0.506925 66.7388 0.765072C67.7363 1.15923 68.5218 1.83281 69.1488 2.70348C70.1491 4.09321 70.6456 5.65598 70.6356 7.38158C70.6302 8.46876 70.6102 9.55593 70.5967 10.6431C70.5957 10.719 70.5921 10.7958 70.583 10.8716C70.5513 11.1187 70.4191 11.2066 70.1908 11.1085C70.0114 11.0308 69.8356 10.9346 69.6752 10.8217C69.3826 10.6163 69.1044 10.6255 68.8217 10.8291C68.7918 10.8513 68.7529 10.8624 68.7248 10.8864C68.4946 11.0835 68.2219 11.1677 67.9311 11.2158C67.6702 11.2584 67.5841 11.338 67.5687 11.6044C67.5406 12.1078 67.5053 12.6139 67.527 13.1163C67.546 13.5623 67.787 13.925 68.1023 14.2257C68.3008 14.4145 68.3107 14.482 68.096 14.6393C67.8233 14.8391 67.4953 14.8919 67.18 14.9733C67.0731 15.0011 67.0015 14.9317 66.9843 14.8197C66.9743 14.754 66.9698 14.6865 66.9698 14.6199C66.9725 13.6086 66.9752 12.5972 66.9807 11.5859C66.9807 11.5101 66.9988 11.4342 67.0015 11.3583C67.007 11.2112 67.0622 11.1076 67.2045 11.0493C67.2661 11.0243 67.3123 10.9595 67.3938 10.8864C67.3023 10.8281 67.2471 10.7773 67.1827 10.7551C67.0559 10.7125 67.0088 10.619 66.9952 10.4978C66.9834 10.3942 66.9752 10.2887 66.9743 10.1842C66.9671 9.23024 66.9616 8.2763 66.958 7.32236C66.9562 6.81532 66.9272 6.30827 66.7832 5.82159C66.6953 5.52366 66.5766 5.22666 66.4198 4.96018C66.1435 4.49015 65.7077 4.20609 65.1786 4.18018C64.3786 4.14225 63.5758 4.17001 62.7323 4.17001C62.7296 9.64568 62.7296 15.1158 62.7296 20.6257C62.8465 20.6257 62.9461 20.6248 63.0449 20.6257C63.6519 20.6331 64.259 20.6368 64.866 20.6525C65.1414 20.659 65.1904 20.7117 65.2021 20.9921C65.2148 21.278 65.2076 21.5648 65.213 21.8507C65.2212 22.2828 65.3118 22.3809 65.7295 22.4383C65.9886 22.4734 66.2359 22.5132 66.4353 22.7344C66.5313 22.8398 66.7152 22.8815 66.8674 22.9102C67.0414 22.9425 67.1574 22.788 67.0876 22.6196C67.0314 22.4827 66.9272 22.3661 66.8502 22.2375C66.7741 22.1098 66.6853 21.9849 66.6382 21.8452C66.5838 21.6833 66.6427 21.5389 66.7551 21.4001C66.9689 21.1364 67.1556 20.8515 67.3603 20.5804C67.4654 20.4416 67.4427 20.3231 67.3449 20.1936C67.1737 19.9669 66.9888 19.7735 66.6763 19.7948C66.6418 19.7976 66.6056 19.7782 66.5539 19.7643C66.5639 19.7032 66.5657 19.6477 66.582 19.5977C66.6708 19.3266 66.7687 19.0592 66.8529 18.7863C66.8955 18.6484 66.968 18.6068 67.1039 18.6364C67.4228 18.7058 67.7445 18.7632 68.0634 18.8335C68.3053 18.8871 68.5454 19.1832 68.5762 19.4423C68.6079 19.7069 68.6396 19.9715 68.6786 20.2352C68.7257 20.5507 68.9875 20.6979 69.1932 20.8838C69.2204 20.9079 69.3491 20.87 69.379 20.8256C69.4995 20.646 69.6272 20.4629 69.6997 20.2621C69.7993 19.9863 69.8501 19.6921 69.9235 19.4062C70.0114 19.0629 70.2125 18.7955 70.4897 18.518C70.4979 18.6197 70.5133 18.6808 70.5051 18.7382C70.2397 20.5026 69.4587 21.9923 68.1522 23.1711C67.2443 23.9899 66.1607 24.3869 64.9385 24.3674C64.3034 24.3573 63.6682 24.3665 63.0331 24.3684C62.9416 24.3684 62.8501 24.3832 62.7323 24.3924C62.7323 31.1107 62.7323 37.8114 62.7323 44.5417C62.5955 44.5482 62.4868 44.5565 62.3771 44.5565C61.3588 44.5574 60.3404 44.5565 59.322 44.5584C59.2115 44.5584 59.1009 44.576 58.9895 44.5852C58.9931 29.857 58.9931 15.1251 58.9931 0.394043ZM69.9679 8.43729C69.9516 8.35864 69.9425 8.30221 69.9289 8.24669C69.8655 7.9978 69.7894 7.7526 69.7405 7.50093C69.6952 7.26777 69.5447 7.11972 69.3898 6.96706C69.2901 6.86898 69.1878 6.87083 69.0908 6.95595C68.617 7.36769 68.1775 7.81552 67.7744 8.29943C67.6792 8.41323 67.7046 8.52057 67.8043 8.62697C67.9547 8.78797 68.1105 8.92397 68.3361 8.96931C68.5735 9.0165 68.8082 9.08127 69.0383 9.15714C69.224 9.21821 69.3681 9.15991 69.4976 9.03778C69.6888 8.86013 69.8927 8.68989 69.9679 8.43729ZM60.4999 17.2291C60.4999 17.2291 60.4999 17.23 60.4999 17.2291C60.6394 17.23 60.7789 17.2226 60.9184 17.2319C61.144 17.2476 61.2854 17.1162 61.4013 16.9496C61.4349 16.9025 61.4584 16.8109 61.4358 16.7665C61.3434 16.5879 61.2201 16.4047 61.0145 16.3862C60.682 16.3575 60.3458 16.3695 60.0115 16.3806C59.8638 16.3852 59.5965 16.6471 59.5685 16.7785C59.544 16.8932 59.6699 17.0875 59.8403 17.1754C59.9037 17.2087 59.9816 17.2235 60.0532 17.2272C60.2018 17.2346 60.3504 17.2291 60.4999 17.2291ZM64.5833 23.1979C64.712 23.085 64.8497 22.9749 64.9756 22.8519C65.0563 22.7723 65.0336 22.6816 64.9367 22.6132C64.7872 22.5086 64.567 22.5363 64.4538 22.6751C64.326 22.8324 64.3632 23.0045 64.5833 23.1979ZM63.8322 23.9723C63.8268 23.865 63.6773 23.7521 63.5459 23.7586C63.4173 23.7642 63.2968 23.8733 63.3022 23.9797C63.3076 24.0917 63.4327 24.2 63.5523 24.1963C63.6864 24.1916 63.8367 24.0714 63.8322 23.9723ZM62.3744 21.588C62.3119 21.5482 62.2729 21.5149 62.2285 21.501C62.2159 21.4973 62.1624 21.562 62.1688 21.5741C62.1914 21.6176 62.2304 21.6527 62.2639 21.6907C62.2929 21.6629 62.3228 21.6351 62.3744 21.588Z" fill="white"/>
<path d="M0 32.6948C1.2313 32.6948 2.46351 32.6948 3.72379 32.6948C3.72923 32.8317 3.73647 32.9427 3.73647 33.0547C3.73737 34.6286 3.73919 36.2024 3.73647 37.7763C3.73556 38.324 3.79537 38.8607 3.97658 39.3788C4.0998 39.7313 4.27013 40.057 4.49211 40.3568C5.25498 41.3848 6.90214 41.1923 7.4811 40.1551C7.71667 39.7323 7.84712 39.278 7.90058 38.8024C7.93954 38.4526 7.95677 38.0992 7.9613 37.7467C7.97308 36.8788 7.97126 36.0109 7.97488 35.143C7.97579 34.9098 8.00115 34.6961 8.19776 34.5249C8.34091 34.4 8.34907 34.1881 8.20592 34.0345C7.99572 33.8088 7.97398 33.5442 7.9776 33.2647C7.98666 32.4357 8.00296 31.6067 8.0093 30.7767C8.01111 30.5297 7.97941 30.2817 7.97851 30.0347C7.97488 29.3666 7.9776 28.6995 7.98123 28.0315C7.98213 27.9306 8.00115 27.8307 8.01655 27.6836C8.11259 27.7585 8.17149 27.7992 8.22495 27.8464C8.36538 27.9713 8.50673 28.0963 8.64263 28.2267C8.73052 28.3109 8.82746 28.3942 8.89089 28.496C9.11468 28.8577 9.41457 29.1353 9.75161 29.3833C9.90926 29.4989 10.0497 29.6442 10.1802 29.7913C10.3759 30.0106 10.6132 30.1438 10.8859 30.2354C11.0644 30.2956 11.213 30.2799 11.3544 30.1559C11.4106 30.1068 11.4712 30.0633 11.5709 29.9865C11.5945 30.1096 11.6244 30.2049 11.6298 30.3011C11.6416 30.5204 11.6452 30.7397 11.6461 30.959C11.6488 33.2768 11.6588 35.5945 11.6488 37.9123C11.6416 39.5898 11.1849 41.1294 10.1965 42.484C9.39916 43.5767 8.37988 44.3585 7.05164 44.6204C4.91341 45.0423 3.09229 44.4751 1.70334 42.7023C0.807277 41.5587 0.26727 40.2578 0.104185 38.7978C0.0896881 38.6692 0.0362421 38.5461 0.000906915 38.4203C8.84815e-07 36.5105 0 34.6026 0 32.6948ZM9.52329 30.624C9.49702 30.5149 9.48705 30.4288 9.45625 30.3502C9.34662 30.0735 8.90446 29.8552 8.69426 30.0004C8.50581 30.13 8.3391 30.303 8.19504 30.4843C8.07091 30.6398 8.09357 30.835 8.22041 30.9812C8.34272 31.1228 8.48045 31.2514 8.61726 31.3809C8.71874 31.4762 8.8356 31.4947 8.94342 31.3966C9.10288 31.2523 9.26779 31.1107 9.40369 30.9451C9.47436 30.8572 9.48886 30.7212 9.52329 30.624Z" fill="white"/>
<path d="M84.9808 0.439461C86.1858 0.439461 87.3582 0.439461 88.5623 0.439461C89.9893 8.19589 91.4145 15.9486 92.8406 23.7004C92.8578 23.7013 92.8741 23.7023 92.8913 23.7032C92.895 23.656 92.9013 23.6097 92.9022 23.5625C92.904 23.5052 92.9031 23.4478 92.9031 23.3904C92.9031 18.6198 92.9022 13.8492 92.9049 9.07951C92.9049 8.38279 92.9249 7.68699 92.9267 6.99027C92.9267 6.79504 92.9557 6.6507 93.1541 6.5517C93.3326 6.46287 93.3244 6.32872 93.1405 6.24267C92.962 6.15939 92.9285 6.03448 92.9276 5.85683C92.9221 4.39678 92.9113 2.93765 92.9031 1.4776C92.9013 1.20094 92.9022 0.924295 92.904 0.647643C92.9049 0.582876 92.9149 0.518102 92.9212 0.445006C92.9756 0.435754 93.02 0.421875 93.0653 0.421875C93.9152 0.430202 94.765 0.44501 95.6149 0.448711C95.8377 0.449636 96.0099 0.503297 96.1213 0.721657C96.1712 0.818809 96.2554 0.918738 96.3487 0.965926C96.5127 1.0492 96.5481 1.17689 96.5472 1.33881C96.5454 1.64137 96.5472 1.94485 96.5472 2.24464C96.1476 2.23816 95.787 2.22428 95.4264 2.22705C95.0232 2.22983 94.6472 2.61937 94.6427 3.03296C94.6391 3.42434 94.6418 3.81572 94.6472 4.20618C94.6481 4.30055 94.6617 4.39678 94.6825 4.48931C94.7387 4.74006 94.8284 4.81963 95.0812 4.85756C95.2198 4.87884 95.3603 4.89272 95.4953 4.92695C95.5832 4.94916 95.6846 4.98339 95.7426 5.04816C95.9474 5.2767 96.2056 5.3572 96.5336 5.3646C96.6033 6.37683 96.6079 7.37795 96.5372 8.38001C96.1232 8.33004 95.7444 8.28655 95.3666 8.23937C95.1818 8.21624 95.0115 8.25048 94.862 8.36336C94.6635 8.51325 94.6463 8.7899 94.8293 8.95737C94.9997 9.11281 95.1872 9.22477 95.4327 9.21274C95.7852 9.19608 96.1386 9.19794 96.5155 9.19146C96.5236 9.22754 96.5454 9.28861 96.549 9.3506C96.5644 9.61707 96.5834 9.88448 96.5834 10.1509C96.5852 16.0661 96.5852 21.9813 96.5834 27.8964C96.5834 28.1824 96.5698 28.4683 96.5517 28.7542C96.5336 29.053 96.5155 29.065 96.211 29.0687C96.0144 29.0715 95.8187 29.078 95.6221 29.0678C95.3684 29.0549 95.2352 29.2307 95.102 29.4018C95.0767 29.4342 95.0785 29.524 95.1039 29.5564C95.2651 29.7525 95.4183 29.9625 95.72 29.9339C95.9057 29.9163 96.0932 29.9265 96.2799 29.9329C96.5082 29.9403 96.53 29.9607 96.549 30.2013C96.5662 30.4104 96.5807 30.6204 96.5807 30.8295C96.5843 35.3133 96.5861 39.798 96.587 44.2818C96.587 44.3577 96.5807 44.4326 96.5743 44.5492C95.3956 44.5622 94.2241 44.5723 93.0182 44.5344C92.5036 41.9557 92.0551 39.3779 91.5758 36.8067C91.0938 34.2224 90.6272 31.6354 90.1506 29.0493C89.6767 26.4762 89.2002 23.904 88.7254 21.3308C88.7055 21.3327 88.6864 21.3345 88.6665 21.3364C88.6665 29.0623 88.6665 36.7882 88.6665 44.5215C88.5859 44.5372 88.5324 44.5566 88.4808 44.5557C87.4443 44.5289 86.4078 44.5048 85.3722 44.4687C85.0442 44.4576 85.0161 44.4262 85.0143 44.0968C85.008 42.9328 85.0152 41.7688 85.0116 40.6058C85.0098 39.9858 84.9853 39.3659 84.9853 38.746C84.9844 31.0469 84.9862 23.347 84.9862 15.6479C84.9862 10.7154 84.9835 5.78281 84.9817 0.850269C84.9808 0.721659 84.9808 0.590278 84.9808 0.439461ZM87.4035 40.3199C87.4244 39.9988 87.0438 39.5982 86.6968 39.6102C86.4187 39.6194 86.1423 39.6842 85.8642 39.7083C85.6096 39.7305 85.441 39.8905 85.2689 40.0515C85.1683 40.145 85.1629 40.2523 85.2589 40.3513C85.3776 40.4725 85.4918 40.6021 85.6277 40.6992C85.8759 40.8759 86.0843 41.0851 86.2782 41.3219C86.4014 41.4727 86.5672 41.5875 86.7204 41.7105C86.8037 41.7771 86.8925 41.7633 86.9741 41.6892C87.138 41.5412 87.2767 41.3811 87.3002 41.1433C87.3292 40.8667 87.3691 40.5937 87.4035 40.3199ZM94.1879 4.976C94.0012 4.97692 93.8979 5.04909 93.8363 5.17862C93.7811 5.29335 93.8273 5.4784 93.9251 5.57186C93.9904 5.63385 94.0538 5.64033 94.119 5.57278C94.2105 5.47841 94.3047 5.38773 94.3935 5.2915C94.4841 5.19342 94.4733 5.10182 94.3582 5.03706C94.2957 5.00097 94.2205 4.9871 94.1879 4.976ZM94.0085 7.19845C93.7811 7.37888 93.7421 7.61112 93.9251 7.73418C93.9822 7.77212 94.0882 7.78045 94.1498 7.75177C94.1969 7.72956 94.2413 7.62315 94.2304 7.56486C94.206 7.41775 94.1571 7.27062 94.0085 7.19845ZM87.1081 6.31762C87.0882 6.31947 87.0674 6.32131 87.0474 6.32316C87.0502 6.36295 87.0529 6.40367 87.0556 6.44345C87.0701 6.44345 87.0855 6.44345 87.1 6.44345C87.1027 6.40182 87.1054 6.35925 87.1081 6.31762ZM93.2166 36.6299C93.2066 36.6161 93.1967 36.6031 93.1867 36.5892C93.1758 36.6096 93.1622 36.629 93.1559 36.6503C93.155 36.6549 93.1804 36.667 93.193 36.6762C93.2012 36.6605 93.2093 36.6447 93.2166 36.6299Z" fill="white"/>
<path d="M16.9835 0.368013C16.9835 0.504026 16.9835 0.608578 16.9835 0.713132C16.9799 6.32296 16.9736 11.9337 16.9736 17.5435C16.9736 24.2794 16.9808 31.0153 16.9835 37.7511C16.9835 38.347 17.0388 38.9373 17.2671 39.4888C17.3967 39.8015 17.558 40.1105 17.7546 40.3835C18.4939 41.4105 20.0903 41.1949 20.6756 40.266C20.9284 39.8644 21.0806 39.4249 21.1313 38.9567C21.1821 38.4932 21.2111 38.025 21.212 37.5587C21.2165 27.1116 21.2156 16.6636 21.2156 6.21655C21.2156 4.38455 21.2156 2.55254 21.2156 0.720535C21.2156 0.608579 21.2156 0.495696 21.2156 0.366161C22.4478 0.366161 23.6492 0.366161 24.8687 0.366161C24.8787 0.424452 24.8932 0.486442 24.8977 0.549359C24.9032 0.62523 24.8995 0.70203 24.8995 0.777901C24.8995 13.0764 24.8977 25.3749 24.9023 37.6725C24.9023 38.7523 24.7673 39.8024 24.3795 40.811C23.9328 41.9721 23.256 42.9613 22.263 43.7061C21.1848 44.5148 19.9734 44.8303 18.6461 44.7322C17.0859 44.6175 15.8619 43.8828 14.9115 42.6374C13.8514 41.2495 13.3078 39.671 13.3023 37.9168C13.2924 34.3962 13.3078 30.8756 13.3114 27.355C13.3132 25.7996 13.3105 24.2442 13.3096 22.6898C13.3096 22.5751 13.3123 22.4613 13.3123 22.3465C13.3132 22.1236 13.3413 21.9339 13.6195 21.8895C13.7191 21.8737 13.8115 21.7766 13.8967 21.7035C14.2464 21.4056 14.2664 21.14 13.9529 20.8088C13.8179 20.6663 13.6648 20.5367 13.5035 20.4257C13.4002 20.3545 13.3368 20.2795 13.3295 20.1546C13.3241 20.0686 13.3141 19.9834 13.3141 19.8974C13.3105 18.1801 13.3078 16.4628 13.3051 14.7456C13.3023 12.7803 13.2987 10.8151 13.2978 8.84983C13.2969 6.13976 13.2978 3.43061 13.2978 0.720535C13.2978 0.607654 13.2978 0.495695 13.2978 0.365234C14.5327 0.36801 15.7414 0.368013 16.9835 0.368013ZM15.3282 23.5966C15.2965 23.4902 15.2956 23.4087 15.2558 23.368C15.0791 23.1867 14.8942 23.0146 14.7058 22.8471C14.6705 22.8166 14.5943 22.8055 14.5481 22.8212C14.2673 22.9128 14.0471 23.1006 13.9456 23.3764C13.8623 23.603 13.9964 23.7973 14.164 23.9528C14.212 23.9972 14.2564 24.0472 14.3035 24.0934C14.5898 24.3729 14.6623 24.3775 14.9649 24.123C15.022 24.0749 15.0782 24.0213 15.1189 23.9583C15.1978 23.8344 15.2666 23.7039 15.3282 23.5966Z" fill="white"/>
<path d="M104.976 19.6453C104.834 19.5019 104.707 19.5472 104.593 19.6509C104.433 19.7961 104.28 19.9469 104.126 20.0968C103.985 20.2347 103.841 20.3707 103.707 20.5178C103.562 20.677 103.426 20.8444 103.291 21.0128C103.233 21.085 103.217 21.172 103.281 21.2497C103.4 21.3959 103.517 21.5458 103.716 21.5911C103.889 21.6309 104.062 21.6744 104.231 21.7271C104.415 21.7836 104.448 21.8132 104.394 21.9871C104.272 22.3868 104.322 22.7699 104.43 23.1613C104.502 23.425 104.481 23.4241 104.26 23.5665C104.013 23.7257 103.759 23.8524 103.458 23.8774C103.255 23.8941 103.129 24.0209 103.117 24.2318C103.085 24.7731 103.048 25.3171 103.069 25.8584C103.081 26.1933 103.262 26.4913 103.488 26.7439C103.588 26.8549 103.695 26.9604 103.801 27.0723C103.725 27.2592 103.598 27.3619 103.436 27.423C102.987 27.5923 102.539 27.7311 102.046 27.7098C101.656 27.6923 101.263 27.7348 100.873 27.7617C100.602 27.7802 100.496 27.9014 100.475 28.1808C100.471 28.228 100.472 28.2761 100.472 28.3242C100.476 28.7212 100.584 28.847 100.97 28.8461C101.269 28.8451 101.535 28.9599 101.809 29.0487C101.92 29.0848 101.981 29.1569 101.99 29.2754C101.997 29.3707 102.014 29.4651 102.014 29.5604C102.02 30.2848 102.023 31.0093 102.025 31.7338C102.025 31.905 102.024 32.078 102.006 32.2482C101.982 32.4684 101.96 32.4795 101.745 32.4851C101.671 32.4869 101.593 32.5101 101.522 32.4953C101.326 32.4527 101.171 32.5249 101.042 32.6618C100.88 32.8339 100.715 33.0106 100.709 33.2716C100.704 33.5482 100.702 33.8249 100.709 34.1015C100.715 34.2912 100.74 34.4809 100.756 34.6705C100.777 34.9342 100.867 35.0462 101.122 35.1026C101.268 35.135 101.419 35.1397 101.564 35.173C101.903 35.2498 101.978 35.3108 101.988 35.6661C102.011 36.5137 102.017 37.363 102.014 38.2115C102.013 38.49 101.939 38.5381 101.663 38.5178C101.56 38.5104 101.46 38.4817 101.358 38.4743C101.059 38.4548 100.809 38.6547 100.782 38.935C100.777 38.9887 100.778 39.0674 100.81 39.0951C100.996 39.2607 101.16 39.4726 101.449 39.4513C101.551 39.4439 101.654 39.4504 101.757 39.4486C101.903 39.4449 101.986 39.5115 102.001 39.6623C102.009 39.7474 102.022 39.8335 102.023 39.9186C102.029 41.4166 102.033 42.9137 102.037 44.4116C102.037 44.4487 102.028 44.4866 102.02 44.544C100.808 44.544 99.5987 44.544 98.3511 44.544C98.3511 43.4808 98.3502 42.426 98.3511 41.3713C98.352 40.3128 98.3529 39.2533 98.3547 38.1948C98.3565 37.1364 98.3629 36.0769 98.362 35.0184C98.361 33.9599 98.3529 32.9005 98.3511 31.842C98.3493 30.7835 98.352 29.7241 98.352 28.6656C98.352 27.6071 98.3511 26.5477 98.3511 25.4892C98.3511 24.4206 98.3529 23.3519 98.3529 22.2841C98.3529 21.2256 98.3511 20.1662 98.3511 19.1077C98.3511 18.0492 98.3511 16.9898 98.3511 15.9313C98.3511 14.8728 98.3502 13.8134 98.3511 12.7549C98.352 11.6964 98.3538 10.637 98.3556 9.57853C98.3574 8.52003 98.3266 7.46061 98.3701 6.40397C98.4136 5.34917 98.3031 4.29346 98.3928 3.2507C98.4453 3.23774 98.468 3.22386 98.4788 3.23033C98.7262 3.38115 98.7651 3.38485 98.9237 3.14244C99.0306 2.97867 99.1158 2.79454 99.1774 2.60764C99.2571 2.36429 99.3079 2.11078 99.3649 1.85911C99.4166 1.62964 99.5199 1.42701 99.6748 1.25769C99.885 1.02823 100.104 0.806168 100.328 0.589658C100.385 0.535068 100.472 0.485101 100.547 0.482325C101.014 0.464745 101.481 0.460125 101.947 0.453648C101.963 0.453648 101.98 0.469375 102.037 0.497132C102.003 5.76277 102.062 11.0478 102.034 16.3329C102.054 16.3357 102.074 16.3384 102.095 16.3403C102.136 16.1886 102.18 16.0368 102.22 15.8841C102.931 13.1787 103.641 10.4732 104.354 7.76779C104.397 7.60217 104.459 7.44118 104.494 7.27371C104.539 7.0646 104.664 6.96838 104.865 6.95357C104.893 6.95172 104.92 6.94062 104.947 6.93877C105.2 6.92581 105.332 6.80091 105.372 6.53721C105.388 6.42803 105.479 6.31607 105.563 6.23557C105.81 5.99963 105.956 5.70818 106.072 5.39174C106.125 5.2474 106.102 5.14007 105.995 5.03181C105.86 4.89488 105.716 4.78754 105.535 4.71723C105.236 4.60064 105.206 4.54328 105.288 4.21851C105.482 3.44315 105.687 2.67056 105.888 1.89705C105.992 1.50104 106.095 1.10594 106.199 0.709934C106.221 0.629437 106.247 0.549865 106.272 0.466592C106.331 0.45919 106.378 0.449017 106.423 0.449017C107.198 0.453643 107.973 0.45734 108.749 0.467518C108.877 0.469368 109.006 0.506382 109.136 0.517485C109.206 0.523037 109.28 0.508229 109.351 0.502678C109.581 0.483248 109.811 0.464743 110.042 0.445312C110.045 0.789508 105.177 19.2484 104.976 19.6453ZM100.288 35.21C100.113 35.2044 99.9692 35.3062 99.9194 35.4376C99.8777 35.5477 99.9339 35.7559 100.025 35.829C100.097 35.8863 100.163 35.8706 100.223 35.8086C100.314 35.7133 100.404 35.618 100.492 35.5209C100.563 35.4431 100.558 35.3608 100.474 35.3025C100.406 35.2544 100.326 35.2275 100.288 35.21ZM105.639 7.17101C105.607 7.19876 105.557 7.22744 105.528 7.27C105.429 7.41712 105.467 7.60125 105.608 7.72709C105.7 7.80943 105.774 7.79185 105.845 7.70303C105.948 7.57257 105.864 7.24779 105.712 7.1858C105.694 7.17933 105.675 7.17841 105.639 7.17101ZM99.0904 36.8569C99.2453 36.8569 99.3867 36.7607 99.3849 36.6571C99.3831 36.5618 99.2028 36.4295 99.0687 36.4258C98.9482 36.4221 98.8204 36.5423 98.8295 36.6506C98.8403 36.7589 98.9627 36.8569 99.0904 36.8569ZM100.139 37.4139C99.9611 37.4907 99.9049 37.6286 99.9131 37.7655C99.9185 37.8497 100.004 37.9441 100.077 38.0015C100.111 38.0274 100.215 37.9931 100.266 37.9561C100.353 37.8923 100.348 37.7942 100.299 37.7017C100.248 37.6055 100.194 37.512 100.139 37.4139ZM100.362 27.2324C100.352 27.1871 100.351 27.1362 100.329 27.0973C100.277 27.0085 100.22 26.9021 100.096 26.9493C99.9937 26.9872 99.9792 27.0862 100.002 27.188C100.018 27.2611 100.028 27.3397 100.062 27.4054C100.088 27.4563 100.149 27.5248 100.19 27.522C100.237 27.5192 100.287 27.4498 100.318 27.398C100.345 27.3508 100.348 27.2898 100.362 27.2324ZM100.359 29.3577C100.343 29.2939 100.339 29.2319 100.312 29.1856C100.281 29.1338 100.228 29.0959 100.185 29.0524C100.142 29.0959 100.087 29.1329 100.062 29.1847C100.03 29.2513 100.005 29.3309 100.01 29.4031C100.014 29.4697 100.042 29.5594 100.09 29.5927C100.176 29.6529 100.247 29.577 100.295 29.5067C100.327 29.4623 100.34 29.4049 100.359 29.3577ZM102.579 23.7581C102.649 23.7451 102.695 23.7507 102.72 23.7303C102.773 23.6878 102.865 23.6128 102.854 23.5851C102.829 23.5184 102.763 23.4509 102.697 23.4231C102.6 23.3824 102.475 23.3278 102.396 23.4463C102.365 23.4925 102.369 23.5999 102.403 23.6452C102.445 23.7044 102.532 23.7303 102.579 23.7581ZM98.6745 4.99202C98.6084 5.11138 98.5432 5.17801 98.5459 5.24185C98.5477 5.28719 98.6383 5.33067 98.6899 5.37415C98.7334 5.31864 98.8041 5.26683 98.8104 5.20762C98.815 5.15858 98.7452 5.09935 98.6745 4.99202ZM107.055 1.60744C106.957 1.53712 106.894 1.46125 106.853 1.47143C106.8 1.48531 106.745 1.56302 106.728 1.62409C106.721 1.65092 106.805 1.73975 106.844 1.7379C106.9 1.73513 106.954 1.67406 107.055 1.60744ZM107.029 8.76985C106.963 8.70323 106.91 8.61811 106.88 8.62643C106.821 8.64124 106.745 8.69953 106.73 8.75597C106.706 8.8448 106.782 8.90216 106.864 8.89013C106.915 8.8818 106.958 8.82259 107.029 8.76985ZM98.7253 7.38659C98.6646 7.46431 98.6011 7.51057 98.6011 7.55683C98.6002 7.60309 98.6628 7.65028 98.6981 7.69747C98.7416 7.65861 98.815 7.6253 98.8213 7.58089C98.8277 7.53278 98.7724 7.47634 98.7253 7.38659ZM100.111 24.8971C100.166 24.836 100.232 24.7925 100.226 24.7648C100.212 24.7037 100.162 24.65 100.128 24.5936C100.087 24.6352 100.019 24.6741 100.015 24.7203C100.009 24.7675 100.066 24.8212 100.111 24.8971ZM100.132 22.5025C100.238 22.4155 100.276 22.3387 100.178 22.2582C100.155 22.2397 100.081 22.2508 100.059 22.2749C99.9711 22.3748 100.038 22.4368 100.132 22.5025ZM100.008 9.99766C99.9538 9.94492 99.9194 9.8857 99.8814 9.88293C99.846 9.88015 99.7781 9.9366 99.7754 9.96991C99.7727 10.0069 99.8234 10.0754 99.8596 10.0819C99.8959 10.0893 99.943 10.0374 100.008 9.99766ZM104.678 9.98286C104.632 9.93382 104.601 9.87646 104.576 9.87831C104.529 9.88293 104.487 9.92365 104.443 9.94955C104.472 9.99119 104.496 10.0596 104.53 10.0661C104.566 10.0745 104.614 10.0217 104.678 9.98286ZM108.053 6.24482C108.007 6.29849 107.956 6.3318 107.96 6.3577C107.965 6.40211 108.006 6.44097 108.031 6.48261C108.063 6.45763 108.121 6.43265 108.121 6.40767C108.121 6.36326 108.086 6.31884 108.053 6.24482ZM103.504 13.5506C103.443 13.5044 103.404 13.4757 103.365 13.4461C103.342 13.4803 103.3 13.5173 103.303 13.5488C103.307 13.5812 103.354 13.6265 103.387 13.6321C103.415 13.6358 103.449 13.5904 103.504 13.5506ZM101.162 6.4456C101.15 6.42339 101.138 6.40119 101.125 6.37898C101.09 6.36048 101.054 6.32902 101.018 6.3281C100.998 6.3281 100.955 6.39564 100.961 6.40489C100.983 6.43728 101.02 6.47059 101.056 6.47799C101.088 6.48632 101.127 6.45855 101.162 6.4456Z" fill="white"/>
<path d="M127.395 44.5393C127.395 44.4079 127.395 44.3034 127.395 44.1998C127.397 36.7117 127.398 29.2226 127.401 21.7345C127.401 21.5347 127.401 21.3339 127.41 21.134C127.421 20.8703 127.407 20.5965 127.654 20.3892C127.436 20.2476 127.43 20.0339 127.421 19.8257C127.409 19.5685 127.403 19.3113 127.403 19.0531C127.399 14.2261 127.398 9.39901 127.396 4.57194C127.396 4.45814 127.396 4.34434 127.396 4.18982C127.055 4.18705 126.732 4.18334 126.41 4.18149C126.083 4.18056 125.756 4.18149 125.429 4.18149C125.102 4.18149 124.775 4.18149 124.447 4.18149C124.123 4.18149 123.799 4.18149 123.455 4.18149C123.455 2.92314 123.455 1.6981 123.455 0.474916C123.656 0.407372 134.658 0.38886 135 0.456404C135 1.67959 135 2.90649 135 4.17502C134.677 4.17687 134.355 4.18056 134.032 4.18149C133.705 4.18241 133.378 4.18149 133.051 4.18149C132.733 4.18149 132.416 4.18149 132.098 4.18149C131.773 4.18149 131.448 4.18149 131.082 4.18149C131.081 8.69026 131.08 13.1694 131.08 17.6486C131.08 22.1222 131.081 26.5967 131.081 31.0704C131.081 35.5532 131.081 40.0352 131.081 44.5393C129.853 44.5393 128.643 44.5393 127.395 44.5393ZM128.657 22.9475C128.683 22.9346 128.709 22.9207 128.735 22.9078C128.758 22.8559 128.802 22.8032 128.797 22.7542C128.795 22.7199 128.726 22.6912 128.687 22.6607C128.655 22.7079 128.603 22.7523 128.597 22.8032C128.592 22.8476 128.635 22.8994 128.657 22.9475Z" fill="white"/>
<path d="M79.6624 38.5758C79.5663 38.1677 79.56 19.0788 79.6533 18.1859C79.6995 18.0952 79.9115 18.1582 79.8617 17.9851C79.8454 17.9287 79.7421 17.8982 79.6397 17.8306C79.6298 17.4883 79.6089 17.0987 79.608 16.7101C79.6017 11.3964 79.598 6.08171 79.5944 0.767963C79.5944 0.665259 79.5944 0.562564 79.5944 0.44043C80.8339 0.44043 82.0425 0.44043 83.2774 0.44043C83.2774 0.561638 83.2774 0.66526 83.2774 0.768889C83.2774 13.0859 83.2747 25.4029 83.282 37.7199C83.2829 38.7044 83.1334 39.6565 82.8489 40.5901C82.6332 41.2979 82.2971 41.9446 81.8604 42.5359C81.7934 42.6266 81.7191 42.7135 81.6402 42.795C81.4237 43.0198 81.1582 43.0355 80.9163 42.8394C80.7433 42.6987 80.6364 42.5239 80.5892 42.2935C80.4579 41.6467 80.3935 40.9981 80.4017 40.3356C80.4071 39.9294 80.3528 39.5158 80.2739 39.1161C80.2123 38.7988 80.0194 38.5628 79.6624 38.5758ZM80.9571 20.5351C80.9969 20.4583 81.0441 20.4065 81.0414 20.3575C81.0395 20.3223 80.9734 20.2899 80.9353 20.2566C80.9009 20.3029 80.8475 20.3455 80.8393 20.3963C80.8348 20.4269 80.8991 20.4694 80.9571 20.5351Z" fill="white"/>
<path d="M43.0971 18.9524C43.0853 18.8146 43.07 18.722 43.07 18.6304C43.0682 17.0094 43.0672 15.3874 43.0709 13.7664C43.0709 13.6387 43.0292 13.4768 43.1741 13.4046C43.3218 13.3315 43.4061 13.4786 43.5094 13.5517C43.7549 13.7257 43.9959 13.9089 44.255 14.0588C44.3692 14.1244 44.5214 14.1411 44.6573 14.143C45.1991 14.1522 45.7409 14.1467 46.2827 14.1476C46.357 14.1476 46.4322 14.1485 46.5065 14.1522C46.6171 14.1578 46.6823 14.2198 46.6814 14.3326C46.6805 14.761 46.685 15.1903 46.6651 15.6187C46.6606 15.7187 46.5654 15.814 46.5011 15.9306C46.7031 16.0934 46.6986 16.3367 46.6986 16.5718C46.695 18.5934 46.6904 20.6151 46.675 22.6368C46.6741 22.7839 46.5808 22.931 46.521 23.105C46.6859 23.2373 46.695 23.4547 46.6986 23.6749C46.7086 24.3143 46.7303 24.9527 46.7312 25.5911C46.7339 31.2768 46.733 36.9616 46.7321 42.6473C46.7321 43.1812 46.7194 43.7151 46.7095 44.2499C46.7086 44.3137 46.6914 44.3776 46.6796 44.459C45.4773 44.459 44.2868 44.459 43.06 44.459C43.0419 38.975 43.0428 33.504 43.0555 28.0523C43.1569 27.9792 43.2276 27.9283 43.3264 27.858C43.2303 27.7868 43.1597 27.734 43.0672 27.6656C43.0455 25.1581 43.0328 22.635 43.0745 20.035C43.195 20.1294 43.262 20.1701 43.3164 20.2256C43.6009 20.5143 43.8799 20.8104 44.1681 21.0963C44.2451 21.1731 44.3484 21.2739 44.4399 21.2739C44.631 21.2739 44.8277 21.2323 45.0107 21.1712C45.0777 21.149 45.1357 21.0296 45.1565 20.9445C45.2118 20.7215 45.3305 20.5448 45.4909 20.394C45.6757 20.22 45.7772 19.998 45.866 19.7648C45.9412 19.5687 45.9004 19.3966 45.7428 19.2791C45.5797 19.1569 45.4003 19.0477 45.2145 18.9672C45.0098 18.8784 44.7914 18.8072 44.5731 18.7674C44.3837 18.7322 44.1835 18.7313 43.9923 18.7517C43.7893 18.7739 43.5909 18.8386 43.3907 18.8849C43.3082 18.9043 43.2285 18.9219 43.0971 18.9524ZM43.9443 16.5375C43.9443 16.6708 43.9515 16.8049 43.9425 16.9372C43.9262 17.1741 44.0258 17.3628 44.1653 17.5359C44.2958 17.6978 44.3837 17.7126 44.5015 17.5525C44.6165 17.3962 44.728 17.2167 44.7715 17.0307C44.8421 16.7272 44.8657 16.4108 44.8902 16.098C44.8974 16.0036 44.863 15.888 44.8095 15.8093C44.7307 15.6937 44.6229 15.5965 44.5178 15.5031C44.391 15.3911 44.3148 15.393 44.2088 15.5244C44.0602 15.7085 43.9271 15.9046 43.9443 16.1646C43.9506 16.2896 43.9443 16.4135 43.9443 16.5375ZM45.4619 21.483C45.4229 21.508 45.3885 21.5219 45.364 21.5478C45.2644 21.6533 45.2725 21.9216 45.3794 22.016C45.4537 22.0817 45.5389 22.1159 45.6313 22.0539C45.721 21.9938 45.7464 21.9068 45.7047 21.8078C45.6684 21.7217 45.6259 21.6375 45.5751 21.5598C45.5534 21.5247 45.5036 21.5099 45.4619 21.483ZM45.5688 44.1953C45.6286 44.1259 45.6675 44.0806 45.7065 44.0361C45.6567 43.9927 45.6114 43.9307 45.5543 43.914C45.5289 43.9066 45.4492 43.9917 45.4474 44.038C45.4456 44.0815 45.5135 44.1277 45.5688 44.1953ZM44.3339 24.1672C44.3013 24.2246 44.2569 24.2708 44.2668 24.293C44.2849 24.3356 44.3339 24.3652 44.3692 24.4003C44.3982 24.3624 44.4544 24.3208 44.4498 24.2875C44.4444 24.2486 44.3864 24.2181 44.3339 24.1672Z" fill="white"/>
<path d="M76.2312 44.633C75.7818 44.5682 75.4249 44.4387 75.0833 44.2629C74.5352 43.9807 74.0468 43.6143 73.6509 43.1341C72.811 42.1154 72.1604 40.993 71.8741 39.6745C71.7545 39.1222 71.6784 38.5661 71.6775 38.0026C71.6748 33.7196 71.6621 29.4366 71.6866 25.1536C71.7002 22.8275 71.6377 20.5004 71.6857 18.1743C71.6893 17.993 71.6993 17.8116 71.7192 17.6321C71.7419 17.4332 71.769 17.4092 71.9675 17.4008C72.1541 17.3934 72.3417 17.3934 72.5274 17.3999C72.8019 17.4101 73.0429 17.3185 73.2604 17.1593C73.4497 17.0206 73.6346 16.8753 73.8094 16.7189C73.9218 16.619 74.0178 16.6107 74.132 16.7004C74.479 16.9734 74.8224 17.2519 75.2346 17.424C75.2808 17.4434 75.3297 17.5257 75.3307 17.5803C75.3388 17.9495 75.3352 18.3187 75.3352 18.6527C75.1938 18.6953 75.0715 18.6971 75.0018 18.761C74.8405 18.9062 74.6982 19.0839 74.6901 19.318C74.6792 19.6511 74.6792 19.986 74.6892 20.3191C74.6955 20.543 74.8351 20.7049 74.9746 20.8613C75.0824 20.9825 75.1784 20.852 75.2781 20.8391C75.337 20.9964 75.3714 21.6755 75.3361 21.8254C75.3044 21.9614 75.2038 21.9698 75.0978 21.9716C74.652 21.9772 74.2344 22.1206 73.814 22.2473C73.7116 22.2779 73.6028 22.3399 73.5331 22.4203C73.3618 22.6193 73.3727 22.8376 73.5657 23.0319C74.0377 23.5066 74.5179 23.972 74.9954 24.442C75.009 24.455 75.0217 24.4735 75.038 24.4781C75.3406 24.5679 75.3424 24.8094 75.3424 25.0684C75.3451 27.9589 75.3542 30.8485 75.3596 33.739C75.3624 35.1417 75.3587 36.5435 75.3587 37.9462C75.3587 38.4449 75.3932 38.9436 75.5744 39.4081C75.7085 39.7504 75.8761 40.0844 76.0691 40.3962C76.2947 40.7599 76.6272 41.006 77.0421 41.1235C77.0938 41.1383 77.1418 41.1661 77.2388 41.2095C76.9697 41.4075 76.7268 41.5713 76.4424 41.6629C76.398 41.6777 76.3517 41.687 76.3064 41.6981C75.829 41.8091 75.8136 41.8341 75.8018 42.3198C75.7936 42.6622 75.7728 43.0045 75.7519 43.3469C75.7266 43.7679 75.8643 44.1333 76.1053 44.4646C76.1352 44.5007 76.1615 44.5377 76.2312 44.633ZM75.6079 41.3983C75.443 41.2428 75.3243 41.1873 75.2092 41.2299C75.1549 41.2502 75.086 41.3002 75.0733 41.3502C75.0606 41.3983 75.0978 41.4779 75.1377 41.5195C75.2717 41.6583 75.4258 41.6185 75.6079 41.3983ZM73.0003 21.6145C72.9025 21.5525 72.84 21.4821 72.7929 21.4914C72.743 21.5007 72.6678 21.5913 72.6742 21.6367C72.6814 21.6894 72.7611 21.7644 72.8146 21.7699C72.859 21.7736 72.9125 21.6922 73.0003 21.6145ZM72.8871 39.9975C72.8617 40.0104 72.8354 40.0243 72.8101 40.0372C72.7856 40.0909 72.7421 40.1464 72.7439 40.1992C72.7457 40.2389 72.8074 40.275 72.8427 40.3139C72.8807 40.2584 72.9369 40.2066 72.9505 40.1455C72.9605 40.1029 72.9106 40.0465 72.8871 39.9975ZM75.2482 27.5324C75.1857 27.4908 75.1422 27.438 75.105 27.4436C75.067 27.4491 75.0371 27.5102 75.0036 27.5463C75.0407 27.5805 75.076 27.6416 75.1141 27.6425C75.1512 27.6444 75.1893 27.5842 75.2482 27.5324ZM74.0703 31.1085C74.006 31.0678 73.9653 31.0262 73.9209 31.0215C73.8982 31.0188 73.8674 31.0808 73.8402 31.1131C73.8783 31.1446 73.9127 31.1899 73.9562 31.2001C73.9797 31.2066 74.0169 31.1529 74.0703 31.1085Z" fill="white"/>
<path d="M122.225 44.5404C120.995 44.5404 119.785 44.5404 118.557 44.5404C118.55 44.459 118.538 44.3859 118.538 44.3137C118.54 39.8299 118.543 35.3462 118.545 30.8624C118.546 27.9441 118.543 25.0249 118.546 22.1067C118.546 21.7162 118.562 21.3248 118.575 20.9344C118.582 20.753 118.608 20.5809 118.692 20.4107C118.735 20.3255 118.697 20.1932 118.681 20.085C118.665 19.9832 118.609 19.8851 118.605 19.7843C118.582 19.2032 118.565 18.6212 118.554 18.0392C118.551 17.9004 118.582 17.7617 118.598 17.6108C118.894 17.6192 119.124 17.7135 119.332 17.8616C119.472 17.9606 119.491 18.0494 119.422 18.2086C119.385 18.2937 119.319 18.3658 119.267 18.4436C119.144 18.624 119.015 18.7989 118.903 18.9858C118.852 19.0718 118.821 19.1801 118.811 19.2809C118.781 19.5807 118.869 19.7241 119.163 19.7491C119.599 19.7861 120.042 19.8185 120.475 19.7732C120.807 19.7389 121.088 19.5085 121.353 19.2939C121.375 19.2763 121.393 19.2532 121.415 19.2356C121.526 19.1458 121.605 18.9589 121.785 19.0468C121.987 19.1458 122.186 19.2698 122.196 19.5418C122.208 19.837 122.22 20.1331 122.22 20.4283C122.22 21.5922 122.215 22.7562 122.212 23.9202C122.21 24.4291 122.21 24.4291 121.739 24.5734C121.65 24.6012 121.556 24.6187 121.473 24.6594C121.14 24.8214 121.071 25.1591 121.325 25.4283C121.513 25.6263 121.718 25.8095 121.925 25.9853C122.139 26.1658 122.21 26.3897 122.21 26.6654C122.206 27.3048 122.223 27.9432 122.224 28.5825C122.227 33.7815 122.227 38.9806 122.228 44.1796C122.225 44.2934 122.225 44.4063 122.225 44.5404ZM120.203 26.9633C120.154 26.7866 120.13 26.5238 120.009 26.324C119.932 26.1981 119.713 26.1528 119.549 26.0954C119.284 26.002 119.012 26.2444 119.067 26.5229C119.144 26.9171 119.267 27.2807 119.735 27.3482C119.744 27.3492 119.752 27.3556 119.761 27.3584C120.001 27.4435 120.205 27.2909 120.203 26.9633ZM120.538 24.2385C120.611 24.1367 120.673 24.0858 120.686 24.0256C120.706 23.9266 120.632 23.8545 120.542 23.8646C120.49 23.8702 120.407 23.9507 120.407 23.9979C120.407 24.0627 120.473 24.1265 120.538 24.2385ZM121.651 33.3226C121.621 33.3957 121.585 33.4401 121.592 33.4771C121.6 33.5225 121.643 33.5604 121.671 33.602C121.709 33.5734 121.776 33.5447 121.777 33.5141C121.778 33.4744 121.728 33.4327 121.651 33.3226Z" fill="white"/>
<path d="M39.0907 0.364746C42.9612 0.364746 46.8055 0.364746 50.667 0.364746C50.667 1.61384 50.667 2.84813 50.667 4.11203C49.3587 4.11203 48.0649 4.11203 46.7466 4.11203C46.7403 4.24157 46.733 4.34242 46.7303 4.4442C46.7185 4.85409 46.704 5.26398 46.6986 5.67387C46.6959 5.87095 46.6261 6.00881 46.464 6.12632C46.1088 6.38354 46.1024 6.4483 46.4359 6.74809C46.6225 6.91556 46.6977 7.09876 46.6968 7.34303C46.695 8.34415 46.7077 9.34528 46.6995 10.3473C46.6968 10.7082 46.6551 10.7313 46.2963 10.7063C46.1106 10.6934 45.924 10.6703 45.7418 10.6323C45.5779 10.5981 45.4483 10.6416 45.3332 10.7572C45.2934 10.797 45.2526 10.8368 45.2136 10.8775C44.9391 11.1606 44.9391 11.2263 45.2036 11.5095C45.3232 11.6371 45.4601 11.725 45.6322 11.7621C45.9058 11.8213 46.1794 11.8851 46.4503 11.9573C46.6542 12.0109 46.6678 12.0378 46.6814 12.2543C46.6823 12.2737 46.6823 12.2922 46.6832 12.3117C46.6932 12.6882 46.6542 12.7308 46.2818 12.7687C45.6875 12.8289 45.094 12.8918 44.5006 12.9519C44.2342 12.9788 44.0892 12.9066 43.9914 12.6605C43.9407 12.5319 43.9089 12.3838 43.9135 12.246C43.9234 11.9416 43.9878 11.6381 43.9823 11.3355C43.9769 11.0524 43.9089 10.7711 43.8673 10.4889C43.86 10.4417 43.8401 10.3964 43.8365 10.3492C43.7957 9.91062 43.5547 9.61916 43.1959 9.40265C43.1361 9.36656 43.0844 9.27404 43.0763 9.20094C43.0545 9.01219 43.0545 8.82066 43.0536 8.62914C43.05 7.25513 43.0491 5.88205 43.0473 4.50805C43.0473 4.39424 43.0473 4.28136 43.0473 4.13516C42.9322 4.12776 42.8344 4.11758 42.7365 4.11666C41.7653 4.11296 40.7931 4.11204 39.8218 4.10833C39.6633 4.10741 39.5038 4.10741 39.3462 4.09353C39.1378 4.0741 39.1088 4.04449 39.1006 3.82705C39.0889 3.50321 39.0834 3.17845 39.0825 2.85461C39.0789 2.09128 39.0798 1.32794 39.0798 0.564605C39.0789 0.509089 39.0852 0.452645 39.0907 0.364746ZM44.574 6.39001C44.477 6.34375 44.4181 6.29102 44.3728 6.30119C44.3302 6.31045 44.3013 6.38724 44.2668 6.4335C44.3094 6.46034 44.3556 6.51308 44.3946 6.50845C44.4435 6.50105 44.4888 6.44923 44.574 6.39001ZM45.5189 8.95853C45.6132 8.89006 45.6902 8.82344 45.5905 8.71518C45.567 8.6902 45.4728 8.68928 45.4492 8.71518C45.3477 8.82344 45.4256 8.88913 45.5189 8.95853Z" fill="white"/>
<path d="M7.96312 0.365234C9.21344 0.365234 10.4157 0.365234 11.6334 0.365234C11.6398 0.453134 11.6497 0.527153 11.6497 0.601174C11.6479 4.16989 11.6452 7.73768 11.6416 11.3064C11.6416 11.3443 11.6407 11.3823 11.6407 11.4211C11.6325 11.7699 11.6697 11.9115 11.2112 11.9439C10.7763 11.9744 10.4493 12.289 10.153 12.5953C10.0361 12.7165 9.99714 12.9136 10.0805 13.0792C10.1693 13.255 10.2807 13.4234 10.4094 13.5705C10.5063 13.6815 10.6413 13.762 10.77 13.8379C10.9838 13.9637 11.1777 14.1071 11.2946 14.3375C11.3073 14.3625 11.3218 14.3903 11.3426 14.4079C11.6144 14.6308 11.6371 14.9417 11.6371 15.2619C11.6371 15.6819 11.6425 16.1011 11.6371 16.5211C11.6361 16.6414 11.6081 16.7608 11.589 16.9079C11.3942 16.8348 11.233 16.7654 11.0672 16.7136C10.9158 16.6664 10.7573 16.6414 10.6033 16.6026C10.5217 16.5822 10.4375 16.5655 10.3632 16.5276C10.1765 16.4332 10.153 16.3083 10.2916 16.1473C10.4937 15.9123 10.6259 15.644 10.6812 15.3359C10.77 14.8464 10.461 14.4597 9.97722 14.4541C9.94914 14.4541 9.92103 14.455 9.89385 14.4606C9.48251 14.5411 9.16633 15.05 9.27686 15.4636C9.34663 15.7245 9.46894 15.9567 9.66011 16.152C9.82229 16.3167 9.82047 16.4203 9.63293 16.5452C9.29498 16.77 9.03222 17.055 8.85827 17.427C8.85192 17.4408 8.82837 17.4473 8.7885 17.4732C8.76041 17.3918 8.72599 17.3178 8.70878 17.2401C8.66167 17.0161 8.61816 16.7913 8.58011 16.5665C8.52212 16.2204 8.42338 15.8984 8.13798 15.669C8.01929 15.5737 7.97761 15.4404 7.97942 15.2887C7.98939 14.4976 8.00026 13.7056 8.00479 12.9145C8.0057 12.7239 7.98305 12.5342 7.98033 12.3436C7.97217 11.7043 7.96312 11.0649 7.96312 10.4265C7.96131 7.19178 7.96221 3.958 7.96221 0.723308C7.96312 0.609502 7.96312 0.496621 7.96312 0.365234ZM8.84196 13.5844C9.17901 13.5168 9.46712 13.3965 9.69634 13.1514C9.89114 12.9441 9.89748 12.8201 9.69 12.623C9.58218 12.5203 9.45171 12.4417 9.32758 12.3575C8.79303 11.9939 8.74411 11.9828 8.25123 12.5055C8.08362 12.6832 8.06639 12.9117 8.22132 13.1014C8.34454 13.2531 8.50038 13.379 8.65169 13.5048C8.70424 13.5511 8.78488 13.5622 8.84196 13.5844Z" fill="white"/>
<path d="M118.537 0.469239C118.764 0.408172 121.87 0.396147 122.186 0.448886C122.269 0.812512 122.234 15.1364 122.143 15.3946C122.095 15.3622 122.041 15.34 122.008 15.3002C121.849 15.105 121.64 15.0217 121.4 14.9837C121.161 14.9458 120.924 14.8912 120.687 14.8376C120.384 14.7682 120.19 14.5692 120.123 14.2685C120.008 13.7485 119.916 13.2276 119.918 12.6863C119.92 12.1645 119.843 11.6436 119.805 11.1208C119.785 10.8478 119.621 10.6693 119.431 10.5101C119.394 10.4787 119.326 10.4611 119.279 10.4703C119.041 10.5184 118.812 10.8155 118.8 11.0699C118.785 11.4123 118.773 11.7555 118.745 12.096C118.731 12.2607 118.683 12.4226 118.624 12.5808C118.5 8.53933 118.55 4.50151 118.537 0.469239Z" fill="white"/>
<path d="M110.079 44.5357C108.808 44.5357 107.551 44.5357 106.274 44.5357C106.255 44.4913 106.222 44.4349 106.206 44.3738C105.694 42.3743 105.19 40.3721 104.673 38.3735C104.341 37.0846 103.987 35.8013 103.652 34.5133C103.406 33.5649 103.175 32.6128 102.938 31.6626C102.925 31.6089 102.922 31.5534 102.917 31.5109C102.941 31.4822 102.953 31.4563 102.965 31.4553C103.255 31.4304 103.535 31.4461 103.792 31.6173C104.012 31.7644 104.134 31.9467 104.124 32.2307C104.117 32.4287 104.156 32.6295 104.188 32.8266C104.236 33.1291 104.435 33.3318 104.652 33.5177C104.759 33.6093 104.862 33.577 104.942 33.4706C105.084 33.2818 105.222 33.0931 105.274 32.8497C105.338 32.5518 105.417 32.2575 105.503 31.9661C105.54 31.8412 105.588 31.7033 105.674 31.6126C105.91 31.3582 106.169 31.125 106.443 30.8613C106.48 30.9576 106.527 31.0566 106.556 31.1602C106.817 32.1243 107.077 33.0884 107.333 34.0535C107.99 36.5267 108.646 38.9999 109.3 41.474C109.553 42.4298 109.8 43.3875 110.049 44.3451C110.063 44.3969 110.067 44.4534 110.079 44.5357ZM104.942 35.4562C104.866 35.3877 104.811 35.3035 104.77 35.31C104.715 35.3183 104.623 35.408 104.631 35.4432C104.645 35.5089 104.72 35.5598 104.771 35.6172C104.819 35.5718 104.867 35.5274 104.942 35.4562ZM104.961 37.8322C104.889 37.7721 104.847 37.7147 104.798 37.7055C104.771 37.6999 104.698 37.7767 104.701 37.8109C104.704 37.8628 104.758 37.9109 104.789 37.9608C104.836 37.9266 104.884 37.8914 104.961 37.8322ZM106.095 40.1962C106.031 40.1565 105.983 40.1037 105.95 40.1121C105.912 40.1213 105.886 40.1833 105.854 40.2231C105.893 40.2545 105.931 40.311 105.971 40.311C106.005 40.3119 106.041 40.2499 106.095 40.1962ZM107.111 36.7839C107.16 36.7256 107.217 36.6877 107.218 36.6488C107.219 36.6127 107.161 36.547 107.128 36.5452C107.092 36.5443 107.027 36.5989 107.023 36.6359C107.018 36.6738 107.07 36.7201 107.111 36.7839ZM109.338 43.7844C109.384 43.8242 109.416 43.8686 109.433 43.863C109.468 43.8519 109.501 43.8186 109.521 43.7853C109.526 43.7761 109.479 43.7132 109.461 43.715C109.425 43.7178 109.393 43.7511 109.338 43.7844Z" fill="white"/>
<path d="M75.3243 9.80008C75.3297 9.89168 75.3406 9.98329 75.3406 10.0758C75.3424 11.9735 75.3433 13.8721 75.3433 15.7698C75.3433 15.8559 75.3442 15.9429 75.3288 16.0261C75.2944 16.2149 75.1694 16.2806 74.9981 16.1973C74.7689 16.0863 74.6765 15.8827 74.6783 15.6375C74.6801 15.3424 74.7046 15.0472 74.71 14.7521C74.7136 14.5633 74.7164 14.3727 74.6919 14.1867C74.6593 13.9415 74.6094 13.6982 74.5515 13.4576C74.4436 13.0153 74.1881 12.7137 73.7369 12.6156C73.4905 12.562 73.2423 12.5157 72.9958 12.463C72.6515 12.3889 72.4359 12.1798 72.3625 11.8236C72.2411 11.2352 72.1532 10.6476 72.1623 10.0397C72.1686 9.58543 72.0997 9.12835 72.0409 8.6759C72.0236 8.54359 71.9457 8.40849 71.8633 8.30024C71.779 8.18828 71.7246 8.07725 71.7174 7.93939C71.7056 7.71085 71.6821 7.48232 71.6812 7.25378C71.6766 5.06 71.6757 2.86621 71.6748 0.67243C71.6748 0.605811 71.6812 0.540118 71.6839 0.476276C71.8841 0.405031 75.0443 0.390222 75.347 0.459616C75.3515 0.521608 75.3614 0.586372 75.3614 0.652065C75.3578 3.43709 75.3533 6.22211 75.3479 9.00714C75.3479 9.12187 75.3424 9.23567 75.3397 9.3504C75.337 9.45866 75.3017 9.5373 75.1775 9.53453C75.0842 9.53268 74.9963 9.56321 75.0063 9.67332C75.0181 9.80378 75.1177 9.80286 75.2192 9.78158C75.2428 9.77695 75.2708 9.7899 75.3243 9.80008Z" fill="white"/>
<path d="M11.5917 22.8234C11.6108 23.0186 11.637 23.1593 11.6361 23.2999C11.6271 24.4435 11.6117 25.5871 11.6026 26.7308C11.599 27.2165 11.6062 27.7023 11.6053 28.189C11.6053 28.3463 11.5927 28.5045 11.5836 28.7099C11.3571 28.5184 11.1487 28.3888 11.0291 28.1695C10.8932 27.9197 10.7691 27.6625 10.6486 27.4053C10.5679 27.2332 10.5915 27.0546 10.6368 26.8742C10.692 26.653 10.741 26.4291 10.7817 26.2052C10.8252 25.9656 10.7528 25.7565 10.5996 25.5705C10.3315 25.2448 10.0008 25.0357 9.58942 24.9478C9.45805 24.92 9.33481 24.8442 9.2125 24.7803C9.17626 24.7609 9.15633 24.7091 9.1228 24.6637C9.14908 24.6184 9.16358 24.5694 9.1962 24.5416C9.46529 24.302 9.56766 23.9781 9.64105 23.6385C9.70175 23.3591 9.7534 23.0778 9.82407 22.8012C9.94004 22.345 9.85942 21.9518 9.49882 21.6372C9.40006 21.5502 9.29858 21.467 9.20164 21.3772C9.09291 21.2764 9.09562 21.1857 9.2125 21.0969C9.25599 21.0636 9.31036 21.0414 9.36291 21.0275C9.77969 20.9229 10.1965 20.9497 10.6123 21.0349C10.7383 21.0608 10.8261 21.1441 10.8887 21.2949C10.837 21.3467 10.779 21.4031 10.7238 21.4614C10.5371 21.6594 10.3405 21.8491 10.1684 22.0601C10.0089 22.2553 10.0415 22.5245 10.2218 22.7022C10.4357 22.9141 10.7002 23.0362 10.982 23.1102C11.069 23.1334 11.1822 23.0936 11.271 23.0529C11.3679 23.0057 11.4513 22.9261 11.5917 22.8234Z" fill="white"/>
<path d="M106.224 30.118C106.096 30.1051 106.004 30.1032 105.916 30.0856C105.569 30.0153 105.222 29.9395 104.874 29.8682C104.566 29.8044 104.352 29.5499 104.348 29.2298C104.345 28.9726 104.361 28.7135 104.344 28.4572C104.323 28.1158 104.543 27.9446 104.768 27.8539C105.037 27.7447 105.32 27.8225 105.595 27.8493C105.643 27.8539 105.7 27.952 105.723 28.0177C105.792 28.225 105.853 28.435 105.906 28.6469C106.011 29.0623 106.107 29.4796 106.205 29.8969C106.216 29.9506 106.215 30.0079 106.224 30.118Z" fill="white"/>
</svg>
