<svg width="84" height="84" viewBox="0 0 84 84" fill="none" xmlns="http://www.w3.org/2000/svg">
<circle cx="41.9999" cy="41.9999" r="38.9999" stroke="white" stroke-width="5" stroke-linejoin="bevel" stroke-dasharray="2 3"/>
<path d="M53.895 34.785C53.1897 33.5305 52.4244 33.2998 50.866 33.212C49.3092 33.1064 45.3946 33.0625 42.0033 33.0625C38.6054 33.0625 34.6891 33.1064 33.134 33.2104C31.5789 33.2998 30.8119 33.5289 30.1001 34.785C29.3737 36.0379 29 38.1959 29 41.9951C29 41.9984 29 42 29 42C29 42.0032 29 42.0049 29 42.0049V42.0081C29 45.7911 29.3737 47.9654 30.1001 49.2052C30.8119 50.4597 31.5773 50.6872 33.1324 50.7929C34.6891 50.8839 38.6054 50.9375 42.0033 50.9375C45.3946 50.9375 49.3092 50.8839 50.8676 50.7945C52.426 50.6889 53.1914 50.4614 53.8966 49.2069C54.6295 47.967 55 45.7927 55 42.0097C55 42.0097 55 42.0049 55 42.0016C55 42.0016 55 41.9984 55 41.9967C55 38.1959 54.6295 36.0379 53.895 34.785ZM38.75 46.875V37.125L46.875 42L38.75 46.875Z" fill="white"/>
</svg>
