<svg width="78" height="78" viewBox="0 0 78 78" fill="none" xmlns="http://www.w3.org/2000/svg">
<path d="M39 73.0578C21.9802 73.0578 3.65625 62.3999 3.65625 38.9999C3.65625 15.5999 21.9802 4.94189 39 4.94189C48.4331 4.94189 57.1655 8.06191 63.5944 13.7352C70.6266 19.9386 74.3438 28.6771 74.3438 38.9999C74.3438 49.2739 70.6266 57.9941 63.5944 64.2219C57.1472 69.9196 48.4148 73.0578 39 73.0578Z" fill="url(#paint0_linear)"/>
<path d="M39 6.16064C48.1345 6.16064 56.5866 9.17706 62.7839 14.6493C69.548 20.615 73.125 29.0366 73.125 38.9999C73.125 48.9144 69.548 57.3238 62.7839 63.3078C56.5622 68.8105 48.1162 71.8391 39 71.8391C29.835 71.8391 21.3891 68.8471 15.21 63.4175C8.44594 57.4761 4.875 49.0302 4.875 38.9999C4.875 28.9208 8.44594 20.4627 15.21 14.5335C21.3708 9.13441 29.8167 6.16064 39 6.16064ZM39 3.72314C20.018 3.72314 2.4375 15.9107 2.4375 38.9999C2.4375 61.9611 20.018 74.2766 39 74.2766C57.982 74.2766 75.5625 61.6442 75.5625 38.9999C75.5625 16.2275 57.982 3.72314 39 3.72314Z" fill="#EB8F00"/>
<path d="M32.0893 62.741C30.0296 62.741 28.1222 61.6624 27.1107 59.9318C26.1052 58.2012 26.2027 56.1719 27.3788 54.5205C29.9869 50.846 34.0027 48.9082 38.9935 48.9082C43.9904 48.9082 48.0061 50.8521 50.6082 54.5205C51.7843 56.178 51.8818 58.2012 50.8763 59.9379C49.8708 61.6685 47.9635 62.7471 45.8977 62.7471C45.2579 62.7471 44.618 62.6435 43.9904 62.4424C42.3694 61.9183 40.6875 61.0409 38.9935 61.0409C37.2994 61.0409 35.6175 61.9183 33.9966 62.4424C33.375 62.6374 32.7291 62.741 32.0893 62.741Z" fill="#242424"/>
<path d="M50.4199 30.4321C52.9732 30.4321 55.2949 32.5893 55.2949 36.1724C55.2949 39.7556 52.9732 41.9128 50.4199 41.9128C47.8666 41.9128 45.5449 39.7556 45.5449 36.1724C45.5449 32.5893 47.8666 30.4321 50.4199 30.4321Z" fill="#242424"/>
<path d="M27.5439 30.4321C24.9907 30.4321 22.6689 32.5893 22.6689 36.1724C22.6689 39.7556 24.9907 41.9128 27.5439 41.9128C30.0972 41.9128 32.419 39.7556 32.419 36.1724C32.419 32.5893 30.0972 30.4321 27.5439 30.4321Z" fill="#242424"/>
<path d="M17.9156 25.5994C17.9156 25.5994 17.9217 25.4288 17.946 25.1302C17.9582 25.051 17.9521 24.984 17.9765 24.8743C17.9948 24.7646 18.0314 24.6488 18.0618 24.5208C18.0923 24.3929 18.1289 24.2588 18.1654 24.1126C18.2081 23.9785 18.2629 23.8505 18.3117 23.7104C18.4092 23.424 18.5493 23.1315 18.7139 22.8329C18.8723 22.5282 19.0734 22.2296 19.2928 21.9249C19.5304 21.6385 19.762 21.3216 20.0484 21.0596C20.3226 20.7732 20.6334 20.5294 20.9442 20.2735C21.2793 20.0541 21.6023 19.8226 21.9496 19.6398C22.2848 19.4387 22.6565 19.3046 22.9978 19.1583C23.3512 19.0365 23.6986 18.9268 24.0337 18.8598C24.3689 18.7866 24.6918 18.7379 24.9904 18.7196C25.289 18.683 25.5632 18.6891 25.807 18.7074C26.0507 18.7135 26.2579 18.7379 26.4346 18.7683C26.782 18.8293 26.9709 18.878 26.9709 18.878C27.5498 19.0243 27.9093 19.6093 27.7631 20.1882C27.6717 20.566 27.3853 20.8524 27.0379 20.9621L26.8551 21.0169C26.8551 21.0169 26.7089 21.0596 26.4651 21.1205C26.3432 21.1449 26.197 21.1936 26.0325 21.2424C25.8679 21.2851 25.6851 21.346 25.4901 21.4191C25.2951 21.4801 25.0879 21.5776 24.8685 21.6629C24.6492 21.7421 24.4359 21.8762 24.2043 21.9798C23.9789 22.1077 23.7473 22.2296 23.5218 22.3758C23.2842 22.5038 23.077 22.6805 22.8515 22.8329C22.6382 23.0035 22.4128 23.1558 22.2239 23.3447C22.0228 23.5215 21.8339 23.7043 21.651 23.881C21.4926 24.076 21.2976 24.2466 21.1575 24.4294C21.0112 24.6122 20.865 24.7829 20.7492 24.9535C20.6212 25.1302 20.5176 25.2704 20.4384 25.3923C20.3957 25.4532 20.3531 25.5141 20.3104 25.569C20.2678 25.6299 20.2312 25.7152 20.1946 25.7761C20.0545 26.0382 19.9631 26.1905 19.9631 26.1905C19.6462 26.7146 18.9637 26.8852 18.4396 26.5683C18.0984 26.3612 17.9034 25.9833 17.9156 25.5994Z" fill="#6D4C41"/>
<path d="M58.0248 26.2027C58.0248 26.2027 57.9334 26.0565 57.7932 25.7884C57.7566 25.7274 57.7201 25.636 57.6774 25.5812C57.6348 25.5263 57.5921 25.4654 57.5494 25.4045C57.4702 25.2826 57.3666 25.1424 57.2387 24.9657C57.1229 24.7951 56.9766 24.6245 56.8304 24.4416C56.6902 24.2527 56.5013 24.0882 56.3368 23.8932C56.154 23.7165 55.9651 23.5276 55.764 23.357C55.5751 23.168 55.3496 23.0157 55.1363 22.8451C54.9109 22.6927 54.6976 22.516 54.466 22.388C54.2405 22.2418 54.009 22.1138 53.7835 21.992C53.5519 21.8945 53.3326 21.7604 53.1193 21.6751C52.8999 21.5898 52.6988 21.4923 52.4977 21.4313C52.3027 21.3582 52.1199 21.2973 51.9554 21.2546C51.7909 21.2059 51.6446 21.1571 51.5227 21.1327C51.279 21.0718 51.1327 21.0292 51.1327 21.0292L50.956 20.9743C50.8199 20.9322 50.6935 20.8636 50.5841 20.7723C50.4747 20.681 50.3845 20.5689 50.3188 20.4425C50.253 20.3161 50.213 20.1779 50.2011 20.0359C50.1891 19.894 50.2054 19.751 50.2491 19.6154C50.3649 19.2437 50.6696 18.9756 51.023 18.8902C51.023 18.8902 51.2119 18.8415 51.5593 18.7806C51.7299 18.744 51.9432 18.7257 52.1869 18.7196C52.4307 18.7013 52.7049 18.6952 53.0035 18.7318C53.3082 18.744 53.6251 18.7927 53.9602 18.872C54.3015 18.9329 54.6427 19.0487 54.9962 19.1705C55.3374 19.3168 55.7091 19.4448 56.0443 19.652C56.3916 19.8348 56.7207 20.0663 57.0498 20.2857C57.3544 20.5417 57.6713 20.7854 57.9455 21.0718C58.238 21.3338 58.4635 21.6507 58.7012 21.9371C58.9205 22.2418 59.1277 22.5404 59.2801 22.8451C59.4446 23.1437 59.5848 23.4362 59.6823 23.7226C59.7371 23.8627 59.7919 23.9907 59.8285 24.1248C59.8651 24.2649 59.9016 24.4051 59.9321 24.5331C59.9626 24.661 59.993 24.7768 60.0174 24.8865C60.0357 24.9901 60.0357 25.0632 60.0479 25.1424C60.0723 25.441 60.0784 25.6116 60.0784 25.6116C60.0966 26.2271 59.6091 26.7329 58.9998 26.7512C58.5915 26.7451 58.2259 26.5318 58.0248 26.2027Z" fill="#6D4C41"/>
<defs>
<linearGradient id="paint0_linear" x1="39" y1="12.0167" x2="39" y2="65.6296" gradientUnits="userSpaceOnUse">
<stop offset="0.566" stop-color="#F6A323"/>
<stop offset="0.917" stop-color="#FEE133"/>
</linearGradient>
</defs>
</svg>
