<svg width="83" height="34" viewBox="0 0 83 34" fill="none" xmlns="http://www.w3.org/2000/svg">
<path d="M15.1605 4.43125C14.1878 5.57852 12.6316 6.48086 11.0753 6.35195C10.8808 4.80508 11.6459 3.15508 12.5408 2.14961C13.5134 0.976563 15.2123 0.138672 16.6 0.0742188C16.7556 1.67266 16.1201 3.2582 15.1605 4.43125ZM16.5741 6.64844C14.3175 6.51953 12.3851 7.92461 11.3217 7.92461C10.2323 7.92461 8.59827 6.71289 6.80858 6.75156C4.48718 6.79023 2.33437 8.09219 1.15421 10.1676C-1.28392 14.3313 0.51874 20.4801 2.87905 23.8703C4.03327 25.5461 5.40796 27.3895 7.22358 27.325C8.94843 27.2605 9.6228 26.2164 11.6978 26.2164C13.7858 26.2164 14.3953 27.325 16.2109 27.2992C18.0914 27.2605 19.2716 25.6234 20.4258 23.9477C21.7356 22.0398 22.2803 20.1965 22.3062 20.0934C22.2673 20.0547 18.675 18.6883 18.6361 14.5633C18.5972 11.1086 21.4762 9.47149 21.6059 9.36836C19.9848 6.9707 17.4559 6.71289 16.5741 6.64844ZM29.5947 1.98203V27.1059H33.5242V18.5207H38.9581C43.9251 18.5207 47.4008 15.1305 47.4008 10.232C47.4008 5.33359 43.977 1.98203 39.0878 1.98203H29.5947ZM33.5242 5.26914H38.0503C41.4611 5.26914 43.4064 7.07383 43.4064 10.2449C43.4064 13.416 41.4611 15.2465 38.0373 15.2465H33.5242V5.26914ZM54.5595 27.2992C57.0236 27.2992 59.3061 26.0617 60.3436 24.0895H60.4214V27.1059H64.0527V14.602C64.0527 10.9797 61.1347 8.63359 56.6475 8.63359C52.4845 8.63359 49.398 11.0055 49.2812 14.2539H52.8217C53.12 12.707 54.5595 11.6887 56.5308 11.6887C58.93 11.6887 60.2787 12.7973 60.2787 14.8469V16.2391L55.3766 16.5355C50.8245 16.8062 48.3605 18.6625 48.3605 21.8852C48.3734 25.1336 50.9153 27.2992 54.5595 27.2992ZM55.623 24.3215C53.535 24.3215 52.1992 23.316 52.1992 21.7949C52.1992 20.2094 53.4831 19.2941 55.9342 19.1523L60.2917 18.8816V20.2996C60.2917 22.6457 58.2816 24.3215 55.623 24.3215ZM68.9159 33.9379C72.7417 33.9379 74.5444 32.4813 76.1136 28.0855L83 8.87852H79.0056L74.3887 23.7156H74.3109L69.6941 8.87852H65.5959L72.2359 27.1703L71.8728 28.2789C71.2762 30.1609 70.3036 30.8957 68.5658 30.8957C68.2545 30.8957 67.658 30.857 67.4116 30.8312V33.8477C67.645 33.8992 68.6176 33.9379 68.9159 33.9379Z" fill="black"/>
</svg>
