<svg width="144" height="34" viewBox="0 0 144 34" fill="none" xmlns="http://www.w3.org/2000/svg">
<mask id="mask0" mask-type="alpha" maskUnits="userSpaceOnUse" x="0" y="0" width="144" height="34">
<rect width="144" height="34" fill="#177FFF"/>
</mask>
<g mask="url(#mask0)">
<path d="M93 -9.19587C98.2863 -9.19587 103.573 -9.19587 108.858 -9.19587C109.04 -8.6249 109.253 -8.06092 109.4 -7.48158C110.003 -5.09441 110.524 -2.68352 111.192 -0.313104C112.581 4.62037 114.961 9.082 117.828 13.3635C123.853 22.365 128.862 31.936 133.874 41.4986C134.845 43.3511 135.832 45.1966 136.812 47.0449C136.96 46.8173 136.949 46.6484 136.92 46.4837C136.473 43.9109 136.069 41.3297 135.564 38.7666C134.362 32.673 132.696 26.7331 129.499 21.29C128.354 19.3412 127.093 17.3938 126.368 15.2858C123.553 7.09967 119.88 -0.796121 117.709 -9.19727C120.659 -9.19727 123.61 -9.19727 126.56 -9.19727C128.373 -3.27682 129.963 2.72041 132.05 8.54872C135.224 17.4147 138.74 26.1635 142.117 34.9583C143.066 37.4278 144.038 39.889 145 42.3543C145 55.393 145 68.4303 145 81.4689C144.747 81.1353 144.445 80.8254 144.248 80.4624C142.158 76.6206 139.961 72.8277 138.032 68.9105C133.877 60.4716 129.936 51.9323 125.763 43.5018C122.615 37.1417 119.022 31.0006 114.605 25.3957C106.623 15.2677 99.9746 4.34955 94.0426 -7.01112C93.6701 -7.72727 93.3466 -8.46715 93 -9.19587Z" fill="#F1CD00"/>
<path d="M129 -9.19727C134.324 -9.19727 139.647 -9.19727 145 -9.19727C145 2.09496 145 13.3858 145 24.678C144.834 24.4654 144.636 24.2666 144.506 24.0373C142.87 21.1307 141.216 18.2324 139.62 15.3079C135.92 8.52399 132.375 1.67796 129.936 -5.58094C129.539 -6.76429 129.309 -7.99182 129 -9.19727Z" fill="#F1CD00"/>
</g>
</svg>
