<svg width="15" height="29" viewBox="0 0 15 29" fill="none" xmlns="http://www.w3.org/2000/svg">
<path d="M14.3039 0.832865L10.7413 0.827148C6.73871 0.827148 4.15208 3.48097 4.15208 7.58846V10.7059H0.569963C0.260426 10.7059 0.00976562 10.9568 0.00976562 11.2664V15.7831C0.00976562 16.0927 0.260712 16.3434 0.569963 16.3434H4.15208V27.7406C4.15208 28.0502 4.40274 28.3008 4.71228 28.3008H9.38593C9.69547 28.3008 9.94613 28.0499 9.94613 27.7406V16.3434H14.1345C14.444 16.3434 14.6947 16.0927 14.6947 15.7831L14.6964 11.2664C14.6964 11.1177 14.6372 10.9754 14.5323 10.8702C14.4274 10.765 14.2845 10.7059 14.1359 10.7059H9.94613V8.0632C9.94613 6.79303 10.2488 6.14822 11.9034 6.14822L14.3034 6.14737C14.6126 6.14737 14.8633 5.89642 14.8633 5.58716V1.39307C14.8633 1.0841 14.6129 0.833436 14.3039 0.832865Z" fill="white"/>
</svg>
