<svg width="84" height="84" viewBox="0 0 84 84" fill="none" xmlns="http://www.w3.org/2000/svg">
<circle cx="42.4828" cy="41.9999" r="38.9999" stroke="white" stroke-width="5" stroke-linejoin="bevel" stroke-dasharray="2 3"/>
<path d="M47.4989 30.0054L44.1273 30C40.3394 30 37.8916 32.5115 37.8916 36.3986V39.3488H34.5016C34.2087 39.3488 33.9714 39.5863 33.9714 39.8793V44.1538C33.9714 44.4467 34.2089 44.6839 34.5016 44.6839H37.8916V55.4698C37.8916 55.7628 38.1288 56 38.4217 56H42.8447C43.1376 56 43.3748 55.7625 43.3748 55.4698V44.6839H47.3385C47.6314 44.6839 47.8686 44.4467 47.8686 44.1538L47.8703 39.8793C47.8703 39.7386 47.8143 39.6039 47.715 39.5044C47.6157 39.4048 47.4805 39.3488 47.3398 39.3488H43.3748V36.8479C43.3748 35.6459 43.6613 35.0357 45.2271 35.0357L47.4983 35.0348C47.791 35.0348 48.0282 34.7974 48.0282 34.5047V30.5356C48.0282 30.2432 47.7913 30.006 47.4989 30.0054Z" fill="white"/>
</svg>
