<svg width="363" height="180" viewBox="0 0 363 180" fill="none" xmlns="http://www.w3.org/2000/svg">
<path d="M369.261 260.893C369.78 260.246 370.398 259.475 371.037 258.678C370.168 258.625 369.353 258.8 368.851 258.482C368.345 258.16 368.207 257.307 367.803 256.765C367.526 256.395 367.047 256.182 366.698 255.857C366.342 255.526 366.034 255.142 365.787 254.87C367.291 254.549 368.512 254.289 369.699 254.036C370.071 254.902 370.537 255.98 371.077 257.237C371.965 256.03 372.757 255.256 373.13 254.317C373.318 253.843 372.782 253.052 372.504 252.436C372.366 252.129 372.071 251.893 371.848 251.625C372.122 251.487 372.402 251.361 372.666 251.208C372.99 251.021 373.3 250.811 373.579 250.635C373.746 250.844 374.046 251.325 374.117 251.293C374.496 251.123 374.975 250.898 375.132 250.559C376.003 248.683 376.79 246.769 377.395 244.71C376.393 246.125 375.39 247.542 374.268 249.126C373.563 248.303 372.932 247.566 372.162 246.668C373.441 246.245 375.21 246.166 375.53 245.446C376.181 243.98 377.447 243.779 378.433 242.996C379.257 242.341 379.146 240.347 378.72 239.638C379.006 237.786 379.256 236.168 379.535 234.354C378.175 233.238 378.258 233.278 379.269 231.188C381.115 227.373 382.857 223.508 384.633 219.658C385.814 217.096 385.467 214.452 385.242 211.752C385.1 210.059 385.608 208.305 385.861 206.585C386.413 202.825 387.733 199.225 387.727 195.325C387.724 193.008 388.602 190.69 389.102 188.376C389.272 187.588 389.564 186.823 389.686 186.03C390.457 181 391.338 175.981 391.901 170.927C392.336 167.015 392.356 163.056 392.569 159.118C392.818 154.477 393.122 149.839 393.299 145.197C393.35 143.846 392.873 142.473 392.944 141.127C393.034 139.447 393.479 137.79 393.703 136.113C394.129 132.915 394.603 129.718 394.881 126.505C395.223 122.546 395.386 118.57 395.63 114.546C397.053 114.351 397.251 115.278 397.11 116.472C397.022 117.224 396.798 117.974 396.819 118.72C396.835 119.265 397.152 119.801 397.191 119.915C398.738 119.761 399.961 119.57 401.189 119.537C402.365 119.505 402.375 120.482 402.293 121.254C402.113 122.947 401.857 124.639 401.527 126.311C401.282 127.551 400.669 128.746 400.588 129.986C400.496 131.411 400.716 132.878 400.973 134.297C401.199 135.544 401.107 135.894 399.923 136.22C400.093 135.538 399.058 133.731 398.419 133.772C397.056 133.859 396.982 135.149 396.827 136.022C396.465 138.043 395.59 140.047 396.298 142.185C396.376 142.421 396.065 143.049 395.902 143.061C393.386 143.253 394.933 145.062 394.997 145.872C395.152 147.833 395.877 149.736 395.35 151.768C395.226 152.245 395.574 152.826 395.571 153.358C395.557 155.345 395.49 157.332 395.436 159.32C395.428 159.624 395.362 159.925 395.362 160.229C395.362 163.095 395.385 165.96 395.367 168.826C395.362 169.705 395.636 170.847 393.711 170.436C393.827 170.657 393.945 170.877 394.061 171.099C394.491 171.099 395.078 171.276 395.316 171.061C395.785 170.64 396.121 170.033 396.404 169.449C397.377 167.448 398.303 165.425 399.58 163.523C399.041 172.427 396.038 180.856 395.226 189.942C396.339 187.994 397.331 186.257 398.547 184.125C398.662 184.82 398.838 185.182 398.748 185.457C397.859 188.173 396.841 190.849 396.044 193.591C395.642 194.974 395.779 196.509 395.399 197.902C394.03 202.922 392.492 207.896 391.129 212.918C390.521 215.153 390.351 217.514 389.672 219.722C388.651 223.041 387.531 226.353 386.145 229.532C382.71 237.408 379.181 245.247 375.528 253.024C373.551 257.234 371.239 261.287 369.081 265.412C366.008 271.286 363.165 277.294 359.795 282.99C357.163 287.44 354.56 291.95 350.963 295.805C347.712 299.29 343.755 301.094 339.213 301.913C337.681 302.19 336.128 302.355 334.584 302.571C334.551 302.43 334.517 302.288 334.485 302.147C336.174 301.663 337.836 301.012 339.558 300.73C343.955 300.008 347.637 297.983 350.69 294.834C351.685 293.808 352.125 292.207 353.182 291.287C355.376 289.375 356.226 286.765 356.68 284.216C356.962 282.644 358.088 282.425 358.722 281.52C360.488 278.997 362.394 276.538 363.841 273.836C365.747 270.273 367.288 266.513 368.934 262.814C369.184 262.25 369.154 261.568 369.261 260.893ZM398.805 125.871C399.423 124.452 400.021 123.433 400.282 122.334C400.415 121.779 399.94 121.079 399.74 120.445C399.434 120.832 399.001 121.178 398.852 121.62C398.62 122.308 398.58 123.062 398.472 123.707C398.102 124.04 397.745 124.361 397.389 124.681C397.874 125.089 398.36 125.499 398.805 125.871Z" fill="white"/>
<path d="M78.6635 154.725C77.9678 155.277 77.522 155.631 76.8673 156.15C77.5134 156.322 77.8742 156.418 78.334 156.541C78.2123 156.983 78.0981 157.399 77.9625 157.89C76.5237 157.167 75.2411 156.951 73.7356 157.724C72.5833 158.316 71.2975 157.798 70.2368 156.954C70.5781 155.832 70.8947 154.788 71.3384 153.329C71.7573 154.218 71.963 154.653 72.2506 155.263C72.6447 154.952 73.0012 154.671 73.4653 154.305C73.0162 153.936 72.6921 153.668 72.3787 153.411C72.6512 152.51 74.7199 152.285 75.5804 152.984C76.0962 152.525 76.6077 152.07 77.2679 151.483C77.0482 150.99 76.7477 150.315 76.3816 149.492C75.7257 150.019 75.1657 150.469 74.4291 151.061C74.2751 150.128 74.1491 149.368 74.0242 148.609C73.2725 150.241 71.7584 150.264 70.3628 150.711C69.6843 150.929 69.2977 152.06 69.0425 152.785C69.3139 149.518 69.5842 146.251 69.8415 143.147C70.5415 142.677 71.3277 142.287 71.9318 141.708C72.7158 140.958 73.3889 140.335 74.2762 141.627C75.0204 141.028 75.6407 140.53 76.2545 140.036C76.9416 140.216 77.6588 140.403 78.6075 140.652C79.9666 145.244 78.9317 150.165 78.6635 154.725Z" fill="white"/>
<path d="M327.919 30.2533C328.136 28.8469 328.352 27.5696 328.524 26.2871C328.647 25.3749 328.973 24.9215 330.017 25.2058C333.77 26.2267 337.548 27.1583 341.29 28.2147C341.931 28.3956 342.929 29.0321 342.923 29.4488C342.909 30.558 342.484 31.678 342.092 32.7463C342.046 32.8734 341.191 32.7517 340.724 32.6666C339.707 32.4803 338.699 32.2391 337.685 32.0312C337.446 31.9828 337.153 32.0538 336.961 31.9418C335.18 30.8972 333.26 30.7734 331.242 30.599C330.172 30.5053 328.929 30.9231 327.919 30.2533Z" fill="white"/>
<path d="M339.902 65.5883C344.069 63.5799 347.785 66.1839 351.725 66.7644C351.965 66.7999 352.254 66.8925 352.408 67.0605C353.621 68.3829 354.807 69.7301 356.259 71.3605C355.454 71.409 355.109 71.5081 354.807 71.436C351.42 70.6315 348.031 69.8314 344.667 68.9386C344.247 68.8277 343.966 68.1901 343.623 67.7938C343.294 67.4126 343.039 66.886 342.624 66.6728C341.743 66.2194 340.779 65.9265 339.902 65.5883Z" fill="white"/>
<path d="M62.2987 137.395C61.0818 137.681 60.2677 138.099 60.0953 139.398C59.9704 140.342 59.3857 140.98 58.2388 141.039C57.7908 141.063 57.3331 141.64 56.9508 142.035C56.4522 142.55 56.0247 143.134 55.4862 143.786C55.063 142.803 54.7528 142.085 54.4438 141.367C54.3113 141.417 54.1788 141.466 54.0464 141.516C54.0636 139.654 54.3964 139.304 56.1528 139.225C56.3714 139.216 56.5814 139.036 56.7957 138.935C56.5911 138.511 56.4759 138.001 56.1647 137.682C55.1254 136.615 54.9919 136.102 55.581 134.66C57.5571 135.657 57.5571 135.657 57.6777 133.041C57.9243 133.705 58.0622 134.077 58.2678 134.629C58.5069 134.168 58.6878 133.819 58.97 133.277C59.3932 134.687 60.3075 134.615 61.4361 134.088C61.5772 134.529 61.6429 134.916 61.8205 135.242C62.0445 135.655 62.3342 136.041 62.6411 136.399C62.8501 136.642 63.3368 136.805 63.3508 137.026C63.3842 137.545 63.2097 138.077 63.1182 138.605C62.8199 138.48 62.4559 138.42 62.2492 138.206C62.1318 138.081 62.2696 137.71 62.2987 137.395Z" fill="white"/>
<path d="M55.7847 149.733C55.8611 150.201 55.9376 150.667 56.013 151.134C55.8751 151.172 55.7362 151.209 55.5983 151.246C55.0965 149.595 54.5936 147.946 54.0659 146.212C54.7002 145.891 55.2268 145.624 55.8385 145.315C56.4588 146.377 57.0532 147.396 57.7231 148.543C58.1 148.332 58.4984 148.206 58.1463 147.171C57.8685 146.355 58.4629 145.243 58.6654 144.26C58.8377 143.422 59.0035 142.582 59.1597 141.802C59.5538 142.08 60.0072 142.401 60.4606 142.722C60.691 142.213 60.9139 141.703 61.153 141.199C61.3318 140.821 61.531 140.454 61.9047 139.722C61.923 144.356 62.5788 148.694 59.6798 152.564C59.4214 151.625 59.4063 150.723 58.9507 150.22C58.6578 149.897 57.7177 150.16 57.0672 150.16C56.9606 150.347 56.8551 150.534 56.7485 150.722C56.5773 150.251 56.406 149.781 56.2337 149.31C56.0851 149.45 55.9354 149.592 55.7847 149.733Z" fill="white"/>
<path d="M305.063 171.335C305.393 171.192 305.79 170.847 306.109 170.908C307.52 171.181 308.904 171.585 310.305 171.913C310.869 172.045 311.465 172.23 312.022 172.17C313.25 172.038 313.53 172.586 313.379 173.698C311.635 172.551 310.047 173.134 308.59 174.029C307.974 174.407 307.091 175.534 307.226 175.742C307.789 176.612 306.704 178.431 308.882 178.339C308.805 178.502 308.727 178.666 308.65 178.831C307.668 178.659 306.687 178.489 305.633 178.306C306.218 178.866 306.764 179.337 307.213 179.887C307.269 179.955 306.813 180.442 306.405 180.989C306.179 180.274 306.055 179.883 305.931 179.492C304.59 179.348 303.783 178.179 304.285 176.741C304.66 175.667 304.175 174.398 305.209 173.435C305.496 173.167 305.144 172.212 305.063 171.335Z" fill="white"/>
<path d="M35.9184 148.956C35.7428 148.408 35.5834 147.912 35.3928 147.317C35.9151 147.666 36.4719 148.209 36.6291 148.111C37.1126 147.809 37.4443 147.262 37.9268 146.704C38.3952 147.109 39.0123 147.642 39.8706 148.384C39.8781 148.313 39.8447 148.638 39.8124 148.963C39.8997 149.012 39.9869 149.059 40.0741 149.108C40.3337 148.735 40.7989 148.371 40.814 147.989C40.8538 146.97 40.7073 145.943 40.6147 144.921C40.604 144.806 40.4715 144.701 40.3186 144.481C41.5462 144.489 41.9167 145.087 42.0061 146.115C42.0685 146.825 42.3668 147.513 42.6587 148.572C41.5624 149.377 40.675 150.845 40.5307 152.758C40.507 153.077 39.8641 153.582 39.4947 153.595C38.7366 153.62 37.9031 153.511 37.2257 153.191C36.5774 152.886 36.0885 152.244 35.5296 151.748C36.1283 151.31 36.726 150.872 37.4852 150.315C37.4691 150.062 37.426 149.399 37.3765 148.624C36.9629 148.719 36.5085 148.822 35.9184 148.956Z" fill="white"/>
<path d="M49.6509 138.747C52.0363 137.938 50.6094 136.356 51.1285 135.26C48.4308 134.731 47.9634 135.182 48.196 137.763C48.2348 138.191 47.6867 138.662 47.6942 139.108C47.7168 140.328 47.8902 141.545 48.0237 142.97C47.7933 142.694 47.4358 142.465 47.3916 142.185C46.6001 137.21 48.7625 130.794 51.5958 129.601C51.7229 129.725 51.8489 129.85 51.976 129.974C51.5958 130.178 51.1026 130.3 50.8721 130.614C50.6783 130.879 50.6438 131.443 50.7968 131.744C51.2211 132.582 51.8371 133.322 52.2667 134.157C52.6846 134.97 53.0044 135.74 54.0738 134.415C54.1395 134.552 54.2052 134.687 54.2709 134.824C54.0609 135.305 53.9489 135.89 53.5989 136.225C53.4179 136.398 52.8127 136.129 52.103 136.011C52.2344 137.109 52.368 138.235 52.5241 139.54C52.9344 139.1 53.2553 138.757 53.5752 138.413C53.7098 138.474 53.8444 138.534 53.9801 138.594C53.685 139.303 53.3899 140.01 53.0949 140.719C52.578 140.423 52.0621 140.127 51.5452 139.831C51.0434 139.544 50.5394 139.257 49.6509 138.747Z" fill="white"/>
<path d="M361.997 35.0132C361.131 35.0875 360.179 35.2361 359.227 35.2329C357.754 35.2286 357.426 33.8792 356.934 32.9165C356.661 32.3845 356.701 31.3237 357.065 30.908C357.984 29.858 359.135 28.9965 360.271 28.1652C360.466 28.0219 361.331 28.3191 361.402 28.5561C362.018 30.6269 363.334 32.6504 361.997 35.0132ZM359.776 33.372C359.975 33.3149 360.174 33.2589 360.373 33.2018C360.155 32.5417 359.963 31.8697 359.687 31.2354C359.649 31.1471 359.196 31.2397 358.935 31.2483C359.098 31.8126 359.247 32.3812 359.434 32.9369C359.49 33.1006 359.658 33.2277 359.776 33.372Z" fill="white"/>
<path d="M327.675 65.4761C326.648 65.2424 325.589 65.096 324.612 64.7277C324.268 64.5985 324.127 63.9275 323.895 63.5032C324.329 63.4009 324.764 63.2081 325.197 63.2146C326.39 63.2329 327.739 63.7208 328.738 63.3148C330.234 62.7052 331.489 63.2835 332.845 63.402C333.572 63.4655 334.294 63.5635 335.039 63.6486C336.472 64.7492 337.966 65.8961 339.459 67.0419C339.368 67.2045 339.276 67.3672 339.185 67.5298C337.091 66.7792 334.805 66.9472 332.83 65.3383C332.022 64.6803 330.796 63.2674 329.206 64.0751C328.669 64.3486 328.191 64.7384 327.684 65.0755C327.682 65.2101 327.678 65.3426 327.675 65.4761Z" fill="white"/>
<path d="M297.785 61.5566C296.514 61.239 295.473 60.9794 294.173 60.6542C294.62 60.2751 294.854 60.0759 295.05 59.909C294.648 59.4858 294.233 59.0486 293.844 58.6393C293.255 59.0626 292.679 59.4772 291.833 60.0856C291.833 60.0846 291.833 60.4442 291.833 60.8028C291.636 60.9687 291.438 61.1345 291.241 61.3004C290.451 60.0393 289.66 58.7793 289.115 57.9071C290.237 57.9071 292.114 57.7584 293.948 57.9716C294.818 58.0729 295.699 58.7599 296.406 59.3749C296.943 59.8444 297.213 60.6187 297.785 61.5566Z" fill="white"/>
<path d="M304.723 62.2345C305.098 59.9773 305.097 59.9869 302.692 59.5842C301.816 59.4377 300.949 59.2363 300.077 59.0608C300.103 58.9273 300.129 58.7948 300.155 58.6613C302.923 59.1114 305.689 59.5616 308.457 60.0117C308.436 60.1248 308.416 60.2379 308.395 60.3509C309.036 60.1194 309.677 59.8889 310.608 59.5529C309.189 62.3744 307.064 62.5295 304.723 62.2345Z" fill="white"/>
<path d="M312.777 60.4008C313.003 60.5968 313.254 60.7455 313.404 60.963C313.542 61.1611 313.497 61.5477 313.661 61.6544C314.401 62.139 315.169 62.5902 315.974 62.9477C316.082 62.9951 316.46 62.4362 316.712 62.1573C316.053 61.5607 315.394 60.963 314.752 60.3815C315.416 59.7967 316.77 59.9787 320.212 61.4196C318.39 63.2115 316.269 63.904 313.74 63.2632C312.451 62.938 312.024 61.8665 312.777 60.4008Z" fill="white"/>
<path d="M68.8959 155.452C69.2093 156.902 69.43 157.926 69.682 159.095C70.3766 159.063 71.3426 158.981 72.3075 159.001C72.5337 159.006 72.7523 159.356 72.9741 159.546C72.706 159.696 72.4206 159.997 72.1718 159.969C70.9722 159.835 69.78 159.624 68.59 159.414C67.9062 159.293 67.2321 159.123 66.1982 158.898C67.049 157.811 67.8297 156.813 68.8959 155.452Z" fill="white"/>
<path d="M298.447 179.517C298.289 179.18 297.968 178.826 298.003 178.51C298.09 177.715 297.046 176.417 298.768 176.27C299.528 176.206 300.672 175.214 301.042 176.659C301.291 177.63 301.955 178.961 300.189 179.632C299.982 178.689 300.211 177.208 298.403 178.06C298.57 178.505 298.715 178.891 298.86 179.278C298.722 179.358 298.585 179.437 298.447 179.517Z" fill="white"/>
<path d="M295.105 182.197C294.297 180.997 293.938 179.997 293.239 179.606C292.842 179.384 291.889 180.156 291.053 180.543C291.688 178.982 293.925 177.893 295.107 178.595C295.586 178.88 295.92 179.737 295.949 180.351C295.975 180.883 295.476 181.44 295.105 182.197Z" fill="white"/>
<path d="M93.4844 153.649C92.9815 155.696 90.4174 156.395 91.4814 158.612C90.1956 158.222 90.2096 158.118 90.2688 155.92C90.3216 153.964 91.8691 154.2 93.4844 153.649Z" fill="white"/>
<path d="M75.6448 137.735C75.1063 138.004 74.5819 138.267 73.9616 138.577C72.9116 136.975 73.9745 135.679 74.2254 134.312C74.3579 134.317 74.4903 134.321 74.6228 134.326C74.6228 135.085 74.6228 135.845 74.6228 136.791C75.6383 137.343 76.9209 138.038 78.3144 138.794C76.9963 139.351 75.9711 138.906 75.6448 137.735Z" fill="white"/>
<path d="M358.942 93.3961C358.625 95.6652 358.537 95.7255 356.654 95.0158C356.489 95.3679 356.321 95.7287 356.153 96.0884C356.048 96.0625 355.943 96.0367 355.838 96.0098C355.976 94.9738 356.114 93.9378 356.265 92.8103C357.262 93.0289 358.07 93.2055 358.942 93.3961Z" fill="white"/>
<path d="M78.4047 93.8379C78.5824 93.1573 78.7407 92.5499 78.899 91.9393C78.0515 91.4407 77.2664 90.9787 76.2336 90.3713C77.1404 89.7586 77.695 89.3838 78.2668 88.9983C79.9834 92.8504 79.9834 92.8504 78.4047 93.8379Z" fill="white"/>
<path d="M299.5 81.1303C297.362 81.0495 295.203 80.1783 294.621 83.0525C294.473 83.0633 294.326 83.0752 294.178 83.0859C294.073 82.5863 293.718 81.9552 293.902 81.6106C294.909 79.7217 297.043 79.4805 299.5 81.1303Z" fill="white"/>
<path d="M49.5451 154.522C50.7824 155.728 51.7807 156.702 52.779 157.676C52.7155 157.818 52.653 157.961 52.5895 158.103C52.1006 158.06 51.2584 158.153 51.182 157.953C50.7609 156.852 48.8386 156.524 49.5451 154.522Z" fill="white"/>
<path d="M86.4069 145.636C84.8572 147.165 85.6057 148.589 86.3606 150.042C84.9294 149.874 84.6537 149.529 84.56 148.057C84.4642 146.546 84.7872 146.047 86.4069 145.636Z" fill="white"/>
<path d="M76.3631 182.003C75.5371 181.767 75.0449 181.406 74.9717 180.37C74.8608 178.782 76.2791 179.15 77.1191 178.28C76.8089 179.738 76.5645 180.892 76.3178 182.046C76.3168 182.045 76.3631 182.003 76.3631 182.003Z" fill="white"/>
<path d="M307.677 81.0275C309.183 81.819 309.941 82.8248 309.339 84.4574C308.177 84.5522 307.901 84.0428 307.677 81.0275Z" fill="white"/>
<path d="M45.2573 149.155C45.6698 150.097 46.1038 151.029 46.457 151.991C46.4893 152.079 45.9767 152.544 45.7592 152.515C45.0247 152.418 44.3107 152.178 43.5881 151.993C43.6269 151.812 43.6657 151.63 43.7044 151.449C44.105 151.494 44.5046 151.541 45.1184 151.611C45.029 150.815 44.945 150.069 44.86 149.322C44.9935 149.267 45.1249 149.211 45.2573 149.155Z" fill="white"/>
<path d="M58.7085 178.478C60.1731 178.949 61.2704 179.303 62.4367 179.678C60.5942 181.07 59.85 180.906 58.7085 178.478Z" fill="white"/>
<path d="M89.0519 138.709C89.8908 138.496 90.5606 138.325 91.2423 138.151C91.4017 138.511 91.574 138.901 91.687 139.156C90.5972 139.82 89.4794 140.499 88.3616 141.179C88.5446 140.199 90.8266 140.34 89.0519 138.709Z" fill="white"/>
<path d="M74.7122 173.488C75.368 172.527 75.9161 171.721 76.4654 170.915C76.6301 170.975 76.7949 171.034 76.9597 171.093C77.0846 171.912 77.2095 172.729 77.3247 173.489C76.4104 173.488 75.7449 173.488 74.7122 173.488Z" fill="white"/>
<path d="M90.0554 142.736C91.1172 142.5 92.1748 142.243 93.2452 142.061C93.3647 142.04 93.733 142.586 93.69 142.644C93.4218 142.997 93.0697 143.543 92.7412 143.547C91.8603 143.554 90.9772 143.321 90.0953 143.182C90.0813 143.034 90.0683 142.886 90.0554 142.736Z" fill="white"/>
<path d="M92.7759 165.332C91.7894 164.683 90.8041 164.033 89.8176 163.383C89.8532 163.326 89.8876 163.268 89.9232 163.211C90.4853 163.393 91.0474 163.573 91.6096 163.755C91.6634 163.666 91.7162 163.577 91.77 163.488C91.5482 163.215 91.3253 162.941 90.9893 162.527C91.4524 162.672 91.9359 162.677 92.0597 162.891C92.4894 163.632 92.7931 164.445 93.1453 165.231C93.0225 165.264 92.8997 165.299 92.7759 165.332Z" fill="white"/>
<path d="M55.2301 181.799C54.6314 181.799 53.8969 181.799 53.0957 181.799C53.8721 180.925 53.9669 179.211 55.7373 179.898C55.5801 180.488 55.4143 181.11 55.2301 181.799Z" fill="white"/>
<path d="M88.5662 143.072C87.4645 142.996 86.4189 142.957 85.384 142.827C85.1201 142.793 84.8929 142.472 84.6484 142.284C84.8757 142.005 85.1934 141.455 85.315 141.496C85.8276 141.667 86.8593 140.901 86.8367 142.3C86.8324 142.539 87.9168 142.796 88.5662 143.072Z" fill="white"/>
<path d="M71.0304 132.037C70.5178 131.448 69.8684 130.925 69.5475 130.245C69.3676 129.865 69.7327 129.228 69.8512 128.706C70.0611 128.702 70.2711 128.698 70.4822 128.694C70.7945 129.829 71.1068 130.963 71.418 132.098C71.2888 132.078 71.1596 132.058 71.0304 132.037Z" fill="white"/>
<path d="M296.33 171.557C296.891 171.841 297.243 172.018 297.98 172.391C297.208 172.534 296.914 172.689 296.706 172.611C295.603 172.195 295.9 171.372 296.244 170.623C296.706 169.616 297.363 169.919 298.231 170.507C297.649 170.829 297.21 171.072 296.33 171.557Z" fill="white"/>
<path d="M102.665 171.119C102.665 171.92 102.665 172.721 102.665 173.774C103.213 173.365 103.54 173.12 104.158 172.659C104.08 173.307 104.163 173.817 103.946 174.05C103.739 174.272 103.134 174.364 102.864 174.218C102.552 174.05 102.284 173.577 102.228 173.202C102.128 172.529 102.2 171.829 102.2 171.141C102.354 171.134 102.51 171.126 102.665 171.119Z" fill="white"/>
<path d="M110.777 48.5926C110.103 48.5926 109.739 48.6508 109.401 48.5786C108.915 48.4731 108.436 48.2986 107.989 48.0811C107.936 48.0552 108.063 47.3606 108.182 47.3347C108.68 47.2292 109.27 47.1086 109.704 47.2885C110.09 47.4489 110.314 47.9981 110.777 48.5926Z" fill="white"/>
<path d="M63.9941 177.111C63.0184 175.612 64.1556 174.652 64.6251 173.557C64.6154 174.733 65.5459 176.05 63.9941 177.111Z" fill="white"/>
<path d="M50.8471 150.086C50.3808 149.342 50.1223 148.93 49.6797 148.224C50.4507 148.101 51.0334 147.943 51.6106 147.961C51.7592 147.966 52.0833 148.627 51.9875 148.813C51.77 149.241 51.3435 149.559 50.8471 150.086Z" fill="white"/>
<path d="M110.139 73.9639C109.52 73.6322 109.009 73.3586 108.42 73.0431C108.575 72.1126 108.763 70.9927 108.98 69.6918C109.314 70.0967 109.568 70.4047 109.782 70.6642C109.424 71.2447 109.089 71.7896 108.696 72.4293C109.572 72.7879 110.782 72.7211 110.139 73.9639Z" fill="white"/>
<path d="M104.594 45.597C103.023 46.493 101.967 45.0661 100.575 44.6116C100.936 44.505 101.355 44.225 101.646 44.3241C102.591 44.645 103.488 45.106 104.594 45.597Z" fill="white"/>
<path d="M45.2765 153.458C45.5996 153.873 46.0648 154.28 45.9959 154.417C45.6405 155.12 45.1484 155.755 44.7047 156.413C44.5292 156.303 44.3525 156.194 44.177 156.084C44.5001 155.31 44.8253 154.536 45.2765 153.458Z" fill="white"/>
<path d="M103.726 135.916C103.726 138.518 103.726 141.12 103.726 143.721C103.664 143.722 103.602 143.724 103.539 143.725C103.539 141.139 103.539 138.554 103.539 135.969C103.602 135.95 103.664 135.933 103.726 135.916Z" fill="white"/>
<path d="M46.3749 168.756C44.7175 168.756 43.0602 168.756 41.4028 168.756C41.4039 168.613 41.405 168.469 41.4061 168.326C43.0613 168.326 44.7165 168.326 46.3717 168.326C46.3717 168.471 46.3738 168.613 46.3749 168.756Z" fill="white"/>
<path d="M72.512 104.021C71.7216 104.177 71.1056 104.299 70.2581 104.466C70.3636 103.42 70.454 102.524 70.51 101.964C71.0603 102.53 71.6882 103.175 72.512 104.021Z" fill="white"/>
<path d="M271.456 59.6514C270.575 59.5243 269.326 60.1005 269.215 58.0931C270.154 58.4754 270.936 58.7942 271.719 59.1119C271.631 59.2917 271.543 59.4715 271.456 59.6514Z" fill="white"/>
<path d="M207.647 73.4698C207.058 73.8101 206.468 74.1504 205.887 74.4854C205.869 74.3723 205.557 73.5269 205.75 73.388C206.193 73.0703 206.884 73.0994 207.475 72.9874C207.532 73.1478 207.59 73.3083 207.647 73.4698Z" fill="white"/>
<path d="M278.055 58.5249C279.154 58.5249 280.251 58.5249 281.349 58.5249C281.353 58.6509 281.355 58.7759 281.358 58.9019C280.27 58.9019 279.183 58.9019 278.095 58.9019C278.081 58.7759 278.068 58.6509 278.055 58.5249Z" fill="white"/>
<path d="M47.0977 157.955C48.1864 158.134 49.1836 156.053 50.5545 158.216C49.2784 158.216 48.2349 158.217 47.1913 158.208C47.1644 158.208 47.1397 158.073 47.0977 157.955Z" fill="white"/>
<path d="M355.404 32.6357C354.946 31.9164 354.487 31.1981 354.027 30.4787C354.254 30.3387 354.482 30.1998 354.709 30.0598C355.172 30.7878 355.635 31.5169 356.098 32.2448C355.868 32.3751 355.636 32.5054 355.404 32.6357Z" fill="white"/>
<path d="M76.5052 100.429C75.8289 99.5284 75.144 98.6163 74.3611 97.5738C74.3794 97.5609 74.6271 97.394 74.8748 97.2271C75.5338 98.2512 76.9435 98.9178 76.5052 100.429Z" fill="white"/>
<path d="M362.487 71.9637C363.555 71.029 365.427 72.4063 365.83 70.4378C366.158 71.9616 365.101 72.4785 362.487 71.9637Z" fill="white"/>
<path d="M49.191 179.856C49.1005 180.311 49.0262 180.69 48.9508 181.068C48.8948 181.065 48.8377 181.063 48.7817 181.06C48.7817 180.369 48.7817 179.68 48.7817 178.825C49.5614 179.072 50.2668 179.296 50.9722 179.519C50.9582 179.631 50.9442 179.743 50.9312 179.856C50.4068 179.856 49.8823 179.856 49.191 179.856Z" fill="white"/>
<path d="M302.913 171.079C302.355 171.548 301.796 172.015 301.11 172.591C300.934 171.069 301.038 170.959 302.573 170.714C302.686 170.835 302.799 170.957 302.913 171.079Z" fill="white"/>
<path d="M66.5579 170.712C67.2622 171.069 67.9665 171.427 68.8851 171.893C68.4242 172.291 68.0871 172.581 67.8556 172.782C67.2191 172.097 66.7237 171.564 66.2273 171.03C66.3371 170.924 66.447 170.819 66.5579 170.712Z" fill="white"/>
<path d="M247.848 57.5794C248.685 57.8335 249.523 58.0876 250.361 58.3418C250.32 58.485 250.278 58.6283 250.237 58.7715C249.365 58.555 248.285 59.0795 247.848 57.5794Z" fill="white"/>
<path d="M75.6426 135.961C75.9463 135.642 76.2047 135.371 76.6301 134.924C77.0727 135.767 77.4356 136.461 77.9935 137.526C77.0049 136.868 76.4169 136.476 75.6426 135.961Z" fill="white"/>
<path d="M77.6745 100.071C78.1257 100.379 78.578 100.687 79.0293 100.996C78.7902 101.246 78.4025 101.743 78.3357 101.703C77.9007 101.444 77.5345 101.067 77.1458 100.729C77.3224 100.509 77.499 100.29 77.6745 100.071Z" fill="white"/>
<path d="M302.045 82.1011C302.757 81.5573 303.249 81.1825 303.896 80.6882C303.896 81.4722 303.896 82.0839 303.896 82.8345C303.336 82.6116 302.787 82.394 302.045 82.1011Z" fill="white"/>
<path d="M75.1084 90.9416C75.1762 90.1113 73.8721 88.9784 75.8826 88.4894C75.7965 89.3757 75.7168 90.1867 75.6382 90.9976C75.4616 90.9793 75.285 90.9599 75.1084 90.9416Z" fill="white"/>
<path d="M78.2959 114.381C78.0364 113.86 77.7757 113.337 77.4785 112.74C77.7693 112.464 78.0751 112.174 78.5414 111.734C78.5414 112.68 78.5414 113.476 78.5414 114.272C78.4596 114.309 78.3777 114.345 78.2959 114.381Z" fill="white"/>
<path d="M304.531 168.511C304.271 168.966 304.057 169.463 303.717 169.848C303.632 169.945 303.142 169.684 302.838 169.588C303.173 169.115 303.509 168.642 303.844 168.168C304.074 168.283 304.303 168.397 304.531 168.511Z" fill="white"/>
<path d="M214.559 53.0371C215.051 51.6274 215.959 51.3711 217.626 52.1174C216.692 52.3974 215.657 52.7076 214.559 53.0371Z" fill="white"/>
<path d="M301.593 168.556C301.253 168.046 300.913 167.538 300.502 166.923C300.959 166.771 301.318 166.652 301.874 166.466C301.956 167.187 302.026 167.8 302.096 168.414C301.928 168.461 301.76 168.508 301.593 168.556Z" fill="white"/>
<path d="M76.6031 111.768C76.3242 112.655 76.1175 113.313 75.9096 113.971C74.5786 113.018 74.6636 112.655 76.6031 111.768Z" fill="white"/>
<path d="M85.6553 157.529C86.8507 157.878 88.0461 158.227 89.2403 158.576C89.194 158.716 89.1477 158.856 89.1014 158.996C87.8791 158.62 86.6569 158.244 85.4346 157.87C85.5078 157.757 85.581 157.643 85.6553 157.529Z" fill="white"/>
<path d="M70.1364 176.196C70.3593 176.755 70.5812 177.314 70.8041 177.871C70.5941 177.968 70.383 178.065 70.173 178.162C69.9081 177.628 69.6421 177.095 69.3772 176.561C69.6303 176.439 69.8833 176.317 70.1364 176.196Z" fill="white"/>
<path d="M57.7524 155.677C56.6259 156.124 55.4995 156.571 54.373 157.019C55.2055 155.698 56.3782 155.366 57.7642 155.672L57.7524 155.677Z" fill="white"/>
<path d="M57.7642 155.671C57.425 155.467 57.0858 155.262 56.7681 155.069C56.9016 154.428 57.0211 153.859 57.1396 153.289C58.1142 154 58.1142 154 57.7481 155.677C57.7524 155.677 57.7642 155.671 57.7642 155.671Z" fill="white"/>
<path d="M318.882 157.993C318.361 157.919 317.993 157.869 317.724 157.831C318.215 157.017 318.676 156.255 319.335 155.161C319.157 156.27 319.036 157.03 318.882 157.993Z" fill="white"/>
<path d="M41.0758 134.714C40.9293 135.733 40.7829 136.753 40.6364 137.771C40.4436 137.736 40.2509 137.701 40.0581 137.666C40.2703 136.669 40.4813 135.67 40.6935 134.673C40.8206 134.687 40.9487 134.7 41.0758 134.714Z" fill="white"/>
<path d="M43.5298 170.787C44.0349 170.721 44.499 170.658 45.1958 170.565C44.5141 171.466 44.0004 172.144 43.5298 172.766C43.5298 172.286 43.5298 171.652 43.5298 170.787Z" fill="white"/>
<path d="M99.141 12.4765C100.574 13.3165 100.605 13.3983 99.6741 14.6885C99.2907 13.9325 98.9752 13.31 98.6597 12.6876C98.8201 12.6165 98.9806 12.5465 99.141 12.4765Z" fill="white"/>
<path d="M359.775 33.3726C359.659 33.2283 359.49 33.1011 359.434 32.9364C359.246 32.3807 359.098 31.8121 358.934 31.2478C359.195 31.2392 359.648 31.1466 359.687 31.2349C359.963 31.8703 360.154 32.5412 360.373 33.2013C360.173 33.2594 359.975 33.3155 359.775 33.3726Z" fill="white"/>
</svg>
