<svg width="626" height="674" viewBox="0 0 626 674" fill="none" xmlns="http://www.w3.org/2000/svg">
<path d="M667.24 541.655C658.085 527.62 648.978 513.546 639.745 499.56C620.889 470.983 596.9 446.488 572.288 422.45C528.809 379.985 485.507 337.169 436.204 300.811C397.8 272.488 357.312 246.706 317.35 220.351C280.992 196.371 243.63 173.912 204.7 153.77C169.686 135.664 138.684 112.191 110.644 85.2605C74.4021 50.4507 38.2871 15.5142 2.13322 -19.3736C1.36378 -20.1138 0.711245 -20.9513 0.000244141 -21.75C33.0277 -21.75 66.0648 -21.75 99.0923 -21.75C100.047 -20.4059 100.787 -18.8476 101.985 -17.7567C118.991 -2.27055 135.353 13.9462 153.236 28.4681C226.547 88.0266 306.831 136.735 396.554 171.331C446.733 190.674 495.168 213.796 541.14 241.301C561.486 253.475 579.485 267.871 592.839 287.214C603.708 302.973 615.269 318.293 626.265 333.974C640.057 353.639 653.585 373.479 667.221 393.241C667.24 442.719 667.24 492.187 667.24 541.655Z" fill="#177FFF"/>
<path d="M667.24 286.367C646.27 260.722 617.996 242.947 591.689 223.097C542.406 185.901 492.85 149.027 443.557 111.86C423.191 96.5002 408.864 75.7935 391.508 57.7653C366.857 32.1498 341.339 7.29388 316.22 -17.9028C315.061 -19.0618 314.165 -20.4448 313.142 -21.7305C336.04 -21.7305 358.948 -21.7305 381.846 -21.7305C383.112 -20.5909 384.32 -19.3735 385.664 -18.3313C418.916 7.42056 452.333 32.9678 485.389 58.934C516.235 83.1567 547.295 107.117 573.291 136.453C591.699 157.218 610.915 177.428 631.028 196.703C641.712 206.939 655.065 214.653 667.22 223.506C667.24 244.447 667.24 265.407 667.24 286.367Z" fill="#177FFF"/>
<path d="M667.24 673.697C656.02 656.935 644.761 640.202 633.599 623.411C613.438 593.052 586.965 567.797 560.6 542.571C509.7 493.872 458.576 445.398 406.975 397.371C387.174 378.943 365.153 362.668 348.361 341.416C343.209 334.9 338.213 328.248 333.469 321.459C331.297 318.352 329.515 314.885 328.229 311.35C325.376 303.529 328.95 299.418 337.2 302.009C346.735 305.009 356.27 308.681 364.909 313.512C426.396 347.903 484.182 387.027 533.971 436.067C553.324 455.118 569.19 476.73 584.881 498.528C593.053 509.884 602.919 520.111 611.549 531.185C628.301 552.7 644.703 574.459 661.289 596.091C663.179 598.555 665.253 600.873 667.24 603.269C667.24 626.752 667.24 650.224 667.24 673.697Z" fill="#177FFF"/>
<path d="M667.241 136.706C652.037 123.119 636.989 109.376 621.62 95.9645C572.385 53.0219 519.664 14.4526 462.696 -18.7988C461.216 -19.6657 459.891 -20.7565 458.489 -21.75C499.444 -21.75 540.41 -21.75 581.365 -21.75C592.946 -14.0653 603.825 -5.06588 616.292 0.963017C632.626 8.87168 650.206 14.4331 667.25 21.0075C667.241 59.5768 667.241 98.1461 667.241 136.706Z" fill="#177FFF"/>
<path d="M229.907 -21.7407C241.565 -11.9328 253.321 -2.23205 264.853 7.70248C284.43 24.5522 303.792 41.6455 319.113 62.3035C323.652 68.4201 327.489 75.082 330.888 81.8414C333.304 86.6528 335.953 92.4382 331.346 97.1717C327.002 101.642 320.857 99.9671 315.841 98.1068C307.698 95.0875 299.536 91.7758 292.056 87.5196C271.34 75.7637 253 61.0567 237.105 43.8369C215.19 20.1011 190.101 -0.0796127 163.014 -18.1566C161.427 -19.2085 160.053 -20.5427 158.573 -21.7407C182.348 -21.7407 206.122 -21.7407 229.907 -21.7407Z" fill="#177FFF"/>
</svg>
