<svg width="632" height="752" viewBox="0 0 632 752" fill="none" xmlns="http://www.w3.org/2000/svg">
<path d="M210.463 612.043C211.926 612.829 213.67 613.765 215.472 614.734C215.259 613.003 214.617 611.462 215.061 610.358C215.511 609.244 217.14 608.661 218.059 607.666C218.687 606.986 218.93 605.965 219.444 605.16C219.967 604.339 220.61 603.593 221.056 603.005C222.236 605.851 223.193 608.161 224.124 610.405C222.555 611.455 220.602 612.764 218.324 614.287C221.025 615.594 222.837 616.873 224.822 617.264C225.823 617.462 227.187 616.118 228.298 615.346C228.852 614.963 229.209 614.296 229.656 613.759C230.027 614.247 230.377 614.753 230.774 615.216C231.262 615.786 231.788 616.32 232.236 616.806C231.885 617.211 231.049 617.977 231.136 618.106C231.61 618.79 232.227 619.65 232.952 619.836C236.964 620.867 241.02 621.719 245.295 622.16C242.143 620.702 238.989 619.244 235.46 617.612C236.823 615.923 238.043 614.412 239.531 612.568C240.831 614.933 241.631 618.389 243.166 618.756C246.29 619.502 247.148 621.922 249.049 623.579C250.639 624.963 254.526 624.017 255.766 622.919C259.517 622.807 262.796 622.709 266.469 622.597C268.169 619.512 268.121 619.69 272.606 620.919C280.792 623.162 289.038 625.184 297.267 627.276C302.743 628.668 307.822 627.019 313.056 625.592C316.34 624.696 319.977 625.056 323.458 624.926C331.063 624.643 338.633 625.93 346.312 624.495C350.872 623.644 355.758 624.529 360.497 624.669C362.109 624.717 363.723 625.012 365.328 624.963C375.515 624.647 385.72 624.551 395.877 623.817C403.74 623.247 411.543 621.844 419.375 620.825C428.603 619.625 437.847 618.532 447.054 617.186C449.732 616.796 452.261 615.355 454.938 615.005C458.279 614.568 461.704 614.839 465.088 614.669C471.541 614.342 478.01 614.109 484.437 613.485C492.359 612.715 500.248 611.586 508.261 610.599C509.164 613.33 507.41 614.058 505.007 614.216C503.495 614.316 501.935 614.149 500.476 614.463C499.408 614.693 498.468 615.512 498.257 615.63C499.125 618.621 499.946 620.961 500.46 623.366C500.952 625.67 499.03 626.046 497.482 626.166C494.081 626.429 490.656 626.541 487.245 626.502C484.712 626.471 482.135 625.7 479.665 625.993C476.826 626.33 474.016 627.3 471.316 628.322C468.943 629.222 468.221 629.17 467.146 626.956C468.551 627.043 471.731 624.346 471.418 623.103C470.749 620.45 468.184 620.774 466.407 620.787C462.295 620.812 458.03 619.821 454.078 621.994C453.643 622.234 452.293 621.851 452.208 621.533C450.913 616.649 447.915 620.356 446.343 620.777C442.538 621.797 439.056 623.918 434.862 623.622C433.877 623.552 432.861 624.449 431.813 624.637C427.893 625.334 423.956 625.927 420.022 626.546C419.421 626.64 418.803 626.62 418.205 626.731C412.562 627.776 406.928 628.866 401.278 629.877C399.546 630.187 397.396 631.142 397.504 627.203C397.112 627.512 396.72 627.824 396.326 628.134C396.482 628.98 396.349 630.2 396.857 630.59C397.858 631.361 399.176 631.801 400.429 632.146C404.724 633.332 409.046 634.417 413.256 636.239C395.527 638.423 377.834 635.585 359.645 637.3C363.887 638.78 367.669 640.1 372.311 641.718C370.985 642.196 370.337 642.676 369.761 642.598C364.089 641.839 358.448 640.809 352.759 640.24C349.889 639.953 346.915 640.782 344.035 640.542C333.649 639.677 323.294 638.463 312.908 637.61C308.285 637.229 303.574 637.755 298.977 637.222C292.069 636.422 285.14 635.424 278.375 633.854C261.612 629.962 244.89 625.872 228.243 621.515C219.233 619.157 210.408 616.082 201.497 613.337C188.811 609.429 175.944 606.021 163.497 601.462C153.775 597.902 143.945 594.421 135.041 588.744C126.993 583.613 121.998 576.478 118.728 567.834C117.625 564.918 116.734 561.92 115.745 558.958C116.01 558.841 116.278 558.723 116.544 558.608C118.112 561.759 120.001 564.793 121.185 568.081C124.209 576.476 129.54 582.988 136.854 587.851C139.238 589.436 142.55 589.72 144.748 591.465C149.312 595.089 154.763 595.811 159.948 595.776C163.146 595.756 163.987 597.894 166 598.813C171.613 601.371 177.151 604.227 182.999 606.09C190.709 608.544 198.676 610.208 206.56 612.101C207.763 612.387 209.094 612.079 210.463 612.043ZM487.117 620.981C490.137 621.681 492.362 622.486 494.622 622.6C495.762 622.659 496.967 621.469 498.143 620.843C497.269 620.382 496.43 619.656 495.506 619.524C494.067 619.317 492.568 619.513 491.258 619.536C490.466 618.929 489.704 618.344 488.944 617.759C488.317 618.864 487.689 619.969 487.117 620.981Z" fill="white"/>
<path d="M331.97 467.075C329.958 466.68 328.16 466.022 326.388 466.082C325.067 466.127 323.321 466.762 322.577 467.747C321.336 469.393 320.352 470.593 318.66 469.426C317.778 473.083 316.931 476.589 315.972 480.566C317.815 481.032 320.086 481.607 322.36 482.184C322.415 482.465 322.471 482.744 322.525 483.026C321.282 483.256 320.004 483.8 318.804 483.66C313.999 483.103 309.187 482.491 304.435 481.595C300.17 480.792 295.98 479.592 291.46 478.495C296.123 474.802 294.79 469.353 295.241 464.424C295.776 458.581 295.219 452.558 296.414 446.88C297.511 441.661 298.004 436.564 297.842 431.311C297.821 430.65 298.14 429.979 298.427 428.783C298.795 429.82 298.979 430.343 299.257 431.134C299.813 430.77 300.316 430.442 300.926 430.044C301.546 430.644 302.188 431.265 302.859 431.917C303.645 430.914 304.4 429.947 305.469 428.58C305.054 427.698 304.438 426.387 303.621 424.652C306.61 425.076 309.069 425.428 311.528 425.778C311.507 426.113 311.488 426.448 311.466 426.783C310.395 427.201 309.323 427.618 308.253 428.034C308.242 428.238 308.231 428.439 308.223 428.642C310.559 428.892 312.895 429.144 315.231 429.393C315.261 429.627 315.29 429.863 315.32 430.096C314.729 430.508 314.14 430.918 313.546 431.333C314.162 433.592 316.337 435.836 313.18 438.015C312.866 438.234 314.119 440.726 314.754 442.461C313.035 445.427 313.318 446.065 317.373 446.464C316.918 448.476 316.479 450.415 316.04 452.356C315.828 452.264 315.614 452.174 315.402 452.082C316.124 453.933 316.651 455.904 317.665 457.578C318.088 458.274 319.542 458.369 320.545 458.681C321.377 458.941 322.23 459.121 323.075 459.335C322.423 460.364 321.93 461.565 321.071 462.371C320.225 463.166 319.004 463.561 318.117 464.449C321.552 466.059 323.743 464.899 325.219 461.228C325.612 462.577 325.84 463.357 326.139 464.38C327.785 463.418 329.184 462.599 330.584 461.781C330.49 461.478 330.398 461.172 330.305 460.869C331.087 461.229 331.866 461.589 332.581 461.92C332.349 463.862 332.143 465.615 331.97 467.075Z" fill="white"/>
<path d="M313.55 1.08965C312.209 -0.0787737 311.35 -0.827876 310.09 -1.92789C309.986 -0.592716 309.929 0.152638 309.855 1.10289C308.939 1.02467 308.079 0.951468 307.062 0.863355C307.96 -2.23323 307.919 -4.83776 305.847 -7.52034C304.261 -9.57335 304.812 -12.2942 306.088 -14.6908C308.422 -14.4278 310.592 -14.1849 313.627 -13.8434C312.03 -12.6945 311.249 -12.1308 310.151 -11.3419C310.908 -10.6793 311.591 -10.0799 312.482 -9.29947C313.045 -10.3184 313.453 -11.0541 313.845 -11.7651C315.72 -11.5573 316.917 -7.56575 315.855 -5.61654C316.946 -4.76809 318.028 -3.92654 319.424 -2.84066C320.315 -3.45312 321.535 -4.291 323.022 -5.31202C321.746 -6.41141 320.655 -7.34995 319.22 -8.58443C321.003 -9.22815 322.452 -9.75312 323.901 -10.276C320.414 -11.1612 319.815 -14.134 318.426 -16.7193C317.751 -17.9759 315.383 -18.3248 313.861 -18.5627C320.393 -19.2198 326.926 -19.8791 333.131 -20.5041C334.313 -19.2973 335.367 -17.8915 336.726 -16.9127C338.49 -15.6427 339.962 -14.5443 337.743 -12.3261C339.193 -11.0792 340.399 -10.0391 341.596 -9.01068C341.493 -7.59218 341.385 -6.11154 341.241 -4.15261C332.695 0.198081 322.626 -0.0450881 313.55 1.08965Z" fill="white"/>
<path d="M259.74 427.354C261.121 429.042 262.353 430.413 263.432 431.893C266.828 436.548 270.07 441.314 273.555 445.898C275.919 449.006 276.123 450.833 273.35 453.61C270.464 456.502 267.193 458.641 262.767 457.077C262.203 456.878 261.567 456.889 260.97 456.778C255.716 455.812 254.958 454.812 255.41 449.449C255.658 446.512 255.55 444.001 252.095 442.551C250.801 442.007 250.62 439.172 249.321 438.195C246.985 436.441 248.647 434.91 249.156 433.442C249.99 431.033 251.193 428.753 252.596 425.622C254.512 428.577 255.953 430.802 257.783 433.626C258.496 431.34 259.035 429.61 259.74 427.354Z" fill="white"/>
<path d="M249.633 378.673C250.11 379.793 250.44 381.009 251.094 382.015C253.446 385.646 255.859 389.237 258.345 392.779C259.969 395.095 261.808 397.259 263.454 399.56C267.071 404.619 270.628 409.722 274.207 414.808C274.445 415.148 274.667 415.497 274.898 415.842C275.173 415.706 275.446 415.568 275.721 415.431C276.13 413.006 276.497 410.574 276.956 408.16C277.404 405.796 277.948 403.451 278.58 400.492C280.97 403.659 283.104 406.488 285.141 409.19C286.3 407.594 287.46 406.491 287.973 405.141C288.453 403.883 288.244 402.363 288.857 400.841C289.247 402.947 289.637 405.052 289.964 406.817C289.143 407.89 287.816 408.886 287.786 409.92C287.767 410.645 289.516 411.42 290.593 412.265C291.373 419.057 292.191 426.197 293.01 433.335C292.885 433.367 292.76 433.401 292.632 433.434C291.834 430.325 291.034 427.213 290.237 424.104C290.108 424.187 289.981 424.27 289.851 424.353C288.558 421.423 286.797 418.602 286.096 415.539C285.293 412.022 282.928 410.168 280.346 407.788C278.169 415.796 281.142 424.251 276.457 431.672C275.656 419.72 268.686 410.687 263.066 401.408C260.735 401.651 258.671 401.922 256.598 402.071C253.357 402.303 252.857 399.434 252.288 397.478C250.763 392.24 250.004 386.779 248.45 381.551C247.374 377.929 245.473 374.555 243.955 371.063C243.657 370.375 243.425 369.657 243.016 368.562C244.731 368.582 245.99 368.596 247.507 368.614C248.198 371.85 246.676 375.771 250.37 377.964C250.122 378.199 249.876 378.435 249.633 378.673Z" fill="white"/>
<path d="M141.64 613.8C141.205 613.88 139.892 614.569 139.141 614.177C137.082 613.1 135.251 611.583 133.355 610.206C132.955 609.916 132.712 609.413 132.319 609.111C127.877 605.698 123.366 602.373 118.99 598.88C116.81 597.141 114.56 595.34 112.882 593.15C109.714 589.011 106.575 584.769 104.106 580.199C101.809 575.946 99.6826 571.521 99.7336 566.325C99.774 562.161 98.6973 557.994 98.6351 553.82C98.549 548.18 99.0534 542.531 99.1218 536.883C99.163 533.553 98.8523 530.217 98.6999 526.883C98.69 526.688 98.6691 526.492 98.6571 526.297C101.3 525.941 102.215 526.759 101.55 528.926C99.6809 535.023 100.157 541.241 100.415 547.479C100.772 556.122 103.733 564.104 106.736 571.994C108.18 575.786 111.187 578.973 113.404 582.489C114.857 584.79 115.996 587.305 117.579 589.504C118.878 591.308 120.607 592.808 122.186 594.402C123.451 595.678 124.809 596.864 126.064 598.149C127.493 599.61 128.263 602.172 131.273 600.731C131.646 600.552 133.272 601.894 133.513 602.757C134.139 604.988 133.41 607.518 136.259 609.032C138.244 610.09 139.742 612.068 141.64 613.8Z" fill="white"/>
<path d="M35.5424 352.554C36.8076 353.109 38.1193 353.583 39.3256 354.246C40.2925 354.777 41.0591 355.956 42.0405 356.127C46.5119 356.905 47.1781 360.549 48.5794 363.9C50.3398 368.112 52.9638 371.622 58.1099 372.158C58.8883 372.24 59.5865 373.109 60.976 374.062C58.514 374.518 56.9088 374.815 55.9481 374.993C57.3561 377.882 58.5391 380.315 59.8977 383.103C58.7322 383.56 57.7693 384.223 56.7732 384.28C51.6318 384.574 43.0123 380.999 40.4655 374.897C37.9039 368.763 36.8359 362.866 36.8063 356.465C36.8 355.128 36.0293 353.797 35.6088 352.462C35.6063 352.461 35.5424 352.554 35.5424 352.554Z" fill="white"/>
<path d="M127.696 556.031C128.221 558.028 128.974 559.999 129.206 562.031C129.412 563.828 130.302 564.53 131.751 564.062C132.571 563.798 133.603 562.633 133.66 561.813C134.016 556.587 134.125 551.344 134.331 546.108C134.346 545.708 134.401 545.266 134.583 544.925C135.268 543.647 134.601 541.292 137.069 541.565C137.27 541.587 137.2 544.037 137.264 545.356C137.306 546.213 137.297 547.085 137.483 547.911C137.519 548.068 138.725 548.189 138.771 548.08C139.042 547.398 139.107 546.638 139.298 545.918C139.461 545.303 139.699 544.706 140.289 544.186C141.306 546.573 140.711 548.881 139.104 550.576C137.426 552.343 136.963 553.617 137.911 556.107C138.88 558.653 138.623 561.673 138.87 564.487C139.318 569.583 140.056 570.453 144.954 571.759C148.785 572.782 152.899 573.301 154.947 577.514C155.159 577.949 156.132 578.012 156.747 578.247C155.622 581.383 153.983 582.316 150.934 581.664C153.644 584.498 153.871 584.493 157.098 581.428C157.082 581.806 157.129 582.096 157.05 582.343C156.656 583.58 156.23 584.806 155.612 586.634C151.774 584.458 148.162 582.412 144.584 580.383C145.175 579.521 145.615 578.881 146.056 578.24C145.201 577.793 144.382 577.089 143.484 576.966C142.325 576.805 140.761 577.634 139.973 577.118C137.484 575.487 135.211 573.497 133.016 571.471C132.624 571.11 132.99 569.921 133.014 569.114C133.079 566.946 132.923 564.99 129.974 564.981C129.458 564.98 128.604 564.55 128.486 564.147C127.709 561.538 127.092 558.882 126.421 556.243C126.844 556.169 127.27 556.101 127.696 556.031Z" fill="white"/>
<path d="M243.568 84.1061C243.261 84.8999 242.968 85.6977 242.642 86.4841C242.382 87.1068 242.084 87.7125 241.789 88.355C240.47 88.0553 238.865 87.6923 236.887 87.2449C236.877 85.8497 236.867 84.235 236.853 82.1673C235.525 82.4131 233.47 82.7936 231.415 83.1742C231.464 83.435 231.51 83.6962 231.559 83.9592C232.362 83.8103 233.166 83.6615 234.01 83.5052C235.209 84.1758 234.521 85.402 231.466 87.2707C232.866 87.4324 233.756 87.5352 235.119 87.6909C232.916 89.2613 230.949 90.6629 228.969 92.0736C230.394 93.3143 231.701 94.4518 232.88 95.477C232.859 99.3082 229.058 96.7706 227.513 99.2653C228.414 99.3814 229.207 99.4824 229.998 99.5859C229.879 100.058 229.762 100.529 229.644 101C228.821 101.072 227.993 101.1 227.18 101.224C225.759 101.439 224.345 101.714 222.929 101.965C223.124 103.019 223.319 104.073 223.512 105.112C221.92 105.201 219.517 100.775 219.591 97.6421C220.911 97.8429 222.714 98.6143 221.827 95.9668C221.415 94.7402 220.777 93.5928 219.831 91.5024C221.854 91.8976 223.121 92.1454 225.024 92.5169C223.967 91.2036 223.216 90.2725 222.447 89.3182C222.973 88.5035 223.488 87.7063 224.003 86.9091C223.892 86.7586 223.78 86.6081 223.669 86.4577C222.655 87.0316 221.639 87.608 220.255 88.3927C220.375 86.5413 220.469 85.0808 220.533 84.0995C222.805 83.3431 224.66 82.7254 227.067 81.9243C226.911 83.4161 226.798 84.5206 226.631 86.1285C227.748 85.8141 228.757 85.5287 230.185 85.1282C228.802 82.7786 227.66 80.8364 226.428 78.744C229.437 75.4758 230.369 75.2045 233.341 77.2049C232.519 77.7849 231.764 78.3173 230.988 78.8624C233.244 80.686 237.181 81.0273 239.994 79.1881C237.854 78.9156 236.389 78.7285 234.677 78.5103C236.068 76.2743 237.665 75.0794 240.336 76.3789C240.958 76.6826 241.68 76.7792 242.358 76.9695L242.288 76.8902C242.252 78.6142 242.709 80.5695 242.041 81.9981C241.358 83.4582 239.571 84.401 238.265 85.5684C238.39 85.802 238.513 86.038 238.637 86.2716C240.317 85.5702 241.996 84.8687 243.676 84.1673L243.568 84.1061Z" fill="white"/>
<path d="M505.152 624.793C507.739 619.743 500.966 620.583 500.974 617.204C501.828 617.373 502.672 617.427 503.426 617.711C505.91 618.643 507.777 618.539 509.71 616.135C510.804 614.772 513.127 613.651 515.249 615.883C516.527 617.226 517.672 616.457 518.428 614.794C518.85 613.867 519.721 613.026 520.59 612.448C521.832 611.624 523.257 611.075 524.561 610.43C524.672 610.754 525.057 611.748 525.347 612.769C526.001 615.076 527.404 614.968 529.324 614.332C530.646 613.894 532.227 614.257 533.576 613.864C535.149 613.406 536.596 612.515 538.37 611.685C540.785 614.72 543.4 611.051 546.126 611.343C546.408 611.374 546.695 611.347 547.004 611.349C546.288 613.782 542.606 615.931 540.239 616.047C537.944 616.159 535.679 616.978 533.415 617.544C531.681 617.977 529.975 618.525 528.243 618.966C526.683 619.363 525.101 619.671 523.533 620.038C523.142 620.13 522.611 620.521 522.406 620.383C519.371 618.35 516.483 620.59 513.547 620.559C511.213 620.535 509.651 621.137 508.635 623.229C507.919 624.706 506.95 625.785 505.152 624.793Z" fill="white"/>
<path d="M584.344 483.008C589.818 490.48 586.046 498.748 586.339 506.717C586.357 507.202 586.28 507.807 586.006 508.171C583.844 511.041 581.623 513.867 578.943 517.322C578.553 515.754 578.233 515.111 578.264 514.489C578.613 507.527 578.953 500.561 579.484 493.611C579.549 492.744 580.702 491.958 581.358 491.139C581.988 490.351 582.932 489.659 583.201 488.762C583.772 486.862 583.998 484.858 584.344 483.008Z" fill="white"/>
<path d="M267.188 386.858C270.86 387.156 271.774 384.36 272.406 382.001C272.63 381.161 270.504 379.691 268.936 377.93C268.161 380.934 267.62 383.032 266.941 385.665C265.935 385.599 264.53 385.506 262.893 385.399C262.138 387.513 260.229 387.178 258.697 386.165C256.475 384.699 254.06 383.238 254.31 379.805C254.396 378.645 253.454 377.387 252.909 376.207C251.688 373.571 252.358 371.894 255.466 370.415C255.803 373.144 255.254 376.457 259.3 376.962C258.472 378.605 257.649 380.238 256.786 381.948C258.017 383.144 259.156 384.251 260.501 385.557C262.178 383.691 264.718 382.475 261.832 379.656C261.192 379.031 261.369 377.573 261.166 376.476C267.94 376.457 268.99 376.903 274.484 381.996C274.194 383.001 273.925 383.928 273.656 384.858C274.718 384.586 275.782 384.315 277.7 383.824C276.599 385.646 275.77 387.021 274.78 388.661C277.368 389.015 277.976 390.523 277.526 392.758C277.399 393.389 277.635 394.155 277.886 394.786C278.217 395.616 278.726 396.372 279.159 397.161C278.082 397.419 277.004 397.678 275.633 398.007C277.204 394.136 276.565 392.914 273.14 391.248C271.094 390.254 269.253 388.84 267.318 387.617C267.275 387.364 267.231 387.111 267.188 386.858Z" fill="white"/>
<path d="M246.153 67.0831C246.79 66.6142 247.429 66.145 248.184 65.5885C247.776 64.7033 247.38 63.8445 246.614 62.1813C249.092 63.2357 250.916 64.0121 252.74 64.7885L252.681 64.7424C252.549 65.2232 252.416 65.7039 252.399 65.7663C255.212 64.3416 258.094 62.8824 260.977 61.4207C261.213 61.7367 261.45 62.0526 261.686 62.3686C259.57 64.1378 257.456 65.9066 255.379 67.6446C258.408 70.9724 261.015 67.9958 262.559 66.5627C264.918 64.3757 266.619 65.2625 268.733 66.1454C269.431 66.4371 270.146 66.6952 271.356 67.1642C268.051 67.5569 265.332 67.8806 262.939 68.1658C262.7 69.7782 262.535 70.9078 262.321 72.3488C263.804 72.3637 265.446 72.3799 267.089 72.3958C267.095 72.6864 267.1 72.975 267.104 73.266C266.321 73.4723 265.539 73.6785 264.207 74.0284C265.275 74.9645 265.98 75.5819 266.131 75.714C269.233 74.9245 271.755 74.2821 274.277 73.6396C274.444 73.9288 274.61 74.2184 274.777 74.5075C273.629 75.3672 272.484 76.2285 270.797 77.495C270.999 76.2974 271.094 75.7358 271.265 74.7281C268.54 75.6714 268.265 81.8351 263.673 78.084C263.718 78.885 263.763 79.6838 263.844 81.1054C260.498 80.2336 257.368 79.4161 253.607 78.4348C255.453 77.119 256.932 76.0665 258.11 75.2255C259.032 76.0221 259.883 76.7571 261.29 77.9726C260.566 72.3318 256.621 69.9236 252.214 71.4C251.477 71.6462 250.479 71.3989 249.703 71.1061C249.411 70.9958 249.15 69.7764 249.326 69.6363C250.076 69.0456 250.996 68.6712 252.672 67.784C250.971 67.4565 249.808 67.1696 248.625 67.0266C247.78 66.9245 246.907 67.0114 246.048 67.0127C246.046 67.0152 246.153 67.0831 246.153 67.0831Z" fill="white"/>
<path d="M47.8744 327.832C41.038 317.351 43.4425 301.722 51.7881 299.259C51.895 301.163 52.3772 303.127 51.9881 304.899C51.6469 306.455 50.3292 307.796 49.3337 309.408C50.7678 309.904 51.8853 310.289 53.8632 310.973C51.9269 311.792 50.9 312.228 50.3914 312.443C51.2048 315.438 52.7989 318.29 52.4335 320.864C52.1025 323.222 49.6494 325.277 47.8744 327.832Z" fill="white"/>
<path d="M564.231 604.364C562.475 601.158 564.644 599.013 565.869 596.674C566.23 595.986 567.188 595.495 567.305 594.816C567.67 592.697 568.039 591.717 570.875 591.766C572.934 591.801 574.969 589.179 577.152 588C578.231 587.419 580.202 586.784 580.76 587.29C582.067 588.469 582.221 589.884 581.423 592.148C579.532 597.523 575.272 599.119 570.805 600.861C570.34 601.042 569.725 601.392 569.378 601.235C566.215 599.786 565.18 601.765 564.231 604.364Z" fill="white"/>
<path d="M363.404 452.968C363.806 453.565 364.631 454.221 364.627 454.871C364.603 457.749 364.312 460.621 364.178 463.499C364.123 464.659 363.976 465.899 364.298 466.975C365.006 469.345 364.029 470.096 361.783 470.205C363.406 466.351 361.68 463.438 359.386 460.895C358.417 459.82 355.875 458.492 355.515 458.833C354.007 460.26 350.029 458.785 351.006 463.041C350.655 462.948 350.305 462.855 349.952 462.763C349.932 460.769 349.909 458.775 349.885 456.632C348.995 457.988 348.268 459.234 347.348 460.319C347.235 460.454 346.11 459.735 344.884 459.131C346.21 458.424 346.934 458.038 347.659 457.652C347.454 454.957 349.46 452.942 352.474 453.406C354.727 453.752 357.049 452.335 359.321 454.02C359.954 454.489 361.707 453.447 363.404 452.968Z" fill="white"/>
<path d="M358.714 576.763C358.345 578.926 358.069 581.112 357.581 583.248C357.131 585.213 356.452 587.125 355.874 589.059C356.182 589.219 356.488 589.377 356.796 589.537C357.434 588.908 358.07 588.279 358.868 587.493C359.466 587.977 360.098 588.487 361.143 589.333C361.253 587.953 361.332 587.002 361.447 585.574C363.097 585.804 365.136 586.745 366.501 586.145C369.747 584.724 372.432 587.286 375.421 586.739C373.009 592.224 352.497 593.998 349.502 586.686C350.547 587.345 351.379 587.871 351.576 587.995C353.873 584.007 356.053 580.217 358.235 576.427C358.394 576.538 358.553 576.651 358.714 576.763Z" fill="white"/>
<path d="M327.215 571.534C326.266 573.611 325.303 575.718 324.262 577.996C324.918 578.294 325.488 578.552 326.13 578.843C322.464 581.266 322.122 583.979 325.056 587.173C324.405 587.46 323.797 587.729 323.049 588.06C323.495 589.712 323.928 591.314 324.38 592.987C319.388 593.118 318.533 592.41 318.356 588.161C318.252 585.632 317.975 583.073 318.244 580.578C318.5 578.186 319.105 575.754 320.025 573.532C320.977 571.235 324.112 570.615 327.215 571.534Z" fill="white"/>
<path d="M580.105 458.889C580.191 456.783 580.093 454.643 580.462 452.585C580.591 451.862 581.861 451.339 582.611 450.726C582.971 451.544 583.509 452.33 583.655 453.185C584.054 455.541 583.585 458.376 584.749 460.194C586.495 462.919 585.813 465.601 586.075 468.314C586.215 469.768 586.285 471.227 586.389 472.723C584.744 475.947 583.031 479.306 581.319 482.665C580.966 482.544 580.612 482.424 580.258 482.303C580.973 477.906 579.808 473.466 582.256 468.99C583.257 467.16 585.592 464.229 583.422 461.394C582.688 460.435 581.746 459.636 580.897 458.762C580.632 458.807 580.369 458.847 580.105 458.889Z" fill="white"/>
<path d="M184.285 155.944C184.453 154.54 184.62 153.136 184.856 151.173C186.316 151.324 188.297 151.519 190.276 151.747C190.44 151.767 190.671 151.974 190.717 152.139C191.563 155.134 194.148 155.776 197.733 156.377C196.628 157.444 195.632 157.951 195.601 158.509C195.426 161.698 194.233 161.226 191.707 160.483C189.648 159.877 187.075 161.071 184.72 161.408C183.707 161.554 182.673 161.548 181.832 161.601C182.188 159.508 182.3 158.101 182.721 156.795C182.863 156.355 183.786 156.166 184.355 155.859C184.54 156.206 184.707 156.566 184.906 156.906C185.351 157.675 185.812 158.436 186.265 159.201C187.011 158.611 187.758 158.021 189.226 156.856C186.928 156.433 185.607 156.189 184.285 155.944Z" fill="white"/>
<path d="M301.166 401.93C302.248 402.66 303.466 403.255 304.379 404.156C305.366 405.131 306.068 406.394 306.894 407.53C306.07 408.102 305.225 408.644 304.436 409.262C304.159 409.48 304.024 409.88 303.631 410.506C305.166 410.693 306.409 410.844 307.681 410.997C306.625 413.715 307.547 415.755 310.827 418.128C309.103 418.555 307.4 418.976 305.529 419.438C306.691 420.583 307.619 421.499 308.548 422.415C304.826 422.108 304.129 421.209 304.177 417.86C304.188 417.055 304.017 416.247 304.023 415.44C304.044 412.831 302.686 412.591 300.663 413.426L300.723 413.479C300.691 410.679 300.601 407.88 300.658 405.084C300.68 403.999 301.035 402.919 301.241 401.837L301.166 401.93Z" fill="white"/>
<path d="M330.268 587.419C333.81 587.438 337.138 587.324 340.431 587.6C341.014 587.65 341.779 589.292 341.896 590.266C342.082 591.817 342.238 593.725 339.887 593.976C338.298 594.145 336.652 594.356 335.101 594.112C334.172 593.966 333.372 592.985 332.516 592.378C332.591 592.07 332.665 591.761 332.739 591.453C330.638 592.307 328.537 593.159 326.099 594.148C326.235 589.714 326.407 589.579 330.449 590.149C330.392 589.28 330.339 588.463 330.268 587.419Z" fill="white"/>
<path d="M64.0385 283.785C63.0197 285.52 62.271 286.795 61.6627 287.833C57.7566 288.852 53.9508 289.844 49.7411 290.942C51.6903 287.741 53.2628 284.732 55.298 282.079C55.8985 281.294 57.9128 281.085 59.0914 281.374C60.7842 281.786 62.3041 282.9 64.0385 283.785Z" fill="white"/>
<path d="M209.497 83.3359C209.582 85.4652 209.621 86.4429 209.659 87.4205C209.97 86.9681 210.282 86.5179 210.59 86.0659C211.69 87.3011 212.792 88.5358 214.456 90.4077C212.189 90.3144 210.726 90.2542 208.885 90.1805C211.483 92.2721 213.741 94.091 215.999 95.9078C215.924 96.1872 215.85 96.4662 215.775 96.7477C214.42 96.9986 213.065 97.2496 211.64 97.5135C211.401 96.2242 211.161 94.9243 210.92 93.6244C210.637 93.4333 210.352 93.2449 210.069 93.0538C208.477 94.7523 206.886 96.4507 205.496 97.9342C206.144 94.4474 206.897 90.3996 207.65 86.3517C207.315 86.2974 206.981 86.2453 206.648 86.1906C205.169 88.2828 203.69 90.377 202.331 92.3C201.422 90.1742 201.196 89.9925 203.638 86.9412C204.826 85.4599 207.036 84.794 209.497 83.3359Z" fill="white"/>
<path d="M332.935 558.639C332.399 558.919 331.472 559.112 331.387 559.492C330.72 562.476 328.307 562.01 326.225 562.33C323.82 562.699 321.434 563.2 318.359 563.769C318.468 561.799 318.098 559.137 318.989 556.998C319.34 556.157 322.676 555.942 324.343 556.454C325.829 556.909 326.888 558.755 328.491 560.342C328.292 559.267 328.168 558.599 327.925 557.286C329.796 557.828 331.347 558.28 332.899 558.729L332.935 558.639Z" fill="white"/>
<path d="M332.897 558.728C339.409 563.288 341.624 569.918 338.659 575.975C336.613 580.153 331.126 581.239 328.374 577.59C329.999 577.993 331.307 578.317 332.612 578.639C332.701 578.451 332.788 578.262 332.879 578.074C332.167 577.368 331.456 576.66 330.744 575.954C330.811 575.636 330.879 575.321 330.946 575.004C332.147 575.181 333.492 575.072 334.522 575.592C336.564 576.624 337.243 575.845 338.116 574.014C340.072 569.91 338.152 566.85 335.671 563.331C335.419 564.6 335.241 565.499 335.025 566.592C333.021 565.971 331.067 565.366 329.112 564.761C329.174 564.444 329.234 564.128 329.296 563.81C329.607 563.774 329.922 563.742 330.232 563.7C331.372 563.544 332.981 563.766 333.518 563.111C334.023 562.496 333.412 560.951 333.257 559.819C333.204 559.424 333.045 559.043 332.937 558.648C332.936 558.64 332.897 558.728 332.897 558.728Z" fill="white"/>
<path d="M603.79 582.244C602.47 580.161 602.345 577.697 599.786 579.04C599.674 579.098 598.241 577.378 598.04 576.365C597.639 574.34 597.667 572.229 597.989 569.595C598.606 570.454 599.224 571.314 599.839 572.174C600.181 571.957 600.52 571.743 600.862 571.526C600.881 570.171 600.901 568.814 600.934 566.564C602.72 569.42 604.845 571.527 605.324 573.957C605.773 576.255 604.492 578.892 603.79 582.244Z" fill="white"/>
<path d="M295.901 583.505C294.742 583.336 293.869 583.263 293.02 583.074C289.998 582.401 286.944 581.815 284.001 580.884C283.449 580.709 283.35 579.107 282.799 577.426C284.828 578.349 286.056 579.328 287.231 579.27C287.829 579.24 288.335 577.342 288.943 576.172C297.001 577.059 297.25 577.869 295.901 583.505Z" fill="white"/>
<path d="M576.924 398.6C577.086 395.982 577.217 393.837 577.384 391.159C578.293 391.901 578.771 392.29 579.171 392.616C579.858 391.668 580.567 390.692 581.231 389.777C580.183 388.772 579.157 387.789 577.65 386.344C577.652 386.343 576.944 386.474 576.238 386.605C575.839 386.278 575.441 385.95 575.042 385.622C577.237 383.606 579.43 381.59 580.948 380.197C581.358 382.407 582.335 386.048 582.584 389.738C582.702 391.488 581.67 393.473 580.717 395.091C579.988 396.318 578.562 397.132 576.924 398.6Z" fill="white"/>
<path d="M88.5968 427.692C88.153 423.139 87.7764 419.294 87.4002 415.451C87.5689 415.224 87.7375 414.998 87.9079 414.769C89.473 416.126 91.0381 417.484 92.5907 418.832C90.2284 424.599 87.7602 430.623 85.1533 436.988C84.9079 434.538 84.5204 432.315 84.5145 430.093C84.5098 428.113 84.7057 425.89 88.5968 427.692Z" fill="white"/>
<path d="M242.351 76.9682C242.434 76.1852 242.515 75.4004 242.571 74.8615C243.76 74.7685 244.863 74.6827 245.967 74.5965C246.015 74.307 246.062 74.0176 246.109 73.7281C243.89 72.3098 241.671 70.8915 239.094 69.2457C241.769 68.4235 243.959 67.7526 246.151 67.0813C246.151 67.0834 246.046 67.0151 246.046 67.0173C246.511 67.8656 246.974 68.7098 247.779 70.1772C246.408 69.6568 245.693 69.3835 244.978 69.1123C244.78 69.3552 244.581 69.5981 244.385 69.8407C246.141 71.2942 247.898 72.7498 249.983 74.4758C248.515 75.2543 247.027 76.0431 245.221 76.9982C246.428 77.6652 247.333 78.1666 248.403 78.7601C247.016 80.9077 247.267 84.2191 243.568 84.1058L243.671 84.1657C245.806 81.3731 245.476 79.6532 242.284 76.8886L242.351 76.9682Z" fill="white"/>
<path d="M578.118 412.511C582.699 412.426 582.68 412.427 582.596 407.545C582.565 405.765 582.645 403.985 582.673 402.205C582.946 402.208 583.216 402.21 583.488 402.212C583.611 407.826 583.734 413.438 583.856 419.052C583.626 419.053 583.396 419.054 583.166 419.055C583.856 420.232 584.543 421.41 585.544 423.122C579.471 421.356 578.391 417.229 578.118 412.511Z" fill="white"/>
<path d="M71.7179 326.329C71.2922 326.281 71.0922 326.278 70.9016 326.232C67.467 325.368 65.8976 323.716 67.3642 319.862C67.9553 318.305 67.2157 316.242 67.0778 314.349C72.482 315.083 74.4208 320.317 71.7179 326.329Z" fill="white"/>
<path d="M204.367 134.093C205.48 134.411 206.263 134.635 207.046 134.856C207.073 135.121 207.102 135.385 207.129 135.65C205.278 136.254 203.424 136.858 201.574 137.464C201.296 137.3 201.018 137.139 200.74 136.976C202.738 134.93 203.489 133.797 200.077 133.293C197.893 132.972 195.941 131.078 193.718 129.792C195.907 126.645 197.785 128.743 199.538 128.993C200.946 129.195 202.312 129.657 203.71 129.944C204.618 130.132 205.545 130.212 206.464 130.34C206.071 131.084 205.687 131.833 205.282 132.57C205.046 133.002 204.778 133.414 204.367 134.093Z" fill="white"/>
<path d="M158.645 45.1831C160.684 47.2993 162.396 49.4979 166.177 46.4531C164.838 50.0611 164.047 52.6356 167.748 54.2619C167.473 54.4335 167.196 54.6077 166.921 54.7793C165.819 54.5753 164.532 53.9254 163.666 54.2853C162.748 54.6681 162.231 56.0096 161.423 57.0848C160.142 54.9249 160.215 51.3275 155.944 51.4209C159.332 50.1859 159.136 47.8622 158.645 45.1831Z" fill="white"/>
<path d="M584.666 427.702C584.363 428.219 584.162 428.767 583.788 429.141C583.448 429.485 582.671 429.539 582.52 429.9C581.836 431.534 581.228 433.21 580.817 434.927C580.763 435.156 582.002 435.697 582.643 436.091C583.577 434.576 584.514 433.06 585.425 431.584C586.819 432.679 586.954 435.411 585.372 442.714C581.179 439.78 579.042 435.857 579.381 430.642C579.551 427.985 581.506 426.754 584.666 427.702Z" fill="white"/>
<path d="M229.469 356.852C229.249 355.664 229.029 354.479 228.81 353.293C228.985 353.232 229.16 353.171 229.335 353.11C229.686 353.75 230.039 354.386 230.388 355.028C231.182 356.488 232.264 357.874 232.687 359.436C233.063 360.827 233.077 362.577 232.527 363.854C232.215 364.577 230.443 364.67 228.771 365.236C230.897 358.074 222.857 355.731 223.903 349.693C225.902 349.447 226.092 351.586 226.835 352.854C227.604 354.161 228.028 355.671 228.603 357.091C228.89 357.009 229.178 356.929 229.469 356.852Z" fill="white"/>
<path d="M164.674 20.1928C167.038 20.2879 169.4 20.3834 172.061 20.4895C171.828 21.0305 171.755 21.6691 171.475 21.778C167.848 23.1932 164.192 24.5347 160.22 26.0139C159.316 21.9855 158.099 18.4912 159.475 14.6239C160.069 18.2097 161.429 21.1841 164.789 23.6719C164.773 22.1527 164.764 21.1302 164.752 20.1081L164.674 20.1928Z" fill="white"/>
<path d="M164.753 20.1093C163.932 19.3861 162.542 18.7618 162.398 17.9222C161.987 15.5594 161.993 13.1062 162.057 10.6948C162.072 10.1722 163.114 9.16763 163.521 9.24366C166.794 9.86142 167.476 7.23042 168.816 5.28687C169.009 9.08936 169.201 12.8656 169.427 17.2937C168.648 16.5826 167.821 15.8716 167.845 15.8431C169.433 13.8646 166.954 13.1677 166.53 11.858C166.48 11.7092 164.769 11.8375 164.748 11.9818C164.538 13.3104 164.502 14.6703 164.491 16.0211C164.488 16.2432 164.851 16.47 165.138 16.8006C164.527 17.2318 163.962 17.6281 162.912 18.3665C164.235 18.5558 164.961 18.6627 165.751 18.775C165.383 19.2621 165.034 19.7216 164.681 20.1861C164.674 20.1919 164.753 20.1093 164.753 20.1093Z" fill="white"/>
<path d="M272.77 333.624C272.231 331.923 271.748 330.203 271.14 328.529C270.369 326.406 268.979 324.215 272.452 322.87C273.037 323.591 273.653 324.345 274.247 325.076C272.57 327.204 273.059 328.495 275.285 329.844C276.042 330.303 276.509 331.936 276.378 332.936C276.284 333.651 275.051 334.391 274.174 334.759C273.669 334.971 272.863 334.467 272.193 334.284C272.386 334.064 272.578 333.844 272.77 333.624Z" fill="white"/>
<path d="M605.261 616.469C600.737 618.461 596.697 620.238 592.373 622.142C593.337 616.546 598.589 614.229 605.261 616.469Z" fill="white"/>
<path d="M219.39 111.67C217.968 112.225 216.587 112.952 215.117 113.292C212.541 113.89 209.927 114.433 207.3 114.652C204.797 114.861 205.042 112.785 204.668 110.72C206.65 111.035 208.284 111.294 210.238 111.603C210.539 111.144 211.04 109.941 211.927 109.189C212.41 108.777 213.541 109.125 215.234 109.136C213.617 110.212 212.771 110.774 211.928 111.334C211.981 111.601 212.035 111.867 212.091 112.131C214.44 111.696 216.79 111.261 219.139 110.826C219.222 111.109 219.305 111.389 219.39 111.67Z" fill="white"/>
<path d="M344.881 442.923C345.487 442.488 346.067 441.727 346.702 441.682C348.298 441.564 350.475 439.033 351.391 442.371C351.796 443.844 354.166 445.735 351.455 446.991C349.633 447.835 347.254 449.629 345.289 446.396C347.071 445.643 350.07 445.554 347.734 442.304C346.919 442.795 346.211 443.223 345.502 443.65C345.295 443.405 345.088 443.165 344.881 442.923Z" fill="white"/>
<path d="M338.384 437.318C340.454 435.29 342.291 434.219 342.806 432.7C343.097 431.837 341.23 430.242 340.164 428.737C343.47 429.417 346.43 433.426 345.478 436.008C345.091 437.056 343.526 438.026 342.326 438.307C341.288 438.552 340.01 437.773 338.384 437.318Z" fill="white"/>
<path d="M144.823 614.607C145.951 615.298 146.68 615.893 147.511 616.226C151.114 617.667 154.758 619.01 158.357 620.457C158.689 620.591 158.95 621.216 158.986 621.635C159.007 621.868 158.499 622.37 158.229 622.37C157.142 622.374 155.6 622.655 155.041 622.065C152.419 619.291 148.797 618.789 145.572 617.386C144.148 616.766 142.912 615.966 144.823 614.607Z" fill="white"/>
<path d="M321.073 29.8827C316.859 29.639 314.548 24.8448 310.569 27.7485C310.868 25.0744 311.079 25.0639 315.429 24.379C319.299 23.7697 319.399 26.903 321.073 29.8827Z" fill="white"/>
<path d="M280.091 345.573C273.864 340.633 274.036 338.017 281.109 332.843C280.744 333.794 280.651 335.079 279.964 335.639C277.8 337.404 276.793 339.121 278.619 341.77C279.369 342.859 279.616 344.296 280.091 345.573Z" fill="white"/>
<path d="M536.528 530.641C531.944 530.845 531.793 530.694 532.504 526.726C531.75 526.53 530.979 526.331 530.209 526.131C530.222 525.916 530.234 525.699 530.249 525.483C532.34 525.377 534.43 525.27 536.705 525.156C536.638 527.199 536.585 528.854 536.528 530.641Z" fill="white"/>
<path d="M253.058 367.349C248.947 364.856 251.789 361.267 250.703 358.411C252.6 357.757 253.882 357.41 253.636 360.096C253.551 361.033 254.372 362.055 254.8 363.085C254.283 364.348 253.724 365.719 253.058 367.349Z" fill="white"/>
<path d="M64.4433 295.931C66.5444 296.428 68.7192 296.944 70.8937 297.458C70.9941 297.799 71.0925 298.141 71.1929 298.482C69.281 299.314 67.284 300.943 65.4772 300.756C63.6707 300.57 63.0961 298.297 64.4433 295.931Z" fill="white"/>
<path d="M221.774 13.3726C222.312 11.5973 222.63 10.547 222.961 9.45276C223.668 9.60245 224.499 9.77546 224.882 9.85792C225.778 8.32341 226.521 7.05194 227.262 5.78085C227.796 6.13364 228.329 6.48682 228.864 6.83962C228.199 7.3356 227.532 7.83197 226.884 8.31382C227.869 8.94291 228.788 9.53172 229.706 10.1184C229.709 10.4818 229.715 10.8427 229.718 11.2061C227.188 11.8962 224.655 12.5868 221.774 13.3726Z" fill="white"/>
<path d="M355.734 564.875C353.276 566.694 350.96 568.413 348.461 570.264C348.123 569.577 347.501 568.316 346.88 567.058C349.291 568.411 352.301 566.449 353.037 562.997C354.203 563.193 355.376 563.391 356.679 563.608C356.904 565.27 357.115 566.85 357.328 568.427C357.21 568.466 357.091 568.508 356.973 568.547C356.594 567.433 356.218 566.318 355.734 564.875Z" fill="white"/>
<path d="M194.624 86.6862C195.756 83.9389 196.703 81.6383 197.652 79.3372C197.927 79.4507 198.203 79.5663 198.481 79.6794C199.125 81.1107 200.058 82.4996 200.283 83.9955C200.384 84.6763 199.227 85.8184 198.382 86.2885C197.607 86.7195 196.488 86.5275 194.624 86.6862Z" fill="white"/>
<path d="M539.004 409.117C538.383 404.877 539.312 400.309 533.439 400.21C533.364 399.924 533.287 399.637 533.212 399.351C534.158 398.961 535.271 398.033 536.016 398.268C540.104 399.564 541.356 403.677 539.004 409.117Z" fill="white"/>
<path d="M265.43 310.401C265.65 311.591 265.916 313.026 266.343 315.333C265.312 314.256 264.857 313.74 264.36 313.268C263.34 312.297 262.296 311.352 261.269 310.388C260.632 309.791 259.825 309.272 259.45 308.536C259.188 308.023 259.525 307.202 259.596 306.52C260.372 306.659 261.328 306.561 261.886 306.984C263.084 307.887 264.077 309.064 265.43 310.401Z" fill="white"/>
<path d="M222.017 67.8725C222.615 68.0667 223.212 68.2609 223.809 68.453C223.769 68.7325 223.73 69.0094 223.69 69.2888C222.163 69.1351 220.637 68.9834 218.925 68.8114C220.193 66.9624 217.78 63.3494 221.757 64.1832C223.1 65.1211 224.44 66.0573 226.214 67.2971C224.513 67.1844 223.296 67.1027 222.079 67.021C222.059 67.3033 222.037 67.5881 222.017 67.8725Z" fill="white"/>
<path d="M233.231 61.6396C234.982 62.2344 236.693 63.0557 238.491 63.361C240.337 63.6729 242.268 63.4775 244.181 63.5048C244.154 65.1329 242.122 66.0992 239.035 65.2189C236.932 64.6191 234.936 63.6444 232.894 62.8382C233.006 62.438 233.118 62.0377 233.231 61.6396Z" fill="white"/>
<path d="M182.585 50.1628C182.937 45.5115 182.884 45.438 178.672 43.7659C177.962 43.4829 177.323 43.0178 176.907 42.1714C178.552 42.3209 180.216 42.3548 181.836 42.6448C184.123 43.0548 184.528 44.7344 184.022 46.6683C183.706 47.876 183.074 48.9998 182.585 50.1628Z" fill="white"/>
<path d="M198.722 115.531C200.11 114.379 201.375 113.331 202.962 112.013C203.666 113.933 204.105 115.131 204.558 116.369C202.606 118.582 200.844 118.353 198.722 115.531Z" fill="white"/>
<path d="M180.351 17.4759C178.788 17.7653 176.903 18.1144 175.017 18.4636C178.846 16.0547 179.504 12.926 176.399 8.96303C176.724 8.94441 177.048 8.92829 177.374 8.90967C178.266 10.2227 179.459 11.4296 179.961 12.8762C180.456 14.3024 180.251 15.9699 180.351 17.4759Z" fill="white"/>
<path d="M334.272 13.0238C330.695 10.53 328.165 12.5229 325.577 14.5396C325.386 11.6601 325.967 10.9912 328.831 10.2699C331.771 9.53017 332.871 9.98451 334.272 13.0238Z" fill="white"/>
<path d="M82.1308 496.607C81.4267 499.556 83.2016 501.157 85.1685 502.848C86.293 503.815 86.9482 505.328 87.3536 506.854C84.622 503.947 79.2128 502.31 82.1308 496.607Z" fill="white"/>
<path d="M209.842 66.1311C212.123 65.599 214.402 65.0672 216.778 64.5111C216.623 68.3276 215.152 69.0189 210.059 67.1502C209.986 66.8108 209.914 66.4709 209.842 66.1311Z" fill="white"/>
<path d="M562.951 599.903C561.034 600.144 559.122 600.452 557.197 600.565C556.863 600.585 556.145 599.74 556.197 599.379C556.281 598.8 556.86 597.833 557.227 597.835C559.119 597.842 561.01 598.104 562.9 598.278C562.917 598.821 562.934 599.362 562.951 599.903Z" fill="white"/>
<path d="M258.995 6.50812C259.158 4.79564 259.692 3.6946 261.705 3.17261C264.79 2.37533 264.584 5.30203 266.602 6.63915C263.62 6.55977 261.257 6.49938 258.894 6.43477C258.896 6.43225 258.995 6.50812 258.995 6.50812Z" fill="white"/>
<path d="M542.189 425.181C541.18 428.434 539.475 430.294 536.041 429.704C535.431 427.45 536.333 426.722 542.189 425.181Z" fill="white"/>
<path d="M221.095 73.5749C222.822 73.7484 224.267 73.8955 226.032 74.0751C222.571 77.1419 220.002 74.6391 216.839 72.9067C218.37 72.1976 219.677 71.5936 221.411 70.7944C221.28 71.9439 221.2 72.6496 221.095 73.5749Z" fill="white"/>
<path d="M367.704 575.307C371.781 575.267 370.644 578.908 371.608 581.405C370.718 581.987 369.828 582.569 369.133 583.024C368.645 580.386 368.171 577.826 367.704 575.307Z" fill="white"/>
<path d="M616.899 608.807C614.458 610.193 612.017 611.579 609.167 613.197C609.138 613.042 608.79 612.368 608.964 611.879C609.57 610.186 614.371 607.891 616.899 608.807Z" fill="white"/>
<path d="M215.955 37.3527C217.825 37.785 219.695 38.2195 221.583 38.6572C221.518 39.7484 221.455 40.8083 221.374 42.1679C220.648 41.6026 220.035 41.1218 219.26 40.5152C218.596 41.6909 218.049 42.6653 217.454 43.7185C216.178 41.9436 220.336 38.8508 215.741 38.2717C215.812 37.9648 215.882 37.66 215.955 37.3527Z" fill="white"/>
<path d="M348.876 15.7064C349.601 17.2805 350.183 18.5371 350.775 19.8158C350.123 20.2612 349.418 20.7426 348.957 21.0583C347.253 19.1543 345.507 17.2009 343.761 15.2476C345.758 15.2507 346.312 19.7956 348.876 15.7064Z" fill="white"/>
<path d="M275.161 0.15196C277.293 1.09269 279.079 1.87831 280.866 2.66604C280.809 3.01209 280.753 3.35812 280.696 3.70417C279.13 4.24862 277.566 4.79268 276.111 5.29683C275.78 3.49608 275.537 2.18558 275.161 0.15196Z" fill="white"/>
<path d="M341.313 19.151C342.165 21.1559 343.057 23.1444 343.806 25.1859C343.89 25.4138 342.949 26.3381 342.819 26.2745C342.025 25.8753 340.822 25.381 340.696 24.7354C340.36 23.0035 340.498 21.1794 340.45 19.392C340.735 19.3107 341.023 19.231 341.313 19.151Z" fill="white"/>
<path d="M233.892 11.4161C232.61 10.3792 231.225 9.44032 230.104 8.25304C229.73 7.85729 230.032 6.82316 230.026 6.0786C230.656 6.16586 231.55 6.01787 231.871 6.37947C233.011 7.65541 233.953 9.10618 234.973 10.49C234.613 10.8 234.254 11.1078 233.892 11.4161Z" fill="white"/>
<path d="M297.809 32.748C298.728 30.5688 299.647 28.3917 300.568 26.2121C300.694 26.2612 300.821 26.3079 300.946 26.357C300.793 27.5303 300.642 28.7032 300.488 29.8765C300.684 29.95 300.879 30.0213 301.073 30.0951C301.53 29.5585 301.988 29.0198 302.682 28.207C302.564 29.1719 302.73 30.126 302.355 30.4476C301.053 31.5639 299.563 32.4584 298.143 33.4385C298.033 33.2089 297.92 32.9797 297.809 32.748Z" fill="white"/>
<path d="M217.117 88.3353C217.168 87.4025 217.196 86.8885 217.189 87.017C215.763 86.4717 214.507 85.9893 213.055 85.4356C214.776 84.1477 215.853 83.3429 216.927 82.5363C216.108 84.4031 220.566 85.8563 217.117 88.3353Z" fill="white"/>
<path d="M450.117 578.491C449.992 577.814 449.767 576.602 449.457 574.926C451.965 575.291 454.121 575.607 457.015 576.027C454.291 577.001 452.353 577.693 450.117 578.491Z" fill="white"/>
<path d="M340.108 16.3411C339.857 14.1439 339.552 12.0707 339.431 9.98528C339.401 9.45356 339.95 8.8891 340.232 8.339C340.864 8.68473 342.063 9.10963 342.027 9.36417C341.877 10.436 343.761 12.1883 340.998 12.6539C340.526 12.7326 340.416 14.9614 340.108 16.3411Z" fill="white"/>
<path d="M181.777 148.879C183.445 147.926 185.113 146.974 187.045 145.871C187.628 146.225 188.456 146.73 190.135 147.753C187.031 148.569 184.612 149.205 182.192 149.842C182.053 149.521 181.915 149.2 181.777 148.879Z" fill="white"/>
<path d="M359.782 435.851C359.429 437.059 359.207 437.817 358.742 439.404C358.178 437.935 357.766 437.413 357.845 436.975C358.261 434.652 359.99 434.937 361.591 435.34C363.742 435.883 363.384 437.287 362.543 439.211C361.696 438.183 361.059 437.406 359.782 435.851Z" fill="white"/>
<path d="M290.019 54.3317C288.444 54.6235 286.866 54.9157 284.792 55.2998C285.798 56.2299 286.399 56.7854 287.532 57.8345C286.229 57.9157 285.254 58.2652 284.717 57.9238C284.205 57.5975 283.801 56.4395 283.991 55.8539C284.208 55.1776 285.042 54.4793 285.759 54.2324C287.048 53.7897 288.453 53.6766 289.808 53.4256C289.879 53.7261 289.95 54.0287 290.019 54.3317Z" fill="white"/>
<path d="M56.529 357.83C57.696 358.814 58.811 359.316 58.9951 360.05C59.1513 360.668 58.2215 361.557 57.7719 362.327C56.8999 361.716 55.9012 361.215 55.2399 360.427C55.054 360.205 55.8507 359.154 56.529 357.83Z" fill="white"/>
<path d="M534.253 25.6225C534.008 24.295 533.76 23.5994 533.779 22.9094C533.81 21.9124 533.979 20.9051 534.244 19.9458C534.276 19.8324 535.69 19.8294 535.784 20.0553C536.174 20.9965 536.626 22.1146 536.43 23.0348C536.255 23.8525 535.255 24.4938 534.253 25.6225Z" fill="white"/>
<path d="M76.5976 493.743C77.7848 494.492 80.2703 493.868 79.5374 496.613C79.347 497.326 78.2915 497.809 77.6351 498.398C77.0057 497.001 76.3764 495.604 75.7492 494.207C76.0323 494.054 76.3149 493.898 76.5976 493.743Z" fill="white"/>
<path d="M170.86 9.64616C172.141 9.11499 173.422 8.58168 175.308 7.80027C175.299 9.20573 175.29 10.4619 175.282 11.7202C173.702 11.2759 172.123 10.8291 170.543 10.3848C170.647 10.1397 170.754 9.89168 170.86 9.64616Z" fill="white"/>
<path d="M377.487 584.076C377.817 580.832 378.373 578.093 375.702 575.535C376.397 575.713 377.307 575.674 377.753 576.109C379.664 577.968 379.623 581.228 377.487 584.076Z" fill="white"/>
<path d="M484.06 33.6198C484.488 32.2795 484.84 31.1746 485.247 29.8996C487.135 29.8656 489.409 29.8262 492.05 29.7801C491.374 30.5852 490.861 31.1979 490.427 31.7125C489.154 31.2201 487.959 30.7593 486.556 30.2186C486.169 32.0734 486.742 34.4326 484.06 33.6198Z" fill="white"/>
<path d="M432.957 581.668C435.672 581.988 438.386 582.31 441.205 582.644C438.432 584.427 435.066 584.27 432.957 581.668Z" fill="white"/>
<path d="M537.898 12.3562C535.561 9.589 537.985 6.98836 538.373 4.08286C538.714 4.75437 539.418 5.47717 539.329 6.08585C539.042 8.06474 538.462 9.99926 537.898 12.3562Z" fill="white"/>
<path d="M184.904 134.629C186.139 134.795 186.973 134.908 187.81 135.021C187.837 135.235 187.861 135.448 187.887 135.662C186.517 135.828 185.145 135.992 183.745 136.162C183.535 134.402 183.369 132.983 183.157 131.215C184.39 131.57 185.495 131.888 186.968 132.31C186.222 133.148 185.703 133.731 184.904 134.629Z" fill="white"/>
<path d="M275.907 357.95C273.096 357.659 270.39 357.261 271.142 352.88C272.937 354.791 274.423 356.369 275.907 357.95Z" fill="white"/>
<path d="M255.786 -0.0539855C256.858 2.13168 257.928 4.31986 258.997 6.50804C258.998 6.51016 258.896 6.43467 258.896 6.43679C259.091 6.64853 259.286 6.85605 259.48 7.06567C258.848 7.19157 258.087 7.60665 257.606 7.39082C256.027 6.68304 254.667 2.10969 255.402 0.381263C255.469 0.221906 255.712 0.137408 255.874 0.0174768L255.786 -0.0539855Z" fill="white"/>
<path d="M340.035 442.243C340.842 444.339 343.005 445.812 340.431 448.221C340.174 446.832 339.99 445.839 339.771 444.654C338.854 444.747 338.034 444.831 336.436 444.993C337.93 443.855 338.836 443.16 340.035 442.243Z" fill="white"/>
<path d="M77.1756 332.114C77.7234 333.567 78.2715 335.023 78.9839 336.915C78.1605 336.934 76.5918 337.097 76.5626 336.951C76.2459 335.372 76.1727 333.745 76.0316 332.13C76.4145 332.125 76.7949 332.118 77.1756 332.114Z" fill="white"/>
<path d="M596.645 549.977C598.087 553.048 599.526 556.12 600.968 559.191C600.764 559.297 600.558 559.403 600.354 559.509C598.735 556.503 597.117 553.498 595.499 550.494C595.88 550.323 596.263 550.151 596.645 549.977Z" fill="white"/>
<path d="M359.728 43.5844C354.605 44.5332 349.481 45.482 344.358 46.4308C344.333 46.3082 344.308 46.1856 344.283 46.063C349.375 45.1201 354.464 44.1776 359.556 43.2347C359.614 43.351 359.671 43.4677 359.728 43.5844Z" fill="white"/>
<path d="M260.776 332.812C261.225 333.992 261.671 335.171 262.378 337.034C261.148 337.082 260.166 337.119 259.181 337.158C259.516 335.662 259.852 334.168 260.186 332.671C260.384 332.718 260.581 332.765 260.776 332.812Z" fill="white"/>
<path d="M604.827 641.33C604.297 642.823 603.764 644.317 603.071 646.261C602.079 645.675 601.337 645.234 600.529 644.758C601.844 643.33 602.893 642.195 603.941 641.058C604.236 641.148 604.532 641.24 604.827 641.33Z" fill="white"/>
<path d="M300.665 413.426C300.938 415.72 303.722 417.497 301.998 420.604C301.056 419.223 300.28 418.086 299.38 416.77C299.748 415.888 300.245 414.69 300.735 413.486C300.723 413.477 300.665 413.426 300.665 413.426Z" fill="white"/>
<path d="M230.584 103.991C229.137 105.774 228.013 107.162 226.762 108.701C225.075 105.713 225.727 104.934 230.584 103.991Z" fill="white"/>
<path d="M213.149 10.8067C211.86 15.1819 209.966 13.9447 207.93 12.2228C209.469 11.8061 211.009 11.3895 213.149 10.8067Z" fill="white"/>
<path d="M350.753 577.418C350.182 580.101 346.957 582.312 351.62 583.532C351.323 583.8 351.026 584.066 350.729 584.333C349.853 583.928 348.368 583.676 348.214 583.084C347.716 581.152 348.011 579.217 350.753 577.418Z" fill="white"/>
<path d="M81.3101 372.783C83.1224 373.213 84.9351 373.645 86.7474 374.075C86.6344 374.578 86.5212 375.08 86.4061 375.583C84.5925 375.217 82.7767 374.852 80.963 374.486C81.0794 373.918 81.1958 373.351 81.3101 372.783Z" fill="white"/>
<path d="M184.913 141.714C184.414 140.324 184.032 139.252 183.687 138.293C185.726 138.545 187.782 138.799 189.838 139.054C189.869 139.221 189.9 139.391 189.931 139.559C189.06 139.72 188.133 139.749 187.332 140.079C186.544 140.405 185.885 141.038 184.913 141.714Z" fill="white"/>
<path d="M571.073 346.06C571.002 344.279 569.412 342.03 573.325 341.079C572.914 343.068 572.572 344.724 572.232 346.381C571.845 346.273 571.459 346.167 571.073 346.06Z" fill="white"/>
<path d="M297.32 391.351C298.076 390.704 298.721 390.151 300.109 388.962C300.256 391.43 300.358 393.138 300.512 395.714C299.161 393.866 298.371 392.784 297.32 391.351Z" fill="white"/>
<path d="M520.593 225.448C519.708 224.413 518.822 223.375 517.951 222.354C518.167 222.276 519.718 221.353 520.062 221.684C520.849 222.44 521.044 223.812 521.48 224.933C521.185 225.104 520.89 225.277 520.593 225.448Z" fill="white"/>
<path d="M575.698 358.645C576.099 360.808 576.499 362.969 576.899 365.132C576.653 365.184 576.407 365.234 576.16 365.286C575.764 363.144 575.367 361.002 574.97 358.861C575.213 358.787 575.455 358.716 575.698 358.645Z" fill="white"/>
<path d="M301.241 401.837C300.36 400.634 299.482 399.432 298.601 398.229C298.869 398.006 299.137 397.783 299.405 397.56C300.464 397.952 301.524 398.344 302.637 398.754C302.129 399.85 301.649 400.889 301.168 401.928C301.166 401.93 301.241 401.837 301.241 401.837Z" fill="white"/>
<path d="M580.026 529.806C582.256 531.569 580.227 535.757 584.25 535.832C581.369 537.034 579.966 535.14 580.026 529.806Z" fill="white"/>
<path d="M244.615 653.461C245.335 654.51 246.066 655.151 245.944 655.476C245.604 656.388 244.916 657.171 244.366 658.003C243.877 657.565 242.91 657.01 242.985 656.715C243.225 655.763 243.849 654.904 244.615 653.461Z" fill="white"/>
<path d="M586.845 624.258C586.944 622.551 586.993 621.68 587.069 620.326C588.244 620.751 589.232 621.107 590.221 621.464C590.271 621.746 590.321 622.029 590.371 622.311C589.301 622.902 588.23 623.493 586.845 624.258Z" fill="white"/>
<path d="M541.336 604.833C539.65 606.444 538.222 607.805 536.541 609.41C536.731 605.868 538.097 604.525 541.336 604.833Z" fill="white"/>
<path d="M161.467 3.8692C160.987 2.50835 160.161 1.17852 160.465 0.83051C161.151 0.0433818 162.394 -0.256945 163.734 -0.11048C163.108 0.983737 162.484 2.07967 161.467 3.8692Z" fill="white"/>
<path d="M363.124 448.64C361.998 447.712 360.874 446.782 359.489 445.641C362.423 444.738 362.678 444.904 363.719 447.836C363.523 448.103 363.324 448.37 363.124 448.64Z" fill="white"/>
<path d="M61.2906 465.166C59.9567 466.099 58.6228 467.033 57.2893 467.968C57.0425 467.654 56.7978 467.34 56.5511 467.026C57.7779 465.952 59.0046 464.878 60.2314 463.805C60.5853 464.259 60.9392 464.713 61.2906 465.166Z" fill="white"/>
<path d="M255.872 0.0150967C256.445 -2.05191 257.831 -1.56726 259.158 -0.962041C260.14 -0.514453 261.047 0.094052 261.903 1.33041C259.866 0.869875 257.831 0.408948 255.789 -0.0529258C255.786 -0.0546537 255.872 0.0150967 255.872 0.0150967Z" fill="white"/>
<path d="M190.721 116.086C191.9 116.98 193.136 117.815 194.218 118.814C194.461 119.039 194.318 119.923 194.074 120.334C193.95 120.542 192.956 120.572 192.769 120.344C191.828 119.2 191.025 117.94 190.172 116.723C190.355 116.512 190.537 116.298 190.721 116.086Z" fill="white"/>
<path d="M281.62 348.994C283.774 348.595 285.21 348.329 287.337 347.935C285.955 349.402 285.012 350.399 283.876 351.605C283.235 350.857 282.629 350.158 281.62 348.994Z" fill="white"/>
<path d="M566.544 298.816C566.349 300.559 566.154 302.301 565.959 304.044C565.662 304.015 565.365 303.985 565.068 303.956C565.176 302.16 563.749 300.224 566.544 298.816Z" fill="white"/>
<path d="M592.31 540.281C593.287 542.374 594.265 544.467 595.244 546.558C594.817 546.762 594.392 546.966 593.965 547.17C593.55 546.231 593.052 545.319 592.74 544.348C592.346 543.118 592.107 541.84 591.8 540.583C591.97 540.484 592.14 540.382 592.31 540.281Z" fill="white"/>
<path d="M226.216 71.0646C227.542 69.683 228.601 68.5789 229.796 67.3355C229.984 71.3342 229.582 71.8495 226.216 71.0646Z" fill="white"/>
<path d="M538.021 414.482C539.352 415.685 540.269 416.518 541.478 417.612C539.935 417.898 538.73 418.121 537.252 418.395C537.487 417.211 537.715 416.05 538.021 414.482Z" fill="white"/>
<path d="M252.742 64.7877C251.345 62.0505 252.651 59.5692 255.825 58.7906C254.786 60.7355 253.723 62.7308 252.671 64.733C252.681 64.742 252.742 64.7877 252.742 64.7877Z" fill="white"/>
<path d="M368.772 450.89C367.78 450.543 366.724 450.304 365.841 449.775C365.619 449.643 365.956 448.582 366.034 447.949C367.087 448.437 368.14 448.926 369.195 449.413C369.054 449.906 368.913 450.399 368.772 450.89Z" fill="white"/>
<path d="M563.349 231.608C566.304 232.063 567.14 233.758 566.278 237.312C565.387 235.576 564.398 233.651 563.349 231.608Z" fill="white"/>
<path d="M596.312 563.613C597.174 564.559 598.052 565.495 598.854 566.489C598.891 566.533 598.26 567.117 597.938 567.45C597.046 566.495 596.154 565.541 595.262 564.586C595.615 564.262 595.963 563.938 596.312 563.613Z" fill="white"/>
<path d="M289.624 356.436C288.39 357.044 287.187 359.089 285.451 356.167C287.081 355.865 288.307 355.638 289.531 355.411C289.561 355.752 289.594 356.095 289.624 356.436Z" fill="white"/>
<path d="M51.7565 326.624C53.0433 327.864 53.9674 328.757 55.137 329.885C51.3952 330.121 50.9354 329.711 51.7565 326.624Z" fill="white"/>
<path d="M367.613 445.121C368.492 444.265 369.369 443.409 370.43 442.377C370.896 443.221 371.262 443.884 371.83 444.912C370.441 445.336 369.26 445.698 368.077 446.059C367.922 445.746 367.768 445.432 367.613 445.121Z" fill="white"/>
<path d="M250.776 84.9402C249.201 85.6528 247.627 86.3655 246.052 87.0761C245.87 86.6492 245.688 86.2224 245.506 85.7955C247.089 85.1054 248.672 84.4152 250.257 83.7247C250.428 84.1294 250.602 84.5358 250.776 84.9402Z" fill="white"/>
<path d="M237.688 108.327C235.69 107.962 233.691 107.598 231.693 107.233C231.72 106.987 231.748 106.738 231.775 106.492C233.811 106.648 235.845 106.806 237.88 106.962C237.818 107.417 237.753 107.872 237.688 108.327Z" fill="white"/>
<path d="M310.578 15.8813C310.327 18.3623 310.076 20.8434 309.824 23.3224C309.532 23.2822 309.239 23.2421 308.947 23.202C309.241 20.6581 309.535 18.1142 309.827 15.5707C310.077 15.6736 310.326 15.7766 310.578 15.8813Z" fill="white"/>
<path d="M557.993 604.425C556.877 604.519 555.761 604.616 554.642 604.712C554.509 604.407 554.376 604.103 554.244 603.801C555.103 603.387 555.935 602.773 556.836 602.641C557.323 602.57 557.93 603.324 558.484 603.709C558.319 603.947 558.155 604.186 557.993 604.425Z" fill="white"/>
<path d="M394.719 475.313C394.673 474.26 394.639 473.518 394.615 472.974C396.397 473.644 398.066 474.274 400.459 475.173C398.212 475.227 396.671 475.265 394.719 475.313Z" fill="white"/>
<path d="M205.708 70.9544C206.551 70.3772 207.396 69.7975 208.78 68.8503C208.857 69.2659 209.321 70.6824 209.104 70.7926C208.08 71.3245 206.87 71.5048 205.726 71.8087C205.722 71.5243 205.715 71.2404 205.708 70.9544Z" fill="white"/>
<path d="M226.516 654.824C226.87 652.861 227.057 651.826 227.292 650.524C228.243 651.442 229.033 652.202 230.118 653.251C228.999 653.739 228.111 654.127 226.516 654.824Z" fill="white"/>
<path d="M259.947 330.075C259.131 328.666 258.614 327.275 261.098 325.312C261.025 327.405 260.978 328.765 260.932 330.125C260.604 330.108 260.274 330.091 259.947 330.075Z" fill="white"/>
<path d="M145.324 297.698C146.569 300.183 147.816 302.665 149.057 305.151C150.788 308.62 152.363 312.177 154.276 315.541C157.552 321.304 157.451 327.238 156.084 333.489C154.793 339.4 154.001 345.418 152.331 351.652C151.16 347.311 149.894 342.994 148.848 338.624C147.764 334.098 146.75 329.548 145.975 324.963C145.218 320.471 144.558 315.937 144.305 311.395C144.053 306.873 144.362 302.322 144.427 297.781C144.724 297.754 145.024 297.727 145.324 297.698Z" fill="white"/>
<path d="M154.023 292.017C154.614 292.53 155.105 292.955 155.69 293.465C156.635 291.197 157.569 288.949 158.672 286.304C159.477 287.157 159.966 287.501 160.218 287.972C161.842 291.023 163.453 294.082 164.997 297.174C167.246 301.681 170.422 305.8 169.602 311.431C169.023 315.418 169.198 319.513 169.008 323.56C168.96 324.624 168.809 325.683 168.226 326.854C161.05 316.342 153.797 305.957 154.023 292.017Z" fill="white"/>
<path d="M150.947 298.883C150.546 297.78 150.32 296.563 149.703 295.598C148.702 294.033 148.809 291.541 146.186 291.211C145.827 291.166 145.414 290.534 145.248 290.091C142.775 283.449 140.269 276.803 141.978 269.496C142.094 269.008 142.25 268.522 142.435 268.056C142.501 267.888 142.711 267.779 142.857 267.645C146.097 268.891 147.576 271.335 147.574 274.709C147.574 275.658 148.313 276.997 149.121 277.488C152.289 279.411 153.879 281.766 153.228 285.703C152.515 290.022 152.34 294.43 151.932 298.798C151.602 298.828 151.276 298.855 150.947 298.883Z" fill="white"/>
<path d="M17.6692 291.561C18.1731 287.756 18.2966 283.851 19.2662 280.169C20.7283 274.61 23.059 269.277 24.5047 263.712C25.9343 258.214 26.1412 252.546 24.8177 246.915C24.6458 246.188 24.7175 245.403 24.678 244.644C24.9657 244.433 25.2555 244.222 25.5432 244.01C26.5316 245.025 28.1197 245.902 28.3905 247.08C29.013 249.79 29.7142 252.818 29.1027 255.414C26.9942 264.352 24.349 273.163 21.8755 282.013C20.9666 285.265 19.9629 288.491 19.0034 291.73C18.5567 291.675 18.1117 291.617 17.6692 291.561Z" fill="white"/>
<path d="M181.531 434.089C179.651 435.152 177.987 436.09 176.234 437.081C172.967 432.175 173.737 427.128 175.798 422.41C178.083 424.268 180.496 425.896 182.479 427.941C184.198 429.715 185.625 431.857 186.768 434.051C187.181 434.844 186.39 436.26 186.15 437.392C185.098 437.006 183.95 436.764 183.024 436.179C182.4 435.786 182.088 434.905 181.531 434.089Z" fill="white"/>
<path d="M33.8494 224.518C34.137 225.408 34.4016 226.043 34.5486 226.707C35.4661 230.88 35.4743 230.782 31.1801 229.717C29.5779 229.321 27.8174 229.561 25.9143 229.506C25.5913 230.473 25.392 231.576 24.8637 232.49C24.4022 233.29 23.5728 233.881 22.9074 234.563C22.5203 234.475 22.1308 234.384 21.7438 234.296C21.7924 232.462 21.8431 230.628 21.912 228.11C21.2436 227.048 19.9695 225.248 18.9838 223.301C18.6897 222.72 19.2055 221.727 19.3506 220.924C20.0282 221.195 20.7019 221.47 21.3808 221.736C24.6971 223.039 27.9887 224.41 31.3531 225.57C31.8876 225.756 32.7489 225.007 33.8494 224.518Z" fill="white"/>
<path d="M134.33 96.5958C132.904 94.9693 131.167 92.9924 129.432 91.0151C129.663 90.7485 129.893 90.4824 130.124 90.2179C131.051 90.6122 131.979 91.0041 133.659 91.7192C132.537 89.271 131.709 87.4657 130.621 85.0967C131.574 85.598 132.485 85.7823 132.884 86.3358C134.558 88.662 136.047 91.1235 137.685 93.4784C138.026 93.9701 138.923 94.109 139.189 94.6081C139.776 95.7188 140.608 97.0166 140.465 98.1266C140.228 99.9932 139.011 99.5804 137.523 98.961C136.674 98.6071 135.304 99.5101 133.44 100.066C133.707 99.025 133.943 98.1041 134.33 96.5958Z" fill="white"/>
<path d="M43.0479 208.328C42.9339 206.125 42.5998 204.191 42.8694 202.342C42.959 201.725 44.7371 200.762 45.4937 200.95C47.4009 201.431 50.3724 199.711 50.9755 203.122C51.0588 203.596 50.0078 204.541 49.298 204.841C46.2061 206.159 45.4196 208.983 47.3859 211.843C47.8989 212.588 48.1477 213.529 48.391 214.416C48.4099 214.483 47.2188 215.157 46.9189 214.982C46.0249 214.466 44.9979 213.812 44.5695 212.943C43.8198 211.418 43.4739 209.692 43.0479 208.328Z" fill="white"/>
<path d="M239.702 262.992C238.32 260.774 236.937 258.556 235.552 256.336C236.607 255.717 237.707 255.073 238.55 254.579C237.938 253.172 237.488 252.196 237.14 251.184C237.12 251.124 238.171 250.497 238.307 250.617C239.276 251.453 240.134 252.417 241.026 253.335C241.091 253.222 241.34 252.79 241.616 252.307C245.348 255.412 244.4 260.411 239.702 262.992Z" fill="white"/>
<path d="M25.8792 198.997C28.1902 199.81 30.4835 200.682 32.8173 201.416C35.0255 202.113 37.3555 202.484 39.4726 203.375C40.3173 203.732 40.8436 205.058 41.2426 206.052C41.3117 206.223 39.8727 207.466 39.3755 207.328C34.5434 205.988 29.5651 204.865 25.8919 201.043C25.5905 200.73 25.5478 200.168 25.3862 199.722C25.5503 199.483 25.7137 199.24 25.8792 198.997Z" fill="white"/>
<path d="M27.371 320.356C28.6164 324.997 30.0099 329.608 30.9745 334.307C31.1509 335.165 29.5735 336.383 28.8051 337.433C28.1813 336.658 27.0794 335.919 27.0133 335.1C26.6266 330.217 26.4774 325.314 26.2508 320.419C26.6246 320.4 26.998 320.379 27.371 320.356Z" fill="white"/>
<path d="M32.3083 241.411C31.5325 240.491 30.7647 239.578 29.7777 238.405C35.0578 238.055 36.6998 245.203 35.8138 252.654C31.598 249.715 30.4681 246.077 32.3083 241.411Z" fill="white"/>
<path d="M75.5401 242.902C72.8564 241.556 70.9798 240.235 68.9023 239.687C67.0485 239.199 65.0899 242.409 62.4879 239.373C65.8045 238.309 68.7705 236.738 71.8252 236.545C75.0898 236.337 74.835 239.58 75.5401 242.902Z" fill="white"/>
<path d="M75.6644 249.211C79.0954 252.376 79.9768 255.786 78.3743 259.829C78.1009 260.52 77.2072 260.964 76.5998 261.522C76.0742 260.768 75.0986 260.012 75.1022 259.261C75.127 256.008 75.4374 252.758 75.6644 249.211Z" fill="white"/>
<path d="M79.8095 304.126C82.5248 305.215 84.986 305.786 86.6789 302.729C88.7907 304.491 88.3796 306.381 87.7736 308.178C87.6208 308.632 86.5105 309.221 86.1194 309.063C83.6806 308.07 80.9749 307.351 79.8095 304.126Z" fill="white"/>
<path d="M104.89 340.511C102.369 340.859 99.2839 338.65 99.186 336.676C99.156 336.052 100.307 334.806 100.341 334.826C102.241 335.939 104.119 337.105 105.85 338.456C106.002 338.577 105.14 339.989 104.89 340.511Z" fill="white"/>
<path d="M254.734 286.719C254.202 287.084 253.831 287.34 253.193 287.78C252.844 286.5 252.522 285.319 252.235 284.264C253.521 284.09 254.766 283.92 256.349 283.704C256.608 285.139 255.438 288 258.685 288.43C257.987 290.049 257.404 291.402 256.638 293.178C256.517 293.201 255.729 293.347 254.808 293.517C254.782 291.302 254.761 289.225 254.734 286.719Z" fill="white"/>
<path d="M35.2823 187.204C39.0861 189.054 43.6808 189.87 46.3355 195.086C44.3266 194.767 42.7435 194.994 41.9893 194.309C39.5888 192.124 37.4959 189.599 35.2823 187.204Z" fill="white"/>
<path d="M250.256 294.327C248.72 295.684 246.758 293.88 246.121 292.621C245.35 291.097 245.934 288.887 245.932 286.519C248.645 287.56 249.144 288.681 248.84 290.615C248.694 291.552 249.578 292.654 250.256 294.327Z" fill="white"/>
<path d="M25.0854 184.703C25.4312 187.708 25.7746 190.71 26.1421 193.915C21.8681 192.438 21.6091 190.696 25.0854 184.703Z" fill="white"/>
<path d="M96.9687 371.84C98.871 371.358 99.6108 372.783 99.5071 374.686C99.3385 377.755 98.8909 380.81 97.8334 383.947C97.5564 380.094 97.2815 376.241 96.9687 371.84Z" fill="white"/>
<path d="M70.3701 227.504C72.1337 229.245 73.3904 230.335 74.3944 231.623C74.5726 231.851 73.6951 232.904 73.3061 233.575C71.835 232.654 70.3087 231.803 68.9659 230.722C68.794 230.588 69.5906 229.251 70.3701 227.504Z" fill="white"/>
<path d="M234.066 381.935C234.471 385.578 232.263 387.537 229.8 389.481C228.566 386.799 230.476 383.445 234.066 381.935Z" fill="white"/>
<path d="M312.226 673.159C308.594 672.794 304.963 672.432 301.333 672.066C305.127 669.113 308.63 671.877 312.266 671.908C312.251 672.325 312.238 672.742 312.226 673.159Z" fill="white"/>
<path d="M70.7092 265.705C71.299 264.212 71.8888 262.719 72.4787 261.226C73.5305 261.86 74.5805 262.497 75.6324 263.131C74.4908 264.31 73.3493 265.488 72.2056 266.667C71.7072 266.345 71.2072 266.025 70.7092 265.705Z" fill="white"/>
<path d="M21.0421 254.299C20.6478 252.17 20.2276 250.044 19.9012 247.902C19.8715 247.706 20.5184 247.161 20.7117 247.221C21.2359 247.388 22.0623 247.752 22.0978 248.11C22.3089 250.126 22.3221 252.163 22.4043 254.194C21.9521 254.227 21.4981 254.263 21.0421 254.299Z" fill="white"/>
<path d="M120.703 114.99C118.869 111.597 119.361 105.753 121.689 102.442C121.358 106.681 121.044 110.67 120.703 114.99Z" fill="white"/>
<path d="M91.1742 290.858C86.8384 290.066 82.5753 289.288 78.5479 288.551C81.4648 287.282 89.2688 288.563 91.1742 290.858Z" fill="white"/>
<path d="M88.6196 358.307C88.9626 358.099 89.3049 357.886 89.6509 357.682C92.7118 355.865 93.349 356.238 93.7323 360.286C91.688 360.379 89.5162 361.1 88.6815 358.203C88.6798 358.206 88.6196 358.307 88.6196 358.307Z" fill="white"/>
<path d="M180.408 99.79C183.195 99.274 185.686 98.8126 188.528 98.2863C187.108 101.135 183.081 101.694 180.408 99.79Z" fill="white"/>
<path d="M94.7373 322.722C94.5065 320.433 94.3588 318.984 94.2129 317.533C94.4127 317.345 94.615 317.158 94.8148 316.97C95.9183 318.25 97.0235 319.528 98.127 320.809C97.0925 321.393 96.0618 321.974 94.7373 322.722Z" fill="white"/>
<path d="M231.663 259.506C228.336 258.418 229.419 255.655 228.874 253.243C229.992 253.327 230.853 253.392 231.509 253.439C231.561 255.485 231.61 257.373 231.663 259.506Z" fill="white"/>
<path d="M34.546 342.081C35.8401 342.839 36.5197 343.24 37.2013 343.64C36.343 344.654 35.4863 345.666 34.628 346.68C34.1123 346.181 33.1271 345.623 33.1793 345.194C33.296 344.249 33.938 343.369 34.546 342.081Z" fill="white"/>
<path d="M243.651 274.97C247.516 277.093 248.705 280.27 246.114 281.897C245.313 279.643 244.543 277.476 243.651 274.97Z" fill="white"/>
<path d="M100.892 362.739C99.6319 361.113 98.5508 359.716 97.1727 357.936C101.309 358.361 102.355 359.674 100.892 362.739Z" fill="white"/>
<path d="M529.54 670.26C531.811 670.541 533.421 670.741 535.03 670.94C535.056 671.256 535.083 671.569 535.109 671.884C533.392 672.099 531.678 672.346 529.955 672.442C529.868 672.447 529.707 671.163 529.54 670.26Z" fill="white"/>
<path d="M134.705 167.096C136.076 165.855 136.858 165.149 138.276 163.866C138.285 165.821 138.291 166.993 138.3 168.792C136.925 168.143 136.118 167.762 134.705 167.096Z" fill="white"/>
<path d="M242.177 273.122C242.206 269.573 242.23 266.978 242.252 264.386C242.645 264.412 243.036 264.438 243.429 264.462C241.594 266.988 245.197 269.973 242.177 273.122Z" fill="white"/>
<path d="M90.0357 270.438C88.3455 269.637 86.6531 268.836 84.9633 268.037C85.1321 267.681 85.3012 267.327 85.4721 266.971C87.1842 267.724 88.8938 268.476 90.6059 269.229C90.4153 269.633 90.2267 270.036 90.0357 270.438Z" fill="white"/>
<path d="M69.8669 553.59C70.3001 554.449 70.8593 555.277 71.0718 556.188C71.1183 556.392 69.9494 556.878 69.3424 557.236C69.0386 556.235 68.7344 555.232 68.4328 554.231C68.9108 554.017 69.3889 553.804 69.8669 553.59Z" fill="white"/>
<path d="M282.998 556.445C284.188 557.646 285.377 558.847 286.565 560.049C286.315 560.31 286.063 560.571 285.813 560.835C284.592 559.664 283.373 558.492 282.151 557.322C282.433 557.028 282.714 556.737 282.998 556.445Z" fill="white"/>
<path d="M487.117 620.981C487.691 619.971 488.317 618.864 488.946 617.758C489.708 618.343 490.467 618.926 491.26 619.536C492.57 619.513 494.069 619.316 495.508 619.523C496.432 619.655 497.269 620.382 498.146 620.842C496.97 621.468 495.764 622.658 494.624 622.6C492.361 622.486 490.135 621.681 487.117 620.981Z" fill="white"/>
<path d="M242.284 76.8889C245.478 79.653 245.806 81.3734 243.671 84.1659C241.992 84.8674 240.312 85.5688 238.632 86.2703C238.508 86.0367 238.385 85.8006 238.261 85.5671C239.564 84.3979 241.353 83.4548 242.037 81.9968C242.704 80.5681 242.246 78.6133 242.284 76.8889Z" fill="white"/>
<path d="M184.285 155.944C185.607 156.189 186.928 156.433 189.227 156.858C187.758 158.021 187.011 158.611 186.266 159.203C185.813 158.438 185.352 157.679 184.906 156.908C184.71 156.568 184.54 156.209 184.355 155.861C184.353 155.862 184.285 155.944 184.285 155.944Z" fill="white"/>
</svg>
