<svg width="84" height="84" viewBox="0 0 84 84" fill="none" xmlns="http://www.w3.org/2000/svg">
<circle cx="41.7418" cy="41.9999" r="38.9999" stroke="white" stroke-width="5" stroke-linejoin="bevel" stroke-dasharray="2 3"/>
<mask id="mask0" mask-type="alpha" maskUnits="userSpaceOnUse" x="28" y="29" width="27" height="26">
<path d="M46.5625 29H36.4375C31.7783 29 28 32.6384 28 37.125V46.875C28 51.3616 31.7783 55 36.4375 55H46.5625C51.2217 55 55 51.3616 55 46.875V37.125C55 32.6384 51.2217 29 46.5625 29ZM52.4688 46.875C52.4688 50.0112 49.8194 52.5625 46.5625 52.5625H36.4375C33.1806 52.5625 30.5312 50.0112 30.5312 46.875V37.125C30.5312 33.9887 33.1806 31.4375 36.4375 31.4375H46.5625C49.8194 31.4375 52.4688 33.9887 52.4688 37.125V46.875Z" fill="white"/>
<path d="M41.5 35.5C37.7723 35.5 34.75 38.4104 34.75 42C34.75 45.5896 37.7723 48.5 41.5 48.5C45.2277 48.5 48.25 45.5896 48.25 42C48.25 38.4104 45.2277 35.5 41.5 35.5ZM41.5 46.0625C39.1746 46.0625 37.2813 44.2393 37.2813 42C37.2813 39.7591 39.1746 37.9375 41.5 37.9375C43.8254 37.9375 45.7188 39.7591 45.7188 42C45.7188 44.2393 43.8254 46.0625 41.5 46.0625Z" fill="white"/>
<path d="M48.7564 35.8787C49.2531 35.8787 49.6558 35.491 49.6558 35.0126C49.6558 34.5343 49.2531 34.1465 48.7564 34.1465C48.2596 34.1465 47.8569 34.5343 47.8569 35.0126C47.8569 35.491 48.2596 35.8787 48.7564 35.8787Z" fill="white"/>
</mask>
<g mask="url(#mask0)">
<rect x="11" y="17" width="57" height="47" fill="white"/>
</g>
</svg>
