<svg width="68" height="68" viewBox="0 0 68 68" fill="none" xmlns="http://www.w3.org/2000/svg">
<g clip-path="url(#clip0)">
<path d="M33.9999 64.8128C20.2193 64.8128 5.39209 56.1853 5.39209 37.2462C5.39209 18.3071 20.2246 9.67963 33.9999 9.67432C41.6393 9.67432 48.7102 12.2031 53.9111 16.7931C59.6008 21.8187 62.613 28.8896 62.613 37.2409C62.613 45.5603 59.6061 52.6153 53.9111 57.6515C48.6943 62.2734 41.6233 64.8128 33.9999 64.8128Z" fill="url(#paint0_linear)"/>
<path d="M33.9999 10.7368C41.379 10.7368 48.2002 13.1699 53.2046 17.5899C58.6605 22.4031 61.5452 29.2031 61.5452 37.2462C61.5452 45.2521 58.6605 52.0362 53.2046 56.8653C48.1843 61.3012 41.363 63.7503 33.9999 63.7503C26.5996 63.7503 19.7783 61.3384 14.7899 56.9503C9.33396 52.1531 6.45459 45.3424 6.45459 37.2409C6.45459 29.1074 9.33928 22.2756 14.7899 17.4943C19.7624 13.1381 26.5837 10.7368 33.9999 10.7368ZM33.9999 8.61182C18.5937 8.61182 4.32959 18.5037 4.32959 37.2409C4.32959 55.8771 18.5937 65.8753 33.9999 65.8753C49.4062 65.8753 63.6702 55.6274 63.6702 37.2462C63.6702 18.7587 49.4062 8.61182 33.9999 8.61182Z" fill="#EB8F00"/>
<path opacity="0.8" d="M17.9297 46.7925C23.0642 46.7925 27.2266 42.868 27.2266 38.0269C27.2266 33.1857 23.0642 29.2612 17.9297 29.2612C12.7952 29.2612 8.63281 33.1857 8.63281 38.0269C8.63281 42.868 12.7952 46.7925 17.9297 46.7925Z" fill="url(#paint1_radial)"/>
<path opacity="0.8" d="M50.0703 46.7925C55.2048 46.7925 59.3672 42.868 59.3672 38.0269C59.3672 33.1857 55.2048 29.2612 50.0703 29.2612C44.9358 29.2612 40.7734 33.1857 40.7734 38.0269C40.7734 42.868 44.9358 46.7925 50.0703 46.7925Z" fill="url(#paint2_radial)"/>
<path d="M26.3289 34.733C26.3289 34.733 26.3024 34.6958 26.2439 34.6268L26.0208 34.3399C25.9411 34.2549 25.8455 34.1539 25.7339 34.0371C25.6224 33.9096 25.4842 33.7768 25.3461 33.6386C25.2027 33.5058 25.0539 33.3677 24.8999 33.2561C24.7511 33.1339 24.5864 33.0436 24.4536 32.9693C24.3155 32.8843 24.188 32.863 24.1083 32.8364C24.0658 32.8205 24.0286 32.8205 23.9967 32.8152C23.9808 32.8205 23.9649 32.8099 23.9489 32.8152L23.9277 32.8205H23.9117C23.9755 32.8205 23.7683 32.8258 24.0552 32.8152L23.763 32.8258C23.6886 32.8258 23.7364 32.8311 23.7417 32.8311C23.7577 32.8311 23.7683 32.8311 23.7789 32.8258C23.8214 32.8099 23.7789 32.8258 23.7683 32.8258C23.7479 32.8267 23.7279 32.8322 23.7099 32.8418C23.6249 32.8683 23.4974 32.8896 23.3646 32.9746C23.2317 33.0489 23.0671 33.1393 22.9183 33.2614C22.7696 33.3783 22.6155 33.5111 22.4721 33.6439C22.1958 33.9149 21.9514 34.1858 21.7814 34.3824C21.6061 34.5843 21.5105 34.7011 21.5105 34.7011L21.3883 34.8446C20.6605 35.6946 19.3217 35.838 18.4027 35.1686C17.7758 34.7118 17.5049 33.9999 17.6217 33.3199C17.6217 33.3199 17.6589 33.1021 17.7652 32.7249C17.8767 32.3477 18.0627 31.8111 18.4292 31.1789C18.7958 30.5521 19.3271 29.8136 20.2249 29.1389C20.6658 28.8096 21.2024 28.4802 21.8399 28.2571C21.9939 28.1986 22.1586 28.1455 22.3286 28.103C22.5039 28.0605 22.6421 28.0127 22.8811 27.9808L23.2105 27.933C23.3114 27.9224 23.4602 27.9064 23.4814 27.9064L23.7736 27.8852L23.9383 27.8799H23.9861L24.0552 27.8852L24.1933 27.8905L24.4642 27.9064C24.6449 27.9224 24.8202 27.9543 24.9955 27.9808C25.3408 28.0446 25.6861 28.1349 25.9996 28.2518C26.5807 28.4594 27.1257 28.757 27.6146 29.1336C28.5124 29.8083 29.0436 30.5468 29.4102 31.1736C29.5961 31.4871 29.7342 31.7846 29.8352 32.0449C29.9467 32.2946 30.0264 32.5602 30.0902 32.7568C30.1486 32.948 30.1486 33.0489 30.1752 33.1393C30.1911 33.2243 30.1964 33.2721 30.1964 33.2721C30.393 34.3452 29.6014 35.3599 28.438 35.5352C27.5933 35.6627 26.7911 35.328 26.3289 34.733Z" fill="#242424"/>
<path d="M46.2507 34.733C46.2507 34.733 46.2242 34.6958 46.1657 34.6268L45.9426 34.3399C45.8629 34.2549 45.7673 34.1539 45.6557 34.0371C45.5442 33.9096 45.4061 33.7768 45.2679 33.6386C45.1245 33.5058 44.9757 33.3677 44.8217 33.2561C44.6729 33.1339 44.5082 33.0436 44.3754 32.9693C44.2373 32.8843 44.1098 32.863 44.0301 32.8364C43.9876 32.8205 43.9504 32.8205 43.9186 32.8152C43.9026 32.8205 43.8867 32.8099 43.8707 32.8152L43.8495 32.8205H43.8282C43.892 32.8205 43.6848 32.8258 43.9717 32.8152L43.6795 32.8258C43.6051 32.8258 43.6529 32.8311 43.6582 32.8311C43.6742 32.8311 43.6848 32.8311 43.6954 32.8258C43.7379 32.8099 43.6954 32.8258 43.6848 32.8258C43.6644 32.8267 43.6444 32.8322 43.6264 32.8418C43.5414 32.8683 43.4139 32.8896 43.2811 32.9746C43.1482 33.0489 42.9836 33.1393 42.8348 33.2614C42.6861 33.3783 42.532 33.5111 42.3886 33.6439C42.1123 33.9149 41.8679 34.1858 41.6979 34.3824C41.5226 34.5843 41.427 34.7011 41.427 34.7011L41.3048 34.8446C40.577 35.6946 39.2382 35.838 38.3192 35.1686C37.6923 34.7118 37.4214 33.9999 37.5382 33.3199C37.5382 33.3199 37.5754 33.1021 37.6817 32.7249C37.7932 32.3477 37.9792 31.8111 38.3457 31.1789C38.7123 30.5521 39.2436 29.8136 40.1414 29.1389C40.5823 28.8096 41.1189 28.4802 41.7564 28.2571C41.9104 28.1986 42.0751 28.1455 42.2451 28.103C42.4204 28.0605 42.5586 28.0127 42.7976 27.9808L43.127 27.933C43.2279 27.9224 43.3767 27.9064 43.3979 27.9064L43.6901 27.8852L43.8548 27.8799H43.9026L43.9717 27.8852L44.1098 27.8905L44.3807 27.9064C44.5614 27.9224 44.7367 27.9543 44.912 27.9808C45.2573 28.0446 45.6026 28.1349 45.9161 28.2518C46.4972 28.4594 47.0422 28.757 47.5311 29.1336C48.4289 29.8083 48.9601 30.5468 49.3267 31.1736C49.5126 31.4871 49.6507 31.7846 49.7517 32.0449C49.8632 32.2946 49.9429 32.5602 50.0067 32.7568C50.0651 32.948 50.0651 33.0489 50.0917 33.1393C50.1076 33.2243 50.1129 33.2721 50.1129 33.2721C50.3095 34.3452 49.5179 35.3599 48.3545 35.5352C47.5098 35.6627 46.7076 35.328 46.2507 34.733Z" fill="#242424"/>
<path d="M55.8134 28.0923C55.6965 28.0764 52.8597 27.6779 48.0253 23.9539C43.2547 20.2829 42.2665 17.8233 42.1709 17.5576L41.8628 16.7129L62.5815 5.03076L56.7484 28.2145L55.8134 28.0923Z" fill="#FF4545"/>
<path d="M60.945 7.17201L55.946 27.0408C55.946 27.0408 53.3322 26.7061 48.6679 23.1148C44.0035 19.5236 43.1641 17.1967 43.1641 17.1967L60.945 7.17201ZM64.2122 2.89014L59.8985 5.32326L42.1229 15.3426L40.5557 16.2245L41.1666 17.9139C41.3419 18.3973 42.4682 21.0111 47.3716 24.7883C52.3441 28.6186 55.3457 29.0967 55.675 29.1392L57.545 29.3783L58.0072 27.5454L63.0063 7.6767L64.2122 2.89014Z" fill="#C93737"/>
<path d="M41.3423 11.8683L42.0515 6.90381L67.2625 10.5078L66.5528 15.4723L41.3423 11.8683Z" fill="#FFFF00"/>
<path d="M42.9519 8.0965L66.0612 11.4009L65.6522 14.2643L42.5428 10.9599L42.9519 8.0965ZM41.1509 5.68994L40.8481 7.79369L40.439 10.6571L40.1362 12.7609L42.24 13.0637L65.3494 16.3681L67.4531 16.6709L67.7559 14.5671L68.165 11.7037L68.4678 9.59994L66.364 9.29713L43.2547 5.99275L41.1509 5.68994Z" fill="#C93737"/>
<path d="M41.0083 17.3073L41.7196 12.3428L66.9306 15.9542L66.2188 20.9187L41.0083 17.3073Z" fill="#FFFF00"/>
<path d="M42.6227 13.5472L65.7321 16.8516L65.323 19.715L42.2136 16.4106L42.6227 13.5472ZM40.8164 11.1406L40.5136 13.2444L40.1046 16.1078L39.8018 18.2116L41.9055 18.5144L65.0149 21.8188L67.1186 22.1216L67.4215 20.0178L67.8305 17.1544L68.1333 15.0506L66.0296 14.7478L42.9202 11.4434L40.8164 11.1406Z" fill="#C93737"/>
<path d="M39.7046 23.3171L40.4143 18.3525L65.6248 21.9565L64.9156 26.9205L39.7046 23.3171Z" fill="#FFFF00"/>
<path d="M41.3156 19.5501L64.4249 22.8545L64.0159 25.7179L40.9065 22.4136L41.3156 19.5501ZM39.5093 17.1436L39.2065 19.2473L38.7974 22.1107L38.4946 24.2145L40.5984 24.5173L63.7078 27.8217L65.8115 28.1245L66.1143 26.0207L66.5234 23.1573L66.8262 21.0536L64.7224 20.7507L41.6131 17.4464L39.5093 17.1436Z" fill="#C93737"/>
<path d="M60.945 7.17188L43.1641 17.1966C43.1641 17.1966 44.0088 19.5234 48.6678 23.1147C53.3269 26.7059 55.9459 27.0406 55.9459 27.0406L60.945 7.17188Z" fill="#FF4545"/>
<path d="M42.9496 8.09326L66.0568 11.3987L65.6478 14.2595L42.5405 10.954L42.9496 8.09326Z" fill="#FF9C9C"/>
<path d="M42.6205 13.5444L65.7277 16.8493L65.3187 19.7101L42.2114 16.4052L42.6205 13.5444Z" fill="#FF9C9C"/>
<path d="M41.3134 19.5469L64.4206 22.8523L64.0115 25.7131L40.9043 22.4077L41.3134 19.5469Z" fill="#FF9C9C"/>
<path d="M12.75 10.625C14.8038 10.625 16.4688 9.43576 16.4688 7.96875C16.4688 6.50174 14.8038 5.3125 12.75 5.3125C10.6962 5.3125 9.03125 6.50174 9.03125 7.96875C9.03125 9.43576 10.6962 10.625 12.75 10.625Z" fill="#FF00A2"/>
<path d="M28.3917 15.5806C29.2547 14.7175 29.0293 13.0928 27.8882 11.9518C26.7472 10.8108 25.1225 10.5854 24.2595 11.4485C23.3964 12.3116 23.6218 13.9362 24.7629 15.0773C25.904 16.2183 27.5286 16.4437 28.3917 15.5806Z" fill="#FD3B3B"/>
<path d="M39.79 11.2762C41.7484 9.76066 42.7726 7.80411 42.0777 6.90614C41.3827 6.00817 39.2318 6.50883 37.2735 8.02439C35.3151 9.53995 34.2909 11.4965 34.9858 12.3945C35.6808 13.2924 37.8317 12.7918 39.79 11.2762Z" fill="#00EEFF"/>
<path d="M13.7698 46.3757C14.5066 45.9503 14.331 44.2665 13.3774 42.6149C12.4239 40.9633 11.0535 39.9693 10.3166 40.3947C9.57977 40.8202 9.75543 42.5039 10.709 44.1555C11.6625 45.8071 13.0329 46.8011 13.7698 46.3757Z" fill="#0048FF"/>
<path d="M51.2656 61.625C52.2925 61.625 53.125 60.3168 53.125 58.7031C53.125 57.0894 52.2925 55.7812 51.2656 55.7812C50.2387 55.7812 49.4062 57.0894 49.4062 58.7031C49.4062 60.3168 50.2387 61.625 51.2656 61.625Z" fill="#F63BBE"/>
<path d="M61.9048 31.2129C63.4643 30.1151 64.4546 28.8362 64.1169 28.3563C63.7791 27.8765 62.2411 28.3774 60.6816 29.4752C59.1221 30.573 58.1317 31.8519 58.4695 32.3317C58.8073 32.8116 60.3453 32.3106 61.9048 31.2129Z" fill="#00CC00"/>
<path d="M11.9718 64.312C12.5851 63.9097 12.2994 62.3903 11.3337 60.9184C10.368 59.4465 9.08799 58.5795 8.47471 58.9819C7.86142 59.3843 8.14712 60.9036 9.11283 62.3755C10.0785 63.8474 11.3586 64.7144 11.9718 64.312Z" fill="#0048FF"/>
<path d="M8.06205 53.919C9.81806 53.7946 11.1996 53.1006 11.1477 52.369C11.0959 51.6373 9.63036 51.145 7.87436 51.2694C6.11835 51.3938 4.73684 52.0878 4.78867 52.8194C4.8405 53.5511 6.30604 54.0434 8.06205 53.919Z" fill="#7ACDED"/>
<path d="M12.8089 46.956C14.9138 46.8162 16.5931 46.2946 16.5596 45.7911C16.5262 45.2875 14.7927 44.9927 12.6878 45.1325C10.5828 45.2724 8.90358 45.7939 8.93704 46.2975C8.97049 46.801 10.704 47.0959 12.8089 46.956Z" fill="#FF82B2"/>
<path d="M37.9209 47.9453L38.1228 50.6653L43.6956 50.6069C43.6796 49.81 43.6159 49.0025 43.584 48.1525C40.4443 48.0462 37.9209 47.9453 37.9209 47.9453Z" fill="#7F0099"/>
<path d="M63.1601 41.5543C62.6926 39.9871 61.646 38.7015 60.2116 37.9259C57.7466 36.5925 54.6654 37.5221 53.3372 39.9978C52.2216 42.0696 53.0026 44.6675 55.0691 45.7884C55.9138 46.2453 56.8754 46.3675 57.7838 46.1443C58.7401 45.9053 59.521 45.2996 59.9779 44.4443C60.4613 43.5465 60.4241 42.2821 59.8822 41.2887C59.4094 40.4228 58.6019 39.8809 57.6616 39.8065C57.1144 39.764 56.631 40.1731 56.5885 40.7256C56.546 41.2781 56.9551 41.7562 57.5022 41.7987C57.6032 41.804 57.906 41.8306 58.1291 42.245C58.3576 42.6646 58.3576 43.2278 58.2194 43.4934C57.9751 43.9503 57.5819 44.1309 57.2951 44.2C56.8807 44.3009 56.4079 44.2425 56.0094 44.0246C55.4782 43.7378 55.0851 43.2596 54.9151 42.6753C54.8285 42.3893 54.7995 42.0891 54.8295 41.7918C54.8596 41.4946 54.9483 41.2062 55.0904 40.9434C55.4835 40.2156 56.1316 39.6843 56.9179 39.4453C57.7041 39.2062 58.5382 39.2912 59.266 39.6843C60.2329 40.205 60.9341 41.0709 61.2529 42.1281C61.5663 43.18 61.4547 44.2956 60.9341 45.2625C59.8982 47.1962 57.9591 48.434 55.1116 48.4712C53.4594 48.4925 47.9291 48.3118 43.5835 48.1578C43.6154 49.0078 43.6791 49.8153 43.6951 50.6121L55.0001 50.4953C58.3576 50.4953 61.1094 49.1618 62.6926 46.2081C63.4576 44.7737 63.6276 43.1215 63.1601 41.5543Z" fill="url(#paint3_linear)"/>
<path d="M33.8885 43.4722H33.8779H34.1329L34.4729 43.4775C34.696 43.4881 34.9245 43.4987 35.1529 43.5253C35.6098 43.5731 36.0667 43.6475 36.5448 43.7909C37.0229 43.929 37.517 44.115 38.011 44.4603C38.2554 44.609 38.4998 44.8428 38.7176 45.0712C38.9301 45.3315 39.1267 45.5972 39.2542 45.9159C39.5251 46.5375 39.6207 47.1431 39.5038 47.8497C39.3976 48.5562 38.9301 49.2575 38.4201 49.6294C37.9101 50.0172 37.3948 50.2031 36.9167 50.3306C36.6776 50.3944 36.4385 50.4369 36.2048 50.4687C35.9604 50.5006 35.7638 50.5165 35.461 50.5219L35.5088 48.0622C35.8542 48.0834 36.072 48.1206 36.3482 48.179C36.6085 48.2375 36.8688 48.3119 37.1345 48.4128C37.6551 48.6147 38.197 48.9228 38.6538 49.4062C39.116 49.879 39.4507 50.5484 39.5517 51.1859C39.5942 51.3506 39.5995 51.4994 39.6101 51.6587C39.6154 51.8234 39.642 51.9509 39.6154 52.1422C39.5942 52.3281 39.5729 52.5087 39.5357 52.6947C39.5038 52.8753 39.4188 53.0612 39.3445 53.2365C39.031 53.9431 38.4626 54.485 37.942 54.7825C37.416 55.1012 36.8954 55.3031 36.4013 55.4359C35.902 55.5794 35.4185 55.6644 34.9404 55.7228C34.4463 55.7812 34.016 55.8131 33.4635 55.8131C32.5817 55.8078 31.8751 55.0906 31.8804 54.2087C31.8857 53.3269 32.6029 52.6203 33.4848 52.6256C33.5167 52.6256 33.5538 52.6256 33.5857 52.6309L33.6282 52.6362C34.2604 52.684 35.0679 52.6575 35.6735 52.53C36.3217 52.4184 36.7626 52.1315 36.7838 52.0519C36.7838 52.0359 36.8157 52.0359 36.8157 52.0094C36.8157 51.9828 36.821 51.9615 36.837 51.9403C36.8476 51.8819 36.8582 51.7225 36.8476 51.6481C36.8435 51.4829 36.7877 51.3232 36.6882 51.1912C36.582 51.0531 36.396 50.9044 36.1463 50.7822C36.0242 50.7237 35.886 50.6706 35.7373 50.6281C35.6045 50.5856 35.4132 50.5484 35.3442 50.5325L35.2963 50.5219C35.0092 50.4613 34.7527 50.3011 34.5723 50.0696C34.3918 49.8381 34.2992 49.5502 34.3106 49.257C34.3221 48.9637 34.4369 48.6839 34.6348 48.4672C34.8327 48.2505 35.1009 48.1108 35.392 48.0728C35.477 48.0622 35.6576 48.0356 35.7904 48.0037C35.9338 47.9719 36.072 47.9347 36.1995 47.8922C36.4545 47.8072 36.6563 47.685 36.7413 47.5947C36.8263 47.4937 36.7892 47.499 36.7892 47.4512C36.7998 47.4406 36.7679 47.3609 36.7679 47.3078C36.7254 47.26 36.736 47.1803 36.6935 47.159C36.651 47.0794 36.5767 47.0262 36.4226 46.9412C36.2792 46.8562 36.0454 46.7819 35.7851 46.734C35.5248 46.6809 35.2273 46.6544 34.9192 46.6437C34.7651 46.6384 34.6057 46.6437 34.4517 46.649L34.2179 46.665L34.0426 46.6809L33.8885 46.6915C33.0067 46.6915 32.2948 45.9797 32.2948 45.0978C32.2948 44.184 33.0067 43.4722 33.8885 43.4722Z" fill="#242424"/>
<path d="M64.1483 5.99232C65.5507 5.99232 66.6876 4.85541 66.6876 3.45295C66.6876 2.05049 65.5507 0.913574 64.1483 0.913574C62.7458 0.913574 61.6089 2.05049 61.6089 3.45295C61.6089 4.85541 62.7458 5.99232 64.1483 5.99232Z" fill="#C93737"/>
</g>
<defs>
<linearGradient id="paint0_linear" x1="33.9999" y1="15.4017" x2="33.9999" y2="58.799" gradientUnits="userSpaceOnUse">
<stop offset="0.5" stop-color="#FEE133"/>
<stop offset="0.612" stop-color="#FEDE32"/>
<stop offset="0.708" stop-color="#FCD32F"/>
<stop offset="0.797" stop-color="#FAC12B"/>
<stop offset="0.883" stop-color="#F7A924"/>
<stop offset="0.9" stop-color="#F6A323"/>
</linearGradient>
<radialGradient id="paint1_radial" cx="0" cy="0" r="1" gradientUnits="userSpaceOnUse" gradientTransform="translate(17.9306 38.0279) scale(10.1137 9.05908)">
<stop stop-color="#ED7770"/>
<stop offset="0.9" stop-color="#ED7770" stop-opacity="0"/>
</radialGradient>
<radialGradient id="paint2_radial" cx="0" cy="0" r="1" gradientUnits="userSpaceOnUse" gradientTransform="translate(50.072 38.0279) scale(10.1137 9.05908)">
<stop stop-color="#ED7770"/>
<stop offset="0.9" stop-color="#ED7770" stop-opacity="0"/>
</radialGradient>
<linearGradient id="paint3_linear" x1="43.5798" y1="43.9657" x2="63.4204" y2="43.9657" gradientUnits="userSpaceOnUse">
<stop stop-color="#004054"/>
<stop offset="0.994" stop-color="#45A4FF"/>
</linearGradient>
<clipPath id="clip0">
<rect width="68" height="68" fill="white"/>
</clipPath>
</defs>
</svg>
