<svg width="27" height="27" viewBox="0 0 27 27" fill="none" xmlns="http://www.w3.org/2000/svg">
<g clip-path="url(#clip0)">
<path d="M18.2001 0.744141H8.63341C4.23112 0.744141 0.661133 4.31413 0.661133 8.71641V18.2831C0.661133 22.6854 4.23112 26.2554 8.63341 26.2554H18.2001C22.6024 26.2554 26.1724 22.6854 26.1724 18.2831V8.71641C26.1724 4.31413 22.6024 0.744141 18.2001 0.744141ZM23.7807 18.2831C23.7807 21.3604 21.2774 23.8637 18.2001 23.8637H8.63341C5.55611 23.8637 3.05282 21.3604 3.05282 18.2831V8.71641C3.05282 5.63912 5.55611 3.13582 8.63341 3.13582H18.2001C21.2774 3.13582 23.7807 5.63912 23.7807 8.71641V18.2831Z" fill="white"/>
<path d="M13.4169 7.12207C9.89473 7.12207 7.03906 9.97774 7.03906 13.4999C7.03906 17.022 9.89473 19.8777 13.4169 19.8777C16.939 19.8777 19.7947 17.022 19.7947 13.4999C19.7947 9.97774 16.939 7.12207 13.4169 7.12207ZM13.4169 17.486C11.2197 17.486 9.43075 15.697 9.43075 13.4999C9.43075 11.3011 11.2197 9.51375 13.4169 9.51375C15.614 9.51375 17.403 11.3011 17.403 13.4999C17.403 15.697 15.614 17.486 13.4169 17.486Z" fill="white"/>
<path d="M20.2727 7.49363C20.7421 7.49363 21.1225 7.11314 21.1225 6.64379C21.1225 6.17443 20.7421 5.79395 20.2727 5.79395C19.8033 5.79395 19.4229 6.17443 19.4229 6.64379C19.4229 7.11314 19.8033 7.49363 20.2727 7.49363Z" fill="white"/>
</g>
<defs>
<clipPath id="clip0">
<rect x="0.661133" y="0.744141" width="25.5113" height="25.5113" fill="white"/>
</clipPath>
</defs>
</svg>
