<svg width="30" height="30" viewBox="0 0 30 30" fill="none" xmlns="http://www.w3.org/2000/svg">
<path d="M23.9339 24.4187L16.7922 17.2769C17.9004 15.8442 18.4999 14.0925 18.4999 12.25C18.4999 10.0445 17.6392 7.97648 16.0827 6.41724C14.5262 4.858 12.4527 4 10.25 4C8.04722 4 5.97373 4.86075 4.41724 6.41724C2.858 7.97373 2 10.0445 2 12.25C2 14.4527 2.86075 16.5262 4.41724 18.0827C5.97373 19.6419 8.04447 20.4999 10.25 20.4999C12.0925 20.4999 13.8414 19.9004 15.2742 18.7949L22.4159 25.9339C22.4369 25.9549 22.4617 25.9715 22.4891 25.9828C22.5165 25.9942 22.5458 26 22.5754 26C22.605 26 22.6344 25.9942 22.6617 25.9828C22.6891 25.9715 22.714 25.9549 22.7349 25.9339L23.9339 24.7377C23.9549 24.7167 23.9715 24.6919 23.9828 24.6645C23.9942 24.6371 24 24.6078 24 24.5782C24 24.5485 23.9942 24.5192 23.9828 24.4918C23.9715 24.4645 23.9549 24.4396 23.9339 24.4187ZM14.6059 16.6059C13.44 17.7692 11.8945 18.4099 10.25 18.4099C8.60547 18.4099 7.05998 17.7692 5.89398 16.6059C4.73074 15.44 4.08999 13.8945 4.08999 12.25C4.08999 10.6055 4.73074 9.05723 5.89398 7.89398C7.05998 6.73074 8.60547 6.08999 10.25 6.08999C11.8945 6.08999 13.4427 6.72799 14.6059 7.89398C15.7692 9.05998 16.4099 10.6055 16.4099 12.25C16.4099 13.8945 15.7692 15.4427 14.6059 16.6059Z" fill="white"/>
</svg>
