<svg width="373" height="531" viewBox="0 0 373 531" fill="none" xmlns="http://www.w3.org/2000/svg">
<path d="M-41 207.361C-41 182.181 -41 157.002 -41 131.822C-32.5228 136.049 -24.2121 140.569 -15.5254 144.435C-1.43168 150.71 12.3352 157.398 24.7766 166.053C38.7532 175.78 50.9294 186.925 57.853 201.665C63.266 213.194 70.7198 223.541 79.4559 233.182C115.189 272.615 157.027 306.627 200.306 339.338C201.922 340.56 203.931 341.374 205.756 342.372C206.243 342.079 206.73 341.787 207.224 341.494C205.806 338.42 204.714 335.191 202.92 332.3C184.751 303.083 163.932 275.322 141.367 248.703C124.998 229.397 107.723 210.865 93.2598 190.194C73.5927 162.089 49.8875 136.273 24.7335 111.902C4.33278 92.1431 -18.9779 74.7354 -40.9938 56.2839C-40.9938 37.5226 -40.9938 18.7613 -40.9938 0C-36.8446 4.14687 -32.3995 8.08725 -28.6018 12.4693C-17.4181 25.3917 -3.68198 35.6355 12.101 43.8604C20.2637 48.1163 28.2785 52.5786 36.3857 56.9205C58.1797 68.5925 77.3658 82.771 92.5261 101.125C103.217 114.065 114.783 126.425 125.602 139.284C163.549 184.389 201.496 229.495 239.098 274.823C250.374 288.417 261.36 302.32 266.243 319.114C268.604 327.23 271.508 335.22 274.03 343.301C285.029 378.472 296.249 413.586 306.847 448.848C314.535 474.418 329.233 495.932 351.453 513.529C358.709 519.276 365.818 525.173 373 531C342.889 531 312.784 531 282.673 531C261.761 507.908 241.219 484.576 224.338 458.926C216.564 447.116 209.819 434.733 201.385 423.313C181.49 396.379 158.599 371.612 130.411 351.004C111.083 336.877 91.5643 322.957 72.3166 308.75C37.218 282.83 2.39692 256.664 -25.1369 223.902C-30.0136 218.109 -35.6979 212.861 -41 207.361Z" fill="#F1CD00"/>
<path d="M255 531C224.063 531 193.126 531 162.183 531C161.721 530.579 161.338 530.015 160.778 529.756C150.317 524.865 139.943 519.83 129.341 515.204C117.735 510.134 105.678 505.859 94.2375 500.525C63.1526 486.03 38.9344 465.677 24.5353 436.492C7.3132 401.598 -10.7102 367.015 -28.5919 332.38C-32.2718 325.254 -36.8393 318.496 -41 311.566C-41 284.046 -41 256.52 -41 229C-35.4216 233.77 -29.535 238.287 -24.3203 243.356C0.686928 267.673 25.2812 292.324 50.4671 316.491C72.5218 337.657 94.4532 358.99 117.741 379.055C145.694 403.136 172.914 427.729 197.539 454.541C217.252 476 233.099 499.805 249.915 523.021C251.764 525.585 253.305 528.333 255 531Z" fill="#F1CD00"/>
</svg>
