<svg width="649" height="180" viewBox="0 0 649 180" fill="none" xmlns="http://www.w3.org/2000/svg">
<path d="M90.2442 -22.7878C89.4461 -21.8234 88.4956 -20.6744 87.5121 -19.4869C88.822 -19.3872 90.056 -19.6331 90.8057 -19.1405C91.5619 -18.643 91.7501 -17.353 92.3484 -16.5264C92.7574 -15.961 93.4755 -15.6298 93.9944 -15.1311C94.5229 -14.6224 94.9786 -14.0369 95.346 -13.6201C93.0688 -13.1708 91.2204 -12.8075 89.424 -12.4532C88.8819 -13.7681 88.205 -15.4053 87.4185 -17.3139C86.0517 -15.5131 84.838 -14.365 84.2541 -12.9568C83.9587 -12.2463 84.7495 -11.0396 85.1544 -10.1038C85.3553 -9.6376 85.795 -9.27498 86.1251 -8.86525C85.7092 -8.66362 85.2839 -8.47999 84.8823 -8.25539C84.3889 -7.9802 83.9161 -7.67056 83.4912 -7.41219C83.2442 -7.73126 82.802 -8.46288 82.6941 -8.41741C82.1182 -8.16948 81.3916 -7.84099 81.1465 -7.33283C79.7886 -4.52272 78.5566 -1.65379 77.5957 1.4387C79.1412 -0.672971 80.6867 -2.78627 82.4164 -5.15026C83.4615 -3.8926 84.3965 -2.76668 85.5374 -1.39379C83.5974 -0.784917 80.9261 -0.707312 80.4268 0.372227C79.4115 2.56843 77.4961 2.8429 75.9897 4.00122C74.7316 4.96998 74.8527 7.98157 75.4797 9.06054C75.0046 11.8485 74.5901 14.2846 74.1273 17.0143C76.1534 18.729 76.0293 18.6671 74.4552 21.7972C71.5819 27.5109 68.8635 33.3017 66.095 39.069C64.2533 42.9069 64.7168 46.9038 64.9937 50.9822C65.1673 53.5412 64.3614 56.1745 63.9397 58.765C63.0191 64.4242 60.9436 69.8251 60.863 75.7101C60.8141 79.205 59.4346 82.6828 58.6271 86.1628C58.3521 87.3465 57.8941 88.4949 57.6921 89.6879C56.4122 97.2593 54.9667 104.812 53.9998 112.424C53.2527 118.316 53.1301 124.288 52.7187 130.225C52.2342 137.22 51.6685 144.211 51.2944 151.211C51.1851 153.248 51.8731 155.33 51.7346 157.36C51.5608 159.892 50.8514 162.382 50.4746 164.907C49.757 169.722 48.968 174.535 48.4744 179.375C47.8659 185.342 47.5284 191.337 47.0663 197.403C44.9155 197.664 44.638 196.26 44.8785 194.462C45.0292 193.33 45.3845 192.202 45.3693 191.077C45.3576 190.255 44.8923 189.439 44.8365 189.265C42.4982 189.462 40.648 189.721 38.795 189.743C37.02 189.764 37.0281 188.289 37.1694 187.128C37.48 184.576 37.906 182.029 38.4419 179.515C38.8411 177.649 39.7933 175.86 39.9439 173.992C40.1166 171.845 39.8176 169.625 39.4638 167.479C39.1515 165.592 39.2977 165.067 41.0925 164.602C40.82 165.626 42.3395 168.377 43.3039 168.33C45.3629 168.23 45.5048 166.287 45.759 164.972C46.3518 161.931 47.7176 158.928 46.6997 155.686C46.5866 155.329 47.0706 154.389 47.3179 154.373C51.1178 154.142 48.8249 151.377 48.7478 150.153C48.5593 147.191 47.51 144.303 48.3516 141.25C48.5495 140.533 48.0382 139.649 48.0554 138.846C48.1226 135.847 48.2694 132.851 48.3967 129.853C48.4168 129.395 48.5229 128.942 48.5299 128.484C48.5963 124.16 48.6286 119.836 48.7211 115.513C48.7496 114.188 48.3634 112.457 51.2573 113.123C51.0869 112.787 50.9149 112.451 50.7446 112.114C50.0963 112.104 49.2149 111.824 48.8509 112.141C48.1327 112.766 47.6118 113.674 47.1709 114.548C45.6574 117.545 44.2132 120.576 42.2421 123.416C43.2626 109.995 47.9877 97.3476 49.4235 83.6568C47.6999 86.5702 46.1633 89.1679 44.2779 92.3567C44.1217 91.3061 43.8637 90.756 44.0066 90.3422C45.4099 86.2652 47.009 82.2513 48.2748 78.1332C48.9129 76.0563 48.7422 73.7362 49.348 71.6442C51.5295 64.1014 53.9649 56.6323 56.1383 49.0877C57.1065 45.7288 57.4179 42.1713 58.4943 38.8547C60.1115 33.8709 61.878 28.9008 64.0428 24.1367C69.4083 12.3329 74.9143 0.588158 80.6058 -11.0611C83.6864 -17.3664 87.2687 -23.4283 90.6203 -29.6027C95.3919 -38.3929 99.8205 -47.3914 105.038 -55.9082C109.112 -62.5606 113.144 -69.3048 118.66 -75.038C123.646 -80.2203 129.658 -82.85 136.529 -83.9812C138.847 -84.3632 141.194 -84.5758 143.529 -84.8666C143.576 -84.6529 143.623 -84.4377 143.669 -84.2241C141.108 -83.5338 138.586 -82.5893 135.982 -82.2036C129.331 -81.2169 123.729 -78.2461 119.05 -73.5661C117.525 -72.0408 116.823 -69.6366 115.208 -68.272C111.852 -65.4389 110.51 -61.5202 109.765 -57.685C109.305 -55.3194 107.6 -55.0156 106.622 -53.6656C103.899 -49.8997 100.966 -46.233 98.7216 -42.19C95.7632 -36.8596 93.351 -31.2216 90.781 -25.6788C90.391 -24.8332 90.4208 -23.8041 90.2442 -22.7878ZM42.5391 180.242C41.5736 182.369 40.6482 183.892 40.2279 185.545C40.0152 186.378 40.7155 187.445 41.003 188.407C41.4734 187.829 42.1346 187.318 42.369 186.655C42.7359 185.622 42.8135 184.486 42.991 183.515C43.5576 183.02 44.1028 182.544 44.648 182.07C43.9247 181.443 43.2015 180.814 42.5391 180.242Z" fill="white"/>
<path d="M179.275 88.5045C179.866 87.0769 180.619 85.8468 180.838 84.529C181.001 83.5466 180.791 82.1621 180.175 81.4668C179.143 80.3052 178.402 79.4 179.516 78.3234C176.945 77.1284 174.481 75.9823 171.687 74.6831C171.069 75.9753 170.307 77.5676 169.543 79.1615C169.326 79.1598 169.112 79.1598 168.896 79.1581C168.91 78.206 168.699 77.1805 168.98 76.3154C170.106 72.8484 171.272 69.3853 172.641 66.0081C173.867 62.9766 175.376 60.0599 176.858 56.8844C178.893 60.8778 183.117 60.7022 186.69 61.7679C190.927 63.0307 195.458 63.5148 199.475 65.2407C203.168 66.8267 206.859 67.9478 210.764 68.6091C211.255 68.6914 211.703 69.0266 212.544 69.4165C211.723 69.5339 211.309 69.5926 210.684 69.6805C210.87 70.1449 211.038 70.5651 211.241 71.0753C210.706 71.4441 210.152 71.8256 209.571 72.2246C210.195 72.9541 210.797 73.6556 211.648 74.6487C212.361 74.4727 213.421 74.2128 214.824 73.867C214.066 76.012 213.441 77.7754 212.817 79.5404C212.573 79.4749 212.329 79.411 212.084 79.3455C211.935 78.4916 211.785 77.6378 211.638 76.7855C211.489 76.7475 211.341 76.7095 211.192 76.6731C210.661 78.3616 210.128 80.0501 209.597 81.7385C209.42 81.7261 209.241 81.7119 209.064 81.6994C208.848 81.202 208.633 80.7063 208.414 80.2057C206.654 80.3249 204.673 81.5978 203.532 78.9427C203.418 78.6777 201.391 79.2332 200.014 79.4444C198.079 77.7343 197.565 77.8483 196.669 80.7841C195.25 80.1497 193.883 79.5371 192.514 78.9246C192.614 78.7815 192.712 78.6367 192.812 78.4936C191.337 78.7521 189.803 78.8488 188.416 79.3491C187.839 79.558 187.553 80.6181 187.173 81.3127C186.857 81.888 186.598 82.4918 186.314 83.0839C185.651 82.4497 184.837 81.9073 184.369 81.1526C183.907 80.4093 183.797 79.4488 183.273 78.6623C181.573 80.9601 182.105 82.751 184.597 84.3868C183.543 84.4763 182.932 84.5287 182.132 84.5976C182.599 85.9569 182.995 87.112 183.392 88.267C183.629 88.2431 183.869 88.2207 184.106 88.1968C183.725 88.7207 183.343 89.243 182.992 89.7219C181.592 89.2616 180.328 88.8489 179.275 88.5045Z" fill="white"/>
<path d="M256.808 40.8184C255.91 41.0045 254.963 41.0679 254.123 41.4011C251.091 42.5994 248.08 43.8484 245.094 45.1579C243.142 46.0136 241.271 47.0509 239.327 47.9246C235.052 49.8448 230.754 51.7144 226.466 53.6019C226.179 53.7275 225.888 53.84 225.599 53.9591C225.659 54.1826 225.721 54.4046 225.78 54.6282C227.511 55.2902 229.253 55.9231 230.968 56.6207C232.648 57.303 234.299 58.0532 236.391 58.9597C233.696 60.2541 231.289 61.4099 228.991 62.5138C229.998 63.6068 230.64 64.6275 231.561 65.2072C232.419 65.7485 233.573 65.8199 234.606 66.4989C232.993 66.4741 231.379 66.4493 230.028 66.4285C229.357 65.6625 228.818 64.5345 228.059 64.3587C227.526 64.2367 226.694 65.4136 225.91 66.0841C220.776 65.6509 215.381 65.1943 209.986 64.7392C209.981 64.6416 209.975 64.544 209.97 64.4448C212.385 64.3178 214.802 64.1891 217.217 64.0621C217.175 63.9542 217.133 63.8479 217.091 63.74C219.447 63.2204 221.793 62.3383 224.16 62.2755C226.876 62.2051 228.597 60.7332 230.739 59.18C225.147 56.3817 218.46 57.3222 213.674 52.7585C222.622 53.9425 230.33 50.1363 238.019 47.3633C238.186 45.6059 238.293 44.0409 238.49 42.4871C238.801 40.059 240.994 40.1155 242.523 39.9862C246.619 39.638 250.766 39.8886 254.859 39.5176C257.694 39.2605 260.469 38.3573 263.273 37.7552C263.826 37.6369 264.391 37.5725 265.261 37.4331C264.991 38.6966 264.793 39.6247 264.555 40.7424C262.062 40.7723 259.392 39.0655 257.223 41.4683C257.086 41.25 256.948 41.0334 256.808 40.8184Z" fill="white"/>
<path d="M475.298 80.1022C474.757 79.7575 474.212 79.4225 473.679 79.0649C473.258 78.7805 472.855 78.4705 472.424 78.1567C472.841 77.2271 473.348 76.0956 473.972 74.7011C475.004 74.9006 476.199 75.1334 477.728 75.4299C477.744 74.4129 477.768 72.8385 477.792 71.2641C477.592 71.2611 477.392 71.2563 477.191 71.2532C477.181 71.869 477.172 72.4848 477.162 73.1315C476.489 73.9174 475.685 73.2274 474.759 70.6926C474.431 71.7033 474.223 72.3452 473.906 73.3285C473.073 71.4679 472.33 69.807 471.582 68.1346C470.454 69.003 469.419 69.7996 468.487 70.5182C465.66 69.9336 468.099 67.5025 466.486 65.9907C466.266 66.639 466.074 67.2097 465.88 67.7788C465.549 67.6209 465.218 67.4647 464.888 67.3069C464.957 66.6888 465.059 66.0728 465.088 65.4541C465.141 64.3725 465.148 63.2871 465.172 62.2035C464.365 62.1911 463.557 62.1787 462.761 62.1665C462.932 60.9779 466.559 59.8602 468.862 60.3799C468.517 61.3253 467.68 62.5427 469.767 62.2806C470.734 62.159 471.677 61.8582 473.361 61.4696C472.769 62.9053 472.398 63.8047 471.84 65.1548C472.968 64.5692 473.767 64.1525 474.586 63.7263C475.11 64.2365 475.622 64.7351 476.134 65.2338C476.262 65.174 476.39 65.1142 476.518 65.0544C476.244 64.2197 475.97 63.3835 475.595 62.245C476.945 62.6087 478.01 62.8948 478.725 63.0878C478.947 64.8788 479.127 66.341 479.361 68.2379C478.283 67.9012 477.484 67.6532 476.321 67.2908C476.387 68.1629 476.448 68.9504 476.532 70.0649C478.473 69.3927 480.077 68.8372 481.806 68.2381C483.773 70.9465 483.835 71.6755 481.915 73.5734C481.609 72.8796 481.328 72.2432 481.041 71.5887C479.358 72.9848 478.521 75.842 479.462 78.1934C479.981 76.6526 480.337 75.5985 480.753 74.3665C482.198 75.7262 482.843 77.0833 481.486 78.8631C481.169 79.2775 480.991 79.7965 480.75 80.2689L480.818 80.2294C479.55 79.9466 478.038 79.9933 477.082 79.2879C476.105 78.5659 475.674 77.1065 475.006 75.9683C474.815 76.0255 474.622 76.0811 474.431 76.1383C474.7 77.4832 474.968 78.828 475.237 80.1729L475.298 80.1022Z" fill="white"/>
<path d="M248.154 52.57C247.388 55.2381 249.318 56.329 250.967 57.1458C251.554 57.4359 252.956 56.0843 254.489 55.188C252.386 54.1692 250.916 53.4576 249.072 52.5647C249.27 51.8316 249.548 50.8071 249.87 49.6143C248.421 48.7421 248.952 47.3819 249.927 46.4007C251.34 44.9776 252.778 43.4104 255.277 44.1053C256.122 44.3409 257.191 43.8324 258.143 43.6049C260.272 43.0948 261.411 43.8387 262.042 46.3544C259.976 46.1975 257.61 45.2999 256.636 48.2134C255.545 47.3581 254.462 46.5077 253.326 45.616C252.26 46.3471 251.273 47.0243 250.109 47.8239C251.238 49.3396 251.759 51.3968 254.27 49.6835C254.826 49.3037 255.877 49.6513 256.717 49.6642C255.726 54.6707 255.24 55.3799 250.662 58.6817C249.962 58.3183 249.317 57.9817 248.671 57.6452C248.713 58.4698 248.756 59.296 248.834 60.7858C247.651 59.7015 246.758 58.885 245.694 57.9098C245.048 59.7688 243.844 59.9941 242.26 59.3295C241.812 59.1422 241.212 59.2028 240.708 59.2942C240.047 59.4157 239.412 59.679 238.765 59.8819C238.734 59.0478 238.703 58.2136 238.664 57.1518C241.29 58.8871 242.287 58.5969 244.027 56.3143C245.065 54.9505 246.383 53.8007 247.574 52.553C247.767 52.5592 247.961 52.5638 248.154 52.57Z" fill="white"/>
<path d="M487.488 84.5413C487.74 85.0814 487.992 85.6232 488.291 86.2632C489.005 86.0938 489.698 85.929 491.041 85.61C489.894 87.2841 489.049 88.516 488.205 89.7479L488.248 89.7111C487.912 89.5418 487.577 89.3725 487.533 89.3507C488.168 91.6405 488.817 93.9858 489.469 96.3328C489.2 96.4603 488.932 96.5878 488.663 96.7154C487.671 94.8897 486.678 93.0656 485.703 91.2727C482.795 93.0157 484.606 95.3838 485.435 96.7373C486.701 98.8044 485.793 99.9296 484.827 101.36C484.507 101.832 484.21 102.322 483.684 103.146C483.885 100.646 484.05 98.5897 484.195 96.7799C483.039 96.364 482.23 96.0737 481.197 95.7019C480.965 96.7953 480.71 98.0054 480.454 99.217C480.238 99.178 480.024 99.1389 479.809 99.0983C479.773 98.4899 479.736 97.8815 479.676 96.8454C478.826 97.4954 478.265 97.9239 478.145 98.0164C478.267 100.425 478.367 102.383 478.467 104.341C478.229 104.422 477.99 104.501 477.752 104.582C477.287 103.607 476.821 102.632 476.136 101.198C476.991 101.525 477.391 101.679 478.11 101.955C477.818 99.8022 473.306 98.683 476.76 95.8482C476.161 95.7626 475.564 95.6771 474.502 95.5259C475.643 93.1837 476.712 90.9932 477.996 88.3607C478.694 89.9202 479.251 91.1688 479.698 92.1637C478.972 92.7262 478.303 93.2457 477.196 94.1046C481.47 94.4076 483.835 91.8519 483.399 88.3772C483.327 87.7959 483.658 87.0956 483.989 86.566C484.114 86.3665 485.054 86.3549 485.131 86.5056C485.456 87.1476 485.596 87.8827 486.002 89.2524C486.497 88.0444 486.882 87.228 487.163 86.3759C487.364 85.7663 487.429 85.1092 487.556 84.4741C487.555 84.4724 487.488 84.5413 487.488 84.5413Z" fill="white"/>
<path d="M550.511 170.656C552.353 170.252 553.591 169.641 553.882 167.685C554.092 166.263 554.989 165.315 556.721 165.252C557.397 165.227 558.101 164.367 558.687 163.779C559.451 163.014 560.11 162.143 560.937 161.171C561.553 162.664 562.004 163.755 562.454 164.845C562.655 164.773 562.856 164.701 563.057 164.63C562.988 167.438 562.478 167.959 559.826 168.037C559.496 168.046 559.175 168.313 558.849 168.46C559.148 169.104 559.31 169.876 559.772 170.365C561.315 171.999 561.505 172.775 560.583 174.937C557.624 173.388 557.624 173.388 557.382 177.332C557.025 176.324 556.826 175.76 556.528 174.922C556.157 175.612 555.876 176.134 555.438 176.946C554.832 174.808 553.451 174.896 551.736 175.666C551.533 174.996 551.443 174.412 551.182 173.915C550.854 173.286 550.426 172.698 549.971 172.151C549.662 171.779 548.931 171.522 548.915 171.187C548.877 170.404 549.152 169.605 549.303 168.811C549.75 169.006 550.297 169.106 550.604 169.434C550.779 169.625 550.562 170.181 550.511 170.656Z" fill="white"/>
<path d="M560.625 152.191C560.52 151.484 560.416 150.779 560.313 150.072C560.522 150.018 560.732 149.966 560.941 149.913C561.66 152.415 562.38 154.916 563.136 157.544C562.172 158.013 561.371 158.404 560.441 158.856C559.53 157.24 558.657 155.687 557.673 153.942C557.099 154.251 556.495 154.432 557.003 156.002C557.403 157.24 556.48 158.904 556.152 160.381C555.872 161.643 555.603 162.906 555.349 164.079C554.761 163.651 554.084 163.156 553.408 162.661C553.048 163.423 552.7 164.188 552.328 164.943C552.049 165.509 551.74 166.058 551.159 167.153C551.239 160.161 550.35 153.601 554.814 147.829C555.182 149.252 555.184 150.614 555.859 151.383C556.294 151.878 557.718 151.503 558.7 151.518C558.865 151.238 559.029 150.958 559.194 150.677C559.441 151.391 559.689 152.105 559.938 152.819C560.165 152.611 560.394 152.4 560.625 152.191Z" fill="white"/>
<path d="M185.026 113.82C184.525 114.028 183.918 114.54 183.438 114.44C181.316 113.995 179.238 113.354 177.131 112.827C176.283 112.614 175.389 112.321 174.546 112.399C172.691 112.57 172.281 111.737 172.534 110.062C175.14 111.833 177.548 110.991 179.767 109.674C180.705 109.118 182.064 107.438 181.865 107.121C181.036 105.795 182.716 103.076 179.427 103.165C179.547 102.92 179.668 102.675 179.789 102.428C181.265 102.709 182.741 102.989 184.328 103.289C183.459 102.431 182.646 101.708 181.981 100.868C181.898 100.764 182.597 100.04 183.225 99.2242C183.55 100.308 183.727 100.901 183.905 101.494C185.926 101.742 187.116 103.524 186.326 105.681C185.735 107.294 186.437 109.219 184.855 110.648C184.415 111.046 184.924 112.495 185.026 113.82Z" fill="white"/>
<path d="M590.58 153.825C590.832 154.656 591.061 155.407 591.335 156.31C590.555 155.771 589.728 154.94 589.488 155.084C588.752 155.528 588.239 156.345 587.498 157.176C586.8 156.554 585.882 155.735 584.604 154.596C584.591 154.703 584.649 154.213 584.705 153.723C584.575 153.648 584.444 153.575 584.314 153.499C583.914 154.056 583.203 154.594 583.172 155.17C583.088 156.706 583.285 158.26 583.401 159.804C583.415 159.978 583.612 160.139 583.838 160.474C581.986 160.434 581.441 159.524 581.33 157.97C581.252 156.898 580.818 155.853 580.402 154.249C582.075 153.059 583.447 150.865 583.71 147.981C583.753 147.501 584.734 146.753 585.292 146.743C586.436 146.723 587.691 146.906 588.706 147.404C589.677 147.881 590.4 148.861 591.231 149.621C590.318 150.268 589.406 150.916 588.248 151.738C588.266 152.12 588.316 153.122 588.373 154.292C588.999 154.158 589.687 154.013 590.58 153.825Z" fill="white"/>
<path d="M94.2783 91.9633C92.7354 91.3692 91.1622 90.8412 89.6564 90.1632C88.2716 89.539 86.9608 88.7534 85.6181 88.0388C85.4541 88.2427 85.2917 88.4449 85.1277 88.6488C85.4977 89.2135 85.8677 89.7767 86.3297 90.4826C85.8836 90.8528 85.4128 91.2437 84.6326 91.8899C85.6358 92.1767 86.3267 92.3758 87.3638 92.6729C86.9491 93.8578 85.9514 95.2238 86.1913 96.3212C86.759 98.9301 84.4673 100.533 84.4272 102.822C80.7342 100.225 82.4711 84.8101 88.3177 83.6844C87.6752 84.3587 87.1632 84.8951 87.0426 85.0217C89.6466 87.3109 92.1224 89.4844 94.5982 91.6595C94.4927 91.7603 94.3855 91.861 94.2783 91.9633Z" fill="white"/>
<path d="M102.821 69.4725C101.427 68.463 100.015 67.4386 98.4862 66.3312C98.169 66.7716 97.8933 67.1542 97.5828 67.5849C96.338 64.517 94.3849 63.8613 91.5897 65.554C91.4742 65.0306 91.3663 64.5414 91.2325 63.9397C89.9458 64.0239 88.6981 64.1054 87.395 64.1911C88.0403 60.4843 88.6903 59.958 91.8548 60.4585C93.7386 60.7572 95.6699 60.933 97.4732 61.5019C99.202 62.0469 100.909 62.8549 102.413 63.8644C103.968 64.9089 103.961 67.3172 102.821 69.4725Z" fill="white"/>
<path d="M569.625 168.909C566.007 170.074 568.123 172.493 567.315 174.135C571.373 174.996 572.088 174.327 571.797 170.427C571.748 169.78 572.586 169.083 572.585 168.41C572.579 166.568 572.346 164.728 572.178 162.576C572.519 162.997 573.053 163.351 573.113 163.775C574.192 171.298 570.781 180.928 566.478 182.663C566.29 182.473 566.102 182.281 565.914 182.092C566.492 181.792 567.239 181.62 567.594 181.15C567.892 180.755 567.957 179.906 567.734 179.448C567.113 178.174 566.201 177.043 565.572 175.773C564.96 174.536 564.496 173.367 562.851 175.342C562.756 175.135 562.66 174.928 562.564 174.721C562.892 173.999 563.074 173.12 563.61 172.622C563.887 172.365 564.794 172.785 565.862 172.98C565.689 171.32 565.514 169.619 565.308 167.646C564.679 168.3 564.187 168.811 563.696 169.321C563.495 169.227 563.293 169.133 563.09 169.039C563.551 167.977 564.013 166.916 564.475 165.854C565.248 166.313 566.019 166.771 566.792 167.23C567.542 167.674 568.296 168.12 569.625 168.909Z" fill="white"/>
<path d="M431.041 25.6386C432.053 25.9711 433.065 26.3035 434.48 26.7689C434.152 27.8251 433.714 29.2598 433.251 30.6877C433.212 30.8058 433.025 30.9459 432.896 30.9553C430.558 31.1355 429.7 32.9489 428.723 35.5081C428.099 34.5332 427.873 33.7221 427.465 33.6167C425.136 33.0137 425.662 32.2027 426.586 30.4472C427.339 29.0156 426.839 26.9376 426.94 25.1482C426.983 24.3786 427.141 23.6155 427.227 22.9863C428.72 23.5602 429.742 23.8521 430.644 24.3568C430.949 24.5272 430.951 25.2375 431.093 25.7028C430.809 25.7879 430.519 25.8581 430.238 25.9546C429.604 26.1691 428.973 26.3966 428.341 26.6177C428.666 27.2565 428.991 27.8953 429.633 29.1532C430.287 27.5187 430.664 26.5787 431.041 25.6386Z" fill="white"/>
<path d="M231.972 75.4293C231.273 76.1206 230.653 76.9317 229.851 77.472C228.984 78.0567 227.947 78.3869 226.985 78.8288C226.685 78.1351 226.41 77.4305 226.071 76.7557C225.951 76.5182 225.675 76.3596 225.272 75.9764C224.905 77.0823 224.609 77.9781 224.307 78.8949C222.456 77.711 220.812 78.0888 218.572 80.1589C218.513 78.8221 218.455 77.5017 218.391 76.0511C217.373 76.7391 216.559 77.2889 215.744 77.8387C216.524 75.1351 217.292 74.7536 219.759 75.2871C220.351 75.4149 220.974 75.4082 221.568 75.5327C223.493 75.936 223.872 74.9684 223.555 73.3498L223.508 73.3864C225.58 73.779 227.661 74.1279 229.718 74.5853C230.517 74.7634 231.261 75.186 232.03 75.4985L231.972 75.4293Z" fill="white"/>
<path d="M90.6338 69.3684C90.0931 71.9815 89.6829 74.4567 88.9896 76.848C88.8661 77.2719 87.5399 77.5928 86.803 77.5343C85.6295 77.4416 84.1971 77.2733 84.3608 75.4995C84.4719 74.3003 84.5609 73.0535 84.9713 71.9434C85.2171 71.2792 86.0609 70.8339 86.6364 70.2918C86.8526 70.3927 87.0705 70.4935 87.2867 70.5943C86.968 68.9155 86.6509 67.2368 86.2826 65.2891C89.5375 66.0477 89.6116 66.1951 88.5903 69.0965C89.2406 69.1829 89.8521 69.2654 90.6338 69.3684Z" fill="white"/>
<path d="M480.929 55.0499C479.344 54.7964 478.616 54.6796 477.888 54.5628C478.176 54.8597 478.462 55.1567 478.75 55.452C477.674 56.0807 476.599 56.7109 474.969 57.6626C475.374 56.0014 475.636 54.9296 475.964 53.5809C474.033 55.1894 472.354 56.5872 470.677 57.9851C470.481 57.8878 470.286 57.7922 470.089 57.6949C470.105 56.6567 470.121 55.6185 470.138 54.5266C471.126 54.5418 472.122 54.5571 473.118 54.5724C473.301 54.3916 473.483 54.2091 473.666 54.0283C472.648 52.6004 471.63 51.1725 470.74 49.9254C473.219 50.9223 476.098 52.0798 478.976 53.2372C479.066 52.9981 479.154 52.7589 479.244 52.5214C477.918 51.118 476.591 49.7146 475.372 48.4251C477.078 48.0694 477.245 47.9289 479.137 50.186C480.054 51.2841 480.218 53.0157 480.929 55.0499Z" fill="white"/>
<path d="M111.496 75.6143C111.369 75.1768 111.364 74.4633 111.096 74.3438C108.991 73.4079 109.693 71.6944 109.767 70.1094C109.852 68.2776 109.836 66.4409 109.872 64.085C111.311 64.4582 113.333 64.5802 114.78 65.5564C115.35 65.9406 115.012 68.4365 114.387 69.5921C113.83 70.622 112.309 71.13 110.898 72.0786C111.722 72.0912 112.234 72.0991 113.24 72.1145C112.561 73.4156 111.997 74.4941 111.435 75.5743L111.496 75.6143Z" fill="white"/>
<path d="M111.436 75.5724C107.1 79.7052 101.873 80.3561 97.84 77.2666C95.058 75.1339 95.0707 70.9201 98.1749 69.4288C97.6357 70.5695 97.2023 71.4876 96.7706 72.404C96.8959 72.4969 97.0228 72.5899 97.1482 72.6844C97.7754 72.2634 98.4043 71.8441 99.0316 71.423C99.256 71.5191 99.4788 71.6168 99.7032 71.7128C99.3942 72.5743 99.2747 73.5833 98.7376 74.2673C97.6718 75.6226 98.1466 76.2393 99.3693 77.1568C102.11 79.2108 104.655 78.2472 107.623 76.9374C106.724 76.5628 106.086 76.2979 105.311 75.9756C106.067 74.588 106.804 73.2342 107.542 71.8804C107.766 71.9732 107.991 72.0645 108.217 72.1573C108.197 72.3927 108.174 72.6296 108.159 72.865C108.105 73.7303 107.702 74.8861 108.106 75.3799C108.485 75.844 109.717 75.6224 110.576 75.6762C110.877 75.6954 111.181 75.6352 111.489 75.6139C111.495 75.614 111.436 75.5724 111.436 75.5724Z" fill="white"/>
<path d="M98.6305 44.5635C98.9277 43.7328 99.1113 43.0985 99.3773 42.4997C100.323 40.3674 101.21 38.1985 102.335 36.1633C102.546 35.7813 103.744 35.946 105.068 35.7892C104.085 37.1506 103.179 37.9118 103.047 38.789C102.98 39.2349 104.307 39.8908 105.081 40.5137C103.228 46.3341 102.594 46.3974 98.6305 44.5635Z" fill="white"/>
<path d="M480.751 80.264C481.318 80.4417 481.885 80.6179 482.275 80.7392C482.167 81.6314 482.067 82.4587 481.966 83.2876C482.173 83.3655 482.38 83.4434 482.587 83.5213C483.964 82.0929 485.341 80.6645 486.94 79.0054C487.15 81.1034 487.32 82.8206 487.49 84.5393C487.489 84.5393 487.555 84.472 487.553 84.472C486.857 84.6888 486.165 84.9057 484.961 85.2822C485.549 84.347 485.858 83.8593 486.164 83.3716C486.014 83.1889 485.864 83.0061 485.714 82.8251C484.38 83.9064 483.043 84.9878 481.459 86.2717C481.102 85.0717 480.74 83.8554 480.303 82.3795C479.631 83.172 479.126 83.7656 478.529 84.4682C477.148 83.1241 474.665 82.8178 475.298 80.1022L475.239 80.1696C476.984 82.1612 478.304 82.1733 480.82 80.2261L480.751 80.264Z" fill="white"/>
<path d="M444.198 43.7193C443.798 44.4948 443.516 45.0398 443.237 45.5848C443.037 45.5655 442.837 45.5478 442.638 45.5285C442.467 44.0714 442.296 42.6126 442.123 41.1554C442.285 40.9743 442.446 40.7932 442.608 40.612C443.822 42.3923 444.547 43.1152 445.426 40.6699C445.988 39.1038 447.677 37.9434 448.957 36.4923C450.956 38.5772 449.128 39.6526 448.683 40.9101C448.324 41.9203 447.78 42.861 447.36 43.8508C447.087 44.4934 446.89 45.1664 446.659 45.8259C446.168 45.425 445.672 45.0306 445.187 44.6218C444.903 44.3834 444.639 44.1242 444.198 43.7193Z" fill="white"/>
<path d="M516.667 23.1547C514.8 24.3465 512.922 25.2846 514.609 28.5299C512.143 27.005 510.359 26.0382 508.608 28.5303C508.522 28.3014 508.434 28.0709 508.349 27.8421C508.663 27.0587 509.334 26.2045 509.197 25.5117C509.051 24.7765 508.137 24.1953 507.462 23.439C509.248 22.8131 511.895 23.4015 512.46 20.233C512.869 22.9192 514.615 23.1199 516.667 23.1547Z" fill="white"/>
<path d="M646.527 7.14982C643.251 6.4998 644.667 2.96902 642.764 1.80218C643.31 0.622606 643.796 -0.429507 644.477 -1.90117C643.4 -1.31479 642.831 -1.00498 642.264 -0.696792C642.013 -1.35721 641.638 -2.00005 641.533 -2.68422C641.14 -5.24659 640.837 -7.82381 640.413 -11.0465C641.306 -9.21096 641.847 -7.8083 642.626 -6.55798C644.54 -3.48632 645.092 -0.0715333 645.497 3.42547C645.636 4.62045 646.135 5.77219 646.527 7.14982Z" fill="white"/>
<path d="M275.923 29.166C276.833 29.18 277.741 29.1939 278.65 29.2079C278.669 29.3463 278.688 29.4847 278.707 29.6231C278.182 29.7873 277.66 29.9532 277.134 30.1158C275.937 30.4858 274.753 31.0786 273.536 31.1591C272.453 31.2302 271.158 30.9811 270.296 30.3845C269.809 30.0471 270.003 28.7239 269.833 27.405C274.808 30.0394 277.733 24.4484 282.038 26.1186C281.922 27.6314 280.315 27.4539 279.267 27.8148C278.187 28.1883 277.01 28.2774 275.875 28.4908C275.893 28.7153 275.909 28.9399 275.923 29.166Z" fill="white"/>
<path d="M534.231 31.3208C533.809 33.0532 533.387 34.784 532.914 36.7334C532.549 36.4807 532.088 36.3322 532.049 36.109C531.543 33.2199 531.095 30.3202 530.592 27.1662C533.702 27.097 536.464 26.717 539.116 28.3081C536.38 28.214 533.98 28.7768 531.643 30.8893C532.768 31.1033 533.525 31.2482 534.281 31.3915L534.231 31.3208Z" fill="white"/>
<path d="M534.28 31.3917C534.936 30.8932 535.604 29.9592 536.246 29.9772C538.052 30.0244 539.863 30.3935 541.635 30.7994C542.019 30.8882 542.606 31.8073 542.489 32.0964C541.547 34.4221 543.389 35.3166 544.626 36.595C541.788 36.1728 538.97 35.7541 535.666 35.263C536.307 34.7934 536.955 34.2881 536.972 34.3095C538.198 35.7764 539.081 34.0494 540.111 33.9304C540.229 33.9159 540.388 32.6329 540.285 32.5956C539.334 32.2429 538.335 32.0147 537.339 31.806C537.175 31.771 536.954 32.0048 536.667 32.1678C536.439 31.6524 536.231 31.1763 535.841 30.2911C535.505 31.2399 535.318 31.7603 535.118 32.3276C534.812 31.9833 534.525 31.6571 534.234 31.3276C534.231 31.3211 534.28 31.3917 534.28 31.3917Z" fill="white"/>
<path d="M540.976 143.26C540.537 141.064 540.228 139.514 539.875 137.745C538.826 137.778 537.367 137.879 535.911 137.826C535.57 137.814 535.249 137.281 534.918 136.988C535.326 136.769 535.764 136.32 536.138 136.368C537.945 136.599 539.739 136.945 541.53 137.29C542.558 137.487 543.572 137.76 545.126 138.123C543.817 139.743 542.616 141.231 540.976 143.26Z" fill="white"/>
<path d="M286.647 64.602C287.984 64.4568 289.326 64.3554 290.654 64.1548C292.336 63.9012 294.161 63.1995 294.638 65.9647C294.019 66.29 293.37 66.6326 292.743 66.9627C291.419 65.4082 290.393 65.5777 289.066 67.0215C288.614 67.5119 287.339 67.6142 286.619 67.3691C286.105 67.1938 285.742 66.1726 285.6 65.47C285.519 65.0657 286.011 64.545 286.246 64.0773C286.38 64.2533 286.513 64.4277 286.647 64.602Z" fill="white"/>
<path d="M458.53 58.1473C458.331 57.0148 457.999 55.8867 457.966 54.7502C457.907 52.7585 457.894 50.7464 458.123 48.7738C458.34 46.8936 459.838 47.383 461.418 47.4138C460.891 48.831 460.457 49.9993 459.938 51.397C460.233 51.6876 461.047 52.2363 461.471 53.0034C461.703 53.4214 461.278 54.2047 461.018 55.4537C460.464 54.0996 460.174 53.3914 459.886 52.6849C459.681 52.685 459.477 52.6852 459.273 52.6869C459.246 54.4871 459.218 56.2873 459.19 58.0875C458.969 58.1069 458.749 58.1263 458.53 58.1473Z" fill="white"/>
<path d="M195.198 101.63C195.429 102.142 195.905 102.684 195.844 103.159C195.694 104.356 197.24 106.34 194.638 106.521C193.49 106.601 191.741 108.071 191.216 105.882C190.863 104.41 189.892 102.387 192.572 101.416C192.863 102.844 192.483 105.072 195.231 103.829C194.989 103.154 194.779 102.568 194.568 101.981C194.78 101.864 194.988 101.747 195.198 101.63Z" fill="white"/>
<path d="M200.303 97.6629C201.494 99.4932 202.012 101.009 203.057 101.615C203.652 101.959 205.107 100.816 206.377 100.253C205.384 102.594 201.983 104.184 200.216 103.098C199.5 102.656 199.016 101.357 198.987 100.428C198.96 99.625 199.725 98.7965 200.303 97.6629Z" fill="white"/>
<path d="M503.836 145.41C504.643 142.333 508.527 141.338 506.973 137.968C508.904 138.585 508.881 138.743 508.74 142.057C508.616 145.007 506.286 144.615 503.836 145.41Z" fill="white"/>
<path d="M276.734 68.2353C281.308 64.3695 283.214 64.8848 285.986 70.8786C285.337 70.4672 284.402 70.2074 284.091 69.6176C283.108 67.7564 281.989 66.7576 279.761 67.713C278.845 68.1052 277.747 68.0738 276.734 68.2353Z" fill="white"/>
<path d="M530.383 169.834C531.201 169.44 531.999 169.056 532.942 168.602C534.489 171.042 532.855 172.974 532.445 175.03C532.245 175.02 532.045 175.011 531.846 175C531.863 173.854 531.881 172.709 531.903 171.281C530.384 170.425 528.465 169.346 526.38 168.173C528.381 167.364 529.918 168.058 530.383 169.834Z" fill="white"/>
<path d="M264.664 45.031C267.117 42.3645 269.345 44.9973 271.616 44.6194C271.818 46.1176 271.884 47.1164 269.936 46.5356C269.256 46.3334 268.38 46.788 267.555 46.9508C266.699 46.3819 265.769 45.7647 264.664 45.031Z" fill="white"/>
<path d="M530.785 74.513C532.016 75.1739 532.745 75.5653 533.504 75.9719C533.288 76.4724 533.037 77.0601 532.919 77.3313C533.92 78.221 534.749 78.9585 535.578 79.6944C535.238 80.037 534.897 80.3779 534.557 80.7205C534.29 80.1557 534.022 79.5893 533.763 79.0393C533.152 79.6734 532.58 80.2643 532.01 80.8552C531.741 80.8039 531.474 80.7544 531.205 80.7031C531.071 78.7314 530.937 76.7581 530.785 74.513Z" fill="white"/>
<path d="M103.502 91.5279C102.524 89.4424 101.598 87.4763 100.602 85.3548C101.16 85.2074 102.183 84.9355 103.205 84.6635C101.848 86.2434 102.849 88.7583 105.29 89.8147C104.972 90.6468 104.652 91.4837 104.298 92.4144C103.037 92.3332 101.838 92.2546 100.642 92.1778C100.63 92.0849 100.617 91.9905 100.606 91.8977C101.485 91.7828 102.364 91.6713 103.502 91.5279Z" fill="white"/>
<path d="M480.664 43.5653C482.525 44.8095 484.084 45.8508 485.642 46.8937C485.518 47.0803 485.391 47.2669 485.266 47.4551C484.113 47.7185 482.949 48.2011 481.811 48.1446C481.293 48.1188 480.621 47.0944 480.399 46.4003C480.196 45.7634 480.504 44.9653 480.664 43.5653Z" fill="white"/>
<path d="M304.892 62.6305C303.981 62.6165 302.881 62.5996 301.113 62.5724C302.061 61.9711 302.511 61.7115 302.933 61.4141C303.802 60.805 304.655 60.1746 305.519 59.5589C306.055 59.1771 306.559 58.6583 307.158 58.4904C307.576 58.3733 308.132 58.7443 308.625 58.8981C308.407 59.4505 308.338 60.171 307.942 60.5208C307.097 61.2717 306.081 61.8297 304.892 62.6305Z" fill="white"/>
<path d="M561.751 36.1563C562.823 33.228 561.772 31.2325 558.74 29.1853C560.405 29.4384 562.07 29.6915 564.05 29.9933C563.437 30.9265 563.076 31.4752 562.633 32.1493C563.125 32.7517 563.629 33.372 564.302 34.1982C563.529 34.7925 562.81 35.3437 561.751 36.1563Z" fill="white"/>
<path d="M490.491 66.5954C490.259 67.0078 490.027 67.4203 489.796 67.8328C489.596 67.7615 489.397 67.6918 489.196 67.6204C489.537 66.5157 489.876 65.4109 490.257 64.1719C491.434 65.3829 494.462 64.1374 493.255 66.9515C492.363 67.804 491.472 68.6549 490.293 69.7808C490.629 68.5411 490.87 67.6543 491.111 66.7674C490.905 66.7106 490.698 66.6522 490.491 66.5954Z" fill="white"/>
<path d="M570.15 145.111C568.311 143.263 566.827 141.771 565.344 140.279C565.443 140.066 565.54 139.851 565.64 139.638C566.376 139.715 567.649 139.594 567.76 139.897C568.369 141.569 571.262 142.107 570.15 145.111Z" fill="white"/>
<path d="M493.429 75.8045C492.73 77.0093 491.869 78.1516 491.376 79.4343C490.871 80.7511 490.729 82.2067 490.424 83.6159C489.226 83.3537 488.814 81.7092 489.923 79.5599C490.678 78.0959 491.695 76.7659 492.594 75.3772C492.873 75.5196 493.152 75.6621 493.429 75.8045Z" fill="white"/>
<path d="M509.431 40.0991C512.815 41.0498 512.877 41.0215 514.738 38.159C515.052 37.6763 515.491 37.2735 516.178 37.0923C515.823 38.2846 515.551 39.509 515.096 40.6624C514.453 42.2906 513.152 42.3405 511.799 41.6794C510.954 41.2666 510.218 40.6329 509.431 40.0991Z" fill="white"/>
<path d="M458.748 42.3073C459.393 43.5035 459.979 44.5933 460.717 45.9616C459.194 46.1966 458.244 46.3429 457.262 46.4936C455.918 44.7227 456.348 43.4551 458.748 42.3073Z" fill="white"/>
<path d="M533.908 43.3042C533.927 42.1068 533.949 40.6624 533.971 39.218C535.182 42.404 537.395 43.3546 540.784 41.6499C540.749 41.8931 540.713 42.1347 540.678 42.378C539.576 42.8421 538.507 43.5439 537.364 43.7002C536.237 43.8535 535.035 43.4548 533.908 43.3042Z" fill="white"/>
<path d="M514.329 157.663C516.702 155.392 515.606 153.227 514.501 151.016C516.656 151.303 517.064 151.831 517.171 154.054C517.281 156.336 516.782 157.08 514.329 157.663Z" fill="white"/>
<path d="M493.586 57.8604C493.64 59.6245 493.695 61.3871 493.752 63.2243C490.956 62.5427 490.664 61.3534 492.801 57.8695C493.063 57.8654 493.325 57.8629 493.586 57.8604Z" fill="white"/>
<path d="M530.325 103.027C531.566 103.402 532.3 103.959 532.387 105.524C532.517 107.921 530.386 107.334 529.099 108.626C529.6 106.435 529.996 104.699 530.395 102.963C530.396 102.964 530.325 103.027 530.325 103.027Z" fill="white"/>
<path d="M486.416 65.0666C486.031 66.317 485.708 67.3618 485.313 68.6396C483.562 65.6273 485.792 64.1015 487.542 62.0222C487.838 63.2586 488.09 64.3139 488.423 65.7134C487.593 65.4455 487.084 65.2817 486.416 65.0666Z" fill="white"/>
<path d="M94.0181 98.8208C93.4419 101.838 90.9214 100.457 88.9335 100.799C88.6362 100.055 88.3388 99.3105 88.1056 98.73C90.1268 98.761 92.0879 98.7911 94.0181 98.8208Z" fill="white"/>
<path d="M576.495 153.308C575.894 151.878 575.261 150.461 574.751 149.002C574.704 148.868 575.488 148.178 575.816 148.227C576.921 148.39 577.993 148.769 579.079 149.065C579.016 149.337 578.954 149.611 578.891 149.883C578.287 149.806 577.686 149.726 576.761 149.607C576.878 150.809 576.987 151.937 577.098 153.065C576.895 153.145 576.696 153.226 576.495 153.308Z" fill="white"/>
<path d="M545.465 105.339C544.176 104.237 542.886 103.133 541.386 101.851C543.092 101.877 544.584 101.9 546.131 101.924C546.113 103.055 546.098 104.025 546.083 104.995C545.877 105.11 545.67 105.224 545.465 105.339Z" fill="white"/>
<path d="M556.88 108.755C554.681 108.01 553.034 107.451 551.283 106.857C554.095 104.801 555.214 105.065 556.88 108.755Z" fill="white"/>
<path d="M513.936 66.6515C513.339 67.9685 512.74 69.2854 512.136 70.6152C511.34 70.4047 510.566 70.2011 509.574 69.9388C510.099 69.4869 510.545 69.1054 511.109 68.6232C510.339 67.9581 509.7 67.4088 509.011 66.8131C510.511 66.1341 512.178 69.6651 513.289 66.3572C513.505 66.4548 513.72 66.5523 513.936 66.6515Z" fill="white"/>
<path d="M510.178 168.052C508.907 168.355 507.892 168.597 506.86 168.845C506.628 168.297 506.377 167.705 506.212 167.317C507.872 166.341 509.574 165.342 511.276 164.343C510.977 165.817 507.538 165.551 510.178 168.052Z" fill="white"/>
<path d="M532.619 115.912C531.607 117.347 530.762 118.55 529.914 119.753C529.667 119.659 529.42 119.566 529.173 119.473C529.003 118.235 528.834 116.999 528.677 115.85C530.057 115.872 531.061 115.888 532.619 115.912Z" fill="white"/>
<path d="M508.757 161.954C507.149 162.285 505.548 162.649 503.928 162.899C503.748 162.927 503.205 162.095 503.271 162.008C503.684 161.481 504.228 160.666 504.723 160.668C506.052 160.678 507.379 161.051 508.707 161.281C508.725 161.504 508.741 161.728 508.757 161.954Z" fill="white"/>
<path d="M530.43 83.7548C531.386 82.9618 532.286 82.0785 533.329 81.4266C533.677 81.2093 534.396 81.586 534.947 81.692C534.789 82.1446 534.765 82.8268 534.451 83.0105C533.339 83.663 532.127 84.1433 530.953 84.6908C530.778 84.3793 530.604 84.0679 530.43 83.7548Z" fill="white"/>
<path d="M505.176 127.799C506.65 128.802 508.121 129.804 509.594 130.808C509.54 130.894 509.486 130.981 509.431 131.066C508.587 130.778 507.743 130.492 506.9 130.205C506.816 130.338 506.735 130.472 506.651 130.604C506.98 131.022 507.31 131.44 507.807 132.073C507.112 131.843 506.382 131.824 506.2 131.499C505.569 130.371 505.13 129.137 504.617 127.943C504.803 127.896 504.989 127.847 505.176 127.799Z" fill="white"/>
<path d="M476.104 59.9356C476.785 60.1119 477.161 60.2087 477.067 60.1845C477.682 59.2123 478.225 58.3561 478.849 57.3663C479.545 58.8282 479.98 59.7433 480.416 60.6569C479.158 59.7746 477.423 62.8519 476.104 59.9356Z" fill="white"/>
<path d="M562.205 103.825C563.108 103.839 564.216 103.856 565.425 103.875C564.233 105.174 564.051 107.759 561.395 106.681C561.646 105.794 561.911 104.861 562.205 103.825Z" fill="white"/>
<path d="M79.4224 159.223C79.9406 159.231 80.87 159.245 82.1536 159.265C81.5116 161.064 80.9581 162.609 80.2176 164.685C79.903 162.528 79.6795 160.994 79.4224 159.223Z" fill="white"/>
<path d="M511.011 161.481C512.672 161.622 514.248 161.705 515.807 161.926C516.204 161.982 516.539 162.472 516.904 162.762C516.555 163.177 516.062 164 515.88 163.935C515.11 163.665 513.536 164.796 513.603 162.686C513.615 162.326 511.985 161.914 511.011 161.481Z" fill="white"/>
<path d="M537.213 178.537C537.973 179.438 538.94 180.242 539.409 181.275C539.671 181.853 539.106 182.806 538.915 183.59C538.598 183.591 538.281 183.593 537.962 183.595C537.518 181.875 537.073 180.157 536.629 178.437C536.824 178.469 537.018 178.503 537.213 178.537Z" fill="white"/>
<path d="M436.632 24.8353C437.089 26.209 437.544 27.5827 438.072 29.1737C437.723 29.5519 437.228 30.0887 436.223 31.1767C436.081 28.7629 435.97 26.8809 435.859 24.9989C436.117 24.9444 436.375 24.8898 436.632 24.8353Z" fill="white"/>
<path d="M198.208 113.687C197.368 113.247 196.841 112.971 195.738 112.392C196.906 112.193 197.353 111.966 197.665 112.09C199.319 112.742 198.852 113.977 198.316 115.1C197.596 116.608 196.611 116.135 195.316 115.228C196.2 114.755 196.869 114.4 198.208 113.687Z" fill="white"/>
<path d="M490.39 118.838C490.409 117.631 490.427 116.422 490.452 114.833C489.615 115.438 489.116 115.799 488.173 116.48C488.306 115.506 488.193 114.734 488.525 114.388C488.842 114.058 489.757 113.932 490.162 114.159C490.629 114.42 491.021 115.139 491.097 115.706C491.232 116.724 491.107 117.778 491.091 118.817C490.859 118.824 490.624 118.832 490.39 118.838Z" fill="white"/>
<path d="M548.874 110.695C550.311 112.979 548.573 114.4 547.839 116.042C547.881 114.268 546.508 112.259 548.874 110.695Z" fill="white"/>
<path d="M541.102 37.4575C541.304 38.4828 541.507 39.5082 541.804 41.0176C540.768 40.8018 539.841 40.6088 538.913 40.4157C539.476 39.3144 540.04 38.2148 540.603 37.1134C540.769 37.2265 540.936 37.3428 541.102 37.4575Z" fill="white"/>
<path d="M568.083 151.774C568.769 152.908 569.149 153.534 569.801 154.61C568.635 154.778 567.752 155.003 566.881 154.962C566.657 154.952 566.184 153.947 566.333 153.668C566.671 153.028 567.321 152.557 568.083 151.774Z" fill="white"/>
<path d="M86.0873 104.744C88.4342 105.469 90.3751 106.287 92.6617 104.694C92.4267 105.181 92.3204 105.859 91.9328 106.124C90.2756 107.259 87.8735 106.744 86.0873 104.744Z" fill="white"/>
<path d="M79.6246 146.076C78.9851 148.034 78.344 149.991 77.679 152.024C76.7736 149.71 77.39 147.248 79.6246 146.076Z" fill="white"/>
<path d="M446.694 29.2624C446.388 30.1499 446.18 30.7496 445.973 31.351C445.81 31.3387 445.65 31.3249 445.487 31.3126C445.568 30.2754 445.651 29.2382 445.734 28.1783C447.065 28.2849 448.138 28.3729 449.475 28.4796C449.03 29.3373 448.631 30.1064 448.1 31.1318C447.592 30.4561 447.238 29.9858 446.694 29.2624Z" fill="white"/>
<path d="M268.213 63.3048C268.845 61.2717 269.541 59.3323 272.666 60.539C270.987 61.5809 269.601 62.4437 268.213 63.3048Z" fill="white"/>
<path d="M535.65 101.632C533.876 102.099 532.101 102.564 530.325 103.029C530.324 103.029 530.395 102.965 530.393 102.965C530.208 103.077 530.026 103.19 529.842 103.303C529.843 102.817 529.649 102.193 529.88 101.87C530.637 100.809 534.218 100.484 535.385 101.283C535.493 101.356 535.519 101.549 535.584 101.686L535.65 101.632Z" fill="white"/>
<path d="M196.42 98.1515C194.752 98.4363 193.342 99.8156 191.945 97.5563C193.01 97.5726 193.77 97.5843 194.678 97.5983C194.746 96.907 194.806 96.2887 194.923 95.0847C195.542 96.3569 195.921 97.1298 196.42 98.1515Z" fill="white"/>
<path d="M576.566 146.816C576.088 146.182 575.396 145.557 575.503 145.352C576.055 144.299 576.812 143.354 577.497 142.371C577.759 142.541 578.023 142.709 578.286 142.879C577.78 144.04 577.272 145.2 576.566 146.816Z" fill="white"/>
<path d="M487.972 171.927C488.033 168.002 488.093 164.076 488.153 160.151C488.248 160.151 488.342 160.151 488.436 160.15C488.376 164.051 488.316 167.951 488.256 171.852C488.162 171.878 488.067 171.903 487.972 171.927Z" fill="white"/>
<path d="M289.029 55.8631C288.091 56.0193 287.154 56.1739 285.673 56.4193C285.82 55.5033 285.939 54.7722 286.056 54.0394C287.111 54.5091 288.165 54.9787 289.221 55.4483C289.157 55.5871 289.093 55.7259 289.029 55.8631Z" fill="white"/>
<path d="M575.263 123.71C577.764 123.748 580.264 123.787 582.765 123.825C582.76 124.041 582.755 124.257 582.75 124.473C580.253 124.435 577.755 124.397 575.258 124.358C575.261 124.141 575.261 123.926 575.263 123.71Z" fill="white"/>
<path d="M223.555 73.3507C221.82 73.2119 220.095 75.004 218.056 73.2695C219.215 72.7786 220.171 72.374 221.276 71.9051C221.873 72.3075 222.684 72.8531 223.501 73.3938C223.509 73.3858 223.555 73.3507 223.555 73.3507Z" fill="white"/>
<path d="M462.539 67.5569C461.436 66.2236 460.578 65.1866 459.627 64.0344C462.085 63.232 462.564 63.8293 462.539 67.5569Z" fill="white"/>
<path d="M533.962 68.5226C530.921 66.9206 532.116 65.7056 533.691 64.4573C533.77 65.6562 533.849 66.8551 533.962 68.5226Z" fill="white"/>
<path d="M94.9775 85.9851C93.0806 85.1645 91.9261 82.4539 90.3321 85.7171C90.1785 85.4579 90.0264 85.1989 89.8728 84.9397C90.3027 84.3532 90.709 83.2933 91.1693 83.2679C92.6706 83.1869 94.0555 83.6925 94.9775 85.9851Z" fill="white"/>
<path d="M441.459 28.217C442.56 28.0552 443.409 27.9317 444.168 27.8198C443.679 29.2879 443.186 30.769 442.692 32.2501C442.564 32.2481 442.434 32.2461 442.306 32.2441C442.316 31.5764 442.432 30.8875 442.307 30.2469C442.183 29.616 441.814 29.035 441.459 28.217Z" fill="white"/>
<path d="M240.359 74.1603C240.724 74.8144 241.037 75.3733 241.709 76.5749C239.864 76.3174 238.588 76.1385 236.661 75.87C238.227 75.1465 239.144 74.7235 240.359 74.1603Z" fill="white"/>
<path d="M573.922 139.989C572.284 139.693 570.731 142.81 568.713 139.514C570.638 139.544 572.213 139.566 573.787 139.605C573.828 139.606 573.862 139.809 573.922 139.989Z" fill="white"/>
<path d="M232.03 75.498C233.05 75.0261 234.068 74.5558 235.087 74.0839C235.212 74.315 235.337 74.546 235.462 74.7771C235.015 75.5016 234.569 76.226 234.1 76.9875C233.366 76.4497 232.67 75.9401 231.974 75.4305C231.973 75.4288 232.03 75.498 232.03 75.498Z" fill="white"/>
<path d="M571.272 106.896C571.419 106.211 571.54 105.641 571.662 105.072C571.746 105.078 571.833 105.083 571.917 105.089C571.901 106.131 571.885 107.17 571.865 108.461C570.695 108.07 569.635 107.716 568.576 107.363C568.6 107.195 568.624 107.026 568.646 106.856C569.437 106.868 570.229 106.88 571.272 106.896Z" fill="white"/>
<path d="M546.765 31.3772C547.841 31.2247 548.946 30.8126 549.158 31.0889C549.638 31.7122 549.675 32.6748 549.368 33.6435C548.652 33.0182 547.935 32.3946 546.765 31.3772Z" fill="white"/>
<path d="M188.264 114.256C189.117 113.563 189.971 112.87 191.019 112.017C191.25 114.319 191.09 114.482 188.769 114.815C188.601 114.631 188.434 114.444 188.264 114.256Z" fill="white"/>
<path d="M535.586 101.684C537.027 102.415 536.464 103.367 535.819 104.257C535.343 104.916 534.759 105.496 533.718 105.944C534.361 104.508 535.004 103.073 535.648 101.633C535.65 101.632 535.586 101.684 535.586 101.684Z" fill="white"/>
<path d="M544.857 120.29C543.803 119.734 542.748 119.178 541.373 118.454C542.078 117.865 542.593 117.434 542.947 117.137C543.892 118.185 544.627 119.001 545.363 119.818C545.195 119.975 545.027 120.132 544.857 120.29Z" fill="white"/>
<path d="M459.527 36.3142C458.691 37.0522 457.891 37.8411 456.992 38.492C456.79 38.6384 456.158 38.4011 455.89 38.1597C455.756 38.0374 455.881 37.2983 456.078 37.194C457.062 36.6696 458.112 36.2632 459.138 35.8142C459.267 35.9803 459.398 36.1465 459.527 36.3142Z" fill="white"/>
<path d="M273.979 68.8555C273.954 70.5062 273.937 71.6062 273.912 73.2358C273.034 71.9969 272.437 71.1525 271.715 70.1338C272.363 69.7716 272.969 69.4282 273.979 68.8555Z" fill="white"/>
<path d="M487.509 69.2229C488.333 70.4073 488.991 71.3534 489.732 72.4212C486.75 71.9658 486.43 71.592 487.509 69.2229Z" fill="white"/>
<path d="M530.345 172.51C529.88 172.984 529.483 173.387 528.831 174.051C528.183 172.769 527.652 171.714 526.835 170.094C528.311 171.11 529.189 171.715 530.345 172.51Z" fill="white"/>
<path d="M488.205 89.7493C490.434 89.1237 492.073 90.4572 492.177 92.9176C490.894 91.861 489.578 90.7796 488.256 89.7046C488.248 89.711 488.205 89.7493 488.205 89.7493Z" fill="white"/>
<path d="M185.763 118.094C186.167 117.412 186.5 116.668 187.022 116.095C187.153 115.95 187.886 116.357 188.342 116.508C187.826 117.214 187.308 117.919 186.792 118.626C186.448 118.449 186.105 118.271 185.763 118.094Z" fill="white"/>
<path d="M267.293 73.6623C267.027 72.6604 265.695 71.4682 268.111 70.6196C268.092 71.8691 268.078 72.8081 268.063 73.7456C267.807 73.7173 267.549 73.6906 267.293 73.6623Z" fill="white"/>
<path d="M190.197 118.095C190.698 118.871 191.2 119.646 191.805 120.583C191.112 120.802 190.568 120.974 189.724 121.24C189.617 120.151 189.526 119.225 189.435 118.298C189.689 118.23 189.944 118.162 190.197 118.095Z" fill="white"/>
<path d="M473.611 85.3027C473.319 84.0339 473.026 82.765 472.735 81.4962C473.078 81.4251 473.42 81.354 473.762 81.2828C474.037 82.5547 474.312 83.8265 474.586 85.0999C474.262 85.1665 473.936 85.2346 473.611 85.3027Z" fill="white"/>
<path d="M458.28 72.1605C458.846 70.739 459.413 69.316 459.979 67.8946C460.157 67.9509 460.336 68.0089 460.514 68.0653C460.097 69.5459 459.677 71.0248 459.26 72.5054C458.933 72.3915 458.607 72.276 458.28 72.1605Z" fill="white"/>
<path d="M515.738 139.737C513.943 139.183 512.148 138.629 510.354 138.075C510.427 137.865 510.5 137.654 510.573 137.444C512.409 138.04 514.244 138.635 516.079 139.229C515.966 139.398 515.853 139.567 515.738 139.737Z" fill="white"/>
<path d="M539.585 111.934C539.262 111.085 538.94 110.237 538.617 109.39C538.936 109.249 539.256 109.107 539.575 108.966C539.963 109.778 540.352 110.588 540.739 111.4C540.354 111.578 539.97 111.756 539.585 111.934Z" fill="white"/>
<path d="M557.794 143.179C559.504 142.53 561.214 141.882 562.924 141.232C561.637 143.205 559.86 143.68 557.776 143.185L557.794 143.179Z" fill="white"/>
<path d="M557.776 143.187C558.283 143.503 558.79 143.82 559.265 144.118C559.049 145.083 558.855 145.938 558.663 146.795C557.209 145.7 557.209 145.7 557.801 143.179C557.794 143.179 557.776 143.187 557.776 143.187Z" fill="white"/>
<path d="M163.868 133.631C164.653 133.754 165.205 133.839 165.611 133.902C164.851 135.119 164.138 136.258 163.118 137.892C163.412 136.225 163.613 135.08 163.868 133.631Z" fill="white"/>
<path d="M490.638 54.0904C490.939 54.7987 491.241 55.5087 491.735 56.6717C491.417 56.6668 490.302 56.7993 490.252 56.623C490.012 55.7872 490.058 54.8665 490.004 53.9767C490.215 54.0157 490.425 54.053 490.638 54.0904Z" fill="white"/>
<path d="M582.469 175.193C582.714 173.659 582.958 172.124 583.203 170.59C583.493 170.648 583.783 170.705 584.073 170.763C583.73 172.262 583.388 173.764 583.045 175.263C582.853 175.239 582.66 175.217 582.469 175.193Z" fill="white"/>
<path d="M579.603 120.71C578.839 120.799 578.137 120.882 577.084 121.006C578.133 119.663 578.924 118.652 579.648 117.725C579.637 118.448 579.623 119.405 579.603 120.71Z" fill="white"/>
<path d="M291.174 55.6573C292.336 55.264 293.44 55.0892 294.521 57.2152C292.986 56.8503 291.988 56.614 290.991 56.3777C291.052 56.1381 291.114 55.8969 291.174 55.6573Z" fill="white"/>
<path d="M482.302 -2.44438C483.715 -3.25635 485.433 -4.24564 487.152 -5.23332C487.314 -5.0228 487.477 -4.81394 487.638 -4.60345C487.209 -3.97786 486.781 -3.35061 486.003 -2.21522C487.979 -2.68054 489.435 -3.02382 491.347 -3.47548C490.835 -2.84629 490.563 -2.20041 490.095 -1.98821C488.128 -1.09699 486.089 -0.362869 484.106 0.497236C483.692 0.676141 483.456 1.31768 483.048 1.43979C482.14 1.70862 481.058 2.13079 480.259 1.86012C478.916 1.40719 479.402 0.56957 480.08 -0.437336C480.468 -1.01155 480.004 -2.1579 479.871 -3.6177C480.6 -3.26522 481.245 -2.95465 482.302 -2.44438Z" fill="white"/>
<path d="M343.735 50.6691C345.578 49.9775 347.422 49.2859 349.268 48.5927C349.568 49.4635 349.881 50.3719 350.12 51.0679C351.25 50.8252 352.038 50.6374 352.837 50.5311C352.885 50.5253 353.191 51.3946 353.083 51.4775C352.321 52.0687 351.482 52.5595 350.671 53.0817C350.745 53.1462 351.027 53.3944 351.343 53.6706C348.494 55.9654 344.943 54.523 343.735 50.6691Z" fill="white"/>
<path d="M323.975 58.2481C323.784 57.8015 323.65 57.4891 323.42 56.9525C324.417 56.8849 325.338 56.8227 326.159 56.7671C326.097 57.7428 326.037 58.6877 325.962 59.8892C324.863 59.8674 322.923 58.5782 322.124 60.9126C321.032 60.1564 320.118 59.5247 318.92 58.6954C318.922 58.6028 318.931 57.9984 318.942 57.2932C320.582 57.6028 322.12 57.8962 323.975 58.2481Z" fill="white"/>
<path d="M319.02 53.8101C318.246 52.4737 319.87 51.2928 320.895 51.0095C322.135 50.6662 323.68 51.4261 325.43 51.7764C324.257 53.6257 323.356 53.828 321.972 53.316C321.302 53.0684 320.357 53.5576 319.02 53.8101Z" fill="white"/>
<path d="M256.711 28.8345C253.96 28.5923 252.841 26.6705 251.771 24.5625C253.936 24.0497 256.13 25.9588 256.711 28.8345Z" fill="white"/>
<path d="M29.9799 43.3022C30.789 40.6738 31.5964 38.0454 32.4055 35.4186C34.0231 38.6596 31.4609 40.8369 30.898 43.5179C30.592 43.4449 30.286 43.3735 29.9799 43.3022Z" fill="white"/>
<path d="M473.097 31.1177C473.064 33.2526 473.034 35.1617 473.001 37.3388C471.108 35.8666 471.293 32.8093 473.097 31.1177Z" fill="white"/>
<path d="M347.504 45.2491C348.802 42.9532 350.681 44.1636 352.544 44.1191C352.316 44.933 352.14 45.5592 352.008 46.0366C350.489 45.7711 349.087 45.5269 347.504 45.2491Z" fill="white"/>
<path d="M334.299 51.8066C332.157 54.3463 329.634 54.7528 328.817 52.5967C330.601 52.3397 332.316 52.0931 334.299 51.8066Z" fill="white"/>
<path d="M335.883 50.993C338.501 51.5419 340.414 51.9451 342.326 52.3466C342.248 52.6331 342.171 52.9179 342.095 53.2044C340.501 51.4735 337.761 53.6919 335.883 50.993Z" fill="white"/>
<path d="M120.536 39.0531C119.472 39.7534 118.408 40.4538 117.344 41.1525C117.188 40.9291 117.032 40.704 116.875 40.4805C117.921 39.7523 118.968 39.0257 120.014 38.2975C120.189 38.5488 120.362 38.8001 120.536 39.0531Z" fill="white"/>
<path d="M480.82 80.2264C478.304 82.1753 476.984 82.1615 475.238 80.1699C474.97 78.825 474.701 77.4802 474.433 76.1353C474.624 76.0781 474.816 76.0226 475.007 75.9654C475.677 77.1019 476.108 78.563 477.084 79.2849C478.04 79.9903 479.552 79.942 480.82 80.2264Z" fill="white"/>
<path d="M431.041 25.6384C430.664 26.5784 430.287 27.5184 429.631 29.153C428.991 27.895 428.666 27.2562 428.339 26.6174C428.972 26.3963 429.601 26.1688 430.236 25.9543C430.517 25.8595 430.808 25.7876 431.092 25.7025C431.092 25.7009 431.041 25.6384 431.041 25.6384Z" fill="white"/>
</svg>
