<svg width="791" height="670" viewBox="0 0 791 670" fill="none" xmlns="http://www.w3.org/2000/svg">
<path d="M476.625 767.629C479.286 758.704 482.257 749.841 484.537 740.842C508.954 644.709 523.58 547.291 532.49 449.115C541.439 350.537 543.993 251.948 542.107 153.3C541.46 119.341 533.543 87.0895 523.862 54.9215C514.486 23.7594 507.124 -8.02279 498.787 -39.5089C495.04 -53.689 491.077 -67.8182 487.213 -81.9689C486.793 -83.5272 486.419 -85.1054 486.018 -86.6717C486.544 -87.0012 487.08 -87.3347 487.606 -87.6642C499.73 -73.6504 512.296 -59.9841 523.89 -45.5739C596.063 44.1273 650.556 143.597 690.312 251.007C710.856 306.508 722.623 364.235 729.63 423.041C736.412 479.996 738.209 537.35 740.572 594.686C742.452 640.312 745.946 685.833 748.787 731.399C749.134 736.955 749.88 742.48 750.447 748.017C717.596 762.421 684.735 776.829 651.884 791.233C654.045 787.689 656.006 784.013 658.414 780.634C669.569 765.005 675.971 747.952 674.898 729.061C674.107 715.261 672.562 701.496 670.724 687.805C667.761 665.752 662.104 643.885 661.467 621.744C660.222 578.262 661.287 534.654 662.064 491.085C662.943 441.773 662.487 392.63 651.728 344.399C649.884 336.102 647.518 327.924 645.074 318.421C637.064 328.519 635.143 338.796 635.496 349.161C636.845 389.256 630.502 428.811 624.598 468.426C616.44 523.121 607.463 577.781 606.169 632.984C605.516 661.147 607.136 689.299 607.597 717.456C608.067 745.949 602.631 773.184 587.222 798.306C581.452 807.706 576.109 817.336 570.57 826.865C551.679 835.149 532.788 843.432 513.896 851.715C501.481 823.705 489.053 795.667 476.625 767.629Z" fill="#F1CD00"/>
<path d="M1064.19 293.509C1056.73 287.202 1049.32 280.831 1041.78 274.614C1039.84 273.011 1037.65 271.127 1035.27 270.657C991.075 262.015 952.554 241.728 915.674 218.111C865.023 185.679 819.099 147.523 773.965 108.428C717.344 59.3751 661.018 9.98422 604.219 -38.8813C556.521 -79.9122 513.131 -124.75 474.024 -173.648C452.37 -200.725 429.804 -227.117 403.839 -250.494C362.684 -287.549 313.358 -307.806 257.314 -312.297C222.063 -315.12 186.488 -314.949 151.07 -316.262C132.347 -316.962 113.655 -317.961 94.9562 -318.902C93.0235 -318.998 91.1286 -319.67 89.2133 -320.07C143.91 -344.042 198.606 -368.015 253.303 -391.987C264.906 -386.839 276.33 -381.262 288.159 -376.608C332.207 -359.313 375.065 -340.268 412.281 -310.92C446.872 -283.646 483.65 -258.887 517.366 -230.67C558.116 -196.564 596.475 -159.787 636.198 -124.517C730.853 -40.4749 833.215 34.0483 939.767 103.302C957.151 114.602 975.709 124.215 993.725 134.614C1017.21 187.582 1040.7 240.55 1064.19 293.509Z" fill="#F1CD00"/>
<path d="M331.25 -425.561C366.601 -441.056 401.952 -456.552 437.294 -472.044C440.177 -468.823 443.248 -465.74 445.919 -462.361C456.915 -448.433 467.425 -434.106 478.799 -420.476C502.473 -392.107 531.397 -369.747 563.051 -349.996C629.59 -308.47 690.991 -260.218 752.386 -212.029C764.277 -202.693 776.257 -193.45 788.2 -184.169C788.527 -186.1 787.962 -187.179 787.291 -188.178C776.799 -203.785 766.574 -219.575 755.72 -234.946C729.918 -271.492 701.456 -305.666 664.207 -332.086C650.871 -341.545 636.758 -350.653 625.768 -362.39C583.075 -407.967 535.494 -449.121 496.483 -498C516.209 -506.646 535.943 -515.296 555.668 -523.943C585.055 -490.328 613.176 -455.554 644.121 -423.346C691.195 -374.351 740.218 -327.13 788.439 -279.197C801.984 -265.74 815.659 -252.405 829.282 -239.015C867.297 -153.278 905.307 -67.5507 943.322 18.186C940.658 16.7332 937.737 15.5799 935.361 13.771C910.179 -5.36292 884.432 -23.8647 860.112 -43.9685C807.721 -87.2781 756.472 -131.878 703.987 -175.081C664.391 -207.675 622.462 -237.525 576.579 -261.431C493.674 -304.631 417.383 -356.936 344.592 -414.251C340.014 -417.868 335.693 -421.785 331.25 -425.561Z" fill="#F1CD00"/>
<path d="M1178.28 550.817C1137.72 539.596 1098.63 524.896 1060.83 507.031C996.685 476.718 940.959 435.133 888.968 388.47C818.861 325.542 756.089 256.166 700.642 180.739C668.516 137.042 638.687 91.7019 608.755 46.4951C593.33 23.211 581.928 -2.2976 573.063 -28.8093C572.482 -30.5372 572.194 -32.361 572.802 -34.6103C582.412 -23.2253 592.026 -11.8311 601.641 -0.459154C655.456 63.1396 714.024 122.222 777.777 176.489C839.407 228.948 908.36 270.998 979.205 310.587C1019.14 332.905 1058.4 356.341 1097.98 379.239C1099.61 380.178 1101.48 380.728 1103.24 381.459C1128.25 437.917 1153.26 494.363 1178.28 550.817Z" fill="#F1CD00"/>
<path d="M793.313 728.044C792.442 701.598 795.297 675.614 804.25 650.195C811.288 630.213 811.671 609.976 802.8 591.029C787.204 557.725 782.077 522.05 778.146 486.059C773.881 447.011 765.994 408.716 757.109 370.573C751.567 346.755 747.202 322.673 749.999 297.834C750.189 296.105 750.49 294.382 750.737 292.661C750.826 292.029 750.921 291.384 751.225 289.276C756.613 294.881 760.999 299.454 765.404 304.02C804.77 344.847 842.798 386.996 883.851 426.163C938.283 478.098 992.984 530.025 1055.73 572.931C1065.63 579.705 1076.43 585.255 1086.81 591.383C1089.4 592.913 1091.95 594.495 1094.52 596.056C1055.43 613.188 1016.35 630.316 977.253 647.448C959.75 628.201 942.253 608.942 924.457 589.375C918.609 617.679 914.905 646.208 914.291 675.039C873.965 692.7 833.644 710.37 793.313 728.044Z" fill="#F1CD00"/>
</svg>
