<svg width="467" height="903" viewBox="0 0 467 903" fill="none" xmlns="http://www.w3.org/2000/svg">
<mask id="mask0" mask-type="alpha" maskUnits="userSpaceOnUse" x="-326" y="-225" width="793" height="1128">
<rect x="-326" y="-225" width="793" height="1128" fill="#C4C4C4"/>
</mask>
<g mask="url(#mask0)">
<path d="M331.97 467.075C329.958 466.68 328.16 466.022 326.388 466.082C325.067 466.127 323.321 466.762 322.577 467.747C321.336 469.393 320.352 470.593 318.66 469.426C317.778 473.083 316.931 476.589 315.972 480.566C317.815 481.032 320.086 481.607 322.36 482.184C322.415 482.465 322.471 482.744 322.525 483.026C321.282 483.256 320.004 483.8 318.804 483.66C313.999 483.103 309.187 482.491 304.435 481.595C300.17 480.792 295.98 479.592 291.46 478.495C296.123 474.802 294.79 469.353 295.241 464.424C295.776 458.581 295.219 452.558 296.414 446.88C297.511 441.661 298.004 436.564 297.842 431.311C297.821 430.65 298.14 429.979 298.427 428.783C298.795 429.82 298.979 430.343 299.257 431.134C299.813 430.77 300.316 430.442 300.926 430.044C301.546 430.644 302.188 431.265 302.859 431.917C303.645 430.914 304.4 429.947 305.469 428.58C305.054 427.698 304.438 426.387 303.621 424.652C306.61 425.076 309.069 425.428 311.528 425.778C311.507 426.113 311.488 426.448 311.466 426.783C310.395 427.201 309.323 427.618 308.253 428.034C308.242 428.238 308.231 428.439 308.223 428.642C310.559 428.892 312.895 429.144 315.231 429.393C315.261 429.627 315.29 429.863 315.32 430.096C314.729 430.508 314.14 430.918 313.546 431.333C314.162 433.592 316.337 435.836 313.18 438.015C312.866 438.234 314.119 440.726 314.754 442.461C313.035 445.427 313.318 446.065 317.373 446.464C316.918 448.476 316.479 450.415 316.04 452.356C315.828 452.264 315.614 452.174 315.402 452.082C316.124 453.933 316.651 455.904 317.665 457.578C318.088 458.274 319.542 458.369 320.545 458.681C321.377 458.941 322.23 459.121 323.075 459.335C322.423 460.364 321.93 461.565 321.071 462.371C320.225 463.166 319.004 463.561 318.117 464.449C321.552 466.059 323.743 464.899 325.219 461.228C325.612 462.577 325.84 463.357 326.139 464.38C327.785 463.418 329.184 462.599 330.584 461.781C330.49 461.478 330.398 461.172 330.305 460.869C331.087 461.229 331.866 461.589 332.581 461.92C332.349 463.862 332.143 465.615 331.97 467.075Z" fill="white"/>
<path d="M313.55 1.08965C312.209 -0.0787737 311.35 -0.827876 310.09 -1.92789C309.986 -0.592716 309.929 0.152638 309.855 1.10289C308.939 1.02467 308.079 0.951468 307.062 0.863355C307.96 -2.23323 307.919 -4.83776 305.847 -7.52034C304.261 -9.57335 304.812 -12.2942 306.088 -14.6908C308.422 -14.4278 310.592 -14.1849 313.627 -13.8434C312.03 -12.6945 311.249 -12.1308 310.151 -11.3419C310.908 -10.6793 311.591 -10.0799 312.482 -9.29947C313.045 -10.3184 313.453 -11.0541 313.845 -11.7651C315.72 -11.5573 316.917 -7.56575 315.855 -5.61654C316.946 -4.76809 318.028 -3.92654 319.424 -2.84066C320.315 -3.45312 321.535 -4.291 323.022 -5.31202C321.746 -6.41141 320.655 -7.34995 319.22 -8.58443C321.003 -9.22815 322.452 -9.75312 323.901 -10.276C320.414 -11.1612 319.815 -14.134 318.426 -16.7193C317.751 -17.9759 315.383 -18.3248 313.861 -18.5627C320.393 -19.2198 326.926 -19.8791 333.131 -20.5041C334.313 -19.2973 335.367 -17.8915 336.726 -16.9127C338.49 -15.6427 339.962 -14.5443 337.743 -12.3261C339.193 -11.0792 340.399 -10.0391 341.596 -9.01068C341.493 -7.59218 341.385 -6.11154 341.241 -4.15261C332.695 0.198081 322.626 -0.0450881 313.55 1.08965Z" fill="white"/>
<path d="M259.741 427.354C261.122 429.042 262.354 430.413 263.433 431.893C266.828 436.548 270.071 441.314 273.556 445.898C275.919 449.006 276.124 450.833 273.35 453.61C270.465 456.502 267.194 458.641 262.767 457.077C262.204 456.878 261.568 456.889 260.97 456.778C255.716 455.812 254.959 454.812 255.411 449.449C255.659 446.512 255.551 444.001 252.096 442.551C250.802 442.007 250.621 439.172 249.322 438.195C246.986 436.441 248.647 434.91 249.157 433.442C249.991 431.033 251.194 428.753 252.597 425.622C254.513 428.577 255.954 430.802 257.784 433.626C258.497 431.34 259.036 429.61 259.741 427.354Z" fill="white"/>
<path d="M249.633 378.673C250.111 379.793 250.441 381.009 251.094 382.015C253.447 385.646 255.86 389.237 258.345 392.779C259.969 395.095 261.809 397.259 263.455 399.56C267.072 404.619 270.629 409.722 274.207 414.808C274.446 415.148 274.668 415.497 274.899 415.842C275.174 415.706 275.447 415.568 275.722 415.431C276.13 413.006 276.498 410.574 276.957 408.16C277.405 405.796 277.949 403.451 278.581 400.492C280.97 403.659 283.104 406.488 285.142 409.19C286.301 407.594 287.461 406.491 287.974 405.141C288.454 403.883 288.245 402.363 288.858 400.841C289.248 402.947 289.638 405.052 289.964 406.817C289.143 407.89 287.816 408.886 287.786 409.92C287.767 410.645 289.516 411.42 290.594 412.265C291.374 419.057 292.191 426.197 293.011 433.335C292.885 433.367 292.76 433.401 292.632 433.434C291.835 430.325 291.035 427.213 290.238 424.104C290.108 424.187 289.981 424.27 289.852 424.353C288.559 421.423 286.797 418.602 286.096 415.539C285.294 412.022 282.928 410.168 280.347 407.788C278.169 415.796 281.143 424.251 276.457 431.672C275.656 419.72 268.687 410.687 263.066 401.408C260.736 401.651 258.672 401.922 256.598 402.071C253.358 402.303 252.857 399.434 252.289 397.478C250.764 392.24 250.005 386.779 248.451 381.551C247.375 377.929 245.473 374.555 243.956 371.063C243.657 370.375 243.426 369.657 243.017 368.562C244.731 368.582 245.991 368.596 247.507 368.614C248.199 371.85 246.677 375.771 250.371 377.964C250.122 378.199 249.877 378.435 249.633 378.673Z" fill="white"/>
<path d="M35.5428 352.554C36.8081 353.109 38.1198 353.583 39.326 354.246C40.293 354.777 41.0596 355.956 42.041 356.127C46.5124 356.905 47.1786 360.549 48.5799 363.9C50.3403 368.112 52.9643 371.622 58.1104 372.158C58.8888 372.24 59.587 373.109 60.9765 374.062C58.5145 374.518 56.9092 374.815 55.9486 374.993C57.3566 377.882 58.5396 380.315 59.8982 383.103C58.7327 383.56 57.7698 384.223 56.7737 384.28C51.6322 384.574 43.0128 380.999 40.466 374.897C37.9044 368.763 36.8364 362.866 36.8068 356.465C36.8005 355.128 36.0297 353.797 35.6093 352.462C35.6068 352.461 35.5428 352.554 35.5428 352.554Z" fill="white"/>
<path d="M127.696 556.031C128.222 558.028 128.975 559.999 129.207 562.031C129.412 563.828 130.303 564.53 131.752 564.062C132.572 563.798 133.604 562.633 133.66 561.813C134.017 556.587 134.125 551.344 134.331 546.108C134.347 545.708 134.401 545.266 134.584 544.925C135.268 543.647 134.602 541.292 137.069 541.565C137.271 541.587 137.2 544.037 137.265 545.356C137.307 546.213 137.298 547.085 137.483 547.911C137.519 548.068 138.726 548.189 138.772 548.08C139.042 547.398 139.108 546.638 139.299 545.918C139.461 545.303 139.7 544.706 140.29 544.186C141.307 546.573 140.712 548.881 139.104 550.576C137.427 552.343 136.963 553.617 137.911 556.107C138.881 558.653 138.624 561.673 138.871 564.487C139.319 569.583 140.057 570.453 144.955 571.759C148.786 572.782 152.9 573.301 154.948 577.514C155.16 577.949 156.132 578.012 156.748 578.247C155.623 581.383 153.984 582.316 150.935 581.664C153.644 584.498 153.872 584.493 157.098 581.428C157.083 581.806 157.13 582.096 157.051 582.343C156.657 583.58 156.23 584.806 155.612 586.634C151.775 584.458 148.163 582.412 144.585 580.383C145.176 579.521 145.616 578.881 146.057 578.24C145.202 577.793 144.383 577.089 143.485 576.966C142.326 576.805 140.762 577.634 139.973 577.118C137.484 575.487 135.212 573.497 133.017 571.471C132.625 571.11 132.99 569.921 133.014 569.114C133.08 566.946 132.924 564.99 129.974 564.981C129.459 564.98 128.605 564.55 128.486 564.147C127.709 561.538 127.093 558.882 126.422 556.243C126.845 556.169 127.271 556.101 127.696 556.031Z" fill="white"/>
<path d="M243.568 84.1061C243.261 84.8999 242.968 85.6977 242.642 86.4841C242.382 87.1068 242.085 87.7125 241.789 88.355C240.47 88.0553 238.865 87.6923 236.888 87.2449C236.877 85.8497 236.867 84.235 236.853 82.1673C235.526 82.4131 233.471 82.7936 231.416 83.1742C231.464 83.435 231.51 83.6962 231.559 83.9592C232.363 83.8103 233.167 83.6615 234.01 83.5052C235.209 84.1758 234.522 85.402 231.466 87.2707C232.867 87.4324 233.757 87.5352 235.119 87.6909C232.916 89.2613 230.95 90.6629 228.969 92.0736C230.394 93.3143 231.702 94.4518 232.881 95.477C232.86 99.3082 229.058 96.7706 227.513 99.2653C228.414 99.3814 229.207 99.4824 229.998 99.5859C229.88 100.058 229.763 100.529 229.644 101C228.822 101.072 227.993 101.1 227.181 101.224C225.76 101.439 224.346 101.714 222.929 101.965C223.125 103.019 223.32 104.073 223.512 105.112C221.921 105.201 219.518 100.775 219.591 97.6421C220.911 97.8429 222.715 98.6143 221.827 95.9668C221.416 94.7402 220.778 93.5928 219.831 91.5024C221.854 91.8976 223.122 92.1454 225.024 92.5169C223.967 91.2036 223.216 90.2725 222.447 89.3182C222.974 88.5035 223.489 87.7063 224.003 86.9091C223.892 86.7586 223.781 86.6081 223.67 86.4577C222.655 87.0316 221.639 87.608 220.256 88.3927C220.376 86.5413 220.469 85.0808 220.533 84.0995C222.806 83.3431 224.661 82.7254 227.068 81.9243C226.912 83.4161 226.798 84.5206 226.631 86.1285C227.749 85.8141 228.757 85.5287 230.185 85.1282C228.803 82.7786 227.66 80.8364 226.428 78.744C229.438 75.4758 230.37 75.2045 233.342 77.2049C232.519 77.7849 231.764 78.3173 230.988 78.8624C233.245 80.686 237.182 81.0273 239.995 79.1881C237.854 78.9156 236.39 78.7285 234.678 78.5103C236.069 76.2743 237.666 75.0794 240.337 76.3789C240.959 76.6826 241.681 76.7792 242.358 76.9695L242.289 76.8902C242.253 78.6142 242.709 80.5695 242.042 81.9981C241.358 83.4582 239.572 84.401 238.266 85.5684C238.39 85.802 238.513 86.038 238.637 86.2716C240.317 85.5702 241.997 84.8687 243.676 84.1673L243.568 84.1061Z" fill="white"/>
<path d="M267.189 386.858C270.861 387.156 271.775 384.36 272.406 382.001C272.63 381.161 270.505 379.691 268.937 377.93C268.162 380.934 267.621 383.032 266.942 385.665C265.936 385.599 264.53 385.506 262.894 385.399C262.138 387.513 260.229 387.178 258.697 386.165C256.476 384.699 254.061 383.238 254.311 379.805C254.396 378.645 253.455 377.387 252.91 376.207C251.689 373.571 252.359 371.894 255.467 370.415C255.804 373.144 255.255 376.457 259.3 376.962C258.473 378.605 257.65 380.238 256.787 381.948C258.017 383.144 259.157 384.251 260.502 385.557C262.179 383.691 264.719 382.475 261.833 379.656C261.193 379.031 261.37 377.573 261.167 376.476C267.941 376.457 268.99 376.903 274.485 381.996C274.195 383.001 273.926 383.928 273.657 384.858C274.719 384.586 275.783 384.315 277.701 383.824C276.6 385.646 275.771 387.021 274.78 388.661C277.368 389.015 277.977 390.523 277.526 392.758C277.4 393.389 277.636 394.155 277.886 394.786C278.218 395.616 278.726 396.372 279.16 397.161C278.082 397.419 277.005 397.678 275.634 398.007C277.205 394.136 276.566 392.914 273.141 391.248C271.094 390.254 269.254 388.84 267.318 387.617C267.276 387.364 267.231 387.111 267.189 386.858Z" fill="white"/>
<path d="M246.154 67.0831C246.791 66.6142 247.43 66.145 248.184 65.5885C247.777 64.7033 247.381 63.8445 246.615 62.1813C249.093 63.2357 250.917 64.0121 252.741 64.7885L252.682 64.7424C252.549 65.2232 252.417 65.7039 252.4 65.7663C255.213 64.3416 258.095 62.8824 260.978 61.4207C261.214 61.7367 261.45 62.0526 261.686 62.3686C259.571 64.1378 257.457 65.9066 255.379 67.6446C258.408 70.9724 261.016 67.9958 262.56 66.5627C264.918 64.3757 266.62 65.2625 268.733 66.1454C269.432 66.4371 270.147 66.6952 271.356 67.1642C268.051 67.5569 265.333 67.8806 262.94 68.1658C262.701 69.7782 262.535 70.9078 262.322 72.3488C263.805 72.3637 265.446 72.3799 267.09 72.3958C267.096 72.6864 267.101 72.975 267.104 73.266C266.322 73.4723 265.54 73.6785 264.208 74.0284C265.276 74.9645 265.98 75.5819 266.132 75.714C269.234 74.9245 271.756 74.2821 274.277 73.6396C274.445 73.9288 274.61 74.2184 274.778 74.5075C273.63 75.3672 272.485 76.2285 270.798 77.495C270.999 76.2974 271.095 75.7358 271.266 74.7281C268.541 75.6714 268.266 81.8351 263.673 78.084C263.719 78.885 263.763 79.6838 263.845 81.1054C260.499 80.2336 257.369 79.4161 253.607 78.4348C255.454 77.119 256.933 76.0665 258.11 75.2255C259.032 76.0221 259.883 76.7571 261.291 77.9726C260.566 72.3318 256.622 69.9236 252.215 71.4C251.477 71.6462 250.48 71.3989 249.704 71.1061C249.411 70.9958 249.151 69.7764 249.326 69.6363C250.077 69.0456 250.997 68.6712 252.672 67.784C250.971 67.4565 249.808 67.1696 248.626 67.0266C247.78 66.9245 246.908 67.0114 246.048 67.0127C246.047 67.0152 246.154 67.0831 246.154 67.0831Z" fill="white"/>
<path d="M47.8752 327.832C41.0387 317.351 43.4432 301.722 51.7889 299.259C51.8958 301.163 52.3779 303.127 51.9888 304.899C51.6477 306.455 50.3299 307.796 49.3344 309.408C50.7685 309.904 51.8861 310.289 53.8639 310.973C51.9276 311.792 50.9007 312.228 50.3922 312.443C51.2055 315.438 52.7997 318.29 52.4342 320.864C52.1032 323.222 49.6502 325.277 47.8752 327.832Z" fill="white"/>
<path d="M363.404 452.968C363.806 453.565 364.632 454.221 364.627 454.871C364.603 457.749 364.313 460.621 364.179 463.499C364.124 464.659 363.976 465.899 364.298 466.975C365.007 469.345 364.03 470.096 361.784 470.205C363.406 466.351 361.68 463.438 359.387 460.895C358.418 459.82 355.875 458.492 355.515 458.833C354.007 460.26 350.03 458.785 351.007 463.041C350.656 462.948 350.305 462.855 349.953 462.763C349.932 460.769 349.909 458.775 349.885 456.632C348.996 457.988 348.268 459.234 347.349 460.319C347.235 460.454 346.111 459.735 344.885 459.131C346.21 458.424 346.935 458.038 347.659 457.652C347.454 454.957 349.461 452.942 352.475 453.406C354.728 453.752 357.049 452.335 359.322 454.02C359.955 454.489 361.707 453.447 363.404 452.968Z" fill="white"/>
<path d="M327.216 571.534C326.267 573.611 325.304 575.718 324.263 577.996C324.919 578.294 325.489 578.552 326.131 578.843C322.465 581.266 322.123 583.979 325.057 587.173C324.406 587.46 323.797 587.729 323.049 588.06C323.496 589.712 323.928 591.314 324.381 592.987C319.389 593.118 318.534 592.41 318.357 588.161C318.253 585.632 317.976 583.073 318.244 580.578C318.501 578.186 319.106 575.754 320.026 573.532C320.978 571.235 324.113 570.615 327.216 571.534Z" fill="white"/>
<path d="M184.285 155.944C184.453 154.54 184.62 153.136 184.856 151.173C186.316 151.324 188.297 151.519 190.276 151.747C190.44 151.767 190.671 151.974 190.717 152.139C191.564 155.134 194.148 155.776 197.733 156.377C196.628 157.444 195.632 157.951 195.602 158.509C195.427 161.698 194.234 161.226 191.708 160.483C189.648 159.877 187.075 161.071 184.72 161.408C183.708 161.554 182.673 161.548 181.832 161.601C182.188 159.508 182.301 158.101 182.721 156.795C182.863 156.355 183.787 156.166 184.355 155.859C184.54 156.206 184.707 156.566 184.906 156.906C185.351 157.675 185.812 158.436 186.266 159.201C187.012 158.611 187.758 158.021 189.227 156.856C186.929 156.433 185.607 156.189 184.285 155.944Z" fill="white"/>
<path d="M301.166 401.93C302.249 402.66 303.467 403.255 304.379 404.156C305.367 405.131 306.068 406.394 306.895 407.53C306.071 408.102 305.226 408.644 304.437 409.262C304.159 409.48 304.025 409.88 303.632 410.506C305.167 410.693 306.41 410.844 307.682 410.997C306.626 413.715 307.547 415.755 310.827 418.128C309.103 418.555 307.4 418.976 305.529 419.438C306.691 420.583 307.62 421.499 308.548 422.415C304.826 422.108 304.129 421.209 304.178 417.86C304.189 417.055 304.017 416.247 304.024 415.44C304.045 412.831 302.687 412.591 300.663 413.426L300.723 413.479C300.692 410.679 300.601 407.88 300.658 405.084C300.681 403.999 301.036 402.919 301.241 401.837L301.166 401.93Z" fill="white"/>
<path d="M64.0387 283.785C63.0199 285.52 62.2712 286.795 61.6629 287.833C57.7569 288.852 53.951 289.844 49.7414 290.942C51.6905 287.741 53.263 284.732 55.2983 282.079C55.8987 281.294 57.913 281.085 59.0916 281.374C60.7845 281.786 62.3044 282.9 64.0387 283.785Z" fill="white"/>
<path d="M209.498 83.3359C209.583 85.4652 209.621 86.4429 209.66 87.4205C209.971 86.9681 210.282 86.5179 210.591 86.0659C211.69 87.3011 212.792 88.5358 214.457 90.4077C212.189 90.3144 210.726 90.2542 208.885 90.1805C211.484 92.2721 213.742 94.091 216 95.9078C215.924 96.1872 215.851 96.4662 215.776 96.7477C214.421 96.9986 213.066 97.2496 211.641 97.5135C211.402 96.2242 211.161 94.9243 210.92 93.6244C210.637 93.4333 210.352 93.2449 210.069 93.0538C208.478 94.7523 206.886 96.4507 205.496 97.9342C206.145 94.4474 206.897 90.3996 207.65 86.3517C207.315 86.2974 206.981 86.2453 206.649 86.1906C205.17 88.2828 203.691 90.377 202.332 92.3C201.423 90.1742 201.196 89.9925 203.638 86.9412C204.827 85.4599 207.037 84.794 209.498 83.3359Z" fill="white"/>
<path d="M332.936 558.639C332.4 558.919 331.473 559.112 331.388 559.492C330.721 562.476 328.307 562.01 326.226 562.33C323.82 562.699 321.435 563.2 318.36 563.769C318.469 561.799 318.098 559.137 318.99 556.998C319.341 556.157 322.676 555.942 324.344 556.454C325.83 556.909 326.889 558.755 328.492 560.342C328.293 559.267 328.169 558.599 327.926 557.286C329.796 557.828 331.347 558.28 332.9 558.729L332.936 558.639Z" fill="white"/>
<path d="M332.898 558.728C339.41 563.288 341.624 569.918 338.66 575.975C336.613 580.153 331.127 581.239 328.374 577.59C330 577.993 331.308 578.317 332.613 578.639C332.701 578.451 332.789 578.262 332.879 578.074C332.167 577.368 331.457 576.66 330.745 575.954C330.811 575.636 330.88 575.321 330.946 575.004C332.148 575.181 333.492 575.072 334.523 575.592C336.565 576.624 337.243 575.845 338.117 574.014C340.072 569.91 338.152 566.85 335.671 563.331C335.419 564.6 335.242 565.499 335.025 566.592C333.022 565.971 331.067 565.366 329.113 564.761C329.175 564.444 329.235 564.128 329.296 563.81C329.608 563.774 329.922 563.742 330.232 563.7C331.372 563.544 332.982 563.766 333.519 563.111C334.023 562.496 333.412 560.951 333.258 559.819C333.204 559.424 333.046 559.043 332.938 558.648C332.936 558.64 332.898 558.728 332.898 558.728Z" fill="white"/>
<path d="M295.901 583.505C294.743 583.336 293.869 583.263 293.021 583.074C289.999 582.401 286.945 581.815 284.002 580.884C283.45 580.709 283.351 579.107 282.8 577.426C284.829 578.349 286.056 579.328 287.232 579.27C287.83 579.24 288.336 577.342 288.944 576.172C297.002 577.059 297.25 577.869 295.901 583.505Z" fill="white"/>
<path d="M88.5972 427.692C88.1533 423.139 87.7768 419.294 87.4006 415.451C87.5692 415.224 87.7379 414.998 87.9082 414.769C89.4734 416.126 91.0385 417.484 92.5911 418.832C90.2288 424.599 87.7605 430.623 85.1537 436.988C84.9082 434.538 84.5208 432.315 84.5149 430.093C84.5101 428.113 84.706 425.89 88.5972 427.692Z" fill="white"/>
<path d="M242.351 76.9682C242.434 76.1852 242.515 75.4004 242.571 74.8615C243.76 74.7685 244.863 74.6827 245.968 74.5965C246.015 74.307 246.062 74.0176 246.109 73.7281C243.89 72.3098 241.671 70.8915 239.094 69.2457C241.769 68.4235 243.959 67.7526 246.151 67.0813C246.151 67.0834 246.046 67.0151 246.047 67.0173C246.511 67.8656 246.974 68.7098 247.779 70.1772C246.408 69.6568 245.693 69.3835 244.978 69.1123C244.78 69.3552 244.581 69.5981 244.385 69.8407C246.141 71.2942 247.898 72.7498 249.983 74.4758C248.515 75.2543 247.027 76.0431 245.221 76.9982C246.428 77.6652 247.333 78.1666 248.403 78.7601C247.016 80.9077 247.267 84.2191 243.568 84.1058L243.671 84.1657C245.806 81.3731 245.476 79.6532 242.284 76.8886L242.351 76.9682Z" fill="white"/>
<path d="M71.7186 326.329C71.2929 326.281 71.0929 326.278 70.9024 326.232C67.4678 325.368 65.8984 323.716 67.3649 319.862C67.9561 318.305 67.2165 316.242 67.0785 314.349C72.4828 315.083 74.4215 320.317 71.7186 326.329Z" fill="white"/>
<path d="M204.367 134.093C205.481 134.411 206.264 134.635 207.046 134.856C207.073 135.121 207.103 135.385 207.13 135.65C205.278 136.254 203.425 136.858 201.574 137.464C201.296 137.3 201.019 137.139 200.74 136.976C202.739 134.93 203.49 133.797 200.078 133.293C197.893 132.972 195.942 131.078 193.719 129.792C195.908 126.645 197.786 128.743 199.538 128.993C200.947 129.195 202.313 129.657 203.711 129.944C204.618 130.132 205.546 130.212 206.464 130.34C206.071 131.084 205.688 131.833 205.283 132.57C205.047 133.002 204.779 133.414 204.367 134.093Z" fill="white"/>
<path d="M158.645 45.1831C160.684 47.2993 162.396 49.4979 166.177 46.4531C164.839 50.0611 164.048 52.6356 167.748 54.2619C167.473 54.4335 167.196 54.6077 166.921 54.7793C165.819 54.5753 164.532 53.9254 163.667 54.2853C162.748 54.6681 162.231 56.0096 161.424 57.0848C160.142 54.9249 160.215 51.3275 155.944 51.4209C159.332 50.1859 159.137 47.8622 158.645 45.1831Z" fill="white"/>
<path d="M229.47 356.852C229.25 355.664 229.03 354.479 228.811 353.293C228.986 353.232 229.161 353.171 229.336 353.11C229.687 353.75 230.039 354.386 230.389 355.028C231.183 356.488 232.264 357.874 232.687 359.436C233.064 360.827 233.078 362.577 232.528 363.854C232.216 364.577 230.444 364.67 228.772 365.236C230.898 358.074 222.858 355.731 223.904 349.693C225.903 349.447 226.093 351.586 226.836 352.854C227.605 354.161 228.029 355.671 228.604 357.091C228.891 357.009 229.179 356.929 229.47 356.852Z" fill="white"/>
<path d="M164.675 20.1928C167.039 20.2879 169.401 20.3834 172.062 20.4895C171.829 21.0305 171.756 21.6691 171.476 21.778C167.849 23.1932 164.193 24.5347 160.221 26.0139C159.317 21.9855 158.1 18.4912 159.476 14.6239C160.07 18.2097 161.43 21.1841 164.79 23.6719C164.774 22.1527 164.765 21.1302 164.753 20.1081L164.675 20.1928Z" fill="white"/>
<path d="M164.753 20.1093C163.933 19.3861 162.543 18.7618 162.398 17.9222C161.987 15.5594 161.993 13.1062 162.058 10.6948C162.073 10.1722 163.115 9.16763 163.522 9.24366C166.794 9.86142 167.476 7.23042 168.816 5.28687C169.009 9.08936 169.202 12.8656 169.428 17.2937C168.649 16.5826 167.822 15.8716 167.845 15.8431C169.433 13.8646 166.955 13.1677 166.53 11.858C166.481 11.7092 164.77 11.8375 164.748 11.9818C164.538 13.3104 164.503 14.6703 164.492 16.0211C164.489 16.2432 164.851 16.47 165.138 16.8006C164.527 17.2318 163.962 17.6281 162.913 18.3665C164.235 18.5558 164.961 18.6627 165.752 18.775C165.384 19.2621 165.034 19.7216 164.682 20.1861C164.674 20.1919 164.753 20.1093 164.753 20.1093Z" fill="white"/>
<path d="M272.771 333.624C272.232 331.923 271.749 330.203 271.141 328.529C270.37 326.406 268.98 324.215 272.453 322.87C273.038 323.591 273.654 324.345 274.247 325.076C272.571 327.204 273.06 328.495 275.286 329.844C276.042 330.303 276.509 331.936 276.379 332.936C276.285 333.651 275.051 334.391 274.174 334.759C273.67 334.971 272.863 334.467 272.193 334.284C272.387 334.064 272.579 333.844 272.771 333.624Z" fill="white"/>
<path d="M219.39 111.67C217.969 112.225 216.588 112.952 215.118 113.292C212.542 113.89 209.927 114.433 207.3 114.652C204.797 114.861 205.042 112.785 204.668 110.72C206.65 111.035 208.284 111.294 210.238 111.603C210.539 111.144 211.04 109.941 211.928 109.189C212.411 108.777 213.541 109.125 215.234 109.136C213.617 110.212 212.772 110.774 211.928 111.334C211.982 111.601 212.035 111.867 212.091 112.131C214.44 111.696 216.79 111.261 219.139 110.826C219.223 111.109 219.305 111.389 219.39 111.67Z" fill="white"/>
<path d="M344.882 442.923C345.488 442.488 346.068 441.727 346.703 441.682C348.299 441.564 350.476 439.033 351.392 442.371C351.797 443.844 354.167 445.735 351.456 446.991C349.634 447.835 347.255 449.629 345.29 446.396C347.072 445.643 350.071 445.554 347.735 442.304C346.92 442.795 346.211 443.223 345.503 443.65C345.296 443.405 345.089 443.165 344.882 442.923Z" fill="white"/>
<path d="M338.385 437.318C340.455 435.29 342.292 434.219 342.807 432.7C343.098 431.837 341.231 430.242 340.164 428.737C343.471 429.417 346.431 433.426 345.479 436.008C345.092 437.056 343.527 438.026 342.327 438.307C341.289 438.552 340.011 437.773 338.385 437.318Z" fill="white"/>
<path d="M144.824 614.607C145.952 615.298 146.68 615.893 147.512 616.226C151.115 617.667 154.759 619.01 158.358 620.457C158.69 620.591 158.951 621.216 158.986 621.635C159.008 621.868 158.5 622.37 158.23 622.37C157.143 622.374 155.6 622.655 155.041 622.065C152.42 619.291 148.798 618.789 145.573 617.386C144.149 616.766 142.913 615.966 144.824 614.607Z" fill="white"/>
<path d="M321.074 29.8827C316.859 29.639 314.548 24.8448 310.57 27.7485C310.868 25.0744 311.079 25.0639 315.429 24.379C319.299 23.7697 319.399 26.903 321.074 29.8827Z" fill="white"/>
<path d="M280.092 345.573C273.865 340.633 274.037 338.017 281.11 332.843C280.745 333.794 280.651 335.079 279.965 335.639C277.801 337.404 276.794 339.121 278.62 341.77C279.37 342.859 279.617 344.296 280.092 345.573Z" fill="white"/>
<path d="M253.059 367.349C248.947 364.856 251.79 361.267 250.704 358.411C252.601 357.757 253.883 357.41 253.637 360.096C253.552 361.033 254.372 362.055 254.8 363.085C254.284 364.348 253.724 365.719 253.059 367.349Z" fill="white"/>
<path d="M64.4439 295.931C66.545 296.428 68.7198 296.944 70.8943 297.458C70.9947 297.799 71.0931 298.141 71.1935 298.482C69.2816 299.314 67.2847 300.943 65.4778 300.756C63.6713 300.57 63.0967 298.297 64.4439 295.931Z" fill="white"/>
<path d="M221.775 13.3726C222.313 11.5973 222.631 10.547 222.962 9.45276C223.669 9.60245 224.5 9.77546 224.883 9.85792C225.779 8.32341 226.522 7.05194 227.263 5.78085C227.797 6.13364 228.33 6.48682 228.865 6.83962C228.2 7.3356 227.533 7.83197 226.885 8.31382C227.87 8.94291 228.788 9.53172 229.706 10.1184C229.71 10.4818 229.716 10.8427 229.719 11.2061C227.189 11.8962 224.656 12.5868 221.775 13.3726Z" fill="white"/>
<path d="M355.734 564.875C353.277 566.694 350.961 568.413 348.461 570.264C348.123 569.577 347.502 568.316 346.881 567.058C349.291 568.411 352.301 566.449 353.037 562.997C354.203 563.193 355.376 563.391 356.679 563.608C356.904 565.27 357.115 566.85 357.328 568.427C357.211 568.466 357.091 568.508 356.973 568.547C356.594 567.433 356.219 566.318 355.734 564.875Z" fill="white"/>
<path d="M194.625 86.6862C195.756 83.9389 196.703 81.6383 197.652 79.3372C197.928 79.4507 198.204 79.5663 198.481 79.6794C199.126 81.1107 200.058 82.4996 200.283 83.9955C200.385 84.6763 199.228 85.8184 198.383 86.2885C197.607 86.7195 196.488 86.5275 194.625 86.6862Z" fill="white"/>
<path d="M265.43 310.401C265.651 311.591 265.917 313.026 266.344 315.333C265.313 314.256 264.858 313.74 264.36 313.268C263.341 312.297 262.297 311.352 261.27 310.388C260.633 309.791 259.826 309.272 259.451 308.536C259.189 308.023 259.526 307.202 259.597 306.52C260.373 306.659 261.329 306.561 261.887 306.984C263.085 307.887 264.077 309.064 265.43 310.401Z" fill="white"/>
<path d="M222.018 67.8725C222.616 68.0667 223.213 68.2609 223.81 68.453C223.77 68.7325 223.731 69.0094 223.691 69.2888C222.164 69.1351 220.638 68.9834 218.926 68.8114C220.194 66.9624 217.781 63.3494 221.758 64.1832C223.101 65.1211 224.441 66.0573 226.215 67.2971C224.514 67.1844 223.297 67.1027 222.08 67.021C222.06 67.3033 222.038 67.5881 222.018 67.8725Z" fill="white"/>
<path d="M233.231 61.6396C234.982 62.2344 236.693 63.0557 238.491 63.361C240.337 63.6729 242.268 63.4775 244.181 63.5048C244.154 65.1329 242.122 66.0992 239.035 65.2189C236.933 64.6191 234.936 63.6444 232.894 62.8382C233.006 62.438 233.119 62.0377 233.231 61.6396Z" fill="white"/>
<path d="M182.586 50.1628C182.938 45.5115 182.885 45.438 178.673 43.7659C177.963 43.4829 177.324 43.0178 176.908 42.1714C178.552 42.3209 180.217 42.3548 181.837 42.6448C184.123 43.0548 184.529 44.7344 184.023 46.6683C183.707 47.876 183.075 48.9998 182.586 50.1628Z" fill="white"/>
<path d="M198.723 115.531C200.111 114.379 201.375 113.331 202.962 112.013C203.667 113.933 204.106 115.131 204.559 116.369C202.606 118.582 200.844 118.353 198.723 115.531Z" fill="white"/>
<path d="M180.351 17.4759C178.788 17.7653 176.903 18.1144 175.018 18.4636C178.846 16.0547 179.504 12.926 176.399 8.96303C176.724 8.94441 177.048 8.92829 177.374 8.90967C178.266 10.2227 179.459 11.4296 179.962 12.8762C180.456 14.3024 180.252 15.9699 180.351 17.4759Z" fill="white"/>
<path d="M334.272 13.0238C330.696 10.53 328.166 12.5229 325.578 14.5396C325.387 11.6601 325.967 10.9912 328.832 10.2699C331.772 9.53017 332.872 9.98451 334.272 13.0238Z" fill="white"/>
<path d="M82.131 496.607C81.4269 499.556 83.2017 501.157 85.1686 502.848C86.2931 503.815 86.9483 505.328 87.3537 506.854C84.6221 503.947 79.2129 502.31 82.131 496.607Z" fill="white"/>
<path d="M209.842 66.1311C212.123 65.599 214.403 65.0672 216.778 64.5111C216.623 68.3276 215.152 69.0189 210.06 67.1502C209.986 66.8108 209.914 66.4709 209.842 66.1311Z" fill="white"/>
<path d="M258.996 6.50812C259.159 4.79564 259.692 3.6946 261.705 3.17261C264.791 2.37533 264.585 5.30203 266.602 6.63915C263.62 6.55977 261.258 6.49938 258.894 6.43477C258.896 6.43225 258.996 6.50812 258.996 6.50812Z" fill="white"/>
<path d="M221.096 73.5749C222.823 73.7484 224.267 73.8955 226.033 74.0751C222.572 77.1419 220.003 74.6391 216.84 72.9067C218.371 72.1976 219.678 71.5936 221.412 70.7944C221.281 71.9439 221.201 72.6496 221.096 73.5749Z" fill="white"/>
<path d="M367.705 575.307C371.782 575.267 370.644 578.908 371.609 581.405C370.719 581.987 369.828 582.569 369.134 583.024C368.646 580.386 368.172 577.826 367.705 575.307Z" fill="white"/>
<path d="M215.955 37.3527C217.825 37.785 219.695 38.2195 221.583 38.6572C221.518 39.7484 221.455 40.8083 221.374 42.1679C220.648 41.6026 220.035 41.1218 219.26 40.5152C218.596 41.6909 218.049 42.6653 217.454 43.7185C216.178 41.9436 220.336 38.8508 215.741 38.2717C215.812 37.9648 215.883 37.66 215.955 37.3527Z" fill="white"/>
<path d="M348.876 15.7064C349.602 17.2805 350.183 18.5371 350.775 19.8158C350.123 20.2612 349.418 20.7426 348.957 21.0583C347.253 19.1543 345.507 17.2009 343.762 15.2476C345.758 15.2507 346.312 19.7956 348.876 15.7064Z" fill="white"/>
<path d="M275.161 0.15196C277.294 1.09269 279.08 1.87831 280.867 2.66604C280.81 3.01209 280.754 3.35812 280.697 3.70417C279.131 4.24862 277.567 4.79268 276.112 5.29683C275.781 3.49608 275.538 2.18558 275.161 0.15196Z" fill="white"/>
<path d="M341.313 19.151C342.165 21.1559 343.057 23.1444 343.806 25.1859C343.89 25.4138 342.949 26.3381 342.819 26.2745C342.025 25.8753 340.822 25.381 340.696 24.7354C340.36 23.0035 340.498 21.1794 340.45 19.392C340.735 19.3107 341.023 19.231 341.313 19.151Z" fill="white"/>
<path d="M233.892 11.4161C232.61 10.3792 231.226 9.44032 230.104 8.25304C229.731 7.85729 230.032 6.82316 230.026 6.0786C230.656 6.16586 231.55 6.01787 231.872 6.37947C233.012 7.65541 233.954 9.10618 234.973 10.49C234.614 10.8 234.254 11.1078 233.892 11.4161Z" fill="white"/>
<path d="M297.809 32.748C298.728 30.5688 299.648 28.3917 300.569 26.2121C300.694 26.2612 300.821 26.3079 300.946 26.357C300.793 27.5303 300.642 28.7032 300.488 29.8765C300.684 29.95 300.879 30.0213 301.073 30.0951C301.531 29.5585 301.988 29.0198 302.682 28.207C302.564 29.1719 302.73 30.126 302.355 30.4476C301.053 31.5639 299.563 32.4584 298.143 33.4385C298.033 33.2089 297.92 32.9797 297.809 32.748Z" fill="white"/>
<path d="M217.117 88.3353C217.168 87.4025 217.196 86.8885 217.189 87.017C215.763 86.4717 214.507 85.9893 213.056 85.4356C214.776 84.1477 215.853 83.3429 216.927 82.5363C216.108 84.4031 220.567 85.8563 217.117 88.3353Z" fill="white"/>
<path d="M450.117 578.491C449.992 577.814 449.767 576.602 449.457 574.926C451.966 575.291 454.121 575.607 457.015 576.027C454.291 577.001 452.354 577.693 450.117 578.491Z" fill="white"/>
<path d="M340.108 16.3411C339.857 14.1439 339.552 12.0707 339.431 9.98528C339.401 9.45356 339.95 8.8891 340.232 8.339C340.864 8.68473 342.063 9.10963 342.027 9.36417C341.877 10.436 343.761 12.1883 340.998 12.6539C340.526 12.7326 340.417 14.9614 340.108 16.3411Z" fill="white"/>
<path d="M181.777 148.879C183.445 147.926 185.113 146.974 187.045 145.871C187.629 146.225 188.457 146.73 190.135 147.753C187.032 148.569 184.612 149.205 182.192 149.842C182.054 149.521 181.916 149.2 181.777 148.879Z" fill="white"/>
<path d="M359.782 435.851C359.429 437.059 359.207 437.817 358.742 439.404C358.178 437.935 357.766 437.413 357.845 436.975C358.261 434.652 359.99 434.937 361.591 435.34C363.742 435.883 363.384 437.287 362.543 439.211C361.696 438.183 361.059 437.406 359.782 435.851Z" fill="white"/>
<path d="M290.02 54.3317C288.445 54.6235 286.867 54.9157 284.793 55.2998C285.799 56.2299 286.4 56.7854 287.533 57.8345C286.23 57.9157 285.255 58.2652 284.718 57.9238C284.205 57.5975 283.802 56.4395 283.992 55.8539C284.209 55.1776 285.043 54.4793 285.76 54.2324C287.049 53.7897 288.454 53.6766 289.809 53.4256C289.88 53.7261 289.951 54.0287 290.02 54.3317Z" fill="white"/>
<path d="M56.5296 357.83C57.6966 358.814 58.8116 359.316 58.9957 360.05C59.1519 360.668 58.2221 361.557 57.7725 362.327C56.9006 361.716 55.9019 361.215 55.2405 360.427C55.0546 360.205 55.8513 359.154 56.5296 357.83Z" fill="white"/>
<path d="M76.5977 493.743C77.7849 494.492 80.2704 493.868 79.5375 496.613C79.3472 497.326 78.2916 497.809 77.6352 498.398C77.0059 497.001 76.3765 495.604 75.7493 494.207C76.0324 494.054 76.315 493.898 76.5977 493.743Z" fill="white"/>
<path d="M170.86 9.64616C172.141 9.11499 173.422 8.58168 175.309 7.80027C175.299 9.20573 175.29 10.4619 175.282 11.7202C173.702 11.2759 172.123 10.8291 170.543 10.3848C170.647 10.1397 170.754 9.89168 170.86 9.64616Z" fill="white"/>
<path d="M377.488 584.076C377.817 580.832 378.374 578.093 375.702 575.535C376.398 575.713 377.307 575.674 377.754 576.109C379.664 577.968 379.623 581.228 377.488 584.076Z" fill="white"/>
<path d="M432.958 581.668C435.673 581.988 438.387 582.31 441.206 582.644C438.432 584.427 435.067 584.27 432.958 581.668Z" fill="white"/>
<path d="M184.904 134.629C186.139 134.795 186.974 134.908 187.811 135.021C187.837 135.235 187.861 135.448 187.888 135.662C186.517 135.828 185.146 135.992 183.745 136.162C183.535 134.402 183.369 132.983 183.158 131.215C184.391 131.57 185.496 131.888 186.969 132.31C186.222 133.148 185.703 133.731 184.904 134.629Z" fill="white"/>
<path d="M275.907 357.95C273.096 357.659 270.39 357.261 271.143 352.88C272.938 354.791 274.423 356.369 275.907 357.95Z" fill="white"/>
<path d="M255.787 -0.0539855C256.859 2.13168 257.928 4.31986 258.998 6.50804C258.999 6.51016 258.897 6.43467 258.897 6.43679C259.092 6.64853 259.286 6.85605 259.481 7.06567C258.848 7.19157 258.088 7.60665 257.607 7.39082C256.028 6.68304 254.668 2.10969 255.403 0.381263C255.47 0.221906 255.713 0.137408 255.875 0.0174768L255.787 -0.0539855Z" fill="white"/>
<path d="M340.035 442.243C340.842 444.339 343.006 445.812 340.432 448.221C340.175 446.832 339.991 445.839 339.771 444.654C338.854 444.747 338.034 444.831 336.437 444.993C337.93 443.855 338.837 443.16 340.035 442.243Z" fill="white"/>
<path d="M77.1762 332.114C77.724 333.567 78.2721 335.023 78.9845 336.915C78.1611 336.934 76.5925 337.097 76.5632 336.951C76.2465 335.372 76.1733 333.745 76.0322 332.13C76.4151 332.125 76.7955 332.118 77.1762 332.114Z" fill="white"/>
<path d="M359.729 43.5844C354.605 44.5332 349.482 45.482 344.359 46.4308C344.334 46.3082 344.309 46.1856 344.284 46.063C349.376 45.1201 354.465 44.1776 359.556 43.2347C359.615 43.351 359.672 43.4677 359.729 43.5844Z" fill="white"/>
<path d="M260.777 332.812C261.226 333.992 261.672 335.171 262.379 337.034C261.149 337.082 260.166 337.119 259.182 337.158C259.517 335.662 259.852 334.168 260.187 332.671C260.384 332.718 260.582 332.765 260.777 332.812Z" fill="white"/>
<path d="M300.665 413.426C300.938 415.72 303.722 417.497 301.998 420.604C301.056 419.223 300.28 418.086 299.38 416.77C299.748 415.888 300.245 414.69 300.735 413.486C300.723 413.477 300.665 413.426 300.665 413.426Z" fill="white"/>
<path d="M230.584 103.991C229.138 105.774 228.013 107.162 226.763 108.701C225.075 105.713 225.727 104.934 230.584 103.991Z" fill="white"/>
<path d="M213.149 10.8067C211.86 15.1819 209.966 13.9447 207.93 12.2228C209.469 11.8061 211.009 11.3895 213.149 10.8067Z" fill="white"/>
<path d="M350.753 577.418C350.182 580.101 346.957 582.312 351.62 583.532C351.323 583.8 351.026 584.066 350.729 584.333C349.853 583.928 348.368 583.676 348.214 583.084C347.716 581.152 348.011 579.217 350.753 577.418Z" fill="white"/>
<path d="M81.3103 372.783C83.1226 373.213 84.9353 373.645 86.7476 374.075C86.6347 374.578 86.5214 375.08 86.4063 375.583C84.5927 375.217 82.7769 374.852 80.9633 374.486C81.0797 373.918 81.1961 373.351 81.3103 372.783Z" fill="white"/>
<path d="M184.913 141.714C184.414 140.324 184.032 139.252 183.688 138.293C185.726 138.545 187.782 138.799 189.838 139.054C189.869 139.221 189.9 139.391 189.931 139.559C189.06 139.72 188.133 139.749 187.332 140.079C186.544 140.405 185.885 141.038 184.913 141.714Z" fill="white"/>
<path d="M297.321 391.351C298.076 390.704 298.721 390.151 300.109 388.962C300.257 391.43 300.358 393.138 300.513 395.714C299.162 393.866 298.371 392.784 297.321 391.351Z" fill="white"/>
<path d="M301.241 401.837C300.36 400.634 299.482 399.432 298.601 398.229C298.869 398.006 299.137 397.783 299.405 397.56C300.464 397.952 301.524 398.344 302.637 398.754C302.13 399.85 301.649 400.889 301.168 401.928C301.166 401.93 301.241 401.837 301.241 401.837Z" fill="white"/>
<path d="M244.616 653.461C245.336 654.51 246.067 655.151 245.945 655.476C245.605 656.388 244.917 657.171 244.367 658.003C243.878 657.565 242.911 657.01 242.986 656.715C243.226 655.763 243.85 654.904 244.616 653.461Z" fill="white"/>
<path d="M161.467 3.8692C160.987 2.50835 160.161 1.17852 160.465 0.83051C161.151 0.0433818 162.394 -0.256945 163.734 -0.11048C163.108 0.983737 162.484 2.07967 161.467 3.8692Z" fill="white"/>
<path d="M363.125 448.64C361.999 447.712 360.875 446.782 359.49 445.641C362.424 444.738 362.678 444.904 363.719 447.836C363.523 448.103 363.325 448.37 363.125 448.64Z" fill="white"/>
<path d="M61.291 465.166C59.9571 466.099 58.6232 467.033 57.2897 467.968C57.0429 467.654 56.7982 467.34 56.5514 467.026C57.7782 465.952 59.005 464.878 60.2318 463.805C60.5857 464.259 60.9396 464.713 61.291 465.166Z" fill="white"/>
<path d="M255.872 0.0150967C256.446 -2.05191 257.832 -1.56726 259.159 -0.962041C260.141 -0.514453 261.048 0.094052 261.904 1.33041C259.867 0.869875 257.832 0.408948 255.79 -0.0529258C255.787 -0.0546537 255.872 0.0150967 255.872 0.0150967Z" fill="white"/>
<path d="M190.722 116.086C191.901 116.98 193.137 117.815 194.219 118.814C194.462 119.039 194.319 119.923 194.075 120.334C193.951 120.542 192.956 120.572 192.769 120.344C191.829 119.2 191.026 117.94 190.173 116.723C190.355 116.512 190.537 116.298 190.722 116.086Z" fill="white"/>
<path d="M281.62 348.994C283.775 348.595 285.21 348.329 287.337 347.935C285.955 349.402 285.012 350.399 283.876 351.605C283.235 350.857 282.63 350.158 281.62 348.994Z" fill="white"/>
<path d="M226.217 71.0646C227.542 69.683 228.601 68.5789 229.797 67.3355C229.984 71.3342 229.582 71.8495 226.217 71.0646Z" fill="white"/>
<path d="M252.742 64.7877C251.345 62.0505 252.651 59.5692 255.825 58.7906C254.786 60.7355 253.723 62.7308 252.671 64.733C252.681 64.742 252.742 64.7877 252.742 64.7877Z" fill="white"/>
<path d="M368.772 450.89C367.78 450.543 366.725 450.304 365.842 449.775C365.62 449.643 365.956 448.582 366.034 447.949C367.088 448.437 368.141 448.926 369.196 449.413C369.055 449.906 368.914 450.399 368.772 450.89Z" fill="white"/>
<path d="M289.624 356.436C288.39 357.044 287.188 359.089 285.451 356.167C287.082 355.865 288.308 355.638 289.531 355.411C289.561 355.752 289.594 356.095 289.624 356.436Z" fill="white"/>
<path d="M51.7571 326.624C53.0439 327.864 53.968 328.757 55.1376 329.885C51.3958 330.121 50.936 329.711 51.7571 326.624Z" fill="white"/>
<path d="M367.614 445.121C368.493 444.265 369.369 443.409 370.431 442.377C370.896 443.221 371.262 443.884 371.83 444.912C370.441 445.336 369.26 445.698 368.077 446.059C367.922 445.746 367.768 445.432 367.614 445.121Z" fill="white"/>
<path d="M250.776 84.9402C249.202 85.6528 247.627 86.3655 246.053 87.0761C245.871 86.6492 245.688 86.2224 245.506 85.7955C247.089 85.1054 248.672 84.4152 250.257 83.7247C250.429 84.1294 250.603 84.5358 250.776 84.9402Z" fill="white"/>
<path d="M237.689 108.327C235.691 107.962 233.691 107.598 231.693 107.233C231.72 106.987 231.749 106.738 231.776 106.492C233.811 106.648 235.845 106.806 237.881 106.962C237.818 107.417 237.753 107.872 237.689 108.327Z" fill="white"/>
<path d="M310.578 15.8813C310.327 18.3623 310.076 20.8434 309.824 23.3224C309.532 23.2822 309.239 23.2421 308.947 23.202C309.241 20.6581 309.535 18.1142 309.827 15.5707C310.077 15.6736 310.326 15.7766 310.578 15.8813Z" fill="white"/>
<path d="M394.719 475.313C394.673 474.26 394.639 473.518 394.615 472.974C396.397 473.644 398.067 474.274 400.459 475.173C398.212 475.227 396.671 475.265 394.719 475.313Z" fill="white"/>
<path d="M205.708 70.9544C206.551 70.3772 207.396 69.7975 208.78 68.8503C208.857 69.2659 209.321 70.6824 209.104 70.7926C208.08 71.3245 206.87 71.5048 205.726 71.8087C205.722 71.5243 205.715 71.2404 205.708 70.9544Z" fill="white"/>
<path d="M226.517 654.824C226.87 652.861 227.058 651.826 227.293 650.524C228.244 651.442 229.034 652.202 230.118 653.251C229 653.739 228.112 654.127 226.517 654.824Z" fill="white"/>
<path d="M259.947 330.075C259.131 328.666 258.615 327.275 261.098 325.312C261.025 327.405 260.979 328.765 260.932 330.125C260.605 330.108 260.275 330.091 259.947 330.075Z" fill="white"/>
<path d="M145.324 297.698C146.569 300.183 147.816 302.665 149.057 305.151C150.788 308.62 152.363 312.177 154.276 315.541C157.552 321.304 157.451 327.238 156.084 333.489C154.793 339.4 154.001 345.418 152.331 351.652C151.16 347.311 149.894 342.994 148.848 338.624C147.764 334.098 146.75 329.548 145.975 324.963C145.218 320.471 144.558 315.937 144.305 311.395C144.053 306.873 144.362 302.322 144.427 297.781C144.724 297.754 145.024 297.727 145.324 297.698Z" fill="white"/>
<path d="M154.023 292.017C154.614 292.53 155.105 292.955 155.69 293.465C156.635 291.197 157.569 288.949 158.672 286.304C159.477 287.157 159.966 287.501 160.218 287.972C161.842 291.023 163.453 294.082 164.997 297.174C167.246 301.681 170.422 305.8 169.602 311.431C169.023 315.418 169.198 319.513 169.008 323.56C168.96 324.624 168.809 325.683 168.226 326.854C161.05 316.342 153.797 305.957 154.023 292.017Z" fill="white"/>
<path d="M150.948 298.883C150.546 297.78 150.321 296.563 149.704 295.598C148.703 294.033 148.81 291.541 146.187 291.211C145.828 291.166 145.415 290.534 145.249 290.091C142.776 283.449 140.27 276.803 141.979 269.496C142.095 269.008 142.251 268.522 142.436 268.056C142.502 267.888 142.712 267.779 142.858 267.645C146.098 268.891 147.577 271.335 147.574 274.709C147.575 275.658 148.314 276.997 149.122 277.488C152.29 279.411 153.88 281.766 153.229 285.703C152.516 290.022 152.341 294.43 151.932 298.798C151.602 298.828 151.276 298.855 150.948 298.883Z" fill="white"/>
<path d="M17.6699 291.561C18.1739 287.756 18.2973 283.851 19.2669 280.169C20.7291 274.61 23.0598 269.277 24.5055 263.712C25.935 258.214 26.142 252.546 24.8184 246.915C24.6465 246.188 24.7182 245.403 24.6787 244.644C24.9664 244.433 25.2562 244.222 25.5439 244.01C26.5323 245.025 28.1204 245.902 28.3912 247.08C29.0137 249.79 29.7149 252.818 29.1034 255.414C26.9949 264.352 24.3498 273.163 21.8762 282.013C20.9673 285.265 19.9637 288.491 19.0042 291.73C18.5574 291.675 18.1124 291.617 17.6699 291.561Z" fill="white"/>
<path d="M181.532 434.089C179.651 435.152 177.987 436.09 176.234 437.081C172.968 432.175 173.737 427.128 175.798 422.41C178.083 424.268 180.497 425.896 182.479 427.941C184.198 429.715 185.626 431.857 186.769 434.051C187.181 434.844 186.39 436.26 186.151 437.392C185.099 437.006 183.951 436.764 183.024 436.179C182.401 435.786 182.088 434.905 181.532 434.089Z" fill="white"/>
<path d="M33.8502 224.518C34.1378 225.408 34.4024 226.043 34.5494 226.707C35.467 230.88 35.4752 230.782 31.1809 229.717C29.5788 229.321 27.8182 229.561 25.9151 229.506C25.5921 230.473 25.3928 231.576 24.8646 232.49C24.4031 233.29 23.5736 233.881 22.9082 234.563C22.5212 234.475 22.1317 234.384 21.7446 234.296C21.7932 232.462 21.8439 230.628 21.9129 228.11C21.2445 227.048 19.9703 225.248 18.9846 223.301C18.6905 222.72 19.2063 221.727 19.3515 220.924C20.029 221.195 20.7028 221.47 21.3817 221.736C24.6979 223.039 27.9895 224.41 31.3539 225.57C31.8885 225.756 32.7498 225.007 33.8502 224.518Z" fill="white"/>
<path d="M134.33 96.5958C132.904 94.9693 131.167 92.9924 129.432 91.0151C129.664 90.7485 129.893 90.4824 130.125 90.2179C131.051 90.6122 131.979 91.0041 133.66 91.7192C132.537 89.271 131.71 87.4657 130.622 85.0967C131.574 85.598 132.486 85.7823 132.884 86.3358C134.559 88.662 136.048 91.1235 137.686 93.4784C138.027 93.9701 138.923 94.109 139.189 94.6081C139.776 95.7188 140.609 97.0166 140.466 98.1266C140.228 99.9932 139.011 99.5804 137.523 98.961C136.675 98.6071 135.304 99.5101 133.44 100.066C133.708 99.025 133.943 98.1041 134.33 96.5958Z" fill="white"/>
<path d="M43.0489 208.328C42.9348 206.125 42.6008 204.191 42.8704 202.342C42.96 201.725 44.7381 200.762 45.4947 200.95C47.4018 201.431 50.3734 199.711 50.9765 203.122C51.0598 203.596 50.0088 204.541 49.2989 204.841C46.2071 206.159 45.4206 208.983 47.3868 211.843C47.8999 212.588 48.1487 213.529 48.392 214.416C48.4109 214.483 47.2198 215.157 46.9199 214.982C46.0258 214.466 44.9989 213.812 44.5705 212.943C43.8207 211.418 43.4748 209.692 43.0489 208.328Z" fill="white"/>
<path d="M239.703 262.992C238.32 260.774 236.938 258.556 235.553 256.336C236.608 255.717 237.708 255.073 238.551 254.579C237.939 253.172 237.489 252.196 237.141 251.184C237.121 251.124 238.172 250.497 238.308 250.617C239.277 251.453 240.135 252.417 241.027 253.335C241.091 253.222 241.34 252.79 241.617 252.307C245.348 255.412 244.401 260.411 239.703 262.992Z" fill="white"/>
<path d="M25.8799 198.997C28.191 199.81 30.4843 200.682 32.818 201.416C35.0262 202.113 37.3562 202.484 39.4733 203.375C40.318 203.732 40.8443 205.058 41.2434 206.052C41.3124 206.223 39.8734 207.466 39.3762 207.328C34.5441 205.988 29.5659 204.865 25.8926 201.043C25.5913 200.73 25.5485 200.168 25.3869 199.722C25.5511 199.483 25.7145 199.24 25.8799 198.997Z" fill="white"/>
<path d="M27.3713 320.356C28.6168 324.997 30.0102 329.608 30.9748 334.307C31.1512 335.165 29.5738 336.383 28.8055 337.433C28.1817 336.658 27.0798 335.919 27.0136 335.1C26.6269 330.217 26.4778 325.314 26.2512 320.419C26.6249 320.4 26.9984 320.379 27.3713 320.356Z" fill="white"/>
<path d="M32.3089 241.411C31.5331 240.491 30.7653 239.578 29.7783 238.405C35.0585 238.055 36.7004 245.203 35.8144 252.654C31.5986 249.715 30.4687 246.077 32.3089 241.411Z" fill="white"/>
<path d="M75.5407 242.902C72.857 241.556 70.9804 240.235 68.9029 239.687C67.0491 239.199 65.0905 242.409 62.4885 239.373C65.8051 238.309 68.7711 236.738 71.8258 236.545C75.0904 236.337 74.8356 239.58 75.5407 242.902Z" fill="white"/>
<path d="M75.6645 249.211C79.0955 252.376 79.9769 255.786 78.3745 259.829C78.1011 260.52 77.2073 260.964 76.5999 261.522C76.0744 260.768 75.0987 260.012 75.1023 259.261C75.1271 256.008 75.4375 252.758 75.6645 249.211Z" fill="white"/>
<path d="M79.8095 304.126C82.5248 305.215 84.986 305.786 86.6789 302.729C88.7907 304.491 88.3796 306.381 87.7736 308.178C87.6208 308.632 86.5105 309.221 86.1194 309.063C83.6806 308.07 80.9749 307.351 79.8095 304.126Z" fill="white"/>
<path d="M104.891 340.511C102.37 340.859 99.2848 338.65 99.187 336.676C99.1569 336.052 100.308 334.806 100.342 334.826C102.242 335.939 104.12 337.105 105.851 338.456C106.003 338.577 105.141 339.989 104.891 340.511Z" fill="white"/>
<path d="M254.734 286.719C254.203 287.084 253.831 287.34 253.194 287.78C252.845 286.5 252.523 285.319 252.235 284.264C253.521 284.09 254.766 283.92 256.349 283.704C256.608 285.139 255.439 288 258.685 288.43C257.987 290.049 257.404 291.402 256.639 293.178C256.518 293.201 255.729 293.347 254.809 293.517C254.782 291.302 254.762 289.225 254.734 286.719Z" fill="white"/>
<path d="M35.2832 187.204C39.087 189.054 43.6817 189.87 46.3364 195.086C44.3275 194.767 42.7443 194.994 41.9902 194.309C39.5896 192.124 37.4968 189.599 35.2832 187.204Z" fill="white"/>
<path d="M250.257 294.327C248.72 295.684 246.759 293.88 246.122 292.621C245.351 291.097 245.935 288.887 245.933 286.519C248.646 287.56 249.145 288.681 248.841 290.615C248.694 291.552 249.578 292.654 250.257 294.327Z" fill="white"/>
<path d="M25.0858 184.703C25.4316 187.708 25.7749 190.71 26.1425 193.915C21.8685 192.438 21.6095 190.696 25.0858 184.703Z" fill="white"/>
<path d="M96.9688 371.84C98.8711 371.358 99.6109 372.783 99.5072 374.686C99.3386 377.755 98.891 380.81 97.8335 383.947C97.5565 380.094 97.2816 376.241 96.9688 371.84Z" fill="white"/>
<path d="M70.3702 227.504C72.1338 229.245 73.3906 230.335 74.3945 231.623C74.5727 231.851 73.6953 232.904 73.3063 233.575C71.8351 232.654 70.3088 231.803 68.966 230.722C68.7941 230.588 69.5907 229.251 70.3702 227.504Z" fill="white"/>
<path d="M234.066 381.935C234.471 385.578 232.264 387.537 229.801 389.481C228.567 386.799 230.477 383.445 234.066 381.935Z" fill="white"/>
<path d="M312.226 673.159C308.595 672.794 304.963 672.432 301.334 672.066C305.128 669.113 308.631 671.877 312.267 671.908C312.252 672.325 312.239 672.742 312.226 673.159Z" fill="white"/>
<path d="M70.7092 265.705C71.299 264.212 71.8888 262.719 72.4787 261.226C73.5305 261.86 74.5805 262.497 75.6324 263.131C74.4908 264.31 73.3493 265.488 72.2056 266.667C71.7072 266.345 71.2072 266.025 70.7092 265.705Z" fill="white"/>
<path d="M21.0423 254.299C20.648 252.17 20.2279 250.044 19.9015 247.902C19.8717 247.706 20.5186 247.161 20.7119 247.221C21.2362 247.388 22.0626 247.752 22.0981 248.11C22.3091 250.126 22.3223 252.163 22.4046 254.194C21.9524 254.227 21.4984 254.263 21.0423 254.299Z" fill="white"/>
<path d="M120.704 114.99C118.869 111.597 119.361 105.753 121.689 102.442C121.358 106.681 121.044 110.67 120.704 114.99Z" fill="white"/>
<path d="M91.1751 290.858C86.8393 290.066 82.5761 289.288 78.5488 288.551C81.4656 287.282 89.2697 288.563 91.1751 290.858Z" fill="white"/>
<path d="M88.6206 358.307C88.9636 358.099 89.3059 357.886 89.6518 357.682C92.7128 355.865 93.3499 356.238 93.7333 360.286C91.6889 360.379 89.5172 361.1 88.6825 358.203C88.6808 358.206 88.6206 358.307 88.6206 358.307Z" fill="white"/>
<path d="M180.408 99.79C183.195 99.274 185.686 98.8126 188.528 98.2863C187.108 101.135 183.081 101.694 180.408 99.79Z" fill="white"/>
<path d="M94.7383 322.722C94.5074 320.433 94.3598 318.984 94.2138 317.533C94.4136 317.345 94.6159 317.158 94.8157 316.97C95.9192 318.25 97.0245 319.528 98.128 320.809C97.0934 321.393 96.0628 321.974 94.7383 322.722Z" fill="white"/>
<path d="M231.664 259.506C228.337 258.418 229.42 255.655 228.874 253.243C229.993 253.327 230.854 253.392 231.509 253.439C231.561 255.485 231.611 257.373 231.664 259.506Z" fill="white"/>
<path d="M34.5469 342.081C35.841 342.839 36.5205 343.24 37.2022 343.64C36.3438 344.654 35.4872 345.666 34.6288 346.68C34.1131 346.181 33.128 345.623 33.1802 345.194C33.2969 344.249 33.9388 343.369 34.5469 342.081Z" fill="white"/>
<path d="M243.651 274.97C247.516 277.093 248.706 280.27 246.114 281.897C245.313 279.643 244.543 277.476 243.651 274.97Z" fill="white"/>
<path d="M100.892 362.739C99.632 361.113 98.5509 359.716 97.1729 357.936C101.309 358.361 102.355 359.674 100.892 362.739Z" fill="white"/>
<path d="M134.705 167.096C136.076 165.855 136.858 165.149 138.276 163.866C138.285 165.821 138.292 166.993 138.3 168.792C136.926 168.143 136.118 167.762 134.705 167.096Z" fill="white"/>
<path d="M242.177 273.122C242.206 269.573 242.23 266.978 242.252 264.386C242.645 264.412 243.036 264.438 243.429 264.462C241.594 266.988 245.197 269.973 242.177 273.122Z" fill="white"/>
<path d="M90.0365 270.438C88.3462 269.637 86.6539 268.836 84.964 268.037C85.1328 267.681 85.302 267.327 85.4729 266.971C87.1849 267.724 88.8945 268.476 90.6066 269.229C90.416 269.633 90.2275 270.036 90.0365 270.438Z" fill="white"/>
<path d="M69.8675 553.59C70.3007 554.449 70.8599 555.277 71.0724 556.188C71.1189 556.392 69.95 556.878 69.343 557.236C69.0392 556.235 68.735 555.232 68.4334 554.231C68.9114 554.017 69.3895 553.804 69.8675 553.59Z" fill="white"/>
<path d="M282.999 556.445C284.189 557.646 285.378 558.847 286.566 560.049C286.316 560.31 286.064 560.571 285.814 560.835C284.593 559.664 283.374 558.492 282.152 557.322C282.433 557.028 282.715 556.737 282.999 556.445Z" fill="white"/>
<path d="M242.284 76.8889C245.479 79.653 245.806 81.3734 243.671 84.1659C241.992 84.8674 240.312 85.5688 238.633 86.2703C238.508 86.0367 238.386 85.8006 238.261 85.5671C239.565 84.3979 241.353 83.4548 242.037 81.9968C242.705 80.5681 242.246 78.6133 242.284 76.8889Z" fill="white"/>
<path d="M184.285 155.944C185.607 156.189 186.928 156.433 189.227 156.858C187.758 158.021 187.012 158.611 186.266 159.203C185.813 158.438 185.352 157.679 184.907 156.908C184.71 156.568 184.54 156.209 184.355 155.861C184.353 155.862 184.285 155.944 184.285 155.944Z" fill="white"/>
</g>
</svg>
