<svg width="230" height="77" viewBox="0 0 230 77" fill="none" xmlns="http://www.w3.org/2000/svg">
<path d="M55.7752 0.0110357C55.9897 0.0583266 56.2012 0.116656 56.4173 0.152912C58.8979 0.558037 60.798 1.90267 62.2722 3.92987C62.9483 4.8615 63.4808 5.87511 63.8714 6.96753C64.0087 7.35216 63.9717 7.64221 63.6537 7.91808C63.4392 8.10409 63.2802 8.35788 63.1027 8.58488C62.9329 8.80241 62.9822 8.99158 63.1675 9.18547C63.416 9.44557 63.666 9.68675 64.0473 9.71355C64.4595 9.7435 64.6864 9.97207 64.6957 10.3961C64.7126 11.1906 64.7188 11.9851 64.7265 12.7796C64.7281 12.9845 64.6123 13.1185 64.4363 13.1863C64.0952 13.3171 63.7556 13.4574 63.4052 13.5504C62.8989 13.6844 62.7754 13.7648 62.743 14.2866C62.692 15.1441 62.6257 16.008 62.6735 16.8624C62.7106 17.5402 63.0826 18.114 63.5534 18.5995C63.6197 18.6689 63.7062 18.7177 63.7741 18.7855C63.9809 18.9952 63.981 19.1102 63.7463 19.3026C63.5997 19.4239 63.4345 19.539 63.2601 19.6021C62.4636 19.8921 61.6609 20.1396 60.795 20.0986C60.2547 20.0734 59.7129 20.1002 59.1711 20.097C58.6987 20.0939 58.6108 20.0198 58.5984 19.5327C58.5737 18.5412 58.5629 17.5497 58.5614 16.5581C58.5567 14.8194 58.5768 13.0791 58.5598 11.3404C58.5506 10.3409 58.3591 9.36832 57.9578 8.45246C57.5379 7.49403 56.8618 6.81304 55.8292 6.59551C54.1312 6.24082 52.9272 6.81304 52.2187 8.2964C51.6445 9.49916 51.3296 10.7571 51.3342 12.1002C51.345 15.2214 51.345 18.341 51.3512 21.4622C51.3512 21.6088 51.3573 21.7554 51.3542 21.9004C51.3434 22.2756 51.3018 22.3245 50.9437 22.3402C50.6581 22.3513 50.3694 22.3591 50.0839 22.3418C49.5884 22.3134 49.3599 22.6886 49.096 23.0054C49.0589 23.0496 49.0574 23.182 49.0944 23.2277C49.3121 23.5036 49.5143 23.8125 49.9233 23.8094C50.2583 23.8078 50.5917 23.8094 50.9267 23.811C51.5595 23.8141 51.5596 23.8173 51.7278 24.4541C51.9023 25.113 52.0612 25.7751 52.2588 26.4261C52.7111 27.919 53.3069 29.3534 53.9861 30.7533C54.1698 31.13 54.389 31.4894 54.6082 31.8473C55.4664 33.2534 56.3262 34.6579 57.1968 36.0577C57.3743 36.3446 57.5102 36.6016 57.345 36.9547C57.2462 37.1675 57.3018 37.3961 57.4885 37.5773C57.6954 37.776 57.8698 37.5773 58.1137 37.5222C58.3437 37.8958 58.5907 38.2694 58.8068 38.6603C58.8593 38.7565 58.8546 38.9188 58.8145 39.0276C58.7157 39.2908 58.8099 39.4674 59.0044 39.6187C59.1047 39.6975 59.2004 39.789 59.3115 39.8505C59.7499 40.0901 60.0185 40.4873 60.2948 40.8877C62.5207 44.1255 63.8405 47.7307 64.4734 51.6149C64.7358 53.2227 64.833 54.8417 64.8315 56.47C64.8299 59.0222 64.8253 61.5743 64.833 64.1249C64.8392 66.2167 64.4965 68.2329 63.6043 70.1292C63.0008 71.414 62.2536 72.6104 61.2271 73.5799C58.3946 76.2534 55.1407 76.9407 51.5102 75.5866C50.1348 75.0743 49.0219 74.1521 48.0895 73.0092C46.1816 70.6684 45.1289 67.9775 45.081 64.9241C45.0363 61.9511 45.0671 58.9749 45.0656 56.0003C45.0656 55.9199 45.078 55.8411 45.0841 55.7638C45.4253 55.6645 50.6133 55.633 51.3373 55.7307C51.3373 55.912 51.3373 56.1012 51.3373 56.2919C51.3373 58.9418 51.3357 61.5901 51.3388 64.2399C51.3404 65.233 51.3774 66.223 51.6614 67.183C51.7479 67.4778 51.8559 67.7678 51.9763 68.0484C52.9148 70.2222 55.965 70.569 57.3326 68.608C57.9593 67.7095 58.2989 66.7101 58.4487 65.6366C58.5181 65.14 58.5397 64.6324 58.5413 64.1312C58.5505 61.7414 58.5012 59.3516 58.5552 56.9634C58.654 52.5622 57.4886 48.522 55.3445 44.7466C54.8413 43.8623 54.2825 43.0111 53.7376 42.1519C52.2835 39.8615 50.8464 37.5584 49.3599 35.29C48.0926 33.3558 47.1587 31.2672 46.4394 29.0713C45.5179 26.2591 45.061 23.3696 45.0625 20.4029C45.0656 17.5749 45.064 14.7469 45.0625 11.9189C45.0625 8.2964 46.3113 5.18938 48.7919 2.60888C50.1641 1.18069 51.8405 0.345221 53.7916 0.0961558C53.9151 0.0803922 54.034 0.0331036 54.1544 0C54.6931 0.0110345 55.2333 0.0110357 55.7752 0.0110357ZM55.8956 34.9149C55.664 34.8912 55.5235 34.9984 55.4973 35.2191C55.4711 35.4461 55.6192 35.651 55.8276 35.6715C56.0561 35.6936 56.3648 35.5029 56.3972 35.32C56.4312 35.1245 56.2105 34.9464 55.8956 34.9149ZM61.7427 12.7197C61.6887 12.7638 61.5359 12.8332 61.4788 12.9498C61.4062 13.0964 61.6548 13.3297 61.8693 13.3486C62.0746 13.366 62.3478 13.2005 62.3648 13.0507C62.3802 12.8931 62.1564 12.7559 61.7427 12.7197ZM53.9398 31.1946C53.8055 31.1411 53.7268 31.0859 53.6512 31.089C53.6126 31.0906 53.5802 31.201 53.5447 31.2624C53.6064 31.2971 53.6697 31.3633 53.7283 31.3586C53.7854 31.3539 53.8379 31.2782 53.9398 31.1946Z" fill="#177FFF"/>
<path d="M100.507 0.670898C100.695 0.685086 100.885 0.711885 101.073 0.711885C104.13 0.715038 107.184 0.71504 110.241 0.713463C111.428 0.713463 112.589 0.863216 113.703 1.30302C115.403 1.97455 116.741 3.12214 117.809 4.60549C119.513 6.97319 120.359 9.63568 120.342 12.5756C120.333 14.4278 120.299 16.28 120.276 18.1323C120.274 18.2615 120.268 18.3924 120.253 18.5216C120.199 18.9425 119.973 19.0923 119.584 18.9252C119.279 18.7928 118.979 18.6288 118.706 18.4365C118.207 18.0865 117.733 18.1023 117.252 18.4491C117.201 18.4869 117.135 18.5058 117.087 18.5468C116.695 18.8826 116.23 19.0261 115.734 19.108C115.29 19.1805 115.143 19.3161 115.117 19.7701C115.069 20.6276 115.009 21.4899 115.046 22.3459C115.078 23.1057 115.489 23.7236 116.026 24.2359C116.364 24.5575 116.381 24.6726 116.015 24.9406C115.551 25.2811 114.992 25.3709 114.455 25.5096C114.273 25.5569 114.151 25.4387 114.121 25.248C114.104 25.136 114.097 25.021 114.097 24.9075C114.101 23.1845 114.106 21.4615 114.115 19.7386C114.115 19.6093 114.146 19.4801 114.151 19.3508C114.16 19.1002 114.254 18.9236 114.497 18.8243C114.602 18.7817 114.68 18.6714 114.819 18.5468C114.663 18.4475 114.569 18.3608 114.459 18.323C114.243 18.2505 114.163 18.0913 114.14 17.8848C114.12 17.7082 114.106 17.5285 114.104 17.3504C114.092 15.7252 114.083 14.0999 114.077 12.4747C114.074 11.6109 114.024 10.747 113.779 9.91783C113.629 9.41024 113.427 8.90424 113.16 8.45024C112.689 7.64945 111.946 7.1655 111.045 7.12136C109.682 7.05673 108.314 7.10402 106.877 7.10402C106.873 16.4329 106.873 25.7524 106.873 35.1396C107.072 35.1396 107.242 35.1381 107.41 35.1396C108.444 35.1522 109.478 35.1586 110.512 35.1853C110.982 35.1964 111.065 35.2862 111.085 35.7639C111.107 36.251 111.094 36.7396 111.104 37.2267C111.118 37.9629 111.272 38.13 111.984 38.2277C112.425 38.2876 112.846 38.3554 113.186 38.7322C113.35 38.9119 113.663 38.9828 113.922 39.0317C114.219 39.0868 114.416 38.8236 114.297 38.5367C114.202 38.3034 114.024 38.1048 113.893 37.8857C113.763 37.6681 113.612 37.4553 113.532 37.2173C113.439 36.9414 113.539 36.6955 113.731 36.459C114.095 36.0098 114.413 35.5243 114.762 35.0624C114.941 34.8259 114.902 34.6242 114.736 34.4035C114.444 34.0173 114.129 33.6878 113.597 33.7241C113.538 33.7288 113.476 33.6957 113.388 33.672C113.405 33.568 113.408 33.4734 113.436 33.3883C113.587 32.9264 113.754 32.4708 113.898 32.0058C113.97 31.7709 114.094 31.7 114.325 31.7504C114.869 31.8687 115.417 31.9664 115.96 32.0862C116.372 32.1776 116.781 32.6821 116.834 33.1235C116.888 33.5743 116.942 34.0251 117.008 34.4744C117.088 35.0119 117.534 35.2626 117.885 35.5794C117.931 35.6204 118.15 35.5558 118.201 35.4801C118.406 35.1743 118.624 34.8622 118.748 34.5201C118.917 34.0504 119.004 33.5491 119.129 33.062C119.279 32.4772 119.621 32.0216 120.094 31.5487C120.108 31.7221 120.134 31.8261 120.12 31.9239C119.668 34.93 118.337 37.4679 116.111 39.4762C114.564 40.8713 112.718 41.5476 110.636 41.5145C109.554 41.4971 108.472 41.5129 107.39 41.516C107.234 41.516 107.078 41.5412 106.877 41.557C106.877 53.003 106.877 64.419 106.877 75.8855C106.644 75.8965 106.459 75.9107 106.272 75.9107C104.537 75.9122 102.802 75.9107 101.067 75.9138C100.879 75.9138 100.69 75.9438 100.501 75.9595C100.507 50.867 100.507 25.7682 100.507 0.670898ZM119.205 14.3742C119.177 14.2402 119.161 14.1441 119.138 14.0495C119.03 13.6254 118.9 13.2077 118.817 12.7789C118.74 12.3817 118.484 12.1295 118.22 11.8694C118.05 11.7023 117.875 11.7054 117.71 11.8504C116.903 12.5519 116.154 13.3149 115.467 14.1393C115.305 14.3332 115.349 14.5161 115.518 14.6974C115.775 14.9717 116.04 15.2034 116.424 15.2806C116.829 15.361 117.229 15.4714 117.621 15.6006C117.937 15.7047 118.183 15.6053 118.403 15.3973C118.729 15.0946 119.076 14.8046 119.205 14.3742ZM103.074 29.3528C103.074 29.3528 103.074 29.3544 103.074 29.3528C103.312 29.3544 103.549 29.3418 103.787 29.3575C104.171 29.3843 104.412 29.1605 104.61 28.8767C104.667 28.7963 104.707 28.6403 104.668 28.5646C104.511 28.2604 104.301 27.9483 103.951 27.9167C103.384 27.8679 102.811 27.8884 102.242 27.9073C101.99 27.9152 101.535 28.3613 101.487 28.5851C101.445 28.7806 101.66 29.1116 101.95 29.2614C102.058 29.3181 102.191 29.3433 102.313 29.3497C102.566 29.3623 102.819 29.3528 103.074 29.3528ZM110.031 39.5219C110.25 39.3296 110.485 39.142 110.699 38.9324C110.837 38.7968 110.798 38.6423 110.633 38.5257C110.378 38.3475 110.003 38.3948 109.81 38.6313C109.592 38.8993 109.656 39.1925 110.031 39.5219ZM108.751 40.8413C108.742 40.6585 108.487 40.4662 108.263 40.4772C108.044 40.4867 107.839 40.6727 107.848 40.8539C107.857 41.0447 108.07 41.2291 108.274 41.2228C108.503 41.2149 108.759 41.01 108.751 40.8413ZM106.268 36.779C106.161 36.7113 106.095 36.6545 106.019 36.6309C105.997 36.6246 105.906 36.7349 105.917 36.7554C105.956 36.8295 106.022 36.8894 106.079 36.954C106.129 36.9067 106.18 36.8594 106.268 36.779Z" fill="#177FFF"/>
<path d="M0 55.7026C2.09776 55.7026 4.19708 55.7026 6.34424 55.7026C6.3535 55.9359 6.36583 56.1251 6.36583 56.3158C6.36738 58.9972 6.37046 61.6786 6.36583 64.36C6.36429 65.2932 6.46619 66.2075 6.77491 67.0902C6.98484 67.6908 7.27503 68.2457 7.65321 68.7565C8.95293 70.5078 11.7592 70.1799 12.7456 68.4128C13.1469 67.6924 13.3692 66.9184 13.4602 66.1082C13.5266 65.5123 13.556 64.9101 13.5637 64.3095C13.5838 62.8309 13.5807 61.3523 13.5868 59.8737C13.5884 59.4764 13.6316 59.1123 13.9666 58.8206C14.2104 58.6078 14.2243 58.2468 13.9805 57.9852C13.6223 57.6005 13.5853 57.1497 13.5915 56.6736C13.6069 55.2612 13.6347 53.8488 13.6455 52.4348C13.6486 52.0139 13.5946 51.5914 13.593 51.1706C13.5868 50.0324 13.5915 48.8959 13.5976 47.7577C13.5992 47.5859 13.6316 47.4157 13.6578 47.165C13.8215 47.2927 13.9218 47.3621 14.0129 47.4425C14.2521 47.6553 14.4929 47.8681 14.7245 48.0904C14.8742 48.2338 15.0394 48.3757 15.1474 48.5491C15.5287 49.1654 16.0396 49.6384 16.6139 50.0608C16.8824 50.2579 17.1217 50.5053 17.344 50.756C17.6774 51.1296 18.0818 51.3566 18.5464 51.5126C18.8505 51.6151 19.1037 51.5883 19.3445 51.3771C19.4402 51.2935 19.5436 51.2194 19.7134 51.0886C19.7535 51.2982 19.8045 51.4606 19.8138 51.6246C19.8338 51.9982 19.84 52.3717 19.8415 52.7453C19.8462 56.6941 19.8631 60.6429 19.8462 64.5917C19.8338 67.4497 19.0558 70.0727 17.3718 72.3805C16.0134 74.2422 14.2768 75.5742 12.0139 76.0203C8.37099 76.7392 5.26834 75.7728 2.90199 72.7525C1.37536 70.8042 0.455349 68.5878 0.1775 66.1003C0.152802 65.8812 0.0617458 65.6715 0.00154511 65.4571C1.50746e-06 62.2035 0 58.9531 0 55.7026ZM16.2249 52.1747C16.1801 51.9887 16.1631 51.8421 16.1106 51.7081C15.9239 51.2368 15.1706 50.8647 14.8124 51.1122C14.4914 51.3329 14.2073 51.6277 13.9619 51.9367C13.7504 52.2015 13.789 52.5341 14.0051 52.7832C14.2135 53.0244 14.4482 53.2435 14.6813 53.4642C14.8541 53.6265 15.0532 53.6581 15.2369 53.491C15.5086 53.245 15.7896 53.0039 16.0211 52.7217C16.1415 52.572 16.1662 52.3402 16.2249 52.1747Z" fill="#177FFF"/>
<path d="M144.782 0.748711C146.835 0.748711 148.832 0.748711 150.884 0.748711C153.315 13.9634 155.743 27.1717 158.173 40.3785C158.202 40.3801 158.23 40.3816 158.259 40.3832C158.265 40.3028 158.276 40.224 158.278 40.1436C158.281 40.0458 158.279 39.9481 158.279 39.8504C158.279 31.7227 158.278 23.5949 158.282 15.4688C158.282 14.2818 158.316 13.0963 158.319 11.9093C158.319 11.5767 158.369 11.3308 158.707 11.1622C159.011 11.0108 158.997 10.7823 158.684 10.6357C158.38 10.4938 158.323 10.281 158.321 9.9783C158.312 7.4908 158.293 5.00489 158.279 2.51739C158.276 2.04605 158.278 1.57473 158.281 1.10339C158.282 0.993047 158.299 0.882692 158.31 0.758159C158.403 0.742395 158.478 0.71875 158.556 0.71875C160.004 0.732937 161.451 0.758165 162.899 0.764471C163.279 0.766047 163.572 0.857468 163.762 1.22949C163.847 1.39501 163.991 1.56526 164.15 1.64565C164.429 1.78752 164.489 2.00507 164.488 2.28093C164.485 2.7964 164.488 3.31345 164.488 3.8242C163.807 3.81316 163.193 3.78951 162.578 3.79424C161.891 3.79896 161.251 4.46263 161.243 5.16726C161.237 5.83406 161.242 6.50085 161.251 7.16608C161.252 7.32687 161.275 7.49082 161.311 7.64845C161.407 8.07565 161.56 8.21121 161.99 8.27584C162.226 8.3121 162.466 8.33575 162.696 8.39407C162.845 8.4319 163.018 8.49022 163.117 8.60056C163.466 8.98993 163.906 9.12708 164.465 9.13969C164.583 10.8642 164.591 12.5698 164.471 14.277C163.765 14.1919 163.12 14.1178 162.476 14.0374C162.162 13.998 161.871 14.0564 161.617 14.2487C161.279 14.5041 161.249 14.9754 161.561 15.2607C161.851 15.5255 162.171 15.7163 162.589 15.6958C163.19 15.6674 163.792 15.6706 164.434 15.6595C164.448 15.721 164.485 15.825 164.491 15.9307C164.517 16.3846 164.549 16.8402 164.549 17.2942C164.553 27.3719 164.553 37.4496 164.549 47.5273C164.549 48.0144 164.526 48.5015 164.495 48.9886C164.465 49.4977 164.434 49.5182 163.915 49.5245C163.58 49.5292 163.247 49.5403 162.912 49.5229C162.48 49.5009 162.253 49.8004 162.026 50.092C161.982 50.1472 161.986 50.3001 162.029 50.3553C162.304 50.6895 162.564 51.0473 163.078 50.9984C163.395 50.9685 163.714 50.9858 164.032 50.9969C164.421 51.0095 164.458 51.0441 164.491 51.454C164.52 51.8102 164.545 52.1681 164.545 52.5243C164.551 60.1634 164.554 67.804 164.556 75.4431C164.556 75.5723 164.545 75.7 164.534 75.8987C162.526 75.9207 160.53 75.9381 158.475 75.8734C157.599 71.4801 156.835 67.0884 156.018 62.7076C155.197 58.3049 154.402 53.8974 153.59 49.4914C152.783 45.1076 151.971 40.7253 151.162 36.3414C151.128 36.3445 151.095 36.3477 151.061 36.3509C151.061 49.5135 151.061 62.6761 151.061 75.8514C150.924 75.8782 150.833 75.9113 150.745 75.9097C148.979 75.864 147.213 75.823 145.449 75.7615C144.89 75.7426 144.842 75.689 144.839 75.1278C144.828 73.1447 144.841 71.1617 144.835 69.1802C144.831 68.124 144.79 67.0679 144.79 66.0117C144.788 52.8948 144.791 39.7763 144.791 26.6594C144.791 18.2558 144.787 9.8522 144.784 1.44861C144.782 1.22949 144.782 1.00566 144.782 0.748711ZM148.91 68.6931C148.945 68.1461 148.297 67.4635 147.706 67.484C147.232 67.4998 146.761 67.6101 146.287 67.6511C145.853 67.6889 145.566 67.9617 145.273 68.236C145.102 68.3952 145.092 68.578 145.256 68.7467C145.458 68.9532 145.653 69.1739 145.884 69.3394C146.307 69.6405 146.662 69.9967 146.992 70.4003C147.202 70.6572 147.485 70.8527 147.746 71.0624C147.888 71.1759 148.039 71.1522 148.178 71.0261C148.457 70.7739 148.694 70.5012 148.734 70.0961C148.783 69.6247 148.851 69.1597 148.91 68.6931ZM160.468 8.47762C160.15 8.4792 159.974 8.60215 159.869 8.82284C159.775 9.01831 159.854 9.33358 160.021 9.49279C160.132 9.59841 160.24 9.60944 160.351 9.49437C160.507 9.33358 160.667 9.17909 160.819 9.01515C160.973 8.84805 160.954 8.69199 160.758 8.58165C160.652 8.52017 160.524 8.49654 160.468 8.47762ZM160.163 12.264C159.775 12.5714 159.709 12.9671 160.021 13.1768C160.118 13.2414 160.298 13.2556 160.403 13.2067C160.484 13.1689 160.559 12.9876 160.541 12.8883C160.499 12.6376 160.416 12.387 160.163 12.264ZM148.406 10.7633C148.372 10.7665 148.337 10.7696 148.303 10.7728C148.308 10.8406 148.312 10.9099 148.317 10.9777C148.342 10.9777 148.368 10.9777 148.393 10.9777C148.397 10.9068 148.402 10.8343 148.406 10.7633ZM158.813 62.4066C158.796 62.3829 158.779 62.3608 158.762 62.3372C158.744 62.3719 158.721 62.405 158.71 62.4412C158.708 62.4491 158.752 62.4696 158.773 62.4854C158.787 62.4586 158.801 62.4318 158.813 62.4066Z" fill="#177FFF"/>
<path d="M28.9349 0.626804C28.9349 0.858529 28.9349 1.03666 28.9349 1.21478C28.9287 10.7723 28.918 20.3313 28.918 29.8888C28.918 41.3647 28.9303 52.8406 28.9349 64.3166C28.9349 65.3317 29.0291 66.3375 29.4181 67.277C29.6388 67.8098 29.9136 68.3363 30.2485 68.8013C31.5081 70.5511 34.2279 70.1838 35.2251 68.6011C35.6558 67.917 35.9151 67.1682 36.0016 66.3706C36.088 65.5808 36.1374 64.7832 36.139 63.9887C36.1467 46.19 36.1451 28.3897 36.1451 10.591C36.1451 7.46979 36.1451 4.34859 36.1451 1.2274C36.1451 1.03666 36.1451 0.844339 36.1451 0.623648C38.2444 0.623648 40.2912 0.623648 42.3689 0.623648C42.3859 0.722959 42.4106 0.828572 42.4183 0.935765C42.4276 1.06503 42.4214 1.19587 42.4214 1.32513C42.4214 22.2781 42.4183 43.2311 42.4261 64.1826C42.4261 66.0222 42.1961 67.8113 41.5354 69.5296C40.7744 71.5079 39.6213 73.193 37.9295 74.462C36.0926 75.8398 34.0288 76.3773 31.7674 76.2102C29.1094 76.0147 27.0239 74.7631 25.4047 72.6413C23.5987 70.2768 22.6725 67.5875 22.6633 64.5987C22.6463 58.6007 22.6725 52.6026 22.6787 46.6046C22.6818 43.9547 22.6771 41.3048 22.6756 38.6565C22.6756 38.4611 22.6802 38.2672 22.6802 38.0717C22.6818 37.6918 22.7296 37.3686 23.2035 37.293C23.3733 37.2662 23.5308 37.1007 23.6759 36.9761C24.2717 36.4686 24.3056 36.0161 23.7716 35.4518C23.5416 35.209 23.2807 34.9883 23.0059 34.7992C22.83 34.6778 22.7219 34.5501 22.7096 34.3373C22.7003 34.1907 22.6833 34.0457 22.6833 33.8991C22.6771 30.9734 22.6725 28.0476 22.6679 25.1219C22.6633 21.7737 22.6571 18.4255 22.6555 15.0773C22.654 10.4601 22.6555 5.84456 22.6555 1.2274C22.6555 1.03508 22.6555 0.844337 22.6555 0.62207C24.7595 0.626799 26.8186 0.626804 28.9349 0.626804ZM26.1147 40.2014C26.0607 40.0201 26.0592 39.8814 25.9913 39.812C25.6903 39.503 25.3754 39.2098 25.0543 38.9245C24.9941 38.8725 24.8644 38.8536 24.7857 38.8804C24.3072 39.0364 23.9321 39.3564 23.7592 39.8262C23.6172 40.2124 23.8457 40.5434 24.1312 40.8083C24.213 40.8839 24.2887 40.9691 24.3689 41.0479C24.8567 41.5239 24.9802 41.5318 25.4958 41.0983C25.593 41.0163 25.6887 40.9249 25.7582 40.8177C25.8925 40.6065 26.0098 40.3842 26.1147 40.2014Z" fill="#177FFF"/>
<path d="M178.848 33.4699C178.606 33.2255 178.389 33.3028 178.195 33.4794C177.923 33.7268 177.662 33.9838 177.4 34.2392C177.159 34.474 176.914 34.7058 176.685 34.9564C176.438 35.2275 176.207 35.5129 175.977 35.7998C175.878 35.9227 175.852 36.0709 175.96 36.2033C176.164 36.4524 176.363 36.7077 176.701 36.785C176.996 36.8528 177.29 36.9268 177.579 37.0167C177.892 37.1129 177.948 37.1633 177.857 37.4597C177.649 38.1407 177.733 38.7933 177.917 39.4601C178.041 39.9093 178.005 39.9077 177.629 40.1505C177.207 40.4216 176.775 40.6376 176.262 40.6802C175.917 40.7085 175.701 40.9245 175.68 41.2839C175.626 42.2061 175.563 43.133 175.599 44.0552C175.62 44.6258 175.927 45.1334 176.313 45.5637C176.483 45.7529 176.665 45.9326 176.846 46.1233C176.716 46.4418 176.5 46.6168 176.224 46.7208C175.46 47.0093 174.696 47.2457 173.856 47.2095C173.192 47.1795 172.522 47.252 171.857 47.2977C171.395 47.3293 171.215 47.5358 171.179 48.0118C171.173 48.0922 171.175 48.1742 171.175 48.2562C171.181 48.9324 171.365 49.1468 172.022 49.1452C172.533 49.1437 172.985 49.3391 173.453 49.4905C173.641 49.5519 173.745 49.6749 173.76 49.8767C173.773 50.039 173.802 50.1998 173.802 50.3622C173.811 51.5965 173.817 52.8308 173.82 54.0651C173.82 54.3567 173.819 54.6515 173.788 54.9415C173.748 55.3167 173.709 55.3356 173.343 55.3451C173.217 55.3482 173.084 55.3876 172.964 55.3624C172.629 55.2899 172.365 55.4129 172.146 55.6462C171.869 55.9394 171.588 56.2404 171.579 56.685C171.57 57.1563 171.567 57.6276 171.579 58.099C171.588 58.4221 171.632 58.7453 171.658 59.0684C171.695 59.5177 171.848 59.7084 172.281 59.8046C172.53 59.8598 172.788 59.8677 173.035 59.9244C173.612 60.0552 173.74 60.1593 173.757 60.7646C173.797 62.2085 173.807 63.6557 173.802 65.1012C173.8 65.5757 173.674 65.6576 173.203 65.6229C173.029 65.6103 172.857 65.5615 172.684 65.5489C172.175 65.5158 171.749 65.8562 171.703 66.3339C171.693 66.4253 171.696 66.5593 171.75 66.6066C172.067 66.8888 172.346 67.2498 172.839 67.2135C173.013 67.2009 173.189 67.2119 173.363 67.2088C173.612 67.2025 173.754 67.3159 173.779 67.5729C173.793 67.7179 173.816 67.8645 173.817 68.0096C173.827 70.5617 173.834 73.1123 173.84 75.6644C173.84 75.7274 173.825 75.7921 173.813 75.8898C171.747 75.8898 169.687 75.8898 167.561 75.8898C167.561 74.0785 167.56 72.2815 167.561 70.4845C167.563 68.6811 167.564 66.8762 167.567 65.0728C167.57 63.2694 167.581 61.4645 167.58 59.6611C167.578 57.8578 167.564 56.0529 167.561 54.2495C167.558 52.4461 167.563 50.6412 167.563 48.8378C167.563 47.0345 167.561 45.2296 167.561 43.4262C167.561 41.6055 167.564 39.7848 167.564 37.9657C167.564 36.1623 167.561 34.3574 167.561 32.554C167.561 30.7507 167.561 28.9457 167.561 27.1424C167.561 25.339 167.56 23.5341 167.561 21.7307C167.563 19.9274 167.566 18.1224 167.569 16.3191C167.572 14.5157 167.519 12.7108 167.594 10.9106C167.668 9.11351 167.479 7.31489 167.632 5.53833C167.722 5.51626 167.76 5.4926 167.779 5.50364C168.2 5.76058 168.267 5.7669 168.537 5.35389C168.719 5.07487 168.864 4.76117 168.969 4.44275C169.105 4.02816 169.191 3.59625 169.288 3.16748C169.376 2.77654 169.552 2.43131 169.816 2.14284C170.174 1.7519 170.548 1.37358 170.929 1.00471C171.026 0.911705 171.175 0.826576 171.303 0.821847C172.098 0.791897 172.893 0.784025 173.688 0.77299C173.715 0.77299 173.743 0.799784 173.84 0.847075C173.783 9.81815 173.884 18.8223 173.836 27.8265C173.87 27.8312 173.904 27.836 173.939 27.8391C174.01 27.5806 174.084 27.3221 174.152 27.062C175.364 22.4527 176.574 17.8434 177.787 13.2341C177.862 12.952 177.967 12.6777 178.027 12.3924C178.104 12.0361 178.317 11.8722 178.658 11.8469C178.706 11.8438 178.752 11.8249 178.799 11.8217C179.229 11.7996 179.455 11.5868 179.523 11.1376C179.55 10.9516 179.705 10.7608 179.848 10.6237C180.268 10.2217 180.518 9.72515 180.716 9.18604C180.805 8.94012 180.767 8.75726 180.585 8.57283C180.355 8.33953 180.109 8.15666 179.8 8.03686C179.291 7.83824 179.24 7.7405 179.379 7.1872C179.711 5.86621 180.06 4.54995 180.402 3.23211C180.578 2.55743 180.754 1.88431 180.932 1.20963C180.969 1.07248 181.014 0.936915 181.055 0.795042C181.157 0.782431 181.236 0.765101 181.313 0.765101C182.634 0.772982 183.954 0.77928 185.276 0.79662C185.495 0.799773 185.714 0.862834 185.935 0.88175C186.055 0.891208 186.18 0.865981 186.302 0.856523C186.694 0.823419 187.086 0.791893 187.48 0.758789C187.484 1.3452 179.191 32.7936 178.848 33.4699ZM170.861 59.9874C170.563 59.978 170.318 60.1514 170.233 60.3752C170.162 60.5628 170.258 60.9175 170.412 61.042C170.536 61.1398 170.648 61.113 170.75 61.0074C170.905 60.845 171.059 60.6826 171.209 60.5171C171.329 60.3847 171.321 60.2444 171.178 60.1451C171.062 60.0631 170.926 60.0174 170.861 59.9874ZM179.978 12.2174C179.922 12.2647 179.837 12.3135 179.788 12.386C179.62 12.6367 179.685 12.9504 179.925 13.1648C180.081 13.3051 180.208 13.2751 180.328 13.1238C180.504 12.9015 180.361 12.3482 180.101 12.2426C180.07 12.2315 180.038 12.23 179.978 12.2174ZM168.821 62.7934C169.085 62.7934 169.325 62.6294 169.322 62.4529C169.319 62.2905 169.012 62.0651 168.784 62.0588C168.578 62.0525 168.361 62.2574 168.376 62.4419C168.395 62.6263 168.603 62.7934 168.821 62.7934ZM170.607 63.7424C170.304 63.8732 170.208 64.1081 170.222 64.3414C170.232 64.4848 170.377 64.6456 170.502 64.7433C170.559 64.7875 170.736 64.7292 170.823 64.6661C170.972 64.5573 170.963 64.3902 170.88 64.2326C170.793 64.0687 170.701 63.9094 170.607 63.7424ZM170.988 46.3961C170.969 46.3188 170.968 46.2321 170.931 46.1659C170.843 46.0146 170.746 45.8333 170.534 45.9137C170.36 45.9783 170.335 46.147 170.374 46.3204C170.401 46.4449 170.418 46.5789 170.475 46.6908C170.52 46.7775 170.624 46.8942 170.695 46.8895C170.773 46.8847 170.86 46.7665 170.912 46.6782C170.959 46.5978 170.963 46.4938 170.988 46.3961ZM170.982 50.017C170.954 49.9082 170.948 49.8026 170.901 49.7238C170.849 49.6355 170.759 49.5709 170.685 49.4968C170.613 49.5709 170.519 49.6339 170.475 49.7222C170.421 49.8357 170.38 49.9713 170.387 50.0942C170.394 50.2077 170.441 50.3606 170.523 50.4174C170.67 50.5198 170.79 50.3906 170.874 50.2708C170.928 50.1951 170.949 50.0973 170.982 50.017ZM174.764 40.4768C174.884 40.4548 174.961 40.4642 175.004 40.4295C175.095 40.357 175.251 40.2293 175.233 40.182C175.19 40.0686 175.077 39.9535 174.966 39.9062C174.801 39.8368 174.588 39.7438 174.452 39.9456C174.399 40.0244 174.407 40.2073 174.464 40.2845C174.535 40.3854 174.685 40.4295 174.764 40.4768ZM168.112 8.50504C167.999 8.70839 167.888 8.8219 167.893 8.93067C167.896 9.00791 168.05 9.08198 168.138 9.15607C168.213 9.06149 168.333 8.97323 168.344 8.87234C168.351 8.78879 168.233 8.68789 168.112 8.50504ZM182.391 2.73871C182.222 2.61891 182.116 2.48965 182.046 2.50699C181.955 2.53063 181.863 2.66303 181.833 2.76707C181.821 2.81279 181.965 2.96413 182.031 2.96098C182.127 2.95625 182.218 2.85221 182.391 2.73871ZM182.346 14.9413C182.233 14.8278 182.144 14.6828 182.091 14.697C181.991 14.7222 181.863 14.8215 181.836 14.9177C181.795 15.069 181.924 15.1667 182.065 15.1463C182.151 15.1321 182.225 15.0312 182.346 14.9413ZM168.199 12.5847C168.095 12.7171 167.987 12.7959 167.987 12.8747C167.986 12.9535 168.092 13.0339 168.152 13.1143C168.226 13.0481 168.351 12.9914 168.362 12.9157C168.373 12.8337 168.279 12.7376 168.199 12.5847ZM170.559 42.4173C170.653 42.3133 170.766 42.2392 170.755 42.1919C170.732 42.0879 170.647 41.9964 170.588 41.9003C170.519 41.9712 170.403 42.0374 170.395 42.1162C170.386 42.1966 170.483 42.2881 170.559 42.4173ZM170.596 38.3377C170.776 38.1895 170.841 38.0587 170.673 37.9215C170.634 37.89 170.508 37.9089 170.471 37.9499C170.321 38.1202 170.435 38.2258 170.596 38.3377ZM170.384 17.0332C170.292 16.9433 170.233 16.8424 170.168 16.8377C170.108 16.833 169.992 16.9291 169.988 16.9859C169.983 17.0489 170.069 17.1656 170.131 17.1766C170.193 17.1892 170.273 17.1009 170.384 17.0332ZM178.34 17.0079C178.261 16.9244 178.209 16.8267 178.166 16.8298C178.087 16.8377 178.014 16.9071 177.94 16.9512C177.99 17.0221 178.03 17.1388 178.088 17.1498C178.15 17.164 178.232 17.0742 178.34 17.0079ZM184.09 10.6394C184.011 10.7309 183.925 10.7876 183.931 10.8317C183.94 10.9074 184.01 10.9736 184.053 11.0446C184.107 11.002 184.206 10.9594 184.206 10.9169C184.206 10.8412 184.147 10.7655 184.09 10.6394ZM176.34 23.0864C176.236 23.0076 176.17 22.9587 176.103 22.9083C176.065 22.9666 175.992 23.0296 175.998 23.0832C176.005 23.1384 176.085 23.2156 176.14 23.2251C176.188 23.2314 176.247 23.1542 176.34 23.0864ZM172.351 10.9815C172.329 10.9437 172.309 10.9058 172.288 10.868C172.227 10.8365 172.166 10.7829 172.104 10.7813C172.07 10.7813 171.997 10.8964 172.008 10.9121C172.045 10.9673 172.109 11.0241 172.169 11.0367C172.224 11.0509 172.291 11.0036 172.351 10.9815Z" fill="#177FFF"/>
<path d="M217.043 75.8824C217.043 75.6586 217.043 75.4804 217.043 75.3039C217.046 62.5464 217.049 49.7873 217.054 37.0298C217.054 36.6893 217.054 36.3472 217.069 36.0067C217.088 35.5575 217.063 35.0909 217.484 34.7378C217.112 34.4966 217.103 34.1325 217.088 33.7778C217.068 33.3396 217.057 32.9013 217.057 32.4615C217.051 24.2376 217.048 16.0137 217.045 7.78985C217.045 7.59596 217.045 7.40208 217.045 7.13883C216.464 7.1341 215.915 7.12778 215.365 7.12463C214.808 7.12305 214.251 7.12463 213.693 7.12463C213.136 7.12463 212.579 7.12463 212.022 7.12463C211.469 7.12463 210.916 7.12463 210.331 7.12463C210.331 4.98078 210.331 2.89368 210.331 0.809731C210.672 0.694656 229.417 0.663118 230 0.778192C230 2.86214 230 4.95241 230 7.1136C229.45 7.11676 228.901 7.12305 228.351 7.12463C227.794 7.12621 227.237 7.12463 226.68 7.12463C226.138 7.12463 225.598 7.12463 225.056 7.12463C224.502 7.12463 223.949 7.12463 223.325 7.12463C223.324 14.8062 223.321 22.4374 223.321 30.0686C223.321 37.6903 223.322 45.3136 223.324 52.9353C223.324 60.5728 223.324 68.2087 223.324 75.8824C221.231 75.8824 219.17 75.8824 217.043 75.8824ZM219.193 39.0964C219.238 39.0744 219.281 39.0507 219.326 39.0286C219.366 38.9404 219.44 38.8505 219.432 38.767C219.428 38.7086 219.311 38.6598 219.244 38.6077C219.19 38.6881 219.102 38.7638 219.091 38.8505C219.082 38.9262 219.156 39.0145 219.193 39.0964Z" fill="#177FFF"/>
<path d="M135.721 65.7213C135.557 65.0262 135.547 32.5042 135.706 30.983C135.784 30.8286 136.146 30.9358 136.061 30.641C136.033 30.5448 135.857 30.4928 135.682 30.3777C135.666 29.7945 135.63 29.1308 135.628 28.4688C135.618 19.4157 135.611 10.3611 135.605 1.30802C135.605 1.13304 135.605 0.95808 135.605 0.75C137.717 0.75 139.776 0.75 141.88 0.75C141.88 0.956503 141.88 1.13304 141.88 1.3096C141.88 22.2941 141.875 43.2787 141.888 64.2632C141.889 65.9404 141.635 67.5625 141.15 69.1531C140.783 70.359 140.21 71.4609 139.466 72.4682C139.352 72.6227 139.225 72.7708 139.091 72.9096C138.722 73.2926 138.27 73.3194 137.857 72.9852C137.563 72.7456 137.38 72.4477 137.3 72.0552C137.076 70.9533 136.967 69.8483 136.981 68.7196C136.99 68.0276 136.897 67.3229 136.763 66.6419C136.658 66.1013 136.329 65.6993 135.721 65.7213ZM137.927 34.9854C137.995 34.8546 138.075 34.7663 138.07 34.6828C138.067 34.6229 137.955 34.5677 137.89 34.5109C137.831 34.5898 137.74 34.6623 137.726 34.749C137.719 34.801 137.828 34.8735 137.927 34.9854Z" fill="#177FFF"/>
<path d="M73.4247 32.2894C73.4047 32.0545 73.3785 31.8969 73.3785 31.7408C73.3754 28.979 73.3738 26.2157 73.38 23.4539C73.38 23.2363 73.309 22.9605 73.556 22.8375C73.8076 22.713 73.9511 22.9636 74.1271 23.0881C74.5454 23.3845 74.956 23.6966 75.3975 23.952C75.592 24.0639 75.8513 24.0923 76.0829 24.0954C77.006 24.1112 77.929 24.1017 78.8521 24.1033C78.9787 24.1033 79.1068 24.1049 79.2334 24.1112C79.4217 24.1207 79.5328 24.2263 79.5313 24.4186C79.5297 25.1485 79.5375 25.8799 79.5035 26.6097C79.4958 26.78 79.3337 26.9424 79.2241 27.141C79.5683 27.4184 79.5606 27.833 79.5606 28.2334C79.5544 31.6778 79.5467 35.1221 79.5205 38.5665C79.5189 38.8171 79.3599 39.0677 79.2581 39.3641C79.539 39.5895 79.5544 39.96 79.5606 40.3351C79.5776 41.4244 79.6146 42.5121 79.6162 43.5998C79.6208 53.2865 79.6193 62.9717 79.6177 72.6585C79.6177 73.568 79.5961 74.4776 79.5791 75.3887C79.5776 75.4975 79.5482 75.6062 79.5282 75.745C77.4798 75.745 75.4515 75.745 73.3615 75.745C73.3306 66.4019 73.3321 57.0808 73.3537 47.7929C73.5266 47.6684 73.647 47.5817 73.8153 47.4619C73.6517 47.3405 73.5313 47.2506 73.3738 47.134C73.3368 42.862 73.3152 38.5633 73.3862 34.1337C73.5915 34.2945 73.7057 34.3639 73.7983 34.4584C74.283 34.9503 74.7584 35.4547 75.2493 35.9418C75.3805 36.0726 75.5565 36.2445 75.7124 36.2445C76.0381 36.2445 76.3731 36.1735 76.6849 36.0695C76.7991 36.0317 76.8979 35.8283 76.9334 35.6833C77.0275 35.3034 77.2298 35.0023 77.503 34.7454C77.8179 34.449 77.9908 34.0707 78.142 33.6734C78.2701 33.3392 78.2007 33.046 77.9321 32.8458C77.6543 32.6377 77.3486 32.4517 77.0322 32.3146C76.6833 32.1633 76.3113 32.0419 75.9393 31.9741C75.6167 31.9142 75.2756 31.9126 74.9499 31.9473C74.6041 31.9851 74.266 32.0955 73.9249 32.1743C73.7844 32.2074 73.6486 32.2373 73.4247 32.2894ZM74.868 28.1751C74.868 28.4021 74.8804 28.6306 74.8649 28.8561C74.8372 29.2596 75.007 29.5812 75.2447 29.876C75.4669 30.1518 75.6167 30.177 75.8173 29.9043C76.0134 29.6379 76.2032 29.3321 76.2773 29.0153C76.3977 28.4982 76.4379 27.9591 76.4796 27.4263C76.4919 27.2655 76.4333 27.0685 76.3422 26.9345C76.2079 26.7374 76.0242 26.5719 75.8452 26.4127C75.629 26.222 75.4994 26.2251 75.3188 26.449C75.0656 26.7627 74.8387 27.0968 74.868 27.5398C74.8788 27.7526 74.868 27.9638 74.868 28.1751ZM77.4536 36.6007C77.3872 36.6433 77.3285 36.6669 77.2869 36.7111C77.1171 36.8908 77.131 37.3479 77.3131 37.5087C77.4397 37.6206 77.5848 37.679 77.7423 37.5733C77.8951 37.4709 77.9383 37.3227 77.8673 37.154C77.8055 37.0074 77.733 36.864 77.6465 36.7316C77.6095 36.6717 77.5246 36.6464 77.4536 36.6007ZM77.6357 75.2957C77.7376 75.1775 77.804 75.1002 77.8703 75.0246C77.7854 74.9505 77.7083 74.8449 77.611 74.8165C77.5678 74.8039 77.432 74.9489 77.4289 75.0277C77.4258 75.1018 77.5416 75.1806 77.6357 75.2957ZM75.5318 41.1738C75.4762 41.2715 75.4006 41.3503 75.4176 41.3881C75.4484 41.4607 75.5318 41.5111 75.592 41.571C75.6414 41.5064 75.7371 41.4354 75.7294 41.3787C75.7201 41.3125 75.6213 41.2605 75.5318 41.1738Z" fill="#177FFF"/>
<path d="M129.875 76.0406C129.11 75.9302 128.502 75.7095 127.92 75.41C126.986 74.9292 126.154 74.305 125.479 73.4868C124.048 71.7513 122.94 69.8391 122.452 67.5928C122.248 66.6517 122.119 65.7043 122.117 64.7443C122.113 57.4473 122.091 50.1504 122.133 42.8534C122.156 38.8904 122.049 34.9258 122.131 30.9629C122.137 30.6539 122.154 30.3449 122.188 30.0391C122.227 29.7002 122.273 29.6592 122.611 29.645C122.929 29.6324 123.249 29.6324 123.565 29.6435C124.033 29.6608 124.444 29.5047 124.814 29.2336C125.137 28.9971 125.451 28.7497 125.749 28.4833C125.941 28.313 126.104 28.2988 126.299 28.4517C126.89 28.9168 127.475 29.3912 128.177 29.6844C128.256 29.7175 128.34 29.8578 128.341 29.9509C128.355 30.5798 128.349 31.2088 128.349 31.7779C128.108 31.8504 127.9 31.8535 127.781 31.9623C127.506 32.2098 127.264 32.5124 127.25 32.9113C127.231 33.4788 127.231 34.0494 127.248 34.6169C127.259 34.9984 127.497 35.2742 127.734 35.5406C127.918 35.7471 128.082 35.5249 128.252 35.5028C128.352 35.7708 128.411 36.9278 128.35 37.1832C128.296 37.4149 128.125 37.4291 127.944 37.4323C127.185 37.4417 126.473 37.6861 125.757 37.902C125.583 37.954 125.397 38.0597 125.279 38.1968C124.987 38.5357 125.005 38.9077 125.334 39.2388C126.138 40.0474 126.957 40.8404 127.77 41.6411C127.793 41.6632 127.815 41.6947 127.843 41.7026C128.358 41.8555 128.361 42.267 128.361 42.7083C128.366 47.6329 128.381 52.5559 128.391 57.4805C128.395 59.8702 128.389 62.2584 128.389 64.6482C128.389 65.4978 128.448 66.3475 128.756 67.1388C128.985 67.7221 129.27 68.2911 129.599 68.8224C129.984 69.4419 130.55 69.8612 131.257 70.0614C131.345 70.0866 131.427 70.1339 131.592 70.208C131.134 70.5454 130.72 70.8244 130.235 70.9804C130.159 71.0057 130.081 71.0214 130.004 71.0403C129.19 71.2295 129.164 71.2721 129.144 72.0996C129.13 72.6829 129.094 73.2662 129.059 73.8494C129.016 74.5667 129.25 75.1893 129.661 75.7536C129.712 75.8151 129.757 75.8782 129.875 76.0406ZM128.813 70.5296C128.533 70.2647 128.33 70.1702 128.134 70.2427C128.042 70.2774 127.924 70.3625 127.903 70.4476C127.881 70.5296 127.944 70.6652 128.012 70.7361C128.241 70.9725 128.503 70.9048 128.813 70.5296ZM124.371 36.8238C124.204 36.7182 124.098 36.5984 124.017 36.6141C123.933 36.6299 123.804 36.7844 123.815 36.8616C123.828 36.9515 123.963 37.0792 124.055 37.0886C124.13 37.0949 124.221 36.9562 124.371 36.8238ZM124.178 68.143C124.135 68.1651 124.09 68.1887 124.047 68.2108C124.005 68.3022 123.931 68.3968 123.934 68.4866C123.937 68.5544 124.042 68.6159 124.102 68.6821C124.167 68.5875 124.263 68.4992 124.286 68.3952C124.303 68.3227 124.218 68.2265 124.178 68.143ZM128.201 46.9062C128.094 46.8353 128.02 46.7454 127.957 46.7549C127.892 46.7643 127.841 46.8684 127.784 46.9299C127.847 46.9882 127.907 47.0922 127.972 47.0938C128.035 47.097 128.1 46.9945 128.201 46.9062ZM126.194 52.9988C126.084 52.9295 126.015 52.8586 125.939 52.8507C125.901 52.846 125.848 52.9516 125.802 53.0067C125.867 53.0603 125.925 53.1376 125.999 53.1549C126.04 53.1659 126.103 53.0745 126.194 52.9988Z" fill="#177FFF"/>
<path d="M208.235 75.8825C206.139 75.8825 204.078 75.8825 201.986 75.8825C201.974 75.7438 201.954 75.6192 201.954 75.4963C201.957 67.8572 201.962 60.2182 201.965 52.5791C201.966 47.6073 201.962 42.6338 201.966 37.662C201.966 36.9968 201.994 36.33 202.017 35.6647C202.028 35.3558 202.073 35.0626 202.216 34.7725C202.289 34.6275 202.224 34.4021 202.196 34.2176C202.17 34.0442 202.074 33.8771 202.068 33.7053C202.028 32.7154 201.999 31.7238 201.98 30.7323C201.976 30.4958 202.028 30.2594 202.056 30.0024C202.559 30.0166 202.951 30.1774 203.306 30.4296C203.544 30.5983 203.578 30.7496 203.459 31.0208C203.396 31.1658 203.285 31.2888 203.195 31.4212C202.987 31.7286 202.766 32.0265 202.576 32.3449C202.488 32.4915 202.436 32.676 202.419 32.8478C202.368 33.3585 202.517 33.6029 203.019 33.6454C203.762 33.7085 204.516 33.7636 205.253 33.6864C205.819 33.6281 206.298 33.2356 206.75 32.8699C206.787 32.8399 206.818 32.8005 206.855 32.7705C207.045 32.6176 207.179 32.2992 207.485 32.449C207.829 32.6176 208.169 32.8289 208.186 33.2923C208.206 33.7952 208.226 34.2996 208.226 34.8025C208.226 36.7855 208.218 38.7686 208.213 40.7517C208.21 41.6187 208.209 41.6187 207.408 41.8646C207.255 41.9119 207.096 41.9418 206.954 42.0112C206.387 42.287 206.268 42.8624 206.702 43.3211C207.022 43.6585 207.371 43.9706 207.724 44.2701C208.088 44.5775 208.21 44.959 208.209 45.4287C208.203 46.518 208.232 47.6057 208.233 48.6949C208.238 57.5525 208.238 66.4101 208.24 75.2677C208.235 75.4616 208.235 75.6539 208.235 75.8825ZM204.79 45.9363C204.706 45.6352 204.666 45.1876 204.459 44.8471C204.328 44.6327 203.955 44.5554 203.675 44.4577C203.224 44.2985 202.761 44.7115 202.854 45.186C202.985 45.8575 203.195 46.477 203.993 46.5921C204.009 46.5937 204.023 46.6047 204.036 46.6094C204.445 46.7544 204.793 46.4943 204.79 45.9363ZM205.361 41.2939C205.486 41.1205 205.591 41.0338 205.612 40.9314C205.646 40.7627 205.521 40.6397 205.369 40.6571C205.279 40.6665 205.137 40.8037 205.137 40.8841C205.139 40.9944 205.25 41.1032 205.361 41.2939ZM207.256 56.7707C207.205 56.8952 207.145 56.9709 207.156 57.0339C207.17 57.1111 207.244 57.1758 207.292 57.2467C207.357 57.1978 207.471 57.149 207.472 57.097C207.474 57.0292 207.388 56.9583 207.256 56.7707Z" fill="#177FFF"/>
<path d="M66.5989 0.62207C73.1932 0.62207 79.7427 0.62207 86.3216 0.62207C86.3216 2.75016 86.3216 4.85303 86.3216 7.00634C84.0926 7.00634 81.8883 7.00634 79.6424 7.00634C79.6316 7.22703 79.6192 7.39886 79.6146 7.57226C79.5945 8.27058 79.5698 8.96891 79.5606 9.66724C79.5559 10.003 79.4371 10.2379 79.1608 10.4381C78.5557 10.8763 78.5449 10.9866 79.1129 11.4974C79.4309 11.7827 79.559 12.0948 79.5575 12.511C79.5544 14.2166 79.576 15.9222 79.5621 17.6294C79.5575 18.2442 79.4865 18.2836 78.8752 18.2411C78.5588 18.219 78.2408 18.1796 77.9305 18.115C77.6511 18.0566 77.4304 18.1307 77.2344 18.3278C77.1665 18.3956 77.097 18.4633 77.0306 18.5327C76.5629 19.0151 76.5629 19.127 77.0136 19.6094C77.2174 19.8269 77.4504 19.9766 77.7437 20.0397C78.2099 20.1406 78.6761 20.2494 79.1376 20.3723C79.4849 20.4637 79.5081 20.5095 79.5312 20.8783C79.5328 20.9114 79.5328 20.943 79.5343 20.9761C79.5513 21.6176 79.4849 21.6901 78.8505 21.7548C77.8379 21.8572 76.8268 21.9644 75.8158 22.0669C75.3619 22.1126 75.115 21.9897 74.9483 21.5703C74.8618 21.3512 74.8078 21.099 74.8155 20.8641C74.8325 20.3455 74.9421 19.8285 74.9328 19.313C74.9236 18.8306 74.8078 18.3514 74.7368 17.8706C74.7244 17.7902 74.6905 17.713 74.6843 17.6326C74.6149 16.8854 74.2043 16.3888 73.593 16.02C73.4911 15.9585 73.4031 15.8009 73.3892 15.6763C73.3522 15.3548 73.3522 15.0284 73.3506 14.7021C73.3445 12.3612 73.3429 10.0219 73.3399 7.68102C73.3399 7.48713 73.3399 7.29481 73.3399 7.04575C73.1438 7.03313 72.9771 7.01579 72.8104 7.01422C71.1556 7.00791 69.4993 7.00634 67.8446 7.00003C67.5745 6.99846 67.3028 6.99845 67.0342 6.97481C66.6792 6.9417 66.6298 6.89126 66.6159 6.52081C66.5958 5.96909 66.5866 5.41579 66.585 4.86407C66.5789 3.56357 66.5804 2.26307 66.5804 0.96257C66.5788 0.867988 66.5896 0.771825 66.5989 0.62207ZM75.9408 10.8873C75.7756 10.8085 75.6753 10.7187 75.5981 10.736C75.5256 10.7518 75.4762 10.8826 75.4175 10.9614C75.4901 11.0071 75.5688 11.097 75.6352 11.0891C75.7185 11.0765 75.7957 10.9882 75.9408 10.8873ZM77.5508 15.2633C77.7113 15.1467 77.8425 15.0332 77.6727 14.8487C77.6326 14.8062 77.4721 14.8046 77.432 14.8487C77.2591 15.0332 77.3918 15.1451 77.5508 15.2633Z" fill="#177FFF"/>
<path d="M13.5667 0.62207C15.6969 0.62207 17.7452 0.62207 19.8199 0.62207C19.8307 0.771825 19.8477 0.897932 19.8477 1.02404C19.8446 7.10407 19.8399 13.1825 19.8338 19.2626C19.8338 19.3272 19.8322 19.3918 19.8322 19.458C19.8183 20.0523 19.8816 20.2935 19.1005 20.3487C18.3596 20.4007 17.8024 20.9367 17.2976 21.4584C17.0985 21.6649 17.0321 22.0007 17.1741 22.2829C17.3254 22.5824 17.5153 22.8693 17.7345 23.1199C17.8996 23.3091 18.1296 23.4462 18.3488 23.5755C18.7131 23.7899 19.0434 24.0342 19.2425 24.4267C19.2642 24.4693 19.2889 24.5166 19.3244 24.5465C19.7874 24.9264 19.826 25.4561 19.826 26.0015C19.826 26.7172 19.8353 27.4313 19.826 28.1469C19.8245 28.3519 19.7766 28.5552 19.7442 28.8059C19.4123 28.6813 19.1376 28.5631 18.8551 28.4748C18.5973 28.3944 18.3272 28.3519 18.0648 28.2857C17.9259 28.251 17.7823 28.2226 17.6557 28.158C17.3378 27.9972 17.2976 27.7844 17.5338 27.5101C17.878 27.1097 18.1034 26.6525 18.1976 26.1276C18.3488 25.2937 17.8225 24.6348 16.9982 24.6253C16.9503 24.6253 16.9024 24.6269 16.8561 24.6364C16.1553 24.7735 15.6166 25.6405 15.805 26.3452C15.9238 26.7897 16.1322 27.1854 16.4579 27.518C16.7342 27.7986 16.7311 27.9751 16.4116 28.1879C15.8358 28.571 15.3882 29.0565 15.0918 29.6902C15.081 29.7138 15.0409 29.7249 14.9729 29.769C14.9251 29.6303 14.8665 29.5042 14.8371 29.3718C14.7569 28.9903 14.6827 28.6072 14.6179 28.2242C14.5191 27.6346 14.3509 27.086 13.8646 26.6951C13.6624 26.5327 13.5914 26.3057 13.5945 26.0472C13.6115 24.6994 13.63 23.3501 13.6377 22.0023C13.6393 21.6775 13.6007 21.3544 13.5961 21.0297C13.5822 19.9404 13.5667 18.8511 13.5667 17.7634C13.5637 12.2525 13.5652 6.74309 13.5652 1.23212C13.5667 1.03823 13.5667 0.845914 13.5667 0.62207ZM15.064 23.1436C15.6383 23.0285 16.1291 22.8236 16.5196 22.4058C16.8515 22.0527 16.8623 21.8415 16.5088 21.5057C16.3251 21.3307 16.1029 21.1968 15.8914 21.0533C14.9807 20.4338 14.8973 20.4149 14.0576 21.3055C13.772 21.6082 13.7427 21.9976 14.0066 22.3207C14.2166 22.5792 14.4821 22.7936 14.7399 23.008C14.8294 23.0868 14.9668 23.1057 15.064 23.1436Z" fill="#177FFF"/>
<path d="M201.951 0.799517C202.339 0.695477 207.63 0.674989 208.169 0.764842C208.311 1.38435 208.251 25.788 208.095 26.2278C208.014 26.1727 207.922 26.1348 207.866 26.067C207.595 25.7344 207.238 25.5925 206.83 25.5279C206.423 25.4633 206.019 25.3703 205.614 25.2789C205.099 25.1606 204.768 24.8217 204.654 24.3094C204.458 23.4235 204.302 22.536 204.305 21.6138C204.308 20.7247 204.177 19.8372 204.112 18.9466C204.078 18.4816 203.799 18.1773 203.475 17.9062C203.411 17.8526 203.296 17.8227 203.215 17.8384C202.811 17.9204 202.42 18.4264 202.4 18.8599C202.374 19.4432 202.354 20.028 202.306 20.6081C202.283 20.8887 202.201 21.1646 202.099 21.4341C201.889 14.5486 201.974 7.66931 201.951 0.799517Z" fill="#177FFF"/>
<path d="M187.541 75.8762C185.377 75.8762 183.235 75.8762 181.06 75.8762C181.027 75.8005 180.97 75.7044 180.944 75.6003C180.072 72.1938 179.212 68.7826 178.332 65.3776C177.766 63.1817 177.164 60.9953 176.593 58.801C176.173 57.1853 175.779 55.5632 175.376 53.9442C175.353 53.8528 175.349 53.7582 175.339 53.6857C175.381 53.6368 175.401 53.5927 175.423 53.5911C175.917 53.5486 176.394 53.5754 176.83 53.867C177.205 54.1176 177.414 54.4282 177.397 54.9121C177.385 55.2495 177.451 55.5916 177.505 55.9273C177.587 56.4428 177.926 56.788 178.295 57.1049C178.479 57.2609 178.653 57.2057 178.789 57.0245C179.032 56.7029 179.266 56.3813 179.356 55.9667C179.465 55.4591 179.6 54.9578 179.746 54.4613C179.81 54.2485 179.891 54.0136 180.036 53.8591C180.439 53.4256 180.881 53.0284 181.347 52.5791C181.41 52.743 181.491 52.9117 181.54 53.0883C181.984 54.7309 182.428 56.3734 182.864 58.0176C183.983 62.2312 185.101 66.4448 186.216 70.66C186.646 72.2884 187.066 73.9199 187.491 75.5515C187.515 75.6397 187.521 75.7359 187.541 75.8762ZM178.791 60.4073C178.661 60.2907 178.567 60.1472 178.497 60.1583C178.403 60.1725 178.246 60.3254 178.26 60.3853C178.284 60.4972 178.413 60.5839 178.499 60.6816C178.581 60.6044 178.663 60.5287 178.791 60.4073ZM178.823 64.4554C178.7 64.353 178.629 64.2552 178.545 64.2395C178.499 64.23 178.374 64.3609 178.379 64.4192C178.385 64.5075 178.476 64.5894 178.53 64.6746C178.61 64.6162 178.69 64.5563 178.823 64.4554ZM180.754 68.483C180.645 68.4153 180.564 68.3254 180.507 68.3396C180.442 68.3554 180.398 68.461 180.344 68.5288C180.41 68.5824 180.475 68.6785 180.543 68.6785C180.601 68.6801 180.662 68.5745 180.754 68.483ZM182.486 62.6694C182.57 62.5701 182.667 62.5055 182.668 62.4393C182.67 62.3778 182.571 62.2659 182.514 62.2627C182.452 62.2611 182.343 62.3541 182.335 62.4172C182.327 62.4818 182.415 62.5606 182.486 62.6694ZM186.28 74.5962C186.358 74.664 186.413 74.7396 186.441 74.7302C186.501 74.7113 186.557 74.6545 186.591 74.5978C186.6 74.582 186.52 74.4748 186.489 74.478C186.429 74.4827 186.373 74.5394 186.28 74.5962Z" fill="#177FFF"/>
<path d="M128.33 16.6972C128.339 16.8532 128.358 17.0093 128.358 17.167C128.361 20.4001 128.363 23.6348 128.363 26.8679C128.363 27.0145 128.364 27.1627 128.338 27.3045C128.279 27.6261 128.066 27.738 127.774 27.5962C127.384 27.407 127.226 27.0602 127.23 26.6425C127.233 26.1396 127.274 25.6367 127.284 25.1339C127.29 24.8123 127.294 24.4876 127.253 24.1707C127.197 23.753 127.112 23.3384 127.013 22.9286C126.83 22.1751 126.394 21.6612 125.626 21.4941C125.206 21.4026 124.783 21.3238 124.363 21.234C123.777 21.1079 123.409 20.7516 123.284 20.1447C123.077 19.1421 122.928 18.1411 122.943 17.1055C122.954 16.3315 122.836 15.5528 122.736 14.7819C122.707 14.5565 122.574 14.3263 122.434 14.1419C122.29 13.9512 122.197 13.762 122.185 13.5271C122.165 13.1378 122.125 12.7484 122.123 12.3591C122.116 8.62149 122.114 4.88394 122.112 1.14638C122.112 1.03288 122.123 0.920961 122.128 0.812192C122.469 0.690812 127.853 0.665582 128.369 0.783809C128.376 0.889425 128.393 0.999764 128.393 1.11169C128.387 5.85654 128.38 10.6014 128.37 15.3463C128.37 15.5417 128.361 15.7356 128.356 15.9311C128.352 16.1155 128.292 16.2495 128.08 16.2448C127.921 16.2416 127.771 16.2936 127.788 16.4812C127.808 16.7035 127.978 16.7019 128.151 16.6657C128.191 16.6578 128.239 16.6798 128.33 16.6972Z" fill="#177FFF"/>
<path d="M19.7488 38.8846C19.7812 39.2172 19.826 39.4568 19.8245 39.6964C19.809 41.6448 19.7828 43.5932 19.7674 45.5415C19.7612 46.3691 19.7735 47.1967 19.772 48.0259C19.772 48.2939 19.7504 48.5634 19.735 48.9134C19.3491 48.5871 18.994 48.3664 18.7903 47.9928C18.5587 47.5672 18.3472 47.1289 18.1419 46.6907C18.0046 46.3975 18.0447 46.0933 18.1219 45.7859C18.216 45.4091 18.2994 45.0276 18.3689 44.6462C18.4429 44.2379 18.3195 43.8816 18.0586 43.5648C17.6017 43.0099 17.0383 42.6536 16.3375 42.5039C16.1137 42.4566 15.9037 42.3273 15.6953 42.2186C15.6336 42.1855 15.5996 42.0972 15.5425 42.02C15.5873 41.9427 15.612 41.8592 15.6675 41.8119C16.126 41.4036 16.3004 40.8519 16.4254 40.2733C16.5289 39.7973 16.6168 39.3181 16.7372 38.8467C16.9348 38.0696 16.7975 37.3996 16.1831 36.8637C16.0149 36.7155 15.842 36.5736 15.6768 36.4207C15.4916 36.2489 15.4962 36.0944 15.6953 35.9431C15.7694 35.8863 15.862 35.8485 15.9516 35.8248C16.6616 35.6467 17.3717 35.6924 18.0802 35.8374C18.2948 35.8816 18.4445 36.0235 18.551 36.2804C18.463 36.3687 18.3642 36.4649 18.2701 36.5642C17.9521 36.9015 17.6171 37.2247 17.3238 37.5841C17.0522 37.9167 17.1077 38.3754 17.4149 38.6781C17.7792 39.039 18.2299 39.2471 18.71 39.3732C18.8582 39.4126 19.0511 39.3449 19.2024 39.2755C19.3675 39.1951 19.5096 39.0595 19.7488 38.8846Z" fill="#177FFF"/>
<path d="M180.974 51.3121C180.756 51.2901 180.6 51.2869 180.45 51.2569C179.858 51.1371 179.268 51.0079 178.675 50.8865C178.149 50.7777 177.784 50.3442 177.778 49.7988C177.774 49.3606 177.8 48.9192 177.772 48.4826C177.735 47.9009 178.11 47.6092 178.495 47.4548C178.951 47.2688 179.435 47.4012 179.902 47.4469C179.984 47.4548 180.081 47.6219 180.12 47.7338C180.239 48.0869 180.342 48.4447 180.433 48.8057C180.611 49.5135 180.774 50.2244 180.941 50.9354C180.961 51.0268 180.958 51.1245 180.974 51.3121Z" fill="#177FFF"/>
</svg>
