<svg width="77" height="34" viewBox="0 0 77 34" fill="none" xmlns="http://www.w3.org/2000/svg">
<path d="M29.235 0.435439L19.1537 24.2826H12.5769L7.61578 5.25032C7.315 4.08089 7.05362 3.65053 6.13834 3.15603C4.64226 2.35018 2.17164 1.59651 0 1.12767L0.14648 0.435439H10.7352C12.0827 0.435439 13.296 1.32511 13.6046 2.86554L16.2259 16.6663L22.6976 0.435439H29.235ZM38.1261 0.435439L32.9819 24.2826H26.7593L31.9042 0.435439H38.1264H38.1261ZM55.0048 16.4966C55.0306 10.2039 46.2298 9.85463 46.2872 7.04307C46.3083 6.1883 47.1294 5.27835 48.9269 5.04572C49.8172 4.93149 52.277 4.84053 55.0631 6.11344L56.1532 1.0534C54.6562 0.516561 52.7297 0 50.3333 0C44.1824 0 39.8556 3.23954 39.821 7.88203C39.7807 11.316 42.9116 13.2299 45.2661 14.3736C47.6913 15.5416 48.5046 16.2923 48.4935 17.3361C48.476 18.9362 46.5564 19.6445 44.7719 19.6708C41.6426 19.72 39.8286 18.8321 38.3815 18.1638L37.2521 23.3914C38.7078 24.0529 41.3908 24.6276 44.1697 24.6569C50.7087 24.6569 54.9855 21.4546 55.0048 16.4969V16.4966ZM71.247 24.2826H77L71.9739 0.435439H66.6661C65.4689 0.435439 64.4628 1.12439 64.0165 2.18346L54.6802 24.2826H61.2141L62.5102 20.7203H70.4929L71.2473 24.2826H71.247ZM64.3019 15.8336L67.578 6.87814L69.46 15.8336H64.3016H64.3019ZM46.0896 30.8466H43.5612V33.1798H46.3892V33.8813H42.7094V27.4088H46.2442V28.1102H43.5612V30.1553H46.0893V30.8472L46.0896 30.8466ZM47.6955 27.0631H48.5473V33.881H47.6955V27.0631ZM50.6967 31.7107C50.7159 32.8538 51.4426 33.3242 52.3041 33.3242C52.9146 33.3242 53.2921 33.2186 53.6025 33.0844L53.7571 33.6895C53.457 33.8237 52.9342 33.9869 52.188 33.9869C50.7454 33.9869 49.8837 33.0364 49.8837 31.634C49.8837 30.2323 50.7159 29.1371 52.0818 29.1371C53.6218 29.1371 54.0188 30.4628 54.0188 31.3173C54.0188 31.49 54.0089 31.6146 53.9893 31.711H50.6967V31.7107ZM53.1953 31.1058C53.2052 30.5779 52.9727 29.7422 52.0138 29.7422C51.1421 29.7422 50.774 30.5201 50.706 31.1058H53.1953ZM58.6557 33.7179C58.4331 33.8237 57.9389 33.9872 57.3097 33.9872C55.8957 33.9872 54.9756 33.0364 54.9756 31.6149C54.9756 30.1839 55.9631 29.1374 57.4934 29.1374C57.9969 29.1374 58.4424 29.2618 58.6749 29.387L58.4818 30.0304C58.2776 29.9248 57.9581 29.8091 57.4934 29.8091C56.4181 29.8091 55.8376 30.6063 55.8376 31.5672C55.8376 32.6424 56.5348 33.3051 57.4646 33.3051C57.9488 33.3051 58.2682 33.19 58.5104 33.0844L58.6557 33.7179ZM61.0463 28.1192V29.2331H62.2662V29.8762H61.0463V32.3829C61.0463 32.9597 61.2111 33.2857 61.6854 33.2857C61.9176 33.2857 62.0536 33.2669 62.1796 33.2278L62.2184 33.8721C62.0536 33.9293 61.7922 33.9869 61.4628 33.9869C61.0655 33.9869 60.7458 33.8524 60.5428 33.632C60.3102 33.3722 60.2134 32.9597 60.2134 32.4121V29.8762H59.4867V29.2331H60.2134V28.3691L61.0466 28.1195L61.0463 28.1192ZM63.4564 30.6835C63.4564 30.1359 63.4462 29.6656 63.4176 29.2331H64.1636L64.2027 30.1547H64.2309C64.4445 29.5311 64.9669 29.1371 65.5381 29.1371C65.6257 29.1371 65.6936 29.1469 65.7712 29.1562V29.9537C65.684 29.934 65.5971 29.934 65.4801 29.934C64.8803 29.934 64.4535 30.3757 64.3377 31.0101C64.3177 31.1404 64.308 31.272 64.3085 31.4038V33.8816H63.4564V30.6835ZM71.0093 31.5186C71.0093 33.2377 69.7984 33.9869 68.6753 33.9869C67.4159 33.9869 66.4284 33.0647 66.4284 31.5958C66.4284 30.0494 67.4646 29.1374 68.7529 29.1374C70.0989 29.1374 71.0093 30.1067 71.0093 31.5189V31.5186ZM67.2998 31.5669C67.2998 32.5848 67.8809 33.3534 68.7138 33.3534C69.5277 33.3534 70.1374 32.5941 70.1374 31.5475C70.1374 30.7602 69.7403 29.7706 68.733 29.7706C67.7359 29.7706 67.2998 30.6931 67.2998 31.5669ZM72.3153 30.4911C72.3153 30.0017 72.3051 29.6173 72.2762 29.2334H73.0318L73.0802 30.0017H73.0995C73.332 29.5693 73.8743 29.1374 74.6491 29.1374C75.2976 29.1374 76.3052 29.5215 76.3052 31.1151V33.8813H75.4531V31.2019C75.4531 30.4533 75.1722 29.8284 74.3685 29.8284C73.8162 29.8284 73.3801 30.2224 73.2258 30.6928C73.1867 30.7986 73.1674 30.9424 73.1674 31.0867V33.8813H72.3153V30.4911Z" fill="#1A1F71"/>
</svg>
