<svg width="27" height="19" viewBox="0 0 27 19" fill="none" xmlns="http://www.w3.org/2000/svg">
<path d="M25.0882 2.33807C24.3962 1.10715 23.6452 0.88074 22.1161 0.794639C20.5886 0.691 16.7476 0.647949 13.42 0.647949C10.086 0.647949 6.24332 0.691 4.71743 0.793045C3.19153 0.88074 2.43895 1.10556 1.74058 2.33807C1.02786 3.5674 0.661133 5.68483 0.661133 9.41267C0.661133 9.41586 0.661133 9.41745 0.661133 9.41745C0.661133 9.42064 0.661133 9.42223 0.661133 9.42223V9.42542C0.661133 13.1373 1.02786 15.2707 1.74058 16.4873C2.43895 17.7182 3.18994 17.9414 4.71583 18.045C6.24332 18.1343 10.086 18.187 13.42 18.187C16.7476 18.187 20.5886 18.1343 22.1177 18.0466C23.6468 17.943 24.3978 17.7198 25.0898 16.4889C25.8089 15.2723 26.1724 13.1389 26.1724 9.42702C26.1724 9.42702 26.1724 9.42224 26.1724 9.41905C26.1724 9.41905 26.1724 9.41586 26.1724 9.41426C26.1724 5.68483 25.8089 3.5674 25.0882 2.33807ZM10.2279 14.2008V4.63409L18.2001 9.41745L10.2279 14.2008Z" fill="white"/>
</svg>
